?xml version="1.0" encoding="UTF-8"?>
<svg xmlns="http://www.w3.org/2000/svg" xmlns:xlink="http://www.w3.org/1999/xlink" viewBox="0 0 1920 282.66">
  <defs>
    <linearGradient id="Degradado_sin_nombre" data-name="Degradado sin nombre" x1="785.98" y1="204.2" x2="1615.16" y2="204.2" gradientTransform="translate(0 284) scale(1 -1)" gradientUnits="userSpaceOnUse">
      <stop offset="0" stop-color="#38b731"/>
      <stop offset="1" stop-color="#8bde45"/>
    </linearGradient>
    <linearGradient id="Degradado_sin_nombre_2" data-name="Degradado sin nombre 2" x1="785.98" y1="204.22" x2="1615.15" y2="204.22" gradientTransform="translate(0 284) scale(1 -1)" gradientUnits="userSpaceOnUse">
      <stop offset="0" stop-color="#38b731"/>
      <stop offset="1" stop-color="#8bde45"/>
    </linearGradient>
    <linearGradient id="Degradado_sin_nombre_3" data-name="Degradado sin nombre 3" x1="1353.71" y1="118.14" x2="1116.71" y2="264.2" gradientTransform="translate(0 284) scale(1 -1)" gradientUnits="userSpaceOnUse">
      <stop offset="0" stop-color="#38b731"/>
      <stop offset="1" stop-color="#8bde45"/>
    </linearGradient>
    <linearGradient id="Degradado_sin_nombre_4" data-name="Degradado sin nombre 4" x1="785.98" y1="202.37" x2="1615.15" y2="202.37" gradientTransform="translate(0 284) scale(1 -1)" gradientUnits="userSpaceOnUse">
      <stop offset="0" stop-color="#38b731"/>
      <stop offset="1" stop-color="#8bde45"/>
    </linearGradient>
    <linearGradient id="Degradado_sin_nombre_5" data-name="Degradado sin nombre 5" x1="1070.83" y1="195.65" x2="981.43" y2="187.81" gradientTransform="translate(0 284) scale(1 -1)" gradientUnits="userSpaceOnUse">
      <stop offset="0" stop-color="#38b731"/>
      <stop offset="1" stop-color="#8bde45"/>
    </linearGradient>
    <linearGradient id="Degradado_sin_nombre_6" data-name="Degradado sin nombre 6" x1="1339.74" y1="20.13" x2="1572.85" y2="204.16" gradientTransform="translate(0 284) scale(1 -1)" gradientUnits="userSpaceOnUse">
      <stop offset="0" stop-color="#38b731"/>
      <stop offset="1" stop-color="#c9de45"/>
    </linearGradient>
    <linearGradient id="Degradado_sin_nombre_7" data-name="Degradado sin nombre 7" x1="817.71" y1="196.92" x2="440.94" y2="-18.37" gradientTransform="translate(0 284) scale(1 -1)" gradientUnits="userSpaceOnUse">
      <stop offset="0" stop-color="#38b731"/>
      <stop offset="1" stop-color="#8bde45"/>
    </linearGradient>
    <linearGradient id="Degradado_sin_nombre_8" data-name="Degradado sin nombre 8" x1="1012.16" y1="65.53" x2="759.65" y2="245.44" gradientTransform="translate(0 284) scale(1 -1)" gradientUnits="userSpaceOnUse">
      <stop offset="0" stop-color="#38b731"/>
      <stop offset="1" stop-color="#8bde45"/>
    </linearGradient>
    <linearGradient id="Degradado_sin_nombre_9" data-name="Degradado sin nombre 9" x1="175.71" y1="128.18" x2="-187.69" y2="-65.63" gradientTransform="translate(0 284) scale(1 -1)" gradientUnits="userSpaceOnUse">
      <stop offset="0" stop-color="#38b731"/>
      <stop offset="1" stop-color="#8bde45"/>
    </linearGradient>
    <linearGradient id="Degradado_sin_nombre_10" data-name="Degradado sin nombre 10" x1="348.95" y1="79.1" x2="186.04" y2="179.35" gradientTransform="translate(0 284) scale(1 -1)" gradientUnits="userSpaceOnUse">
      <stop offset="0" stop-color="#38b731"/>
      <stop offset="1" stop-color="#8bde45"/>
    </linearGradient>
    <linearGradient id="Degradado_sin_nombre_11" data-name="Degradado sin nombre 11" x1="1747.74" y1="170.79" x2="1378.4" y2="-42.52" gradientTransform="translate(0 284) scale(1 -1)" gradientUnits="userSpaceOnUse">
      <stop offset="0" stop-color="#38b731"/>
      <stop offset="1" stop-color="#8bde45"/>
    </linearGradient>
    <linearGradient id="Degradado_sin_nombre_12" data-name="Degradado sin nombre 12" x1="1907.57" y1="73.51" x2="1688.48" y2="223.04" gradientTransform="translate(0 284) scale(1 -1)" gradientUnits="userSpaceOnUse">
      <stop offset="0" stop-color="#38b731"/>
      <stop offset="1" stop-color="#8bde45"/>
    </linearGradient>
    <linearGradient id="Degradado_sin_nombre_13" data-name="Degradado sin nombre 13" x1="706.06" y1="73.71" x2="706.65" y2="130.35" gradientTransform="translate(0 284) scale(1 -1)" gradientUnits="userSpaceOnUse">
      <stop offset="0" stop-color="#38b731"/>
      <stop offset="1" stop-color="#a6de45"/>
    </linearGradient>
    <linearGradient id="Degradado_sin_nombre_14" data-name="Degradado sin nombre 14" x1="940.66" y1="-111.21" x2="967.51" y2="76.75" gradientTransform="translate(0 284) scale(1 -1)" gradientUnits="userSpaceOnUse">
      <stop offset="0" stop-color="#38b731"/>
      <stop offset="1" stop-color="#94de45"/>
    </linearGradient>
    <linearGradient id="Degradado_sin_nombre_15" data-name="Degradado sin nombre 15" x1="1067.75" y1="-233.18" x2="841.65" y2="260.32" gradientTransform="translate(0 284) scale(1 -1)" gradientUnits="userSpaceOnUse">
      <stop offset="0" stop-color="#38b731"/>
      <stop offset="1" stop-color="#8bde45"/>
    </linearGradient>
    <radialGradient id="radial-gradient" cx="617.93" cy="-584.66" fx="617.93" fy="-584.66" r="30.25" gradientTransform="translate(-1636.4 366.42) scale(3.19 .24)" gradientUnits="userSpaceOnUse">
      <stop offset="0" stop-color="#757575"/>
      <stop offset="1" stop-color="#fff"/>
    </radialGradient>
    <linearGradient id="linear-gradient" x1="366.32" y1="153.97" x2="364.75" y2="128.72" gradientUnits="userSpaceOnUse">
      <stop offset="0" stop-color="#197711"/>
      <stop offset="1" stop-color="#7cdf29"/>
    </linearGradient>
    <linearGradient id="linear-gradient-2" x1="298.26" y1="164.89" x2="296.68" y2="139.65" xlink:href="#linear-gradient"/>
    <linearGradient id="linear-gradient-3" x1="339.86" y1="136.33" x2="336.49" y2="82.55" xlink:href="#linear-gradient"/>
    <linearGradient id="linear-gradient-4" x1="341.16" y1="136.24" x2="337.8" y2="82.47" xlink:href="#linear-gradient"/>
    <linearGradient id="linear-gradient-5" x1="337.92" y1="118.79" x2="361.87" y2="188.95" gradientUnits="userSpaceOnUse">
      <stop offset="0" stop-color="#bf8d56"/>
      <stop offset="1" stop-color="#9e6a34"/>
    </linearGradient>
    <linearGradient id="linear-gradient-6" x1="349.33" y1="114.89" x2="373.28" y2="185.06" xlink:href="#linear-gradient-5"/>
    <linearGradient id="linear-gradient-7" x1="295.79" y1="133.17" x2="319.74" y2="203.33" xlink:href="#linear-gradient-5"/>
    <linearGradient id="linear-gradient-8" x1="295.8" y1="133.17" x2="319.74" y2="203.33" xlink:href="#linear-gradient-5"/>
    <linearGradient id="linear-gradient-9" x1="331.59" y1="185.27" x2="333.27" y2="218.46" xlink:href="#linear-gradient-5"/>
    <linearGradient id="linear-gradient-10" x1="345.48" y1="114.03" x2="338.34" y2="184.61" xlink:href="#linear-gradient-5"/>
    <linearGradient id="linear-gradient-11" x1="342.36" y1="132.6" x2="321.35" y2="188.06" xlink:href="#linear-gradient-5"/>
    <linearGradient id="linear-gradient-12" x1="356.47" y1="120.2" x2="302.28" y2="37.44" gradientUnits="userSpaceOnUse">
      <stop offset="0" stop-color="#19b011"/>
      <stop offset="1" stop-color="#87df29"/>
    </linearGradient>
    <linearGradient id="linear-gradient-13" x1="358.91" y1="102.43" x2="265.22" y2="24.71" xlink:href="#linear-gradient-12"/>
    <linearGradient id="linear-gradient-14" x1="298.87" y1="164.86" x2="297.3" y2="139.61" xlink:href="#linear-gradient"/>
    <linearGradient id="linear-gradient-15" x1="306.06" y1="157.32" x2="280.62" y2="118.47" xlink:href="#linear-gradient-12"/>
    <linearGradient id="linear-gradient-16" x1="307.21" y1="148.98" x2="263.22" y2="112.49" xlink:href="#linear-gradient-12"/>
    <linearGradient id="linear-gradient-17" x1="352.88" y1="152.23" x2="337.34" y2="195.92" xlink:href="#linear-gradient-5"/>
    <linearGradient id="linear-gradient-18" x1="366.94" y1="153.93" x2="365.36" y2="128.69" xlink:href="#linear-gradient"/>
    <linearGradient id="linear-gradient-19" x1="374.12" y1="146.4" x2="348.68" y2="107.54" xlink:href="#linear-gradient-12"/>
    <linearGradient id="linear-gradient-20" x1="375.27" y1="138.06" x2="331.28" y2="101.57" xlink:href="#linear-gradient-12"/>
    <linearGradient id="linear-gradient-21" x1="1939.13" y1="456.88" x2="1939.13" y2="403.85" gradientTransform="translate(-73.2 240.06) rotate(-10.61)" gradientUnits="userSpaceOnUse">
      <stop offset="0" stop-color="#008500"/>
      <stop offset="1" stop-color="#009b00"/>
    </linearGradient>
    <linearGradient id="linear-gradient-22" x1="1611.15" y1="451.15" x2="1608.09" y2="397.69" gradientTransform="translate(-73.2 240.06) rotate(-10.61)" gradientUnits="userSpaceOnUse">
      <stop offset="0" stop-color="#007a00"/>
      <stop offset="1" stop-color="#090"/>
    </linearGradient>
    <linearGradient id="linear-gradient-23" x1="1778.07" y1="441.6" x2="1775.02" y2="388.15" xlink:href="#linear-gradient-22"/>
    <linearGradient id="linear-gradient-24" x1="1787.23" y1="441.08" x2="1784.18" y2="387.63" xlink:href="#linear-gradient-22"/>
    <linearGradient id="linear-gradient-25" x1="1788.46" y1="441" x2="1785.41" y2="387.56" xlink:href="#linear-gradient-22"/>
    <linearGradient id="linear-gradient-26" x1="1768.35" y1="442.15" x2="1765.3" y2="388.71" xlink:href="#linear-gradient-22"/>
    <linearGradient id="linear-gradient-27" x1="1746.97" y1="443.38" x2="1743.92" y2="389.93" xlink:href="#linear-gradient-22"/>
    <linearGradient id="linear-gradient-28" x1="1695.31" y1="446.34" x2="1692.25" y2="392.88" xlink:href="#linear-gradient-22"/>
    <linearGradient id="linear-gradient-29" x1="1855.43" y1="437.19" x2="1852.38" y2="383.74" xlink:href="#linear-gradient-22"/>
    <linearGradient id="linear-gradient-30" x1="1844.72" y1="437.79" x2="1841.66" y2="384.35" xlink:href="#linear-gradient-22"/>
    <linearGradient id="linear-gradient-31" x1="1851.44" y1="437.41" x2="1848.39" y2="383.97" xlink:href="#linear-gradient-22"/>
    <linearGradient id="linear-gradient-32" x1="1866.63" y1="436.55" x2="1863.58" y2="383.1" xlink:href="#linear-gradient-22"/>
    <linearGradient id="linear-gradient-33" x1="1884.01" y1="435.55" x2="1880.96" y2="382.11" xlink:href="#linear-gradient-22"/>
    <linearGradient id="linear-gradient-34" x1="1931.09" y1="432.87" x2="1928.04" y2="379.42" xlink:href="#linear-gradient-22"/>
    <linearGradient id="linear-gradient-35" x1="1919.51" y1="433.53" x2="1916.46" y2="380.08" xlink:href="#linear-gradient-22"/>
    <linearGradient id="linear-gradient-36" x1="1943.12" y1="432.18" x2="1940.07" y2="378.74" xlink:href="#linear-gradient-22"/>
    <linearGradient id="linear-gradient-37" x1="1954.11" y1="431.55" x2="1951.06" y2="378.11" xlink:href="#linear-gradient-22"/>
    <linearGradient id="linear-gradient-38" x1="1808.29" y1="429.48" x2="1808.29" y2="369.16" xlink:href="#linear-gradient-22"/>
    <linearGradient id="linear-gradient-39" x1="1787.52" y1="429.47" x2="1787.52" y2="369.16" xlink:href="#linear-gradient-22"/>
    <linearGradient id="linear-gradient-40" x1="1798.14" y1="429.48" x2="1798.14" y2="369.16" xlink:href="#linear-gradient-22"/>
    <linearGradient id="linear-gradient-41" x1="1778.59" y1="429.48" x2="1778.59" y2="369.16" xlink:href="#linear-gradient-22"/>
    <linearGradient id="linear-gradient-42" x1="1757.35" y1="429.47" x2="1757.35" y2="369.15" xlink:href="#linear-gradient-22"/>
    <linearGradient id="linear-gradient-43" x1="1748.88" y1="429.47" x2="1748.88" y2="369.15" xlink:href="#linear-gradient-22"/>
    <linearGradient id="linear-gradient-44" x1="1719.66" y1="429.47" x2="1719.66" y2="369.15" xlink:href="#linear-gradient-22"/>
    <linearGradient id="linear-gradient-45" x1="1679.03" y1="429.47" x2="1679.03" y2="369.15" xlink:href="#linear-gradient-22"/>
    <linearGradient id="linear-gradient-46" x1="1819.76" y1="429.48" x2="1819.76" y2="369.16" xlink:href="#linear-gradient-22"/>
    <linearGradient id="linear-gradient-47" x1="1840.58" y1="429.48" x2="1840.58" y2="369.16" xlink:href="#linear-gradient-22"/>
    <linearGradient id="linear-gradient-48" x1="1830.01" y1="429.48" x2="1830.01" y2="369.16" xlink:href="#linear-gradient-22"/>
    <linearGradient id="linear-gradient-49" x1="1849.46" y1="429.48" x2="1849.46" y2="369.16" xlink:href="#linear-gradient-22"/>
    <linearGradient id="linear-gradient-50" x1="1855.68" y1="429.48" x2="1855.68" y2="369.16" xlink:href="#linear-gradient-22"/>
    <linearGradient id="linear-gradient-51" x1="1870.7" y1="429.48" x2="1870.7" y2="369.16" xlink:href="#linear-gradient-22"/>
    <linearGradient id="linear-gradient-52" x1="1879.15" y1="429.48" x2="1879.15" y2="369.16" xlink:href="#linear-gradient-22"/>
    <linearGradient id="linear-gradient-53" x1="1898.07" y1="429.48" x2="1898.07" y2="369.16" xlink:href="#linear-gradient-22"/>
    <linearGradient id="linear-gradient-54" x1="1919.14" y1="429.48" x2="1919.14" y2="369.16" xlink:href="#linear-gradient-22"/>
    <linearGradient id="linear-gradient-55" x1="1908.74" y1="429.48" x2="1908.74" y2="369.16" xlink:href="#linear-gradient-22"/>
    <linearGradient id="linear-gradient-56" x1="1927.76" y1="429.48" x2="1927.76" y2="369.16" xlink:href="#linear-gradient-22"/>
    <linearGradient id="linear-gradient-57" x1="1933.99" y1="429.48" x2="1933.99" y2="369.16" xlink:href="#linear-gradient-22"/>
    <linearGradient id="linear-gradient-58" x1="1948.94" y1="429.48" x2="1948.94" y2="369.17" xlink:href="#linear-gradient-22"/>
    <linearGradient id="linear-gradient-59" x1="1956.74" y1="429.48" x2="1956.74" y2="369.17" xlink:href="#linear-gradient-22"/>
    <linearGradient id="linear-gradient-60" x1="1795.38" y1="424.89" x2="1795.38" y2="370.68" gradientTransform="translate(-73.2 240.06) rotate(-10.61)" gradientUnits="userSpaceOnUse">
      <stop offset="0" stop-color="#007a00"/>
      <stop offset="1" stop-color="#1eaf00"/>
    </linearGradient>
    <linearGradient id="linear-gradient-61" x1="1823.11" y1="424.9" x2="1823.11" y2="370.68" xlink:href="#linear-gradient-60"/>
    <linearGradient id="linear-gradient-62" x1="1733.25" y1="424.88" x2="1733.25" y2="370.68" xlink:href="#linear-gradient-60"/>
    <linearGradient id="linear-gradient-63" x1="1831.74" y1="424.9" x2="1831.74" y2="370.69" xlink:href="#linear-gradient-60"/>
    <linearGradient id="linear-gradient-64" x1="1835.79" y1="424.9" x2="1835.79" y2="370.69" xlink:href="#linear-gradient-60"/>
    <linearGradient id="linear-gradient-65" x1="1889.77" y1="424.9" x2="1889.77" y2="370.69" xlink:href="#linear-gradient-60"/>
    <linearGradient id="linear-gradient-66" x1="1867.38" y1="424.9" x2="1867.38" y2="370.69" xlink:href="#linear-gradient-60"/>
    <linearGradient id="linear-gradient-67" x1="1908.37" y1="424.9" x2="1908.37" y2="370.69" xlink:href="#linear-gradient-60"/>
    <linearGradient id="linear-gradient-68" x1="1887.31" y1="424.9" x2="1887.31" y2="370.69" xlink:href="#linear-gradient-60"/>
    <linearGradient id="linear-gradient-69" x1="1918.37" y1="424.9" x2="1918.37" y2="370.69" xlink:href="#linear-gradient-60"/>
    <linearGradient id="linear-gradient-70" x1="1946.66" y1="424.9" x2="1946.66" y2="370.69" xlink:href="#linear-gradient-60"/>
    <linearGradient id="linear-gradient-71" x1="1839.32" y1="436.35" x2="1839.32" y2="395.88" gradientTransform="translate(-73.2 240.06) rotate(-10.61)" gradientUnits="userSpaceOnUse">
      <stop offset="0" stop-color="#007a00"/>
      <stop offset="1" stop-color="#009100"/>
    </linearGradient>
    <linearGradient id="linear-gradient-72" x1="1855.96" y1="436.35" x2="1855.96" y2="395.88" xlink:href="#linear-gradient-71"/>
    <linearGradient id="linear-gradient-73" x1="1884.11" y1="436.35" x2="1884.11" y2="395.88" xlink:href="#linear-gradient-71"/>
    <linearGradient id="linear-gradient-74" x1="1878.82" y1="436.35" x2="1878.82" y2="395.88" xlink:href="#linear-gradient-71"/>
    <linearGradient id="linear-gradient-75" x1="1882.62" y1="436.35" x2="1882.62" y2="395.88" xlink:href="#linear-gradient-71"/>
    <linearGradient id="linear-gradient-76" x1="1913.62" y1="436.35" x2="1913.62" y2="395.88" xlink:href="#linear-gradient-71"/>
    <linearGradient id="linear-gradient-77" x1="1930.62" y1="436.35" x2="1930.62" y2="395.89" xlink:href="#linear-gradient-71"/>
    <linearGradient id="linear-gradient-78" x1="1914.22" y1="436.35" x2="1914.22" y2="395.89" xlink:href="#linear-gradient-71"/>
    <linearGradient id="linear-gradient-79" x1="1900.87" y1="436.35" x2="1900.87" y2="395.88" xlink:href="#linear-gradient-71"/>
    <linearGradient id="linear-gradient-80" x1="1902.08" y1="436.35" x2="1902.08" y2="395.89" xlink:href="#linear-gradient-71"/>
    <linearGradient id="linear-gradient-81" x1="1938.61" y1="436.36" x2="1938.61" y2="395.89" xlink:href="#linear-gradient-71"/>
    <linearGradient id="linear-gradient-82" x1="1945.03" y1="436.36" x2="1945.03" y2="395.89" xlink:href="#linear-gradient-71"/>
    <linearGradient id="linear-gradient-83" x1="1953.93" y1="436.35" x2="1953.93" y2="395.89" xlink:href="#linear-gradient-71"/>
    <linearGradient id="linear-gradient-84" x1="1796.4" y1="451.95" x2="1793.73" y2="405.28" gradientTransform="translate(-73.2 240.06) rotate(-10.61)" gradientUnits="userSpaceOnUse">
      <stop offset="0" stop-color="#008500"/>
      <stop offset="1" stop-color="#0d9f00"/>
    </linearGradient>
    <linearGradient id="linear-gradient-85" x1="1854.48" y1="448.64" x2="1851.81" y2="401.97" xlink:href="#linear-gradient-84"/>
    <linearGradient id="linear-gradient-86" x1="1842.93" y1="449.3" x2="1840.27" y2="402.63" xlink:href="#linear-gradient-84"/>
    <linearGradient id="linear-gradient-87" x1="1860.48" y1="448.29" x2="1857.81" y2="401.63" xlink:href="#linear-gradient-84"/>
    <linearGradient id="linear-gradient-88" x1="1878.94" y1="447.24" x2="1876.27" y2="400.57" xlink:href="#linear-gradient-84"/>
    <linearGradient id="linear-gradient-89" x1="1919.28" y1="444.93" x2="1916.61" y2="398.27" xlink:href="#linear-gradient-84"/>
    <linearGradient id="linear-gradient-90" x1="1910.39" y1="445.44" x2="1907.72" y2="398.78" xlink:href="#linear-gradient-84"/>
    <linearGradient id="linear-gradient-91" x1="1913.68" y1="445.26" x2="1911.01" y2="398.59" xlink:href="#linear-gradient-84"/>
    <linearGradient id="linear-gradient-92" x1="1928.28" y1="444.43" x2="1925.62" y2="397.76" xlink:href="#linear-gradient-84"/>
    <linearGradient id="linear-gradient-93" x1="1944.09" y1="443.52" x2="1941.42" y2="396.86" xlink:href="#linear-gradient-84"/>
    <linearGradient id="linear-gradient-94" x1="1954.66" y1="442.92" x2="1951.99" y2="396.25" xlink:href="#linear-gradient-84"/>
    <linearGradient id="linear-gradient-95" x1="1790.35" y1="442.16" x2="1790.35" y2="389.5" gradientTransform="translate(-73.2 240.06) rotate(-10.61)" gradientUnits="userSpaceOnUse">
      <stop offset="0" stop-color="#008500"/>
      <stop offset="1" stop-color="#009f00"/>
    </linearGradient>
    <linearGradient id="linear-gradient-96" x1="1799.49" y1="442.17" x2="1799.49" y2="389.5" xlink:href="#linear-gradient-95"/>
    <linearGradient id="linear-gradient-97" x1="1836.93" y1="442.17" x2="1836.93" y2="389.5" xlink:href="#linear-gradient-95"/>
    <linearGradient id="linear-gradient-98" x1="1827.76" y1="442.17" x2="1827.76" y2="389.5" xlink:href="#linear-gradient-95"/>
    <linearGradient id="linear-gradient-99" x1="1863.22" y1="442.17" x2="1863.22" y2="389.5" xlink:href="#linear-gradient-95"/>
    <linearGradient id="linear-gradient-100" x1="1870.58" y1="442.17" x2="1870.58" y2="389.5" xlink:href="#linear-gradient-95"/>
    <linearGradient id="linear-gradient-101" x1="1876.03" y1="442.17" x2="1876.03" y2="389.5" xlink:href="#linear-gradient-95"/>
    <linearGradient id="linear-gradient-102" x1="1887.11" y1="442.17" x2="1887.11" y2="389.5" xlink:href="#linear-gradient-95"/>
    <linearGradient id="linear-gradient-103" x1="1905.25" y1="442.17" x2="1905.25" y2="389.51" xlink:href="#linear-gradient-95"/>
    <linearGradient id="linear-gradient-104" x1="1895.97" y1="442.17" x2="1895.97" y2="389.5" xlink:href="#linear-gradient-95"/>
    <linearGradient id="linear-gradient-105" x1="1913.04" y1="442.17" x2="1913.04" y2="389.51" xlink:href="#linear-gradient-95"/>
    <linearGradient id="linear-gradient-106" x1="1918.47" y1="442.17" x2="1918.47" y2="389.51" xlink:href="#linear-gradient-95"/>
    <linearGradient id="linear-gradient-107" x1="1931.59" y1="442.17" x2="1931.59" y2="389.51" xlink:href="#linear-gradient-95"/>
    <linearGradient id="linear-gradient-108" x1="1938.97" y1="442.17" x2="1938.97" y2="389.51" xlink:href="#linear-gradient-95"/>
    <linearGradient id="linear-gradient-109" x1="1944.39" y1="442.18" x2="1944.39" y2="389.51" xlink:href="#linear-gradient-95"/>
    <linearGradient id="linear-gradient-110" x1="1882.59" y1="438.17" x2="1882.59" y2="390.84" gradientTransform="translate(-73.2 240.06) rotate(-10.61)" gradientUnits="userSpaceOnUse">
      <stop offset="0" stop-color="#008500"/>
      <stop offset="1" stop-color="#26b200"/>
    </linearGradient>
    <linearGradient id="linear-gradient-111" x1="1898.53" y1="438.17" x2="1898.53" y2="390.84" xlink:href="#linear-gradient-110"/>
    <linearGradient id="linear-gradient-112" x1="1948.94" y1="438.18" x2="1948.94" y2="390.84" xlink:href="#linear-gradient-110"/>
    <linearGradient id="linear-gradient-113" x1="1926.66" y1="438.17" x2="1926.66" y2="390.84" xlink:href="#linear-gradient-110"/>
    <linearGradient id="linear-gradient-114" x1="1947.31" y1="438.18" x2="1947.31" y2="390.84" xlink:href="#linear-gradient-110"/>
    <linearGradient id="linear-gradient-115" x1="1944.97" y1="448.17" x2="1944.97" y2="412.84" xlink:href="#linear-gradient-21"/>
    <linearGradient id="linear-gradient-116" x1="1936.54" y1="448.17" x2="1936.54" y2="412.84" xlink:href="#linear-gradient-21"/>
    <linearGradient id="linear-gradient-117" x1="1950.64" y1="448.18" x2="1950.64" y2="412.84" xlink:href="#linear-gradient-21"/>
    <linearGradient id="linear-gradient-118" x1="1854.35" y1="464.5" x2="1851.68" y2="417.83" gradientTransform="translate(-73.2 240.06) rotate(-10.61)" gradientUnits="userSpaceOnUse">
      <stop offset="0" stop-color="#008500"/>
      <stop offset="1" stop-color="#00a600"/>
    </linearGradient>
    <linearGradient id="linear-gradient-119" x1="1897.72" y1="462.03" x2="1895.05" y2="415.36" xlink:href="#linear-gradient-118"/>
    <linearGradient id="linear-gradient-120" x1="1937.46" y1="459.75" x2="1934.8" y2="413.09" xlink:href="#linear-gradient-118"/>
    <linearGradient id="linear-gradient-121" x1="1926.24" y1="460.4" x2="1923.57" y2="413.73" xlink:href="#linear-gradient-118"/>
    <linearGradient id="linear-gradient-122" x1="1943.66" y1="459.41" x2="1940.99" y2="412.74" xlink:href="#linear-gradient-118"/>
    <linearGradient id="linear-gradient-123" x1="1852.16" y1="457.16" x2="1852.16" y2="404.5" xlink:href="#linear-gradient-118"/>
    <linearGradient id="linear-gradient-124" x1="1878.22" y1="457.18" x2="1878.22" y2="404.5" xlink:href="#linear-gradient-118"/>
    <linearGradient id="linear-gradient-125" x1="1891.04" y1="457.17" x2="1891.04" y2="404.5" xlink:href="#linear-gradient-118"/>
    <linearGradient id="linear-gradient-126" x1="1920.31" y1="457.17" x2="1920.31" y2="404.51" xlink:href="#linear-gradient-118"/>
    <linearGradient id="linear-gradient-127" x1="1911.13" y1="457.17" x2="1911.13" y2="404.5" xlink:href="#linear-gradient-118"/>
    <linearGradient id="linear-gradient-128" x1="1928.03" y1="457.17" x2="1928.03" y2="404.51" xlink:href="#linear-gradient-118"/>
    <linearGradient id="linear-gradient-129" x1="1946.58" y1="457.18" x2="1946.58" y2="404.51" xlink:href="#linear-gradient-118"/>
    <linearGradient id="linear-gradient-130" x1="1833.11" y1="248.87" x2="1855.64" y2="248.87" gradientTransform="matrix(1,0,0,1,0,0)" xlink:href="#linear-gradient-22"/>
    <linearGradient id="linear-gradient-131" x1="1641" y1="109.62" x2="1645.01" y2="121.64" gradientTransform="translate(491.68 -737.8) rotate(31.56)" gradientUnits="userSpaceOnUse">
      <stop offset="0" stop-color="#aedee4"/>
      <stop offset="1" stop-color="#00defd"/>
    </linearGradient>
    <linearGradient id="linear-gradient-132" x1="1197.02" y1="712.4" x2="1201.03" y2="724.42" gradientTransform="translate(1450.88 -1126.5) rotate(104.35) scale(1 -1)" xlink:href="#linear-gradient-131"/>
    <linearGradient id="linear-gradient-133" x1="1884.18" y1="446.4" x2="1882.28" y2="453.78" gradientTransform="translate(-84.32 513.8) rotate(-22.05)" xlink:href="#linear-gradient-131"/>
    <linearGradient id="linear-gradient-134" x1="1906.43" y1="450.46" x2="1919.51" y2="450.88" gradientTransform="translate(-84.32 513.8) rotate(-22.05)" xlink:href="#linear-gradient-131"/>
    <linearGradient id="linear-gradient-135" x1="1895.81" y1="455.17" x2="1894.54" y2="465.92" gradientTransform="translate(-84.32 513.8) rotate(-22.05)" xlink:href="#linear-gradient-131"/>
    <linearGradient id="linear-gradient-136" x1="1895.01" y1="443.44" x2="1894.16" y2="435.01" gradientTransform="translate(-84.32 513.8) rotate(-22.05)" xlink:href="#linear-gradient-131"/>
    <linearGradient id="linear-gradient-137" x1="1885.35" y1="452.24" x2="1889.35" y2="464.27" gradientTransform="translate(-84.32 513.8) rotate(-22.05)" xlink:href="#linear-gradient-131"/>
    <linearGradient id="linear-gradient-138" x1="1906.19" y1="445.25" x2="1909.99" y2="455.59" gradientTransform="translate(-84.32 513.8) rotate(-22.05)" xlink:href="#linear-gradient-131"/>
    <linearGradient id="linear-gradient-139" x1="1056.09" y1="451.38" x2="1060.1" y2="463.4" gradientTransform="translate(2661.8 -597.68) rotate(157.95) scale(1 -1)" xlink:href="#linear-gradient-131"/>
    <linearGradient id="linear-gradient-140" x1="1895.81" y1="455.17" x2="1894.54" y2="465.92" gradientTransform="translate(-84.32 513.8) rotate(-22.05)" xlink:href="#linear-gradient-131"/>
    <linearGradient id="linear-gradient-141" x1="1894.79" y1="439.86" x2="1893.95" y2="431.42" gradientTransform="translate(-84.32 513.8) rotate(-22.05)" xlink:href="#linear-gradient-131"/>
    <radialGradient id="radial-gradient-2" cx="1893.83" cy="439.36" fx="1893.83" fy="439.36" r="13.56" gradientTransform="translate(-84.32 513.8) rotate(-22.05)" gradientUnits="userSpaceOnUse">
      <stop offset="0" stop-color="#fad640"/>
      <stop offset="1" stop-color="#faaf40"/>
    </radialGradient>
    <linearGradient id="linear-gradient-142" x1="1868.76" y1="234.37" x2="1900.02" y2="234.37" gradientTransform="matrix(1,0,0,1,0,0)" xlink:href="#linear-gradient-22"/>
    <linearGradient id="linear-gradient-143" x1="1656.63" y1="67.35" x2="1662.19" y2="84.04" gradientTransform="translate(491.68 -737.8) rotate(31.56)" gradientUnits="userSpaceOnUse">
      <stop offset="0" stop-color="#e3fcfa"/>
      <stop offset="1" stop-color="#c2fcff"/>
    </linearGradient>
    <linearGradient id="linear-gradient-144" x1="1158.33" y1="743.82" x2="1163.9" y2="760.51" gradientTransform="translate(1450.88 -1126.5) rotate(104.35) scale(1 -1)" xlink:href="#linear-gradient-143"/>
    <linearGradient id="linear-gradient-145" x1="1925.6" y1="435.56" x2="1922.96" y2="445.8" gradientTransform="translate(-84.32 513.8) rotate(-22.05)" xlink:href="#linear-gradient-143"/>
    <linearGradient id="linear-gradient-146" x1="1956.49" y1="441.19" x2="1974.64" y2="441.78" gradientTransform="translate(-84.32 513.8) rotate(-22.05)" xlink:href="#linear-gradient-131"/>
    <linearGradient id="linear-gradient-147" x1="1941.74" y1="447.72" x2="1939.98" y2="462.65" gradientTransform="translate(-84.32 513.8) rotate(-22.05)" xlink:href="#linear-gradient-131"/>
    <linearGradient id="linear-gradient-148" x1="1927.22" y1="443.66" x2="1932.78" y2="460.35" gradientTransform="translate(-84.32 513.8) rotate(-22.05)" xlink:href="#linear-gradient-143"/>
    <linearGradient id="linear-gradient-149" x1="1956.15" y1="433.96" x2="1961.42" y2="448.3" gradientTransform="translate(-84.32 513.8) rotate(-22.05)" xlink:href="#linear-gradient-143"/>
    <linearGradient id="linear-gradient-150" x1="1006.08" y1="442.72" x2="1011.64" y2="459.41" gradientTransform="translate(2661.8 -597.68) rotate(157.95) scale(1 -1)" xlink:href="#linear-gradient-143"/>
    <linearGradient id="linear-gradient-151" x1="1941.74" y1="447.72" x2="1939.98" y2="462.65" gradientTransform="translate(-84.32 513.8) rotate(-22.05)" xlink:href="#linear-gradient-143"/>
    <linearGradient id="linear-gradient-152" x1="1940.33" y1="426.47" x2="1939.16" y2="414.76" gradientTransform="translate(-84.32 513.8) rotate(-22.05)" xlink:href="#linear-gradient-143"/>
    <radialGradient id="radial-gradient-3" cx="1939" cy="425.79" fx="1939" fy="425.79" r="18.82" xlink:href="#radial-gradient-2"/>
    <linearGradient id="linear-gradient-153" x1="1763.59" y1="258.21" x2="1779.83" y2="258.21" gradientTransform="matrix(1,0,0,1,0,0)" xlink:href="#linear-gradient-22"/>
    <linearGradient id="linear-gradient-154" x1="1591.78" y1="162.06" x2="1594.67" y2="170.73" xlink:href="#linear-gradient-143"/>
    <linearGradient id="linear-gradient-155" x1="1234.66" y1="647" x2="1237.55" y2="655.67" gradientTransform="translate(1450.88 -1126.5) rotate(104.35) scale(1 -1)" xlink:href="#linear-gradient-143"/>
    <linearGradient id="linear-gradient-156" x1="1814.12" y1="436.71" x2="1812.75" y2="442.04" gradientTransform="translate(-84.32 513.8) rotate(-22.05)" xlink:href="#linear-gradient-143"/>
    <linearGradient id="linear-gradient-157" x1="1830.17" y1="439.64" x2="1839.59" y2="439.95" gradientTransform="translate(-84.32 513.8) rotate(-22.05)" xlink:href="#linear-gradient-131"/>
    <linearGradient id="linear-gradient-158" x1="1822.5" y1="443.03" x2="1821.59" y2="450.79" gradientTransform="translate(-84.32 513.8) rotate(-22.05)" xlink:href="#linear-gradient-131"/>
    <linearGradient id="linear-gradient-159" x1="1814.96" y1="440.93" x2="1817.85" y2="449.6" gradientTransform="translate(-84.32 513.8) rotate(-22.05)" xlink:href="#linear-gradient-143"/>
    <linearGradient id="linear-gradient-160" x1="1829.99" y1="435.88" x2="1832.73" y2="443.34" gradientTransform="translate(-84.32 513.8) rotate(-22.05)" xlink:href="#linear-gradient-143"/>
    <linearGradient id="linear-gradient-161" x1="1132.33" y1="440.12" x2="1135.22" y2="448.79" gradientTransform="translate(2661.8 -597.68) rotate(157.95) scale(1 -1)" xlink:href="#linear-gradient-143"/>
    <linearGradient id="linear-gradient-162" x1="1822.5" y1="443.03" x2="1821.59" y2="450.79" gradientTransform="translate(-84.32 513.8) rotate(-22.05)" xlink:href="#linear-gradient-143"/>
    <linearGradient id="linear-gradient-163" x1="1821.77" y1="431.99" x2="1821.16" y2="425.91" gradientTransform="translate(-84.32 513.8) rotate(-22.05)" xlink:href="#linear-gradient-143"/>
    <radialGradient id="radial-gradient-4" cx="1821.08" cy="431.64" fx="1821.08" fy="431.64" r="9.78" xlink:href="#radial-gradient-2"/>
    <linearGradient id="linear-gradient-164" x1="1788.84" y1="243.35" x2="1815.07" y2="243.35" gradientTransform="matrix(1,0,0,1,0,0)" xlink:href="#linear-gradient-22"/>
    <linearGradient id="linear-gradient-165" x1="1597.36" y1="123.31" x2="1602.02" y2="137.32" xlink:href="#linear-gradient-143"/>
    <linearGradient id="linear-gradient-166" x1="1195.95" y1="668.34" x2="1200.61" y2="682.35" gradientTransform="translate(1450.88 -1126.5) rotate(104.35) scale(1 -1)" xlink:href="#linear-gradient-143"/>
    <linearGradient id="linear-gradient-167" x1="1846.46" y1="420.1" x2="1844.25" y2="428.69" gradientTransform="translate(-84.32 513.8) rotate(-22.05)" xlink:href="#linear-gradient-143"/>
    <linearGradient id="linear-gradient-168" x1="1872.38" y1="424.82" x2="1887.61" y2="425.32" gradientTransform="translate(-84.32 513.8) rotate(-22.05)" xlink:href="#linear-gradient-131"/>
    <linearGradient id="linear-gradient-169" x1="1860.01" y1="430.3" x2="1858.53" y2="442.83" gradientTransform="translate(-84.32 513.8) rotate(-22.05)" xlink:href="#linear-gradient-131"/>
    <linearGradient id="linear-gradient-170" x1="1847.82" y1="426.9" x2="1852.49" y2="440.9" gradientTransform="translate(-84.32 513.8) rotate(-22.05)" xlink:href="#linear-gradient-143"/>
    <linearGradient id="linear-gradient-171" x1="1872.1" y1="418.76" x2="1876.52" y2="430.79" gradientTransform="translate(-84.32 513.8) rotate(-22.05)" xlink:href="#linear-gradient-143"/>
    <linearGradient id="linear-gradient-172" x1="1090.16" y1="426" x2="1094.83" y2="440" gradientTransform="translate(2661.8 -597.68) rotate(157.95) scale(1 -1)" xlink:href="#linear-gradient-143"/>
    <linearGradient id="linear-gradient-173" x1="1860.01" y1="430.3" x2="1858.53" y2="442.83" gradientTransform="translate(-84.32 513.8) rotate(-22.05)" xlink:href="#linear-gradient-143"/>
    <linearGradient id="linear-gradient-174" x1="1858.83" y1="412.47" x2="1857.85" y2="402.65" gradientTransform="translate(-84.32 513.8) rotate(-22.05)" xlink:href="#linear-gradient-143"/>
    <radialGradient id="radial-gradient-5" cx="1857.7" cy="411.9" fx="1857.7" fy="411.9" r="15.79" xlink:href="#radial-gradient-2"/>
    <linearGradient id="linear-gradient-175" x1="1678.17" y1="227.42" x2="1678.89" y2="246.16" gradientUnits="userSpaceOnUse">
      <stop offset="0" stop-color="#38b731"/>
      <stop offset="1" stop-color="#94de45"/>
    </linearGradient>
    <linearGradient id="linear-gradient-176" x1="1597.08" y1="209.53" x2="1597.8" y2="228.27" xlink:href="#linear-gradient-175"/>
    <linearGradient id="linear-gradient-177" x1="1657.08" y1="190.03" x2="1657.8" y2="208.77" xlink:href="#linear-gradient-175"/>
    <linearGradient id="linear-gradient-178" x1="1575.08" y1="209.03" x2="1575.8" y2="227.77" xlink:href="#linear-gradient-175"/>
    <linearGradient id="linear-gradient-179" x1="1676.58" y1="190.03" x2="1677.3" y2="208.77" xlink:href="#linear-gradient-175"/>
    <linearGradient id="linear-gradient-180" x1="1698.58" y1="228.03" x2="1699.3" y2="246.77" xlink:href="#linear-gradient-175"/>
    <linearGradient id="linear-gradient-181" x1="1735.08" y1="203.03" x2="1735.8" y2="221.77" xlink:href="#linear-gradient-175"/>
    <linearGradient id="linear-gradient-182" x1="1485.08" y1="218.53" x2="1485.8" y2="237.27" xlink:href="#linear-gradient-175"/>
    <linearGradient id="linear-gradient-183" x1="1419.92" y1="212.2" x2="1420.64" y2="230.94" xlink:href="#linear-gradient-175"/>
    <linearGradient id="linear-gradient-184" x1="1465.92" y1="185.53" x2="1466.64" y2="204.27" xlink:href="#linear-gradient-175"/>
    <linearGradient id="linear-gradient-185" x1="1522.58" y1="186.87" x2="1523.3" y2="205.61" xlink:href="#linear-gradient-175"/>
    <linearGradient id="linear-gradient-186" x1="1373.92" y1="178.2" x2="1374.64" y2="196.94" xlink:href="#linear-gradient-175"/>
    <linearGradient id="linear-gradient-187" x1="1423.39" y1="167.45" x2="1423.87" y2="179.99" xlink:href="#linear-gradient-175"/>
    <linearGradient id="linear-gradient-188" x1="1482.81" y1="164.28" x2="1483.29" y2="176.82" xlink:href="#linear-gradient-175"/>
    <linearGradient id="linear-gradient-189" x1="1576.81" y1="175.61" x2="1577.29" y2="188.15" xlink:href="#linear-gradient-175"/>
    <linearGradient id="linear-gradient-190" x1="1592.72" y1="176.12" x2="1593.21" y2="188.66" xlink:href="#linear-gradient-175"/>
    <linearGradient id="linear-gradient-191" x1="1667.39" y1="160.12" x2="1667.87" y2="172.66" xlink:href="#linear-gradient-175"/>
    <linearGradient id="linear-gradient-192" x1="1680.72" y1="160.12" x2="1681.21" y2="172.66" xlink:href="#linear-gradient-175"/>
    <linearGradient id="linear-gradient-193" x1="1768.72" y1="181.45" x2="1769.21" y2="193.99" xlink:href="#linear-gradient-175"/>
    <linearGradient id="linear-gradient-194" x1="1779.29" y1="229.85" x2="1780.08" y2="250.23" xlink:href="#linear-gradient-175"/>
    <linearGradient id="linear-gradient-195" x1="1783.31" y1="160.01" x2="1784.1" y2="180.39" xlink:href="#linear-gradient-175"/>
  </defs>
  <g style="fill: none; isolation: isolate;">
    <g id="Capa_2" data-name="Capa 2">
      <g id="Capa_3" data-name="Capa 3">
        <g>
          <path d="m1601.72,159.57c-66.25-19.21-215.98-107.67-237.14-115.09-22.38-7.85-44.75,32.26-84.71,28.77-39.96-3.49-96.01-69.57-122.56-73.04-3.42-.45-9.6-.02-13.17.37-38.07,4.17-80.09,52-97.63,63.96-19.18,13.08-17.58-4.36-52.75,3.49-31.51,7.03-173.41,77.08-202.53,91.55h810.49Z" style="fill: url(#Degradado_sin_nombre);"/>
          <g>
            <path d="m1220.72,88.07c12.86,30.39-94.26,41.98-55.54,71.5h315.94c-19.84-25.47-119.37-61.08-140.52-81.09-23.97-22.67,19.18-34.88,19.18-34.88l6.97,1.73c-.82-.35-1.56-.64-2.18-.86-22.38-7.85-44.75,32.26-84.71,28.77C1239.91,69.76,1182.49.46,1155.19.01c-8.96-.15-17.45,1.24-25.48,3.71-17.03,5.61-30.98,14.63-22.47,28.55,17.58,28.77,99.1,21.8,113.48,55.8Z" style="fill: url(#Degradado_sin_nombre_2);"/>
            <path d="m1340.6,78.48c-14.58-13.79-7.61-23.76,1.6-29.57v-.04c-16.37,9.21-35.34,26.74-62.34,24.39C1239.91,69.76,1182.49.46,1155.19.01c-8.96-.15-17.45,1.24-25.48,3.71-17.03,5.61-30.98,14.63-22.47,28.55,17.58,28.77,99.1,21.8,113.48,55.8,12.86,30.39-94.26,41.98-55.54,71.5h315.94c-19.84-25.47-119.37-61.08-140.52-81.09h0Z" style="fill: url(#Degradado_sin_nombre_3);"/>
          </g>
          <g>
            <path d="m1057.69,134.28c-12.14,11.59-44.77,18.98-90.58,25.28h198.07c-38.72-29.51,68.4-41.1,55.54-71.5-14.38-34-95.9-27.03-113.48-55.8-8.51-13.92,5.44-22.95,22.47-28.55-39.24,12.06-67.28,49.96-83.2,60.82-15.45,10.54-17.43,1.27-36,1.37-11.6,1.62-43.22,7.31-24.75,19.55,22.38,14.82,91.1,30.52,71.92,48.83h0Z" style="fill: url(#Degradado_sin_nombre_4);"/>
            <path d="m1057.69,134.28c-12.14,11.59-44.77,18.98-90.58,25.28h198.07c-38.72-29.51,68.4-41.1,55.54-71.5-14.38-34-95.9-27.03-113.48-55.8-8.51-13.92,5.44-22.95,22.47-28.55-39.24,12.06-67.28,49.96-83.2,60.82-15.45,10.54-17.43,1.27-36,1.37-11.6,1.62-43.22,7.31-24.75,19.55,22.38,14.82,91.1,30.52,71.92,48.83h0Z" style="fill: url(#Degradado_sin_nombre_5);"/>
          </g>
        </g>
        <path d="m1920,157.81c-179.96-13.49-383.25-22.33-510.58-22.33-164.65,0-382.01,12.65-527.57,31.46v83.75c145.56,17.55,362.92,28.59,527.57,28.59,127.33,0,330.62-5.33,510.58-15.08v-106.4h0Z" style="fill: url(#Degradado_sin_nombre_6);"/>
        <g>
          <path d="m443.47,134.72s215.95-66.56,250.33-77.55c16.76-5.36,39.17-10.13,59.34-9,21.19,1.19,40.47,8.92,71.29,30.99,60.16,43.07,163.29,76.98,163.29,76.98,0,0-456.58-.35-544.24-21.42h0Z" style="fill: url(#Degradado_sin_nombre_7);"/>
          <path d="m751.43,48.03s-59.89,9.44-35.81,39.99c24.07,30.55,177.55,29.94,174.54,64.15l135.42-6.11s-220.42-96.7-274.15-98.03h0Z" style="fill: url(#Degradado_sin_nombre_8);"/>
        </g>
        <g>
          <path d="m0,174.56c162.74,5.57,374.22,5.7,374.22,5.7,0,0-103.13-27.99-163.29-63.55-30.82-18.22-50.09-24.6-71.29-25.58-20.17-.93-42.58,3-59.34,7.43C68.83,101.59,37.13,109.73,0,119.22v55.34h0Z" style="fill: url(#Degradado_sin_nombre_9);"/>
          <path d="m137.93,91.01s-59.89,7.8-35.81,33.01c24.08,25.22,177.55,24.71,174.54,52.96l135.42-5.04s-117.36-32.78-138.43-43.88c-21.07-11.1-81.99-35.95-135.72-37.05h0Z" style="fill: url(#Degradado_sin_nombre_10);"/>
        </g>
        <g>
          <path d="m1644.66,74.49c13.86-4.97,32.38-9.39,49.06-8.34,17.52,1.1,33.46,8.27,58.94,28.73,49.74,39.92,135.02,71.35,135.02,71.35,0,0-352.03,17.97-471.37,4.56,0,0,208.25-89.1,228.34-96.3h.01Z" style="fill: url(#Degradado_sin_nombre_11);"/>
          <path d="m1692.32,66.02s-49.52,8.75-29.61,37.07c19.91,28.31,146.8,27.75,144.32,59.46l111.97-5.66s-182.26-89.63-226.68-90.87h0Z" style="fill: url(#Degradado_sin_nombre_12);"/>
        </g>
        <path d="m523.5,130.41c-163.09,0-377.79,10.12-523.5,25.23v69.45c145.71,14.08,360.41,22.92,523.5,22.92,271.84,0,889.35-19.79,889.35-52.27s-617.51-65.34-889.35-65.34h0Z" style="fill: url(#Degradado_sin_nombre_13);"/>
        <path d="m834.05,176.82c-510.23,7.69-778.57-3.46-824.65-5.64v58.26l1910.6,53.22v-134.79c-33.56-1.5-858.19,25.52-1085.95,28.96h0Z" style="fill: url(#Degradado_sin_nombre_14);"/>
        <g>
          <path d="m216.42,213.77l12.73,1.23h29.84c-18.98-27.68-50.1-28.78-53.49-29.12-.19-.02-3.5-3.62-4.58-4.02-1.91-.7-3.95.11-5.6,1.3-1.85-3.81-3.81-8.54-7.09-9.37-1.45-6.62-3.36-7.47-7.11-10.72-1.51-1.31-3.11-1.02-4.68-2.39-1.48-1.3-2.57-4.45-4.3-5.88-4.74-3.92-6.51.15-10.84-.59-3.2-.55-3.76-6.08-7.8-2.34-2.07-4.94-6.29-4.79-9.12-.9-8.62-10.35-10.99,2.12-16.7,7.93-4.72,4.81-14.16,2.75-18.03,8.76-4.75-8.25-19.69-1.61-21.04,9.25-2.56-3.75-15.65-3.38-18.17-.17-1.75-3.47-5.2-3.28-6.85.61-5.69-15.24-14.31,3.7-15.58,13.62-3.11,1.45-8.05-.3-8.38,6.17-3.76-2-12.26,3.02-8.67,9.88l-2.39,6.75h187.85Z" style="fill: #3fb101;"/>
          <path d="m54.48,178.4c.04,5.56,3.33,5.94,5.55,2.45,2.01,4.67,8.19,4.58,9.55-1.23,1.44,5.15,5.66,4.34,7.47-.16,2.13,7.57,13.25,11.05,12.11-.6,3.76,2.07,9.05-1.89,9.13-8.59,4.18,4.57,6,.09,9.88-.08,4.7-.21,9.26,4.46,13.64-1.59,5.3,8.53,14.36,4.13,15.09-7.5,3.67,2.08,6.18-2.19,5.57-7.99,3.82,2.92,6.88,5.61,11.4,3.07.96,8.23,7.02,7.2,11.14,6.29,3.11,8.19,15.83,8.18,20.86,5.55.06-.03.11-.09.17-.13-1.21-1.85-2.76-2.94-4.93-4.81-1.51-1.31-3.11-1.02-4.68-2.39-1.48-1.3-2.57-4.45-4.3-5.88-4.74-3.92-6.51.15-10.84-.59-3.2-.55-3.76-6.08-7.8-2.34-2.07-4.94-6.29-4.79-9.12-.9-8.62-10.35-10.99,2.12-16.7,7.93-4.72,4.81-14.16,2.75-18.03,8.76-4.75-8.25-19.69-1.61-21.04,9.25-2.56-3.75-15.65-3.38-18.17-.17-1.75-3.47-5.2-3.28-6.85.61-4.13-11.05-9.79-4.13-13.08,4.29,1.04.41,2.38-.44,3.94-3.24h.04Z" style="fill: #8bd711;"/>
          <path d="m250.05,212.25c-12.26-6.04-26.07,1.51-37.77-4.82-5.84-3.16-27.19-34.29-27.75-6.64-4.79,1.55-20.49-5.48-20.69-13.3-4.24-2.01-9.4-3.36-12.37-9.13-2.28-4.42-1.41-12.23-7.01-9.89.27,3.9.99,9.78-.39,13.51-1.78,4.81-6.97.02-10.08,3.02s-11.6,15.98-17.84,5.46c-2.65-4.47.8-8.59,0-11.05-2.47-7.61-5.22,2.51-5.23,11.59-.68-.43-1.67-.72-2.27-1.08-.09,6.86-4.02,8.01-7.15,4.91-1.74,9.75-7.4.85-8.87-3.9-.24-.78-.33-1.58-.33-2.35-.27.03-.54.07-.8.09-.9,4.81-6.66,7.5-9.51,6.79-2.84-.71-2.19,3.69-4.37,1.83,1.06,10.25-11.18-6.4-13.58-7.23-2.41-.83-2.13,12.36-4.1,14.93-3.18,4.15-5.43-.06-8.87-1.47-3.87-1.58-3.35-1.61-7.54-.83-4.11.76-6.94-2.24-10.55,1.44-1.23,1.25-4.29,7.35-5.79,10.88h228.61c-1.98-1.14-4.09-1.94-5.73-2.75h-.02Z" style="fill: #3ba301;"/>
          <path d="m128.74,215c-.62-.17-1.23-.36-1.84-.6-3.95-1.58-7.32-5.2-11.2-6.17-11.12-2.79-20.05,3.94-30.92,3.72-3.75-.08-7.46-1.42-11.21-1.89-2.39-.3-8.29-3.44-10.04-2.91-3.69,1.13-3.13,5.99-8.19,6.05-3.61.04-7.22-1.6-10.62-2.18-2.85-.49-7.01-3.15-9.79-2.64-2.83.52-6.32,5.1-7.92,6.01l.04.61h101.7-.01Z" style="fill: #228e01;"/>
        </g>
        <path d="m0,282h1920C1211.75,191.99,99.66,205.98,0,207.44v74.56Z" style="fill: url(#Degradado_sin_nombre_15);"/>
      </g>
      <g>
        <ellipse cx="335" cy="225.69" rx="96.5" ry="7.28" style="fill: url(#radial-gradient); mix-blend-mode: multiply; opacity: .37;"/>
        <g>
          <path d="m396.93,134.02c.18-.53.28-1.1.28-1.69,0-2.96-2.41-5.37-5.37-5.37-.5,0-.98.08-1.45.2-1.36-2.46-3.72-4.29-6.51-5,.13-.5.2-1.02.2-1.57,0-3.59-2.9-6.5-6.5-6.5-.18,0-.35,0-.53.04-1.62-3.63-5.24-6.15-9.46-6.15-5.58,0-10.09,4.38-10.36,9.88-.09,0-.18-.01-.28-.01-2.88,0-5.21,2.26-5.36,5.11-.81-.31-1.71-.48-2.63-.48-3.63,0-6.65,2.54-7.43,5.93-5.29.47-9.44,4.91-9.44,10.33,0,3.43,1.68,6.47,4.25,8.36.02-.06.03-.12.05-.18-.09-2.02.12-4.05.65-6.05.34-1.29,1.86-1.81,2.98-1.4,1.28-.44,2.99.3,2.93,1.97,0,0,0,0,0,0,.51.41.86,1.02.84,1.68-.04,1.61-.3,3.21-.8,4.73,0,.41,0,.83-.02,1.24,1.29-.06,2.52-.35,3.65-.85,1.11,3.47,4.36,6,8.22,6,1.59,0,3.09-.45,4.37-1.2,2.68,1.32,5.69,2.08,8.87,2.08,5.83,0,11.08-2.5,14.72-6.48,1.61,1.01,3.5,1.6,5.52,1.6,5.73,0,10.38-4.66,10.38-10.38,0-2.14-.66-4.14-1.78-5.8Z" style="fill: url(#linear-gradient);"/>
          <path d="m328.87,144.94c.18-.53.28-1.1.28-1.69,0-2.96-2.41-5.37-5.37-5.37-.5,0-.98.08-1.45.2-1.36-2.46-3.72-4.29-6.51-5,.13-.5.2-1.02.2-1.57,0-3.59-2.9-6.5-6.5-6.5-.18,0-.35,0-.53.04-1.62-3.63-5.24-6.15-9.46-6.15-5.58,0-10.09,4.38-10.36,9.88-.09,0-.18-.02-.28-.02-2.88,0-5.21,2.26-5.36,5.11-.81-.3-1.71-.48-2.63-.48-3.63,0-6.65,2.54-7.43,5.92-5.29.47-9.44,4.91-9.44,10.33,0,5.72,4.64,10.37,10.37,10.37,1.48,0,2.88-.31,4.16-.88,1.11,3.48,4.36,6,8.22,6,1.59,0,3.09-.45,4.37-1.21,2.68,1.32,5.69,2.08,8.87,2.08,5.83,0,11.08-2.5,14.72-6.48,1.61,1.01,3.5,1.6,5.52,1.6,5.73,0,10.38-4.66,10.38-10.38,0-2.14-.66-4.14-1.78-5.8" style="fill: url(#linear-gradient-2);"/>
          <path d="m405.05,93.83c.39-1.12.6-2.34.6-3.6,0-6.31-5.13-11.44-11.45-11.44-1.07,0-2.1.16-3.08.44-2.91-5.23-7.92-9.13-13.86-10.66.28-1.07.42-2.18.42-3.35,0-7.65-6.18-13.84-13.84-13.84-.39,0-.75.02-1.13.07-3.45-7.73-11.17-13.11-20.16-13.11-11.88,0-21.5,9.32-22.06,21.05-.19,0-.38-.03-.59-.03-6.13,0-11.1,4.82-11.42,10.88-1.73-.65-3.64-1.02-5.61-1.02-7.74,0-14.16,5.41-15.83,12.62-11.26.99-20.11,10.45-20.11,22,0,12.18,9.89,22.09,22.09,22.09,3.15,0,6.14-.67,8.86-1.87,2.36,7.4,9.28,12.79,17.5,12.79,3.4,0,6.57-.95,9.32-2.57,5.7,2.81,12.11,4.43,18.9,4.43,12.41,0,23.59-5.32,31.36-13.81,3.42,2.15,7.45,3.42,11.77,3.42,12.2,0,22.11-9.92,22.11-22.11,0-4.56-1.4-8.82-3.8-12.37" style="fill: url(#linear-gradient-3);"/>
          <path d="m397.96,90.79c.35-.99.53-2.05.53-3.16,0-5.56-4.52-10.07-10.06-10.07-.92,0-1.85.13-2.69.39-2.57-4.61-6.95-8.03-12.2-9.36.23-.96.37-1.93.37-2.95,0-6.73-5.44-12.18-12.2-12.18-.3,0-.64.03-.96.04-3.02-6.78-9.82-11.5-17.73-11.5-10.43,0-18.91,8.21-19.39,18.51-.17-.02-.32-.02-.5-.02-5.39,0-9.8,4.23-10.05,9.55-1.53-.56-3.21-.89-4.95-.89-6.78,0-12.44,4.73-13.9,11.06-9.91.9-17.67,9.21-17.67,19.36,0,10.71,8.68,19.42,19.4,19.42,2.78,0,5.42-.6,7.8-1.63,2.08,6.5,8.18,11.23,15.37,11.23,3.01,0,5.8-.83,8.19-2.26,5.01,2.5,10.67,3.89,16.64,3.89,10.91,0,20.73-4.67,27.6-12.13,2.98,1.88,6.5,3,10.31,3,10.72,0,19.43-8.7,19.43-19.41,0-4.03-1.23-7.79-3.34-10.88" style="fill: url(#linear-gradient-4);"/>
          <path d="m366.11,145.31s-8.59,10.87-31.37,11.98l-1.89,6.29s4.62-3.49,9.96-4.42c5.31-.92,20.87-7.44,24.59-13.69l-1.28-.17Z" style="fill: url(#linear-gradient-5);"/>
          <path d="m363.06,142.94s.06,5.02-3.37,8.39c-3.43,3.39-.22.1-.12.11.08.02,2.08-.82,2.08-.82,0,0,2.61-5.64,1.41-7.68" style="fill: url(#linear-gradient-6);"/>
          <path d="m291.49,154.87s6.5,16.45,33.95,26.22v8.41s-4.38-5.99-10.56-9.09c-6.16-3.08-22.8-16.82-25.03-25.82l1.64.28Z" style="fill: url(#linear-gradient-7);"/>
          <path d="m307.82,172.92c-7.07-12.88-2.47-27.52-2.47-27.52-5.32,4.91-2.66,23.74-2.66,23.74,0,0,4.75,3.9,5.35,4.18-.07-.14-.14-.26-.22-.4Z" style="fill: url(#linear-gradient-8);"/>
          <path d="m321.58,217.28s1.02,6.18-8.75,6.93c-9.75.78-10.68,2.46-10.68,2.46,0,0,10.68-1.02,16.22-.77,5.52.26,7.34-1.8,11.94-1.42,4.64.4,12.1,2.97,18.52,2.58,6.42-.39,10.41-2.18,14.53-1.29,4.13.9.64-1.56-5.13-1.41-5.8.12-11.07.26-13.78-3.22-2.7-3.45-22.89-3.85-22.89-3.85" style="fill: url(#linear-gradient-9);"/>
          <path d="m331.08,123.74s4.64,1.28-3.59,37.81c-8.24,36.51-5.4,63.02-5.4,63.02h24.44s-11.41-22.89-10.04-45.54c1.37-22.62,19.72-44.41,23.51-60.52l-6.52-.69s-8.92,24.16-14.75,29.99c0,0,3.08-20.57.69-29.81-2.4-9.26-8.34,5.73-8.34,5.73" style="fill: url(#linear-gradient-10);"/>
          <path d="m333.53,126.61c1.15,4.11-1.92,20.7-3.33,28.17-1.43,7.45-5.15,28.16-5.15,28.16,0,0,3.86-17.75,12.34-25.47,8.49-7.72,19.3-32.91,19.3-32.91,0,0-2.42-.21-5.69-.37-3.07,7.6-8.36,19.73-12.27,23.63,0,0,2.03-13.6,1.51-23.66-4.05.25-7.12.91-6.71,2.45" style="fill: url(#linear-gradient-11);"/>
          <path d="m404.21,83.33c.39-1.12.6-2.34.6-3.6,0-6.31-5.13-11.44-11.45-11.44-1.07,0-2.1.16-3.08.44-2.91-5.23-7.92-9.13-13.86-10.66.28-1.07.43-2.18.43-3.35,0-7.65-6.18-13.84-13.84-13.84-.39,0-.75.02-1.13.07-3.45-7.73-11.17-13.11-20.16-13.11-11.88,0-21.5,9.32-22.06,21.05-.19,0-.38-.03-.59-.03-6.13,0-11.1,4.82-11.41,10.88-1.74-.65-3.64-1.02-5.61-1.02-7.74,0-14.16,5.41-15.83,12.62-11.26.99-20.11,10.46-20.11,22,0,12.18,9.89,22.09,22.09,22.09,3.15,0,6.14-.67,8.86-1.87,2.36,7.4,9.28,12.79,17.5,12.79,3.39,0,6.57-.95,9.32-2.57,5.7,2.81,12.11,4.43,18.9,4.43,12.41,0,23.59-5.32,31.36-13.81,3.42,2.15,7.45,3.41,11.77,3.41,12.21,0,22.11-9.92,22.11-22.11,0-4.56-1.4-8.82-3.8-12.37" style="fill: url(#linear-gradient-12);"/>
          <path d="m397.12,80.29c.35-.99.53-2.05.53-3.16,0-5.56-4.52-10.07-10.06-10.07-.92,0-1.85.13-2.69.39-2.57-4.61-6.95-8.03-12.2-9.36.23-.95.37-1.93.37-2.95,0-6.73-5.44-12.18-12.2-12.18-.3,0-.64.03-.96.04-3.02-6.78-9.82-11.5-17.73-11.5-10.43,0-18.91,8.21-19.39,18.51-.17-.02-.32-.02-.5-.02-5.4,0-9.8,4.23-10.05,9.55-1.53-.56-3.21-.9-4.95-.9-6.78,0-12.44,4.73-13.9,11.07-9.91.9-17.67,9.21-17.67,19.36,0,10.71,8.68,19.42,19.4,19.42,2.78,0,5.42-.6,7.8-1.63,2.08,6.5,8.18,11.23,15.37,11.23,3.01,0,5.8-.83,8.19-2.26,5.01,2.5,10.67,3.89,16.64,3.89,10.91,0,20.73-4.67,27.6-12.13,2.98,1.88,6.5,3,10.31,3,10.72,0,19.43-8.7,19.43-19.42,0-4.03-1.23-7.79-3.34-10.88" style="fill: url(#linear-gradient-13);"/>
          <path d="m325.54,143.52c.16-.46.25-.96.25-1.48,0-2.61-2.12-4.73-4.73-4.73-.43,0-.87.06-1.27.18-1.21-2.16-3.26-3.77-5.73-4.4.11-.45.17-.91.17-1.38,0-3.16-2.56-5.72-5.73-5.72-.14,0-.3.02-.45.02-1.42-3.18-4.61-5.4-8.32-5.4-4.9,0-8.88,3.85-9.1,8.69-.08-.01-.15-.01-.23-.01-2.53,0-4.6,1.99-4.72,4.48-.72-.26-1.51-.42-2.32-.42-3.18,0-5.84,2.22-6.53,5.2-4.65.42-8.3,4.33-8.3,9.09,0,5.03,4.08,9.12,9.11,9.12,1.3,0,2.54-.28,3.66-.76.98,3.05,3.84,5.27,7.21,5.27,1.41,0,2.72-.39,3.85-1.06,2.35,1.17,5.01,1.83,7.81,1.83,5.12,0,9.73-2.19,12.96-5.69,1.4.88,3.05,1.41,4.84,1.41,5.03,0,9.12-4.08,9.12-9.11,0-1.89-.58-3.66-1.57-5.11" style="fill: url(#linear-gradient-14);"/>
          <path d="m328.47,140.01c.18-.53.28-1.1.28-1.69,0-2.97-2.41-5.37-5.37-5.37-.5,0-.98.08-1.45.2-1.36-2.46-3.72-4.29-6.51-5.01.13-.5.2-1.02.2-1.57,0-3.59-2.9-6.5-6.5-6.5-.18,0-.35,0-.53.03-1.62-3.63-5.24-6.15-9.46-6.15-5.58,0-10.09,4.38-10.36,9.88-.09,0-.18-.02-.28-.02-2.88,0-5.21,2.26-5.36,5.11-.81-.3-1.71-.48-2.63-.48-3.63,0-6.65,2.54-7.43,5.92-5.29.47-9.44,4.91-9.44,10.33,0,5.72,4.64,10.37,10.37,10.37,1.48,0,2.88-.31,4.16-.88,1.11,3.48,4.36,6,8.22,6,1.59,0,3.09-.45,4.37-1.21,2.68,1.32,5.69,2.08,8.87,2.08,5.83,0,11.08-2.5,14.72-6.48,1.61,1.01,3.5,1.6,5.52,1.6,5.73,0,10.38-4.66,10.38-10.38,0-2.14-.66-4.14-1.78-5.8" style="fill: url(#linear-gradient-15);"/>
          <path d="m325.15,138.59c.16-.46.25-.96.25-1.48,0-2.61-2.12-4.73-4.73-4.73-.43,0-.87.06-1.26.18-1.21-2.16-3.27-3.77-5.73-4.4.11-.45.18-.91.18-1.38,0-3.16-2.56-5.72-5.73-5.72-.14,0-.3.02-.45.02-1.42-3.18-4.61-5.4-8.32-5.4-4.9,0-8.88,3.85-9.1,8.69-.08-.01-.15-.01-.23-.01-2.53,0-4.6,1.99-4.72,4.49-.72-.26-1.51-.42-2.32-.42-3.18,0-5.84,2.22-6.53,5.19-4.65.42-8.3,4.33-8.3,9.09,0,5.03,4.08,9.12,9.11,9.12,1.3,0,2.54-.28,3.66-.76.98,3.05,3.84,5.27,7.21,5.27,1.41,0,2.72-.39,3.84-1.06,2.35,1.17,5.01,1.83,7.81,1.83,5.12,0,9.73-2.19,12.96-5.69,1.4.88,3.05,1.41,4.84,1.41,5.03,0,9.12-4.09,9.12-9.11,0-1.89-.58-3.66-1.57-5.11" style="fill: url(#linear-gradient-16);"/>
          <path d="m339.42,161.55s-5.5,6.52-8.23,15.6c-2.75,9.09-3.11,27.95-1.55,36.35,1.55,8.41,1.19-5.83,4.79-2.39,3.6,3.43,3.94,9.77,7.03,9.42,0,0-12.51-24.86-2.05-58.98" style="fill: url(#linear-gradient-17);"/>
          <path d="m393.6,132.59c.16-.46.25-.96.25-1.48,0-2.61-2.12-4.73-4.73-4.73-.43,0-.87.06-1.27.18-1.2-2.16-3.26-3.77-5.73-4.39.11-.45.18-.91.18-1.38,0-3.16-2.56-5.72-5.73-5.72-.14,0-.3.02-.45.02-1.42-3.18-4.61-5.4-8.32-5.4-4.9,0-8.88,3.86-9.1,8.69-.08-.01-.15-.01-.23-.01-2.53,0-4.6,1.99-4.72,4.48-.72-.26-1.51-.42-2.32-.42-3.18,0-5.84,2.22-6.53,5.2-4.65.42-8.3,4.33-8.3,9.09,0,5.03,4.08,9.12,9.11,9.12,1.3,0,2.54-.28,3.66-.76.98,3.05,3.84,5.27,7.21,5.27,1.41,0,2.72-.39,3.85-1.06,2.35,1.17,5.01,1.83,7.81,1.83,5.12,0,9.73-2.19,12.95-5.69,1.4.88,3.05,1.41,4.84,1.41,5.03,0,9.12-4.08,9.12-9.12,0-1.89-.58-3.65-1.57-5.11" style="fill: url(#linear-gradient-18);"/>
          <path d="m396.54,129.09c.18-.53.28-1.1.28-1.69,0-2.96-2.41-5.37-5.37-5.37-.5,0-.98.08-1.45.2-1.36-2.46-3.72-4.29-6.51-5,.13-.5.2-1.02.2-1.57,0-3.59-2.9-6.5-6.5-6.5-.18,0-.35,0-.53.04-1.62-3.63-5.24-6.15-9.46-6.15-5.58,0-10.09,4.38-10.36,9.88-.09,0-.18-.02-.28-.02-2.88,0-5.21,2.26-5.36,5.11-.81-.31-1.71-.48-2.63-.48-3.63,0-6.65,2.54-7.43,5.93-5.29.47-9.44,4.91-9.44,10.33,0,5.72,4.64,10.37,10.37,10.37,1.48,0,2.88-.31,4.16-.88,1.11,3.47,4.36,6,8.22,6,1.59,0,3.09-.45,4.37-1.21,2.68,1.32,5.69,2.08,8.87,2.08,5.83,0,11.08-2.5,14.72-6.48,1.61,1.01,3.5,1.6,5.52,1.6,5.73,0,10.38-4.66,10.38-10.38,0-2.14-.66-4.14-1.78-5.8" style="fill: url(#linear-gradient-19);"/>
          <path d="m393.21,127.66c.16-.46.25-.96.25-1.49,0-2.61-2.12-4.73-4.73-4.73-.43,0-.87.06-1.26.18-1.21-2.16-3.27-3.77-5.73-4.39.11-.45.18-.91.18-1.38,0-3.16-2.56-5.72-5.73-5.72-.14,0-.3.02-.45.02-1.42-3.18-4.61-5.4-8.32-5.4-4.9,0-8.88,3.85-9.1,8.69-.08-.01-.15-.01-.23-.01-2.53,0-4.6,1.99-4.72,4.49-.72-.26-1.51-.42-2.32-.42-3.18,0-5.84,2.22-6.53,5.19-4.65.42-8.3,4.33-8.3,9.09,0,5.03,4.08,9.12,9.11,9.12,1.3,0,2.54-.28,3.66-.76.98,3.05,3.84,5.27,7.21,5.27,1.41,0,2.72-.39,3.84-1.06,2.35,1.17,5.01,1.83,7.81,1.83,5.12,0,9.73-2.19,12.96-5.69,1.4.88,3.05,1.41,4.84,1.41,5.03,0,9.12-4.09,9.12-9.12,0-1.89-.58-3.66-1.57-5.11" style="fill: url(#linear-gradient-20);"/>
        </g>
      </g>
      <g>
        <g>
          <polygon points="1910.85 282.37 1919.69 280.71 1919.69 277.66 1894.55 282.37 1910.85 282.37" style="fill: url(#linear-gradient-21);"/>
          <g>
            <g>
              <g>
                <path d="m1568.91,282.37c-1.06-.92-2.14-1.84-3.23-2.73.68.9,1.35,1.82,2.01,2.73h1.22Z" style="fill: url(#linear-gradient-22);"/>
                <path d="m1746.11,282.37c-4.82-6.34-10.42-12.25-16.82-17.45,4.21,5.6,8.09,11.45,11.62,17.45h5.2Z" style="fill: url(#linear-gradient-23);"/>
                <path d="m1750.72,282.37c-1.16-1.08-2.37-2.12-3.61-3.13.78,1.03,1.53,2.08,2.27,3.13h1.33Z" style="fill: url(#linear-gradient-24);"/>
                <path d="m1745.67,282.37c1.56-12.67,4.09-25.4,7.6-37.86-6.87,12.07-11.71,24.9-14.75,37.86h7.15Z" style="fill: url(#linear-gradient-25);"/>
                <path d="m1730.83,282.37c-.94-4.28-1.75-8.6-2.39-12.94-.42,4.34-.55,8.66-.43,12.94h2.81Z" style="fill: url(#linear-gradient-26);"/>
                <path d="m1712.47,282.37c-3.73-4.28-7.85-8.31-12.37-11.99,2.92,3.89,5.68,7.9,8.28,11.99h4.09Z" style="fill: url(#linear-gradient-27);"/>
                <path d="m1655.86,282.37c-1.16-1.04-2.33-2.05-3.54-3.04.75,1,1.5,2.02,2.23,3.04h1.31Z" style="fill: url(#linear-gradient-28);"/>
                <path d="m1815.2,282.37c.96-11.57,3.05-23.3,6.26-34.71-6.26,11.01-10.2,22.88-12.14,34.71h5.88Z" style="fill: url(#linear-gradient-29);"/>
                <path d="m1806.72,282.37c.83-5,1.92-10,3.31-14.91-2.73,4.8-4.88,9.81-6.5,14.91h3.19Z" style="fill: url(#linear-gradient-30);"/>
                <path d="m1828.25,282.37c-8.75-16.68-20.95-32.37-36.53-45.06,10.62,14.14,19.76,29.42,27.06,45.06h9.47Z" style="fill: url(#linear-gradient-31);"/>
                <path d="m1833.83,282.37c-1.71-10.45-4.95-20.91-9.95-30.81,2.31,10.17,3.77,20.55,4.39,30.81h5.55Z" style="fill: url(#linear-gradient-32);"/>
                <path d="m1844.01,282.37c.69-13.32,2.92-26.96,6.63-40.18-7.23,12.7-11.37,26.56-12.91,40.18h6.27Z" style="fill: url(#linear-gradient-33);"/>
                <path d="m1891.57,282.37c0-16.09,2.31-32.93,6.87-49.13-8.82,15.5-13.04,32.72-13.53,49.13h6.67Z" style="fill: url(#linear-gradient-34);"/>
                <path d="m1882.05,282.37c.6-9.74,2.24-19.68,4.95-29.32-5.28,9.28-8.39,19.37-9.67,29.32h4.72Z" style="fill: url(#linear-gradient-35);"/>
                <path d="m1905.57,282.37h5.28l1.36-.25c-.54-15.02-4.1-30.58-11.36-44.97,3.41,14.97,4.97,30.38,4.72,45.22Z" style="fill: url(#linear-gradient-36);"/>
                <path d="m1919.69,245.55c-4.05,11.99-5.83,24.39-5.65,36.22l5.65-1.06v-35.16Z" style="fill: url(#linear-gradient-37);"/>
              </g>
              <g>
                <path d="m1776.3,282.37c-2.83-10.3-5-16.73-5-16.73,0,0,.28,6.49,1.32,16.73h3.69Z" style="fill: url(#linear-gradient-38);"/>
                <path d="m1755.71,282.37c-4.41-17.34-8.3-28.81-8.3-28.81l3.51,28.81h4.79Z" style="fill: url(#linear-gradient-39);"/>
                <path d="m1766.95,282.37c-2.13-9.28-4.27-15.58-9.4-30.71l3.74,30.71h5.66Z" style="fill: url(#linear-gradient-40);"/>
                <path d="m1745.57,282.37c-2.04-7.05-3.47-11.26-3.47-11.26,0,0,.18,4.24.8,11.26h2.66Z" style="fill: url(#linear-gradient-41);"/>
                <path d="m1725.1,282.37c-3.79-14.24-6.88-23.34-6.88-23.34,0,0,.4,9.21,1.93,23.34h4.94Z" style="fill: url(#linear-gradient-42);"/>
                <path d="m1714.75,282.37c-1.13-3.7-1.84-5.79-1.84-5.79,0,0,.09,2.1.36,5.79h1.48Z" style="fill: url(#linear-gradient-43);"/>
                <path d="m1686.01,282.37c-1.38-4.34-3.09-9.4-5.43-16.29l1.98,16.29h3.45Z" style="fill: url(#linear-gradient-44);"/>
                <path d="m1644.05,282.37c-1.7-5.66-2.81-8.93-2.81-8.93,0,0,.14,3.29.58,8.93h2.22Z" style="fill: url(#linear-gradient-45);"/>
                <path d="m1788.15,282.37c-3.1-11.53-5.58-18.84-5.58-18.84,0,0,.32,7.39,1.54,18.84h4.04Z" style="fill: url(#linear-gradient-46);"/>
                <path d="m1810.31,282.37l-9.85-38.74s.7,16.26,3.84,38.74h6.01Z" style="fill: url(#linear-gradient-47);"/>
                <path d="m1799.69,282.37l-9.37-36.84c.8,18.53,1.06,24.51,3.09,36.84h6.27Z" style="fill: url(#linear-gradient-48);"/>
                <path d="m1818.77,282.37c-3.73-14.64-7.01-24.3-7.01-24.3,0,0,.42,9.8,2.15,24.3h4.86Z" style="fill: url(#linear-gradient-49);"/>
                <path d="m1823.84,282.37c-2.07-8.09-3.66-13.21-3.66-13.21,0,0,.35,5.16,1.31,13.21h2.35Z" style="fill: url(#linear-gradient-50);"/>
                <path d="m1841.61,282.37c-5.66-25.62-11.96-44.21-11.96-44.21,0,0,.82,18.94,4.64,44.21h7.32Z" style="fill: url(#linear-gradient-51);"/>
                <path d="m1849.31,282.37c-4.26-17.65-8.37-29.77-8.37-29.77,0,0,.53,12.31,2.84,29.77h5.53Z" style="fill: url(#linear-gradient-52);"/>
                <path d="m1868.73,282.37c-4.53-19.51-9.19-33.25-9.19-33.25,0,0,.61,13.97,3.31,33.25h5.88Z" style="fill: url(#linear-gradient-53);"/>
                <path d="m1890.95,282.37l-13.52-53.16s1.02,23.54,6.08,53.16h7.44Z" style="fill: url(#linear-gradient-54);"/>
                <path d="m1880.33,282.37l-13.03-51.26c1.05,24.46,1.17,27.05,5.67,51.26h7.37Z" style="fill: url(#linear-gradient-55);"/>
                <path d="m1899.15,282.37c-4.88-22.37-10.42-38.72-10.42-38.72,0,0,.72,16.67,4.12,38.72h6.3Z" style="fill: url(#linear-gradient-56);"/>
                <path d="m1904.2,282.37c-3.41-15.96-7.05-27.62-7.05-27.62,0,0,.81,11.84,3.31,27.62h3.73Z" style="fill: url(#linear-gradient-57);"/>
                <path d="m1919.69,273.1c-5.91-28.24-13.07-49.35-13.07-49.35,0,0,1.13,26.21,6.95,58.11l6.11-1.14v-7.61Z" style="fill: url(#linear-gradient-58);"/>
                <path d="m1919.69,243.74c-1.09-3.55-1.77-5.56-1.77-5.56,0,0,.36,8.32,1.77,20.97v-15.41Z" style="fill: url(#linear-gradient-59);"/>
              </g>
              <g>
                <path d="m1765.42,282.37c-3.15-5.24-6.81-10.26-11.01-14.94,2.58,4.87,4.94,9.87,7.05,14.94h3.96Z" style="fill: url(#linear-gradient-60);"/>
                <path d="m1788.84,282.37c.56-2.25,1.17-4.48,1.82-6.7-1.29,2.19-2.46,4.44-3.54,6.7h1.71Z" style="fill: url(#linear-gradient-61);"/>
                <path d="m1699.42,282.37c-1.09-1.36-2.22-2.7-3.39-4.01.7,1.33,1.38,2.67,2.05,4.01h1.35Z" style="fill: url(#linear-gradient-62);"/>
                <path d="m1793.3,282.37h4.44c-.1-7.73.29-15.54,1.2-23.28-2.88,7.63-4.71,15.47-5.64,23.28Z" style="fill: url(#linear-gradient-63);"/>
                <path d="m1806.06,282.37c-2.71-2.81-5.61-5.48-8.74-7.95,2,2.59,3.92,5.25,5.76,7.95h2.98Z" style="fill: url(#linear-gradient-64);"/>
                <path d="m1850.95,282.37h5.64c-.83-11.23-.61-22.79.74-34.21-4.23,11.2-6.22,22.86-6.38,34.21Z" style="fill: url(#linear-gradient-65);"/>
                <path d="m1840.11,282.37c-3.99-4.86-8.51-9.39-13.6-13.42,3.34,4.32,6.45,8.81,9.33,13.42h4.27Z" style="fill: url(#linear-gradient-66);"/>
                <path d="m1875.49,282.37c-1.16-12.31-1.05-25.09.44-37.7-4.66,12.35-6.6,25.26-6.36,37.7h5.92Z" style="fill: url(#linear-gradient-67);"/>
                <path d="m1861.43,282.37c-4.6-6.18-10.04-11.92-16.32-16.9,4.18,5.4,8,11.07,11.44,16.9h4.88Z" style="fill: url(#linear-gradient-68);"/>
                <path d="m1894.41,282.37c-5.3-8.27-12.01-15.95-20.11-22.36,5.47,7.07,10.35,14.61,14.53,22.36h5.58Z" style="fill: url(#linear-gradient-69);"/>
                <path d="m1919.69,271.27c-4.58-6.12-9.97-11.81-16.21-16.74,6.22,8.04,11.68,16.68,16.21,25.56v-8.82Z" style="fill: url(#linear-gradient-70);"/>
              </g>
              <g>
                <g>
                  <path d="m1805.55,282.37c.41-1.66.83-3.32,1.3-4.96-.93,1.63-1.78,3.29-2.59,4.96h1.29Z" style="fill: url(#linear-gradient-71);"/>
                  <path d="m1822.12,282.37c.63-2.88,1.34-5.74,2.14-8.58-1.59,2.8-2.99,5.67-4.23,8.58h2.09Z" style="fill: url(#linear-gradient-72);"/>
                </g>
                <path d="m1850.21,282.37c.87-4.71,1.94-9.41,3.24-14.04-2.58,4.54-4.68,9.25-6.35,14.04h3.11Z" style="fill: url(#linear-gradient-73);"/>
                <path d="m1850.79,282.37c-3.36-3.97-7.1-7.71-11.25-11.09,2.7,3.59,5.23,7.29,7.59,11.09h3.65Z" style="fill: url(#linear-gradient-74);"/>
                <g>
                  <path d="m1852.18,282.37c-1.6-1.61-3.29-3.15-5.08-4.6,1.13,1.51,2.21,3.05,3.27,4.6h1.81Z" style="fill: url(#linear-gradient-75);"/>
                  <path d="m1879.69,282.37c.96-6.5,2.34-13,4.13-19.38-3.53,6.21-6.18,12.74-8.04,19.38h3.91Z" style="fill: url(#linear-gradient-76);"/>
                  <path d="m1896.61,282.37c.96-7.7,2.5-15.43,4.62-22.99-4.17,7.33-7.11,15.12-8.97,22.99h4.34Z" style="fill: url(#linear-gradient-77);"/>
                </g>
                <g>
                  <path d="m1886.26,282.37c-2.91-3.63-6.24-7.03-9.96-10.07,2.44,3.24,4.69,6.62,6.78,10.07h3.19Z" style="fill: url(#linear-gradient-78);"/>
                  <path d="m1871.92,282.37c-2.42-2.76-5.09-5.37-8.01-7.75,1.89,2.51,3.67,5.1,5.34,7.75h2.67Z" style="fill: url(#linear-gradient-79);"/>
                  <path d="m1873.23,282.37c-2.47-2.84-5.2-5.52-8.2-7.96,1.94,2.58,3.76,5.24,5.47,7.96h2.73Z" style="fill: url(#linear-gradient-80);"/>
                  <path d="m1910.18,282.37c-2.3-2.74-4.88-5.32-7.73-7.64,1.85,2.47,3.57,5.03,5.19,7.64h2.54Z" style="fill: url(#linear-gradient-81);"/>
                </g>
                <g>
                  <path d="m1918.46,280.94c-3.57-5.17-7.9-9.97-12.98-14.11,3.53,4.7,6.7,9.66,9.49,14.76l3.49-.65Z" style="fill: url(#linear-gradient-82);"/>
                  <path d="m1919.69,259.6c-1.03-.93-2.08-1.85-3.17-2.73,1.08,1.44,2.14,2.91,3.17,4.39v-1.66Z" style="fill: url(#linear-gradient-83);"/>
                </g>
              </g>
            </g>
            <g>
              <g>
                <path d="m1756.24,282.37c1.03-4.93,2.21-9.84,3.58-14.71-2.72,4.78-5.07,9.7-7.08,14.71h3.5Z" style="fill: url(#linear-gradient-84);"/>
                <path d="m1816.49,282.37c.8-4.01,1.76-8.01,2.87-11.96-2.21,3.88-4.07,7.89-5.64,11.96h2.77Z" style="fill: url(#linear-gradient-85);"/>
                <path d="m1813.63,282.37c-5.8-7.62-12.54-14.73-20.23-20.99,5.06,6.74,9.72,13.78,13.96,20.99h6.28Z" style="fill: url(#linear-gradient-86);"/>
                <path d="m1825.24,282.37c-1.1-2.89-2.35-5.75-3.76-8.55.65,2.83,1.21,5.69,1.7,8.55h2.06Z" style="fill: url(#linear-gradient-87);"/>
                <path d="m1841.1,282.37c.95-5.62,2.2-11.22,3.75-16.73-3.06,5.39-5.47,11.01-7.31,16.73h3.56Z" style="fill: url(#linear-gradient-88);"/>
                <path d="m1881.69,282.37c.99-8.22,2.61-16.47,4.88-24.55-4.45,7.82-7.54,16.15-9.46,24.55h4.58Z" style="fill: url(#linear-gradient-89);"/>
                <path d="m1874.79,282.37c.53-2.43,1.12-4.86,1.8-7.26-1.35,2.37-2.53,4.79-3.56,7.26h1.76Z" style="fill: url(#linear-gradient-90);"/>
                <path d="m1889.29,282.37c-7.32-12.4-16.89-23.98-28.69-33.58,7.97,10.6,14.97,21.94,20.83,33.58h7.85Z" style="fill: url(#linear-gradient-91);"/>
                <path d="m1896.23,282.37c-1.63-7.19-4.11-14.31-7.55-21.14,1.59,6.98,2.72,14.07,3.39,21.14h4.15Z" style="fill: url(#linear-gradient-92);"/>
                <path d="m1906.68,282.37c.88-9.78,2.67-19.68,5.38-29.32-5.29,9.3-8.67,19.32-10.42,29.32h5.03Z" style="fill: url(#linear-gradient-93);"/>
                <path d="m1919.69,261.67c-2.75-2.96-5.72-5.77-8.92-8.38,3.19,4.25,6.17,8.67,8.92,13.19v-4.81Z" style="fill: url(#linear-gradient-94);"/>
              </g>
              <g>
                <path d="m1756.86,282.37c-1.31-4.33-2.15-6.81-2.15-6.81l.83,6.81h1.32Z" style="fill: url(#linear-gradient-95);"/>
                <path d="m1766.42,282.37c-.82-2.46-1.76-5.23-2.86-8.46l1.03,8.46h1.83Z" style="fill: url(#linear-gradient-96);"/>
                <path d="m1804.96,282.37l-3.94-15.48s.26,5.95,1.18,15.48h2.75Z" style="fill: url(#linear-gradient-97);"/>
                <path d="m1795.69,282.37l-3.51-13.82c.25,5.75.43,10.1.65,13.82h2.86Z" style="fill: url(#linear-gradient-98);"/>
                <path d="m1832.48,282.37c-3.3-12.36-5.97-20.25-5.97-20.25,0,0,.35,7.98,1.67,20.25h4.3Z" style="fill: url(#linear-gradient-99);"/>
                <path d="m1838.76,282.37c-1.43-4.82-2.39-7.65-2.39-7.65,0,0,.12,2.84.51,7.65h1.87Z" style="fill: url(#linear-gradient-100);"/>
                <path d="m1845.62,282.37c-4.02-16.89-7.57-28.26-7.57-28.26,0,0,.79,11.5,3.06,28.26h4.51Z" style="fill: url(#linear-gradient-101);"/>
                <path d="m1855.89,282.37c-1.91-6.67-3.27-10.69-3.27-10.69,0,0,.18,4.04.78,10.69h2.5Z" style="fill: url(#linear-gradient-102);"/>
                <path d="m1875.37,282.37l-7.14-28.06s.5,11.48,2.59,28.06h4.55Z" style="fill: url(#linear-gradient-103);"/>
                <path d="m1866.1,282.37l-6.71-26.41c.56,13.05.82,18.96,1.83,26.41h4.89Z" style="fill: url(#linear-gradient-104);"/>
                <path d="m1882.7,282.37c-2.58-9.49-4.6-15.46-4.6-15.46,0,0,.26,6.04,1.24,15.46h3.37Z" style="fill: url(#linear-gradient-105);"/>
                <path d="m1887.12,282.37c-1-3.64-1.67-5.77-1.67-5.77,0,0,.15,2.14.51,5.77h1.16Z" style="fill: url(#linear-gradient-106);"/>
                <path d="m1902.85,282.37c-4.55-19.34-9.13-32.84-9.13-32.84,0,0,.59,13.72,3.22,32.84h5.91Z" style="fill: url(#linear-gradient-107);"/>
                <path d="m1909.46,282.37c-3.15-12.22-5.87-20.23-5.87-20.23,0,0,.35,8.12,1.76,20.23h4.11Z" style="fill: url(#linear-gradient-108);"/>
                <path d="m1910.85,282.37l4.64-.87c-4.97-23.14-10.22-39.97-10.22-39.97,0,0,1.2,17.53,4.91,40.84h.67Z" style="fill: url(#linear-gradient-109);"/>
              </g>
              <g>
                <path d="m1849.76,282.37c.17-3.84.47-7.69.92-11.53-1.43,3.79-2.56,7.65-3.43,11.53h2.5Z" style="fill: url(#linear-gradient-110);"/>
                <path d="m1865.92,282.37c.12-4.85.43-9.72,1-14.57-1.8,4.79-3.14,9.67-4.05,14.57h3.05Z" style="fill: url(#linear-gradient-111);"/>
                <path d="m1916.89,281.24c-.22-7.61.1-15.33,1.01-22.98-2.94,7.79-4.64,15.83-5.28,23.78l4.27-.8Z" style="fill: url(#linear-gradient-112);"/>
                <path d="m1897.65,282.37c-2.09-2.09-4.31-4.08-6.67-5.95,1.5,1.94,2.93,3.93,4.33,5.95h2.34Z" style="fill: url(#linear-gradient-113);"/>
                <path d="m1919.69,278.43c-3.32-6.43-7.46-12.58-12.48-18.17,3.61,6.8,6.71,13.89,9.25,21.06l3.22-.6v-2.28Z" style="fill: url(#linear-gradient-114);"/>
              </g>
              <g>
                <path d="m1912.96,281.97c.47-2.04.98-4.08,1.55-6.1-1.19,2.1-2.26,4.24-3.23,6.42l1.69-.32Z" style="fill: url(#linear-gradient-115);"/>
                <path d="m1906.76,282.37c-1.41-1.35-2.86-2.67-4.39-3.92.97,1.29,1.9,2.6,2.81,3.92h1.58Z" style="fill: url(#linear-gradient-116);"/>
                <path d="m1919.69,278c-.96-.87-1.93-1.72-2.95-2.55,1.01,1.35,1.99,2.73,2.95,4.12v-1.57Z" style="fill: url(#linear-gradient-117);"/>
              </g>
            </g>
            <g>
              <g>
                <path d="m1820.77,282.37c-3.1-3.15-6.38-6.17-9.86-9.01,2.22,2.95,4.36,5.96,6.42,9.01h3.44Z" style="fill: url(#linear-gradient-118);"/>
                <path d="m1861.11,282.37c.39-1.59.8-3.18,1.25-4.75-.89,1.56-1.71,3.15-2.49,4.75h1.24Z" style="fill: url(#linear-gradient-119);"/>
                <path d="m1901.1,282.37c.83-4.22,1.81-8.42,2.98-12.57-2.32,4.07-4.25,8.28-5.86,12.57h2.88Z" style="fill: url(#linear-gradient-120);"/>
                <path d="m1898.79,282.37c-5.9-7.85-12.78-15.17-20.67-21.6,5.21,6.93,10,14.17,14.34,21.6h6.33Z" style="fill: url(#linear-gradient-121);"/>
                <path d="m1910.19,282.37c-1.15-3.1-2.48-6.16-3.99-9.16.69,3.03,1.29,6.09,1.8,9.16h2.19Z" style="fill: url(#linear-gradient-122);"/>
              </g>
              <g>
                <path d="m1819.43,282.37l-.89-3.5s.05,1.25.2,3.5h.69Z" style="fill: url(#linear-gradient-123);"/>
                <path d="m1846.61,282.37c-1.56-5.24-2.59-8.27-2.59-8.27,0,0,.13,3.05.55,8.27h2.04Z" style="fill: url(#linear-gradient-124);"/>
                <path d="m1860.14,282.37c-2.64-10.06-4.57-16.28-4.57-16.28,0,0,.43,6.26,1.57,16.28h3.01Z" style="fill: url(#linear-gradient-125);"/>
                <path d="m1889.84,282.37l-4.09-16.08s.27,6.21,1.24,16.08h2.85Z" style="fill: url(#linear-gradient-126);"/>
                <path d="m1880.57,282.37l-3.67-14.43c.26,6.06.46,10.58.69,14.43h2.98Z" style="fill: url(#linear-gradient-127);"/>
                <path d="m1896.73,282.37c-.7-2.24-1.12-3.48-1.12-3.48,0,0,.05,1.25.2,3.48h.92Z" style="fill: url(#linear-gradient-128);"/>
                <path d="m1917.06,281.2c-3.23-12.04-5.82-19.7-5.82-19.7,0,0,.35,8.08,1.69,20.47l4.13-.77Z" style="fill: url(#linear-gradient-129);"/>
              </g>
            </g>
          </g>
        </g>
        <g>
          <path d="m1852.18,282.37s1.43-48-19.07-67c0,0,8.5,3,14.5,18,0,0,8.5,15.5,8,49h-3.43Z" style="fill: url(#linear-gradient-130);"/>
          <g>
            <path d="m1844.46,214.11s-17.45-4.28-23-.55c-5.55,3.73,2.06,11.93,13.63,10.84,11.57-1.09,9.37-10.29,9.37-10.29Z" style="fill: url(#linear-gradient-131);"/>
            <path d="m1835.64,217.68s9.56-15.22,16.13-16.4c6.58-1.18,6.82,10-2.25,17.27-9.07,7.27-13.89-.87-13.89-.87Z" style="fill: url(#linear-gradient-132);"/>
            <path d="m1840.17,215.48s-17.62,3.5-21.08,9.22c-3.45,5.72,6.91,9.94,16.94,4.06,10.02-5.88,4.14-13.28,4.14-13.28Z" style="fill: url(#linear-gradient-133);"/>
            <path d="m1839.94,215.34s14.95-9.7,21.37-7.97c6.42,1.72,1.98,11.94-9.22,14.66-11.2,2.72-12.15-6.69-12.15-6.69Z" style="fill: url(#linear-gradient-134);"/>
            <path d="m1838.8,213.07s10.81,4.83,13.57,13.85c3.54,11.54-11.21,16.15-14.95,2.41-2.43-8.9,1.38-16.26,1.38-16.26Z" style="fill: url(#linear-gradient-135);"/>
            <path d="m1842.55,223.38s-9.77-2.27-11.4-8.48c-2.08-7.94,12.51-12.93,14.54-3.42,1.31,6.16-3.14,11.9-3.14,11.9Z" style="fill: url(#linear-gradient-136);"/>
            <path d="m1839.7,215.46s-13.8,11.51-14.09,18.18c-.29,6.68,10.83,5.42,16.81-4.54,5.99-9.96-2.72-13.64-2.72-13.64Z" style="fill: url(#linear-gradient-137);"/>
            <path d="m1839.94,215.34s14.95-9.7,21.37-7.97c6.42,1.72,1.98,11.94-9.22,14.66-11.2,2.72-12.15-6.69-12.15-6.69Z" style="fill: url(#linear-gradient-138);"/>
            <path d="m1840.73,214.81s17.92-1.34,22.77,3.25c4.86,4.59-4,11.43-15.23,8.44-11.23-2.99-7.54-11.69-7.54-11.69Z" style="fill: url(#linear-gradient-139);"/>
            <path d="m1838.8,213.07s10.81,4.83,13.57,13.85c3.54,11.54-11.21,16.15-14.95,2.41-2.43-8.9,1.38-16.26,1.38-16.26Z" style="fill: url(#linear-gradient-140);"/>
            <path d="m1841.01,220.13s-9.77-2.27-11.4-8.48c-2.08-7.94,12.51-12.93,14.54-3.42,1.31,6.16-3.14,11.9-3.14,11.9Z" style="fill: url(#linear-gradient-141);"/>
            <path d="m1848.48,213.36c1.2,2.97-1.63,6.92-6.33,8.82-4.7,1.9-9.48,1.04-10.68-1.93-1.2-2.97,1.63-6.92,6.33-8.82,4.7-1.9,9.48-1.04,10.68,1.93Z" style="fill: url(#radial-gradient-2);"/>
          </g>
        </g>
        <g>
          <path d="m1895.23,280.87s1.99-66.63-26.47-93c0,0,11.8,4.16,20.13,24.98,0,0,11.8,21.51,11.1,68.01h-4.76Z" style="fill: url(#linear-gradient-142);"/>
          <g>
            <path d="m1884.5,186.12s-24.22-5.94-31.92-.77c-7.7,5.17,2.86,16.56,18.92,15.05,16.06-1.52,13-14.28,13-14.28Z" style="fill: url(#linear-gradient-143);"/>
            <path d="m1872.27,191.07s13.26-21.12,22.39-22.76c9.13-1.64,9.47,13.89-3.12,23.97-12.59,10.09-19.27-1.21-19.27-1.21Z" style="fill: url(#linear-gradient-144);"/>
            <path d="m1878.55,188.02s-24.46,4.85-29.26,12.8c-4.79,7.94,9.59,13.8,23.51,5.64,13.91-8.16,5.75-18.44,5.75-18.44Z" style="fill: url(#linear-gradient-145);"/>
            <path d="m1878.23,187.84s20.76-13.46,29.66-11.07c8.91,2.39,2.74,16.58-12.8,20.35-15.55,3.77-16.86-9.28-16.86-9.28Z" style="fill: url(#linear-gradient-146);"/>
            <path d="m1876.65,184.68s15,6.7,18.84,19.22c4.91,16.02-15.56,22.41-20.75,3.35-3.37-12.36,1.91-22.57,1.91-22.57Z" style="fill: url(#linear-gradient-147);"/>
            <path d="m1877.9,187.99s-19.16,15.97-19.56,25.24c-.41,9.27,15.03,7.52,23.34-6.3,8.31-13.83-3.78-18.94-3.78-18.94Z" style="fill: url(#linear-gradient-148);"/>
            <path d="m1878.23,187.84s20.76-13.46,29.66-11.07c8.91,2.39,2.74,16.58-12.8,20.35-15.55,3.77-16.86-9.28-16.86-9.28Z" style="fill: url(#linear-gradient-149);"/>
            <path d="m1879.32,187.1s24.87-1.86,31.61,4.52c6.74,6.37-5.56,15.86-21.14,11.71-15.59-4.15-10.47-16.23-10.47-16.23Z" style="fill: url(#linear-gradient-150);"/>
            <path d="m1876.65,184.68s15,6.7,18.84,19.22c4.91,16.02-15.56,22.41-20.75,3.35-3.37-12.36,1.91-22.57,1.91-22.57Z" style="fill: url(#linear-gradient-151);"/>
            <path d="m1879.72,194.49s-13.57-3.16-15.82-11.77c-2.88-11.02,17.37-17.94,20.19-4.75,1.82,8.55-4.36,16.52-4.36,16.52Z" style="fill: url(#linear-gradient-152);"/>
            <path d="m1890.09,185.09c1.67,4.12-2.26,9.6-8.78,12.24-6.52,2.64-13.16,1.44-14.83-2.68-1.67-4.12,2.26-9.6,8.78-12.24,6.52-2.64,13.16-1.44,14.83,2.68Z" style="fill: url(#radial-gradient-3);"/>
          </g>
        </g>
        <g>
          <path d="m1777.34,282.37s1.03-34.61-13.75-48.32c0,0,6.13,2.16,10.46,12.98,0,0,6.13,11.18,5.77,35.33h-2.47Z" style="fill: url(#linear-gradient-153);"/>
          <g>
            <path d="m1771.77,233.14s-12.58-3.09-16.58-.4c-4,2.69,1.49,8.61,9.83,7.82,8.34-.79,6.76-7.42,6.76-7.42Z" style="fill: url(#linear-gradient-154);"/>
            <path d="m1765.41,235.72s6.89-10.97,11.63-11.83c4.74-.85,4.92,7.21-1.62,12.45-6.54,5.24-10.01-.63-10.01-.63Z" style="fill: url(#linear-gradient-155);"/>
            <path d="m1768.68,234.13s-12.71,2.52-15.2,6.65c-2.49,4.13,4.98,7.17,12.21,2.93,7.23-4.24,2.99-9.58,2.99-9.58Z" style="fill: url(#linear-gradient-156);"/>
            <path d="m1768.51,234.03s10.78-6.99,15.41-5.75c4.63,1.24,1.43,8.61-6.65,10.57-8.08,1.96-8.76-4.82-8.76-4.82Z" style="fill: url(#linear-gradient-157);"/>
            <path d="m1767.69,232.4s7.79,3.48,9.79,9.98c2.55,8.32-8.08,11.64-10.78,1.74-1.75-6.42.99-11.72.99-11.72Z" style="fill: url(#linear-gradient-158);"/>
            <path d="m1768.34,234.12s-9.95,8.3-10.16,13.11c-.21,4.81,7.81,3.91,12.13-3.27,4.32-7.18-1.96-9.84-1.96-9.84Z" style="fill: url(#linear-gradient-159);"/>
            <path d="m1768.51,234.03s10.78-6.99,15.41-5.75c4.63,1.24,1.43,8.61-6.65,10.57-8.08,1.96-8.76-4.82-8.76-4.82Z" style="fill: url(#linear-gradient-160);"/>
            <path d="m1769.08,233.65s12.92-.96,16.42,2.35c3.5,3.31-2.89,8.24-10.99,6.08-8.1-2.16-5.44-8.43-5.44-8.43Z" style="fill: url(#linear-gradient-161);"/>
            <path d="m1767.69,232.4s7.79,3.48,9.79,9.98c2.55,8.32-8.08,11.64-10.78,1.74-1.75-6.42.99-11.72.99-11.72Z" style="fill: url(#linear-gradient-162);"/>
            <path d="m1769.28,237.49s-7.05-1.64-8.22-6.12c-1.5-5.73,9.02-9.32,10.49-2.47.95,4.44-2.27,8.59-2.27,8.59Z" style="fill: url(#linear-gradient-163);"/>
            <path d="m1774.67,232.61c.87,2.14-1.18,4.99-4.56,6.36-3.39,1.37-6.83.75-7.7-1.39-.87-2.14,1.17-4.99,4.56-6.36,3.39-1.37,6.83-.75,7.7,1.39Z" style="fill: url(#radial-gradient-4);"/>
          </g>
        </g>
        <g>
          <path d="m1811.05,282.37s1.67-55.9-22.21-78.03c0,0,9.9,3.5,16.89,20.96,0,0,9.9,18.05,9.32,57.07h-4Z" style="fill: url(#linear-gradient-164);"/>
          <g>
            <path d="m1802.05,202.87s-20.33-4.98-26.79-.65c-6.46,4.34,2.4,13.9,15.87,12.63,13.47-1.27,10.91-11.98,10.91-11.98Z" style="fill: url(#linear-gradient-165);"/>
            <path d="m1791.79,207.03s11.13-17.72,18.79-19.1c7.66-1.38,7.95,11.65-2.62,20.11-10.56,8.46-16.17-1.01-16.17-1.01Z" style="fill: url(#linear-gradient-166);"/>
            <path d="m1797.06,204.47s-20.53,4.07-24.55,10.74c-4.02,6.66,8.05,11.58,19.72,4.73,11.67-6.85,4.82-15.47,4.82-15.47Z" style="fill: url(#linear-gradient-167);"/>
            <path d="m1796.79,204.31s17.41-11.29,24.89-9.29c7.48,2.01,2.3,13.91-10.74,17.07-13.04,3.16-14.15-7.79-14.15-7.79Z" style="fill: url(#linear-gradient-168);"/>
            <path d="m1795.47,201.66s12.59,5.62,15.81,16.12c4.12,13.44-13.06,18.8-17.41,2.81-2.83-10.37,1.61-18.94,1.61-18.94Z" style="fill: url(#linear-gradient-169);"/>
            <path d="m1796.52,204.44s-16.07,13.4-16.41,21.18c-.34,7.77,12.61,6.31,19.58-5.29,6.97-11.6-3.17-15.89-3.17-15.89Z" style="fill: url(#linear-gradient-170);"/>
            <path d="m1796.79,204.31s17.41-11.29,24.89-9.29c7.48,2.01,2.3,13.91-10.74,17.07-13.04,3.16-14.15-7.79-14.15-7.79Z" style="fill: url(#linear-gradient-171);"/>
            <path d="m1797.71,203.69s20.87-1.56,26.52,3.79c5.66,5.35-4.66,13.31-17.74,9.83-13.08-3.48-8.78-13.62-8.78-13.62Z" style="fill: url(#linear-gradient-172);"/>
            <path d="m1795.47,201.66s12.59,5.62,15.81,16.12c4.12,13.44-13.06,18.8-17.41,2.81-2.83-10.37,1.61-18.94,1.61-18.94Z" style="fill: url(#linear-gradient-173);"/>
            <path d="m1798.04,209.89s-11.38-2.65-13.28-9.88c-2.42-9.25,14.58-15.05,16.94-3.99,1.53,7.17-3.66,13.87-3.66,13.87Z" style="fill: url(#linear-gradient-174);"/>
            <path d="m1806.74,202c1.4,3.46-1.9,8.06-7.37,10.27-5.47,2.21-11.04,1.21-12.44-2.25-1.4-3.46,1.9-8.06,7.37-10.27,5.47-2.21,11.04-1.21,12.44,2.25Z" style="fill: url(#radial-gradient-5);"/>
          </g>
        </g>
      </g>
      <g>
        <path d="m1687.99,241.46s-1.91-4.76,0-9.89c0,0-3,4.4-3.27,8.43,0,0-1.91-5.5-.54-8.06,0,0-2.18,6.59-2.45,8.79,0,0,0-4.76-1.64-7.69,0,0,1.09,5.5-.27,7.69,0,0-2.73-5.5-6.27-6.96,0,0,3.27,2.2,1.91,6.23,0,0-5.73-4.76-6.27-7.69,0,0-1.36,3.66,1.09,8.06,0,0-.14-2.7.14-3.3,0,0,3.71,3.89,5.28,5.04,0,0,1.4-2.38.89-4.85,0,0,2.9,4.4,2.86,6.41,0,0,1.12-1.92,1.53-4.08,0,0,.55,2.2.37,4.08,0,0,1.74-2.93,2.01-5.68,0,0,.17,4.08,1.47,5.59,0,0,.82-4.67,1.47-5.82,0,0,.44,1.83,1.7,3.71Z" style="fill: url(#linear-gradient-175);"/>
        <path d="m1606.91,223.58s-1.91-4.76,0-9.89c0,0-3,4.4-3.27,8.43,0,0-1.91-5.5-.54-8.06,0,0-2.18,6.59-2.45,8.79,0,0,0-4.76-1.64-7.69,0,0,1.09,5.5-.27,7.69,0,0-2.73-5.5-6.27-6.96,0,0,3.27,2.2,1.91,6.23,0,0-5.73-4.76-6.27-7.69,0,0-1.36,3.66,1.09,8.06,0,0-.14-2.7.14-3.3,0,0,3.71,3.89,5.28,5.04,0,0,1.4-2.38.89-4.85,0,0,2.9,4.4,2.86,6.41,0,0,1.12-1.92,1.53-4.08,0,0,.55,2.2.37,4.08,0,0,1.74-2.93,2.01-5.68,0,0,.17,4.08,1.47,5.59,0,0,.82-4.67,1.47-5.82,0,0,.44,1.83,1.7,3.71Z" style="fill: url(#linear-gradient-176);"/>
        <path d="m1666.91,204.08s-1.91-4.76,0-9.89c0,0-3,4.4-3.27,8.43,0,0-1.91-5.5-.54-8.06,0,0-2.18,6.59-2.45,8.79,0,0,0-4.76-1.64-7.69,0,0,1.09,5.5-.27,7.69,0,0-2.73-5.5-6.27-6.96,0,0,3.27,2.2,1.91,6.23,0,0-5.73-4.76-6.27-7.69,0,0-1.36,3.66,1.09,8.06,0,0-.14-2.7.14-3.3,0,0,3.71,3.89,5.28,5.04,0,0,1.4-2.38.89-4.85,0,0,2.9,4.4,2.86,6.41,0,0,1.12-1.92,1.53-4.08,0,0,.55,2.2.37,4.08,0,0,1.74-2.93,2.01-5.68,0,0,.17,4.08,1.47,5.59,0,0,.82-4.67,1.47-5.82,0,0,.44,1.83,1.7,3.71Z" style="fill: url(#linear-gradient-177);"/>
        <path d="m1584.91,223.08s-1.91-4.76,0-9.89c0,0-3,4.4-3.27,8.43,0,0-1.91-5.5-.54-8.06,0,0-2.18,6.59-2.45,8.79,0,0,0-4.76-1.64-7.69,0,0,1.09,5.5-.27,7.69,0,0-2.73-5.5-6.27-6.96,0,0,3.27,2.2,1.91,6.23,0,0-5.73-4.76-6.27-7.69,0,0-1.36,3.66,1.09,8.06,0,0-.14-2.7.14-3.3,0,0,3.71,3.89,5.28,5.04,0,0,1.4-2.38.89-4.85,0,0,2.9,4.4,2.86,6.41,0,0,1.12-1.92,1.53-4.08,0,0,.55,2.2.37,4.08,0,0,1.74-2.93,2.01-5.68,0,0,.17,4.08,1.47,5.59,0,0,.82-4.67,1.47-5.82,0,0,.44,1.83,1.7,3.71Z" style="fill: url(#linear-gradient-178);"/>
        <path d="m1686.41,204.08s-1.91-4.76,0-9.89c0,0-3,4.4-3.27,8.43,0,0-1.91-5.5-.54-8.06,0,0-2.18,6.59-2.45,8.79,0,0,0-4.76-1.64-7.69,0,0,1.09,5.5-.27,7.69,0,0-2.73-5.5-6.27-6.96,0,0,3.27,2.2,1.91,6.23,0,0-5.73-4.76-6.27-7.69,0,0-1.36,3.66,1.09,8.06,0,0-.14-2.7.14-3.3,0,0,3.71,3.89,5.28,5.04,0,0,1.4-2.38.89-4.85,0,0,2.9,4.4,2.86,6.41,0,0,1.12-1.92,1.53-4.08,0,0,.55,2.2.37,4.08,0,0,1.74-2.93,2.01-5.68,0,0,.17,4.08,1.47,5.59,0,0,.82-4.67,1.47-5.82,0,0,.44,1.83,1.7,3.71Z" style="fill: url(#linear-gradient-179);"/>
        <path d="m1708.41,242.08s-1.91-4.76,0-9.89c0,0-3,4.4-3.27,8.43,0,0-1.91-5.5-.54-8.06,0,0-2.18,6.59-2.45,8.79,0,0,0-4.76-1.64-7.69,0,0,1.09,5.5-.27,7.69,0,0-2.73-5.5-6.27-6.96,0,0,3.27,2.2,1.91,6.23,0,0-5.73-4.76-6.27-7.69,0,0-1.36,3.66,1.09,8.06,0,0-.14-2.7.14-3.3,0,0,3.71,3.89,5.28,5.04,0,0,1.4-2.38.89-4.85,0,0,2.9,4.4,2.86,6.41,0,0,1.12-1.92,1.53-4.08,0,0,.55,2.2.37,4.08,0,0,1.74-2.93,2.01-5.68,0,0,.17,4.08,1.47,5.59,0,0,.82-4.67,1.47-5.82,0,0,.44,1.83,1.7,3.71Z" style="fill: url(#linear-gradient-180);"/>
        <path d="m1744.91,217.08s-1.91-4.76,0-9.89c0,0-3,4.4-3.27,8.43,0,0-1.91-5.5-.54-8.06,0,0-2.18,6.59-2.45,8.79,0,0,0-4.76-1.64-7.69,0,0,1.09,5.5-.27,7.69,0,0-2.73-5.5-6.27-6.96,0,0,3.27,2.2,1.91,6.23,0,0-5.73-4.76-6.27-7.69,0,0-1.36,3.66,1.09,8.06,0,0-.14-2.7.14-3.3,0,0,3.71,3.89,5.28,5.04,0,0,1.4-2.38.89-4.85,0,0,2.9,4.4,2.86,6.41,0,0,1.12-1.92,1.53-4.08,0,0,.55,2.2.37,4.08,0,0,1.74-2.93,2.01-5.68,0,0,.17,4.08,1.47,5.59,0,0,.82-4.67,1.47-5.82,0,0,.44,1.83,1.7,3.71Z" style="fill: url(#linear-gradient-181);"/>
        <path d="m1494.91,232.58s-1.91-4.76,0-9.89c0,0-3,4.4-3.27,8.43,0,0-1.91-5.5-.54-8.06,0,0-2.18,6.59-2.45,8.79,0,0,0-4.76-1.64-7.69,0,0,1.09,5.5-.27,7.69,0,0-2.73-5.5-6.27-6.96,0,0,3.27,2.2,1.91,6.23,0,0-5.73-4.76-6.27-7.69,0,0-1.36,3.66,1.09,8.06,0,0-.14-2.7.14-3.3,0,0,3.71,3.89,5.28,5.04,0,0,1.4-2.38.89-4.85,0,0,2.9,4.4,2.86,6.41,0,0,1.12-1.92,1.53-4.08,0,0,.55,2.2.37,4.08,0,0,1.74-2.93,2.01-5.68,0,0,.17,4.08,1.47,5.59,0,0,.82-4.67,1.47-5.82,0,0,.44,1.83,1.7,3.71Z" style="fill: url(#linear-gradient-182);"/>
        <path d="m1429.74,226.25s-1.91-4.76,0-9.89c0,0-3,4.4-3.27,8.43,0,0-1.91-5.5-.54-8.06,0,0-2.18,6.59-2.45,8.79,0,0,0-4.76-1.64-7.69,0,0,1.09,5.5-.27,7.69,0,0-2.73-5.5-6.27-6.96,0,0,3.27,2.2,1.91,6.23,0,0-5.73-4.76-6.27-7.69,0,0-1.36,3.66,1.09,8.06,0,0-.14-2.7.14-3.3,0,0,3.71,3.89,5.28,5.04,0,0,1.4-2.38.89-4.85,0,0,2.9,4.4,2.86,6.41,0,0,1.12-1.92,1.53-4.08,0,0,.55,2.2.37,4.08,0,0,1.74-2.93,2.01-5.68,0,0,.17,4.08,1.47,5.59,0,0,.82-4.67,1.47-5.82,0,0,.44,1.83,1.7,3.71Z" style="fill: url(#linear-gradient-183);"/>
        <path d="m1475.74,199.58s-1.91-4.76,0-9.89c0,0-3,4.4-3.27,8.43,0,0-1.91-5.5-.54-8.06,0,0-2.18,6.59-2.45,8.79,0,0,0-4.76-1.64-7.69,0,0,1.09,5.5-.27,7.69,0,0-2.73-5.5-6.27-6.96,0,0,3.27,2.2,1.91,6.23,0,0-5.73-4.76-6.27-7.69,0,0-1.36,3.66,1.09,8.06,0,0-.14-2.7.14-3.3,0,0,3.71,3.89,5.28,5.04,0,0,1.4-2.38.89-4.85,0,0,2.9,4.4,2.86,6.41,0,0,1.12-1.92,1.53-4.08,0,0,.55,2.2.37,4.08,0,0,1.74-2.93,2.01-5.68,0,0,.17,4.08,1.47,5.59,0,0,.82-4.67,1.47-5.82,0,0,.44,1.83,1.7,3.71Z" style="fill: url(#linear-gradient-184);"/>
        <path d="m1532.41,200.91s-1.91-4.76,0-9.89c0,0-3,4.4-3.27,8.43,0,0-1.91-5.5-.54-8.06,0,0-2.18,6.59-2.45,8.79,0,0,0-4.76-1.64-7.69,0,0,1.09,5.5-.27,7.69,0,0-2.73-5.5-6.27-6.96,0,0,3.27,2.2,1.91,6.23,0,0-5.73-4.76-6.27-7.69,0,0-1.36,3.66,1.09,8.06,0,0-.14-2.7.14-3.3,0,0,3.71,3.89,5.28,5.04,0,0,1.4-2.38.89-4.85,0,0,2.9,4.4,2.86,6.41,0,0,1.12-1.92,1.53-4.08,0,0,.55,2.2.37,4.08,0,0,1.74-2.93,2.01-5.68,0,0,.17,4.08,1.47,5.59,0,0,.82-4.67,1.47-5.82,0,0,.44,1.83,1.7,3.71Z" style="fill: url(#linear-gradient-185);"/>
        <path d="m1383.74,192.25s-1.91-4.76,0-9.89c0,0-3,4.4-3.27,8.43,0,0-1.91-5.5-.54-8.06,0,0-2.18,6.59-2.45,8.79,0,0,0-4.76-1.64-7.69,0,0,1.09,5.5-.27,7.69,0,0-2.73-5.5-6.27-6.96,0,0,3.27,2.2,1.91,6.23,0,0-5.73-4.76-6.27-7.69,0,0-1.36,3.66,1.09,8.06,0,0-.14-2.7.14-3.3,0,0,3.71,3.89,5.28,5.04,0,0,1.4-2.38.89-4.85,0,0,2.9,4.4,2.86,6.41,0,0,1.12-1.92,1.53-4.08,0,0,.55,2.2.38,4.08,0,0,1.74-2.93,2.01-5.68,0,0,.17,4.08,1.47,5.59,0,0,.82-4.67,1.47-5.82,0,0,.44,1.83,1.7,3.71Z" style="fill: url(#linear-gradient-186);"/>
        <path d="m1429.96,176.85s-1.28-3.19,0-6.62c0,0-2.01,2.94-2.19,5.64,0,0-1.28-3.68-.37-5.39,0,0-1.46,4.41-1.64,5.88,0,0,0-3.19-1.1-5.15,0,0,.73,3.68-.18,5.15,0,0-1.82-3.68-4.2-4.66,0,0,2.19,1.47,1.28,4.17,0,0-3.83-3.19-4.2-5.15,0,0-.91,2.45.73,5.39,0,0-.09-1.81.09-2.21,0,0,2.49,2.6,3.54,3.37,0,0,.93-1.59.59-3.25,0,0,1.94,2.94,1.91,4.29,0,0,.75-1.29,1.03-2.73,0,0,.37,1.47.25,2.73,0,0,1.16-1.96,1.34-3.8,0,0,.11,2.73.98,3.74,0,0,.55-3.12.98-3.89,0,0,.3,1.23,1.14,2.48Z" style="fill: url(#linear-gradient-187);"/>
        <path d="m1489.38,173.68s-1.28-3.19,0-6.62c0,0-2.01,2.94-2.19,5.64,0,0-1.28-3.68-.37-5.39,0,0-1.46,4.41-1.64,5.88,0,0,0-3.19-1.1-5.15,0,0,.73,3.68-.18,5.15,0,0-1.82-3.68-4.2-4.66,0,0,2.19,1.47,1.28,4.17,0,0-3.83-3.19-4.2-5.15,0,0-.91,2.45.73,5.39,0,0-.09-1.81.09-2.21,0,0,2.49,2.6,3.54,3.37,0,0,.93-1.59.59-3.25,0,0,1.94,2.94,1.92,4.29,0,0,.75-1.29,1.03-2.73,0,0,.37,1.47.25,2.73,0,0,1.16-1.96,1.34-3.8,0,0,.11,2.73.98,3.74,0,0,.55-3.12.98-3.89,0,0,.3,1.23,1.14,2.48Z" style="fill: url(#linear-gradient-188);"/>
        <path d="m1583.38,185.01s-1.28-3.19,0-6.62c0,0-2.01,2.94-2.19,5.64,0,0-1.28-3.68-.37-5.39,0,0-1.46,4.41-1.64,5.88,0,0,0-3.19-1.1-5.15,0,0,.73,3.68-.18,5.15,0,0-1.82-3.68-4.2-4.66,0,0,2.19,1.47,1.28,4.17,0,0-3.83-3.19-4.2-5.15,0,0-.91,2.45.73,5.39,0,0-.09-1.81.09-2.21,0,0,2.49,2.6,3.54,3.37,0,0,.93-1.59.59-3.25,0,0,1.94,2.94,1.92,4.29,0,0,.75-1.29,1.03-2.73,0,0,.37,1.47.25,2.73,0,0,1.16-1.96,1.34-3.8,0,0,.11,2.73.98,3.74,0,0,.55-3.12.98-3.89,0,0,.3,1.23,1.14,2.48Z" style="fill: url(#linear-gradient-189);"/>
        <path d="m1599.3,185.52s-1.28-3.19,0-6.62c0,0-2.01,2.94-2.19,5.64,0,0-1.28-3.68-.37-5.39,0,0-1.46,4.41-1.64,5.88,0,0,0-3.19-1.1-5.15,0,0,.73,3.68-.18,5.15,0,0-1.82-3.68-4.2-4.66,0,0,2.19,1.47,1.28,4.17,0,0-3.83-3.19-4.2-5.15,0,0-.91,2.45.73,5.39,0,0-.09-1.81.09-2.21,0,0,2.49,2.6,3.54,3.37,0,0,.93-1.59.59-3.25,0,0,1.94,2.94,1.92,4.29,0,0,.75-1.29,1.03-2.73,0,0,.37,1.47.25,2.73,0,0,1.16-1.96,1.34-3.8,0,0,.11,2.73.98,3.74,0,0,.55-3.12.98-3.89,0,0,.3,1.23,1.14,2.48Z" style="fill: url(#linear-gradient-190);"/>
        <path d="m1673.96,169.52s-1.28-3.19,0-6.62c0,0-2.01,2.94-2.19,5.64,0,0-1.28-3.68-.37-5.39,0,0-1.46,4.41-1.64,5.88,0,0,0-3.19-1.1-5.15,0,0,.73,3.68-.18,5.15,0,0-1.82-3.68-4.2-4.66,0,0,2.19,1.47,1.28,4.17,0,0-3.83-3.19-4.2-5.15,0,0-.91,2.45.73,5.39,0,0-.09-1.81.09-2.21,0,0,2.49,2.6,3.54,3.37,0,0,.93-1.59.59-3.25,0,0,1.94,2.94,1.91,4.29,0,0,.75-1.29,1.03-2.73,0,0,.37,1.47.25,2.73,0,0,1.16-1.96,1.34-3.8,0,0,.11,2.73.98,3.74,0,0,.55-3.12.98-3.89,0,0,.3,1.23,1.14,2.48Z" style="fill: url(#linear-gradient-191);"/>
        <path d="m1687.3,169.52s-1.28-3.19,0-6.62c0,0-2.01,2.94-2.19,5.64,0,0-1.28-3.68-.37-5.39,0,0-1.46,4.41-1.64,5.88,0,0,0-3.19-1.1-5.15,0,0,.73,3.68-.18,5.15,0,0-1.82-3.68-4.2-4.66,0,0,2.19,1.47,1.28,4.17,0,0-3.83-3.19-4.2-5.15,0,0-.91,2.45.73,5.39,0,0-.09-1.81.09-2.21,0,0,2.49,2.6,3.54,3.37,0,0,.93-1.59.59-3.25,0,0,1.94,2.94,1.92,4.29,0,0,.75-1.29,1.03-2.73,0,0,.37,1.47.25,2.73,0,0,1.16-1.96,1.34-3.8,0,0,.11,2.73.98,3.74,0,0,.55-3.12.98-3.89,0,0,.3,1.23,1.14,2.48Z" style="fill: url(#linear-gradient-192);"/>
        <path d="m1775.3,190.85s-1.28-3.19,0-6.62c0,0-2.01,2.94-2.19,5.64,0,0-1.28-3.68-.37-5.39,0,0-1.46,4.41-1.64,5.88,0,0,0-3.19-1.1-5.15,0,0,.73,3.68-.18,5.15,0,0-1.82-3.68-4.2-4.66,0,0,2.19,1.47,1.28,4.17,0,0-3.83-3.19-4.2-5.15,0,0-.91,2.45.73,5.39,0,0-.09-1.81.09-2.21,0,0,2.49,2.6,3.54,3.37,0,0,.93-1.59.59-3.25,0,0,1.94,2.94,1.92,4.29,0,0,.75-1.29,1.03-2.73,0,0,.37,1.47.25,2.73,0,0,1.16-1.96,1.34-3.8,0,0,.11,2.73.98,3.74,0,0,.55-3.12.98-3.89,0,0,.3,1.23,1.14,2.48Z" style="fill: url(#linear-gradient-193);"/>
        <path d="m1789.98,245.13s-2.08-5.18,0-10.76c0,0-3.26,4.78-3.56,9.16,0,0-2.08-5.98-.59-8.76,0,0-2.37,7.17-2.67,9.56,0,0,0-5.18-1.78-8.37,0,0,1.19,5.98-.3,8.37,0,0-2.96-5.98-6.82-7.57,0,0,3.56,2.39,2.08,6.77,0,0-6.23-5.18-6.82-8.37,0,0-1.48,3.98,1.19,8.76,0,0-.15-2.94.15-3.59,0,0,4.04,4.23,5.75,5.48,0,0,1.52-2.59.96-5.28,0,0,3.15,4.78,3.11,6.97,0,0,1.22-2.09,1.67-4.43,0,0,.59,2.39.41,4.43,0,0,1.89-3.19,2.18-6.17,0,0,.19,4.43,1.6,6.08,0,0,.89-5.08,1.59-6.32,0,0,.48,1.99,1.85,4.03Z" style="fill: url(#linear-gradient-194);"/>
        <path d="m1794,175.29s-2.08-5.18,0-10.76c0,0-3.26,4.78-3.56,9.16,0,0-2.08-5.98-.59-8.76,0,0-2.37,7.17-2.67,9.56,0,0,0-5.18-1.78-8.37,0,0,1.19,5.98-.3,8.37,0,0-2.96-5.98-6.82-7.57,0,0,3.56,2.39,2.08,6.77,0,0-6.23-5.18-6.82-8.37,0,0-1.48,3.98,1.19,8.76,0,0-.15-2.94.15-3.59,0,0,4.04,4.23,5.75,5.48,0,0,1.52-2.59.96-5.28,0,0,3.15,4.78,3.11,6.97,0,0,1.22-2.09,1.67-4.43,0,0,.59,2.39.41,4.43,0,0,1.89-3.19,2.18-6.17,0,0,.19,4.43,1.6,6.08,0,0,.89-5.08,1.59-6.32,0,0,.48,1.99,1.85,4.03Z" style="fill: url(#linear-gradient-195);"/>
      </g>
    </g>
  </g>
</svg>