<?xml version="1.0" encoding="UTF-8"?>
<svg id="Capa_2" data-name="Capa 2" xmlns="http://www.w3.org/2000/svg" xmlns:xlink="http://www.w3.org/1999/xlink" viewBox="0 0 5751 375">
  <defs>
    <linearGradient id="linear-gradient" x1="1858.76" y1="96.68" x2="1858.76" y2="560.89" gradientTransform="translate(2531.22) rotate(-180) scale(1 -1)" gradientUnits="userSpaceOnUse">
      <stop offset="0" stop-color="#fff"/>
      <stop offset="1" stop-color="#00defd"/>
    </linearGradient>
    <linearGradient id="linear-gradient-2" x1="998.79" y1="96.68" x2="998.79" y2="560.89" xlink:href="#linear-gradient"/>
    <linearGradient id="linear-gradient-3" x1="250.79" y1="96.68" x2="250.79" y2="560.89" xlink:href="#linear-gradient"/>
    <linearGradient id="linear-gradient-4" x1="-552.21" y1="96.68" x2="-552.21" y2="560.89" xlink:href="#linear-gradient"/>
    <linearGradient id="linear-gradient-5" x1="-1552.71" y1="96.68" x2="-1552.71" y2="560.89" xlink:href="#linear-gradient"/>
    <linearGradient id="linear-gradient-6" x1="-4317.31" y1="90.68" x2="-4317.31" y2="554.89" gradientTransform="translate(8409.9 0) scale(.77 1)" xlink:href="#linear-gradient"/>
  </defs>
  <g id="Capa_3_-_nubes_detras" data-name="Capa 3 - nubes detras">
    <path d="m63.47,248.7c-7.94-20.34,10.33-33.6,29.68-34.95-3.62-10.81.63-17.32,13.01-18.12-2.7-19.82,20.75-22.33,37.14-21.26-1.13-18.81,27.79-20.11,42.71-15.85-4.29-26.94,41.83-27.14,61.24-26.67,3.62-27.76,25.35-28.69,50.23-28.35-2.09-27.65,35.46-17.2,50.45-27.19,6-3.99,3.33-15.71,12.77-22.08,10.99-7.42,26.99-7.13,38.87-2.51-2.46-27.29,39.48-67.04,55.9-31.89,20.25-6.22,36.75,8.87,33.81,28.83,12.82-.55,18.47,7.12,16.34,19.14,11-30.18,50.18-3.56,44.67,22.04,5.85-33.63,90.25-10.7,72.23,18.61,11.02-17.79,41.86-15.21,48.33,3.56,13.01-8.78,34.8-5.96,24.06,12.39,9.14-11.09,23.06-18.43,37.04-13.77-1.44-14.97,3.83-31.93,21.92-30.16-3.35-15.01,13.38-23.3,26.69-19,3.72-13.57,17.16-21.42,29.82-11.47,6.12-38.86,65.78-36.08,61.1,1.86,8.79-21.88,46.7-14.97,40.58,10.96,28.34-17.54,55.49,13.41,50.01,40.73,7.51-5.48,21.12-4.41,28.36,4.93,9.59-7.76,18.77-6.36,22.66,5.36,16.31-13.6,46.86-4.51,36.6,19.44,11.68-6.12,23.75-2.5,24.18,10.68,25.25-13.73,47.55,17.62,52.13,37.78l218.94,76.41v74.65c-118.14-10.63-231.78,25.62-228.86,42.21H11.28c-29.68-40.5,3.19-119.12,52.18-126.3Z" style="fill: url(#linear-gradient); opacity: .53;"/>
    <path d="m951.41,248.7c-7.58-20.34,9.85-33.6,28.31-34.95-3.46-10.81.6-17.32,12.41-18.12-2.58-19.82,19.79-22.33,35.44-21.26-1.08-18.81,26.51-20.11,40.75-15.85-4.09-26.94,39.91-27.14,58.43-26.67,3.45-27.76,24.19-28.69,47.92-28.35-1.99-27.65,33.83-17.2,48.14-27.19,5.72-3.99,3.17-15.71,12.18-22.08,10.49-7.42,25.75-7.13,37.09-2.51-2.35-27.29,37.67-67.04,53.33-31.89,19.32-6.22,35.06,8.87,32.25,28.83,12.23-.55,17.62,7.12,15.59,19.14,10.49-30.18,47.88-3.56,42.61,22.04,5.58-33.63,86.1-10.7,68.92,18.61,10.52-17.79,39.93-15.21,46.11,3.56,12.41-8.78,33.2-5.96,22.95,12.39,8.72-11.09,22-18.43,35.34-13.77-1.38-14.97,3.66-31.93,20.91-30.16-3.19-15.01,12.77-23.3,25.46-19,3.55-13.57,16.37-21.42,28.45-11.47,5.84-38.86,62.76-36.08,58.29,1.86,8.38-21.88,44.56-14.97,38.72,10.96,27.04-17.54,52.94,13.41,47.71,40.73,7.16-5.48,20.15-4.41,27.06,4.93,9.15-7.76,17.91-6.36,21.61,5.36,15.56-13.6,44.7-4.51,34.92,19.44,11.15-6.12,22.66-2.5,23.07,10.68,24.09-13.73,45.36,17.62,49.74,37.78l208.88,76.41v74.65c-112.71-10.63-221.13,25.62-218.35,42.21H901.62c-28.32-40.5,3.05-119.12,49.79-126.3Z" style="fill: url(#linear-gradient-2); opacity: .53;"/>
    <path d="m1699.41,248.7c-7.58-20.34,9.85-33.6,28.31-34.95-3.46-10.81.6-17.32,12.41-18.12-2.58-19.82,19.79-22.33,35.44-21.26-1.08-18.81,26.51-20.11,40.75-15.85-4.09-26.94,39.91-27.14,58.43-26.67,3.45-27.76,24.19-28.69,47.92-28.35-1.99-27.65,33.83-17.2,48.14-27.19,5.72-3.99,3.17-15.71,12.18-22.08,10.49-7.42,25.75-7.13,37.09-2.51-2.35-27.29,37.67-67.04,53.33-31.89,19.32-6.22,35.06,8.87,32.25,28.83,12.23-.55,17.62,7.12,15.59,19.14,10.49-30.18,47.88-3.56,42.61,22.04,5.58-33.63,86.1-10.7,68.92,18.61,10.52-17.79,39.93-15.21,46.11,3.56,12.41-8.78,33.2-5.96,22.95,12.39,8.72-11.09,22-18.43,35.34-13.77-1.38-14.97,3.66-31.93,20.91-30.16-3.19-15.01,12.77-23.3,25.46-19,3.55-13.57,16.37-21.42,28.45-11.47,5.84-38.86,62.76-36.08,58.29,1.86,8.38-21.88,44.56-14.97,38.72,10.96,27.04-17.54,52.94,13.41,47.71,40.73,7.16-5.48,20.15-4.41,27.06,4.93,9.15-7.76,17.91-6.36,21.61,5.36,15.56-13.6,44.7-4.51,34.92,19.44,11.15-6.12,22.66-2.5,23.07,10.68,24.09-13.73,45.36,17.62,49.74,37.78l208.88,76.41v74.65c-112.71-10.63-221.13,25.62-218.35,42.21h-1054.03c-28.32-40.5,3.05-119.12,49.79-126.3Z" style="fill: url(#linear-gradient-3); opacity: .53;"/>
    <path d="m2502.41,248.7c-7.58-20.34,9.85-33.6,28.31-34.95-3.46-10.81.6-17.32,12.41-18.12-2.58-19.82,19.79-22.33,35.44-21.26-1.08-18.81,26.51-20.11,40.75-15.85-4.09-26.94,39.91-27.14,58.43-26.67,3.45-27.76,24.19-28.69,47.92-28.35-1.99-27.65,33.83-17.2,48.14-27.19,5.72-3.99,3.17-15.71,12.18-22.08,10.49-7.42,25.75-7.13,37.09-2.51-2.35-27.29,37.67-67.04,53.33-31.89,19.32-6.22,35.06,8.87,32.25,28.83,12.23-.55,17.62,7.12,15.59,19.14,10.49-30.18,47.88-3.56,42.61,22.04,5.58-33.63,86.1-10.7,68.92,18.61,10.52-17.79,39.93-15.21,46.11,3.56,12.41-8.78,33.2-5.96,22.95,12.39,8.72-11.09,22-18.43,35.34-13.77-1.38-14.97,3.66-31.93,20.91-30.16-3.19-15.01,12.77-23.3,25.46-19,3.55-13.57,16.37-21.42,28.45-11.47,5.84-38.86,62.76-36.08,58.29,1.86,8.38-21.88,44.56-14.97,38.72,10.96,27.04-17.54,52.94,13.41,47.71,40.73,7.16-5.48,20.15-4.41,27.06,4.93,9.15-7.76,17.91-6.36,21.61,5.36,15.56-13.6,44.7-4.51,34.92,19.44,11.15-6.12,22.66-2.5,23.07,10.68,24.09-13.73,45.36,17.62,49.74,37.78l208.88,76.41v74.65c-112.71-10.63-221.13,25.62-218.35,42.21h-1054.03c-28.32-40.5,3.05-119.12,49.79-126.3Z" style="fill: url(#linear-gradient-4); opacity: .53;"/>
    <path d="m3410.99,248.7c-8.77-20.34,11.41-33.6,32.79-34.95-4-10.81.7-17.32,14.37-18.12-2.99-19.82,22.92-22.33,41.04-21.26-1.25-18.81,30.71-20.11,47.2-15.85-4.74-26.94,46.23-27.14,67.67-26.67,4-27.76,28.01-28.69,55.5-28.35-2.3-27.65,39.18-17.2,55.75-27.19,6.63-3.99,3.68-15.71,14.11-22.08,12.14-7.42,29.83-7.13,42.96-2.51-2.72-27.29,43.63-67.04,61.77-31.89,22.37-6.22,40.61,8.87,37.35,28.83,14.17-.55,20.4,7.12,18.06,19.14,12.15-30.18,55.45-3.56,49.36,22.04,6.46-33.63,99.72-10.7,79.82,18.61,12.18-17.79,46.25-15.21,53.41,3.56,14.38-8.78,38.45-5.96,26.59,12.39,10.1-11.09,25.48-18.43,40.93-13.77-1.59-14.97,4.24-31.93,24.22-30.16-3.7-15.01,14.79-23.3,29.49-19,4.11-13.57,18.96-21.42,32.95-11.47,6.76-38.86,72.69-36.08,67.51,1.86,9.71-21.88,51.61-14.97,44.84,10.96,31.31-17.54,61.31,13.41,55.26,40.73,8.29-5.48,23.34-4.41,31.34,4.93,10.59-7.76,20.74-6.36,25.03,5.36,18.03-13.6,51.78-4.51,40.44,19.44,12.91-6.12,26.24-2.5,26.72,10.68,27.9-13.73,52.54,17.62,57.61,37.78l241.93,76.41v74.65c-130.55-10.63-256.12,25.62-252.89,42.21h-1220.78c-32.8-40.5,3.53-119.12,57.66-126.3Z" style="fill: url(#linear-gradient-5); opacity: .53;"/>
    <path d="m5688.52,242.7c7.82-20.34-10.17-33.6-29.22-34.95,3.57-10.81-.62-17.32-12.8-18.12,2.66-19.82-20.42-22.33-36.56-21.26,1.12-18.81-27.36-20.11-42.05-15.85,4.22-26.94-41.18-27.14-60.29-26.67-3.56-27.76-24.96-28.69-49.45-28.35,2.05-27.65-34.9-17.2-49.67-27.19-5.9-3.99-3.27-15.71-12.57-22.08-10.82-7.42-26.57-7.13-38.27-2.51,2.42-27.29-38.87-67.04-55.03-31.89-19.93-6.22-36.18,8.87-33.28,28.83-12.62-.55-18.18,7.12-16.09,19.14-10.83-30.18-49.4-3.56-43.97,22.04-5.76-33.63-88.84-10.7-71.11,18.61-10.85-17.79-41.21-15.21-47.58,3.56-12.81-8.78-34.25-5.96-23.68,12.39-9-11.09-22.7-18.43-36.46-13.77,1.42-14.97-3.77-31.93-21.57-30.16,3.3-15.01-13.17-23.3-26.27-19-3.66-13.57-16.89-21.42-29.35-11.47-6.02-38.86-64.76-36.08-60.15,1.86-8.65-21.88-45.98-14.97-39.95,10.96-27.9-17.54-54.63,13.41-49.23,40.73-7.39-5.48-20.8-4.41-27.92,4.93-9.44-7.76-18.48-6.36-22.3,5.36-16.06-13.6-46.13-4.51-36.03,19.44-11.5-6.12-23.38-2.5-23.81,10.68-24.85-13.73-46.81,17.62-51.32,37.78l-215.53,76.41v74.65c116.3-10.63,228.18,25.62,225.3,42.21h1087.59c29.22-40.5-3.14-119.12-51.37-126.3Z" style="fill: url(#linear-gradient-6); opacity: .53;"/>
  </g>
</svg>