<?xml version="1.0" encoding="UTF-8"?>
<svg id="Capa_2" data-name="Capa 2" xmlns="http://www.w3.org/2000/svg" xmlns:xlink="http://www.w3.org/1999/xlink" viewBox="0 0 5617.44 467.84">
  <defs>
    <linearGradient id="linear-gradient" x1="4831.83" y1="127.04" x2="4831.83" y2="695.47" gradientUnits="userSpaceOnUse">
      <stop offset="0" stop-color="#fff"/>
      <stop offset="1" stop-color="#00defd"/>
    </linearGradient>
    <linearGradient id="linear-gradient-2" x1="3302.83" y1="111.04" x2="3302.83" y2="679.47" xlink:href="#linear-gradient"/>
    <linearGradient id="linear-gradient-3" x1="2058.83" x2="2058.83" xlink:href="#linear-gradient"/>
    <linearGradient id="linear-gradient-4" x1="1622.05" y1="127.04" x2="1622.05" y2="695.47" gradientTransform="translate(2407.66) rotate(-180) scale(1 -1)" xlink:href="#linear-gradient"/>
  </defs>
  <g id="Capa_3_-_nubes_detras" data-name="Capa 3 - nubes detras">
    <path d="m5543.29,313.19c9.28-24.91-12.07-41.14-34.67-42.8,4.23-13.24-.74-21.21-15.19-22.19,3.16-24.26-24.24-27.34-43.39-26.04,1.32-23.03-32.47-24.62-49.9-19.41,5.01-32.99-48.87-33.23-71.55-32.66-4.23-34-29.62-35.13-58.68-34.71,2.44-33.86-41.42-21.06-58.94-33.29-7-4.89-3.89-19.23-14.92-27.04-12.84-9.09-31.54-8.73-45.42-3.07,2.88-33.42-46.12-82.1-65.3-39.05-23.65-7.62-42.93,10.87-39.49,35.31-14.98-.68-21.57,8.72-19.09,23.43-12.85-36.96-58.63-4.36-52.18,26.99-6.84-41.19-105.43-13.11-84.39,22.79-12.88-21.79-48.9-18.62-56.46,4.35-15.2-10.76-40.65-7.3-28.11,15.17-10.68-13.58-26.94-22.57-43.27-16.87,1.68-18.34-4.48-39.1-25.6-36.93,3.91-18.38-15.63-28.53-31.18-23.27-4.34-16.62-20.05-26.22-34.83-14.05-7.15-47.59-76.85-44.18-71.38,2.28-10.26-26.8-54.56-18.33-47.41,13.42-33.11-21.48-64.83,16.42-58.42,49.87-8.77-6.71-24.68-5.4-33.13,6.03-11.2-9.5-21.93-7.78-26.47,6.56-19.06-16.65-54.74-5.53-42.76,23.8-13.65-7.5-27.74-3.06-28.25,13.08-29.5-16.81-55.55,21.57-60.9,46.26l-255.78,93.57v91.41c138.02-13.01,270.78,31.37,267.37,51.68h1290.67c34.68-49.6-3.73-145.87-60.96-154.65Z" style="fill: url(#linear-gradient); opacity: .53;"/>
    <path d="m4014.29,297.19c9.28-24.91-12.07-41.14-34.67-42.8,4.23-13.24-.74-21.21-15.19-22.19,3.16-24.26-24.24-27.34-43.39-26.04,1.32-23.03-32.47-24.62-49.9-19.41,5.01-32.99-48.87-33.23-71.55-32.66-4.23-34-29.62-35.13-58.68-34.71,2.44-33.86-41.42-21.06-58.94-33.29-7-4.89-3.89-19.23-14.92-27.04-12.84-9.09-31.54-8.73-45.42-3.07,2.88-33.42-46.12-82.1-65.3-39.05-23.65-7.62-42.93,10.87-39.49,35.31-14.98-.68-21.57,8.72-19.09,23.43-12.85-36.96-58.63-4.36-52.18,26.99-6.84-41.19-105.43-13.11-84.39,22.79-12.88-21.79-48.9-18.62-56.46,4.35-15.2-10.76-40.65-7.3-28.11,15.17-10.68-13.58-26.94-22.57-43.27-16.87,1.68-18.34-4.48-39.1-25.6-36.93,3.91-18.38-15.63-28.53-31.18-23.27-4.34-16.62-20.05-26.22-34.83-14.05-7.15-47.59-76.85-44.18-71.38,2.28-10.26-26.8-54.56-18.33-47.41,13.42-33.11-21.48-64.83,16.42-58.42,49.87-8.77-6.71-24.68-5.4-33.13,6.03-11.2-9.5-21.93-7.78-26.47,6.56-19.06-16.65-54.74-5.53-42.76,23.8-13.65-7.5-27.74-3.06-28.25,13.08-29.5-16.81-55.55,21.57-60.9,46.26l-255.78,93.57v91.41c138.02-13.01,270.78,31.37,267.37,51.68h1290.67c34.68-49.6-3.73-145.87-60.96-154.65Z" style="fill: url(#linear-gradient-2); opacity: .53;"/>
    <path d="m2770.29,313.19c9.28-24.91-12.07-41.14-34.67-42.8,4.23-13.24-.74-21.21-15.19-22.19,3.16-24.26-24.24-27.34-43.39-26.04,1.32-23.03-32.47-24.62-49.9-19.41,5.01-32.99-48.87-33.23-71.55-32.66-4.23-34-29.62-35.13-58.68-34.71,2.44-33.86-41.42-21.06-58.94-33.29-7-4.89-3.89-19.23-14.92-27.04-12.84-9.09-31.54-8.73-45.42-3.07,2.88-33.42-46.12-82.1-65.3-39.05-23.65-7.62-42.93,10.87-39.49,35.31-14.98-.68-21.57,8.72-19.09,23.43-12.85-36.96-58.63-4.36-52.18,26.99-6.84-41.19-105.43-13.11-84.39,22.79-12.88-21.79-48.9-18.62-56.46,4.35-15.2-10.76-40.65-7.3-28.11,15.17-10.68-13.58-26.94-22.57-43.27-16.87,1.68-18.34-4.48-39.1-25.6-36.93,3.91-18.38-15.63-28.53-31.18-23.27-4.34-16.62-20.05-26.22-34.83-14.05-7.15-47.59-76.85-44.18-71.38,2.28-10.26-26.8-54.56-18.33-47.41,13.42-33.11-21.48-64.83,16.42-58.42,49.87-8.77-6.71-24.68-5.4-33.13,6.03-11.2-9.5-21.93-7.78-26.47,6.56-19.06-16.65-54.74-5.53-42.76,23.8-13.65-7.5-27.74-3.06-28.25,13.08-29.5-16.81-55.55,21.57-60.9,46.26l-255.78,93.57v91.41c138.02-13.01,270.78,31.37,267.37,51.68h1290.67c34.68-49.6-3.73-145.87-60.96-154.65Z" style="fill: url(#linear-gradient-3); opacity: .53;"/>
    <path d="m74.15,313.19c-9.28-24.91,12.07-41.14,34.67-42.8-4.23-13.24.74-21.21,15.19-22.19-3.16-24.26,24.24-27.34,43.39-26.04-1.32-23.03,32.47-24.62,49.9-19.41-5.01-32.99,48.87-33.23,71.55-32.66,4.23-34,29.62-35.13,58.68-34.71-2.44-33.86,41.42-21.06,58.94-33.29,7-4.89,3.89-19.23,14.92-27.04,12.84-9.09,31.54-8.73,45.42-3.07-2.88-33.42,46.12-82.1,65.3-39.05,23.65-7.62,42.93,10.87,39.49,35.31,14.98-.68,21.57,8.72,19.09,23.43,12.85-36.96,58.63-4.36,52.18,26.99,6.84-41.19,105.43-13.11,84.39,22.79,12.88-21.79,48.9-18.62,56.46,4.35,15.2-10.76,40.65-7.3,28.11,15.17,10.68-13.58,26.94-22.57,43.27-16.87-1.68-18.34,4.48-39.1,25.6-36.93-3.91-18.38,15.63-28.53,31.18-23.27,4.34-16.62,20.05-26.22,34.83-14.05,7.15-47.59,76.85-44.18,71.38,2.28,10.26-26.8,54.56-18.33,47.41,13.42,33.11-21.48,64.83,16.42,58.42,49.87,8.77-6.71,24.68-5.4,33.13,6.03,11.2-9.5,21.93-7.78,26.47,6.56,19.06-16.65,54.74-5.53,42.76,23.8,13.65-7.5,27.74-3.06,28.25,13.08,29.5-16.81,55.55,21.57,60.9,46.26l255.78,93.57v91.41c-138.02-13.01-270.78,31.37-267.37,51.68H13.18c-34.68-49.6,3.73-145.87,60.96-154.65Z" style="fill: url(#linear-gradient-4); opacity: .53;"/>
  </g>
</svg>