<?xml version="1.0" encoding="UTF-8"?>
<svg xmlns="http://www.w3.org/2000/svg" xmlns:xlink="http://www.w3.org/1999/xlink" viewBox="0 0 5760 304.05">
  <defs>
    <linearGradient id="Degradado_sin_nombre_9" data-name="Degradado sin nombre 9" x1="1658.94" y1="313.5" x2="1663.95" y2="431.5" gradientUnits="userSpaceOnUse">
      <stop offset="0" stop-color="#38b731"/>
      <stop offset=".44" stop-color="#39b731"/>
      <stop offset=".6" stop-color="#40ba32"/>
      <stop offset=".71" stop-color="#4cbe34"/>
      <stop offset=".8" stop-color="#5dc437"/>
      <stop offset=".88" stop-color="#73cc3b"/>
      <stop offset=".95" stop-color="#8dd540"/>
      <stop offset="1" stop-color="#a6de45"/>
    </linearGradient>
    <linearGradient id="Degradado_sin_nombre_6" data-name="Degradado sin nombre 6" x1="3255.84" y1="298.86" x2="3494.59" y2="110.38" gradientUnits="userSpaceOnUse">
      <stop offset="0" stop-color="#38b731"/>
      <stop offset="1" stop-color="#c9de45"/>
    </linearGradient>
    <linearGradient id="Degradado_sin_nombre_6-2" data-name="Degradado sin nombre 6" x1="3373.61" y1="430.12" x2="4046.73" y2="-101.28" gradientTransform="translate(6981.95) rotate(-180) scale(.62 -1)" xlink:href="#Degradado_sin_nombre_6"/>
    <linearGradient id="Degradado_sin_nombre_15" data-name="Degradado sin nombre 15" x1="3129.66" y1="-397.56" x2="2757.05" y2="-182.36" gradientTransform="translate(539.04 526.34)" gradientUnits="userSpaceOnUse">
      <stop offset="0" stop-color="#38b731"/>
      <stop offset="1" stop-color="#8bde45"/>
    </linearGradient>
    <linearGradient id="Degradado_sin_nombre_15-2" data-name="Degradado sin nombre 15" x1="3288.23" y1="-295.63" x2="3069.22" y2="-445.11" xlink:href="#Degradado_sin_nombre_15"/>
    <linearGradient id="Degradado_sin_nombre_13" data-name="Degradado sin nombre 13" x1="1127.75" y1="-267.44" x2="1128.63" y2="-351.16" gradientTransform="translate(539.04 526.34)" gradientUnits="userSpaceOnUse">
      <stop offset="0" stop-color="#38b731"/>
      <stop offset="1" stop-color="#a6de45"/>
    </linearGradient>
    <linearGradient id="Degradado_sin_nombre_9-2" data-name="Degradado sin nombre 9" x1="433.54" y1="305.98" x2="436.96" y2="386.52" xlink:href="#Degradado_sin_nombre_9"/>
    <linearGradient id="Degradado_sin_nombre_6-3" data-name="Degradado sin nombre 6" x1="1339.6" y1="339.89" x2="1578.35" y2="151.41" xlink:href="#Degradado_sin_nombre_6"/>
    <linearGradient id="Degradado_sin_nombre_9-3" data-name="Degradado sin nombre 9" x1="1116.68" y1="270.37" x2="1121.69" y2="388.37" xlink:href="#Degradado_sin_nombre_9"/>
    <linearGradient id="Degradado_sin_nombre_6-4" data-name="Degradado sin nombre 6" x1="1229.97" y1="201.02" x2="1468.72" y2="12.54" xlink:href="#Degradado_sin_nombre_6"/>
    <linearGradient id="Degradado_sin_nombre_6-5" data-name="Degradado sin nombre 6" x1="6532.85" y1="480.86" x2="7207.5" y2="-51.75" gradientTransform="translate(6981.95) rotate(-180) scale(.62 -1)" xlink:href="#Degradado_sin_nombre_6"/>
    <linearGradient id="Degradado_sin_nombre_6-6" data-name="Degradado sin nombre 6" x1="1511.22" y1="557.29" x2="1749.97" y2="368.81" xlink:href="#Degradado_sin_nombre_6"/>
    <linearGradient id="Degradado_sin_nombre_6-7" data-name="Degradado sin nombre 6" x1="7069.78" y1="1160.97" x2="7744.42" y2="628.37" gradientTransform="translate(6981.95) rotate(-180) scale(.62 -1)" xlink:href="#Degradado_sin_nombre_6"/>
    <linearGradient id="Degradado_sin_nombre_15-3" data-name="Degradado sin nombre 15" x1="1182.12" y1="-401.53" x2="809.52" y2="-186.33" xlink:href="#Degradado_sin_nombre_15"/>
    <linearGradient id="Degradado_sin_nombre_6-8" data-name="Degradado sin nombre 6" x1="1385.68" y1="398.27" x2="1624.43" y2="209.79" xlink:href="#Degradado_sin_nombre_6"/>
    <linearGradient id="Degradado_sin_nombre_15-4" data-name="Degradado sin nombre 15" x1="1193.66" y1="-381.56" x2="821.05" y2="-166.36" xlink:href="#Degradado_sin_nombre_15"/>
    <linearGradient id="Degradado_sin_nombre_15-5" data-name="Degradado sin nombre 15" x1="1365.53" y1="-299.12" x2="1146.52" y2="-448.6" xlink:href="#Degradado_sin_nombre_15"/>
    <linearGradient id="Degradado_sin_nombre_6-9" data-name="Degradado sin nombre 6" x1="1473.22" y1="509.14" x2="1711.96" y2="320.66" xlink:href="#Degradado_sin_nombre_6"/>
    <linearGradient id="Degradado_sin_nombre_15-6" data-name="Degradado sin nombre 15" x1="1373.57" y1="-310.9" x2="1154.56" y2="-460.38" xlink:href="#Degradado_sin_nombre_15"/>
    <linearGradient id="Degradado_sin_nombre_15-7" data-name="Degradado sin nombre 15" x1="1200.56" y1="-369.61" x2="827.96" y2="-154.41" xlink:href="#Degradado_sin_nombre_15"/>
    <linearGradient id="Degradado_sin_nombre_15-8" data-name="Degradado sin nombre 15" x1="1345.15" y1="-269.26" x2="1126.14" y2="-418.74" xlink:href="#Degradado_sin_nombre_15"/>
    <linearGradient id="Degradado_sin_nombre_6-10" data-name="Degradado sin nombre 6" x1="1451.79" y1="482" x2="1690.53" y2="293.52" xlink:href="#Degradado_sin_nombre_6"/>
    <linearGradient id="Degradado_sin_nombre_15-9" data-name="Degradado sin nombre 15" x1="1235.3" y1="-309.45" x2="862.7" y2="-94.25" xlink:href="#Degradado_sin_nombre_15"/>
    <linearGradient id="Degradado_sin_nombre_15-10" data-name="Degradado sin nombre 15" x1="1356.3" y1="-285.59" x2="1137.28" y2="-435.07" xlink:href="#Degradado_sin_nombre_15"/>
    <linearGradient id="Degradado_sin_nombre_6-11" data-name="Degradado sin nombre 6" x1="1142.3" y1="156.85" x2="1469.08" y2="-101.13" xlink:href="#Degradado_sin_nombre_6"/>
    <linearGradient id="Degradado_sin_nombre_9-4" data-name="Degradado sin nombre 9" x1="1117.56" y1="270.34" x2="1122.56" y2="388.33" xlink:href="#Degradado_sin_nombre_9"/>
    <linearGradient id="Degradado_sin_nombre_6-12" data-name="Degradado sin nombre 6" x1="1203.54" y1="167.55" x2="1442.29" y2="-20.93" xlink:href="#Degradado_sin_nombre_6"/>
    <linearGradient id="Degradado_sin_nombre_6-13" data-name="Degradado sin nombre 6" x1="6532.85" y1="479.86" x2="7207.5" y2="-52.75" gradientTransform="translate(6981.95) rotate(-180) scale(.62 -1)" xlink:href="#Degradado_sin_nombre_6"/>
    <linearGradient id="Degradado_sin_nombre_6-14" data-name="Degradado sin nombre 6" x1="1511.22" y1="556.29" x2="1749.97" y2="367.81" xlink:href="#Degradado_sin_nombre_6"/>
    <linearGradient id="Degradado_sin_nombre_6-15" data-name="Degradado sin nombre 6" x1="7069.78" y1="1159.97" x2="7744.42" y2="627.37" gradientTransform="translate(6981.95) rotate(-180) scale(.62 -1)" xlink:href="#Degradado_sin_nombre_6"/>
    <linearGradient id="Degradado_sin_nombre_15-11" data-name="Degradado sin nombre 15" x1="1182.12" y1="-402.53" x2="809.52" y2="-187.33" xlink:href="#Degradado_sin_nombre_15"/>
    <linearGradient id="Degradado_sin_nombre_6-16" data-name="Degradado sin nombre 6" x1="1385.68" y1="397.27" x2="1624.43" y2="208.79" xlink:href="#Degradado_sin_nombre_6"/>
    <linearGradient id="Degradado_sin_nombre_15-12" data-name="Degradado sin nombre 15" x1="1193.66" y1="-382.56" x2="821.05" y2="-167.36" xlink:href="#Degradado_sin_nombre_15"/>
    <linearGradient id="Degradado_sin_nombre_15-13" data-name="Degradado sin nombre 15" x1="1365.53" y1="-300.12" x2="1146.52" y2="-449.6" xlink:href="#Degradado_sin_nombre_15"/>
    <linearGradient id="Degradado_sin_nombre_6-17" data-name="Degradado sin nombre 6" x1="1473.22" y1="508.14" x2="1711.96" y2="319.66" xlink:href="#Degradado_sin_nombre_6"/>
    <linearGradient id="Degradado_sin_nombre_15-14" data-name="Degradado sin nombre 15" x1="1373.57" y1="-311.9" x2="1154.56" y2="-461.38" xlink:href="#Degradado_sin_nombre_15"/>
    <linearGradient id="Degradado_sin_nombre_15-15" data-name="Degradado sin nombre 15" x1="1200.56" y1="-370.61" x2="827.96" y2="-155.41" xlink:href="#Degradado_sin_nombre_15"/>
    <linearGradient id="Degradado_sin_nombre_15-16" data-name="Degradado sin nombre 15" x1="1345.15" y1="-270.26" x2="1126.14" y2="-419.74" xlink:href="#Degradado_sin_nombre_15"/>
    <linearGradient id="Degradado_sin_nombre_6-18" data-name="Degradado sin nombre 6" x1="1451.79" y1="481" x2="1690.53" y2="292.52" xlink:href="#Degradado_sin_nombre_6"/>
    <linearGradient id="Degradado_sin_nombre_15-17" data-name="Degradado sin nombre 15" x1="1235.3" y1="-310.45" x2="862.7" y2="-95.25" xlink:href="#Degradado_sin_nombre_15"/>
    <linearGradient id="Degradado_sin_nombre_15-18" data-name="Degradado sin nombre 15" x1="1356.3" y1="-286.59" x2="1137.28" y2="-436.07" xlink:href="#Degradado_sin_nombre_15"/>
    <radialGradient id="radial-gradient" cx="3283.46" cy="370.51" fx="3283.46" fy="370.51" r="25.53" gradientTransform="translate(-5026.43 77.81) scale(2.86 .24)" gradientUnits="userSpaceOnUse">
      <stop offset="0" stop-color="#757575"/>
      <stop offset="1" stop-color="#fff"/>
    </radialGradient>
    <linearGradient id="linear-gradient" x1="4403.38" y1="106.44" x2="4402.05" y2="85.14" gradientUnits="userSpaceOnUse">
      <stop offset="0" stop-color="#197711"/>
      <stop offset="1" stop-color="#7cdf29"/>
    </linearGradient>
    <linearGradient id="linear-gradient-2" x1="4351.8" y1="115.66" x2="4350.47" y2="94.36" xlink:href="#linear-gradient"/>
    <linearGradient id="linear-gradient-3" x1="4383.41" y1="91.52" x2="4380.58" y2="46.15" xlink:href="#linear-gradient"/>
    <linearGradient id="linear-gradient-4" x1="4384.42" y1="91.46" x2="4381.59" y2="46.09" xlink:href="#linear-gradient"/>
    <linearGradient id="linear-gradient-5" x1="4379.02" y1="71.78" x2="4402.62" y2="140.9" gradientUnits="userSpaceOnUse">
      <stop offset="0" stop-color="#bf8d56"/>
      <stop offset="1" stop-color="#9e6a34"/>
    </linearGradient>
    <linearGradient id="linear-gradient-6" x1="4389.25" y1="72.9" x2="4409.89" y2="133.36" xlink:href="#linear-gradient-5"/>
    <linearGradient id="linear-gradient-7" x1="4349.11" y1="89.76" x2="4368.79" y2="147.42" xlink:href="#linear-gradient-5"/>
    <linearGradient id="linear-gradient-8" x1="4349.15" y1="88.91" x2="4369.29" y2="147.93" xlink:href="#linear-gradient-5"/>
    <linearGradient id="linear-gradient-9" x1="4376.82" y1="133.26" x2="4378.22" y2="160.92" xlink:href="#linear-gradient-5"/>
    <linearGradient id="linear-gradient-10" x1="4387.86" y1="72.72" x2="4381.84" y2="132.2" xlink:href="#linear-gradient-5"/>
    <linearGradient id="linear-gradient-11" x1="4384.84" y1="88.58" x2="4367.42" y2="134.57" xlink:href="#linear-gradient-5"/>
    <linearGradient id="linear-gradient-12" x1="4396.28" y1="75.99" x2="4352.15" y2="8.6" gradientUnits="userSpaceOnUse">
      <stop offset="0" stop-color="#19b011"/>
      <stop offset="1" stop-color="#87df29"/>
    </linearGradient>
    <linearGradient id="linear-gradient-13" x1="4398.59" y1="61.34" x2="4326.25" y2="1.33" xlink:href="#linear-gradient-12"/>
    <linearGradient id="linear-gradient-14" x1="4352.28" y1="115.63" x2="4350.95" y2="94.33" xlink:href="#linear-gradient"/>
    <linearGradient id="linear-gradient-15" x1="4357.84" y1="108.37" x2="4337.13" y2="76.73" xlink:href="#linear-gradient-12"/>
    <linearGradient id="linear-gradient-16" x1="4358.93" y1="101.49" x2="4324.96" y2="73.31" xlink:href="#linear-gradient-12"/>
    <linearGradient id="linear-gradient-17" x1="4394.49" y1="105.06" x2="4381.36" y2="141.96" xlink:href="#linear-gradient-5"/>
    <linearGradient id="linear-gradient-18" x1="4403.86" y1="106.41" x2="4402.53" y2="85.11" xlink:href="#linear-gradient"/>
    <linearGradient id="linear-gradient-19" x1="4409.42" y1="99.15" x2="4388.71" y2="67.51" xlink:href="#linear-gradient-12"/>
    <linearGradient id="linear-gradient-20" x1="4411.11" y1="92.05" x2="4378.18" y2="64.72" xlink:href="#linear-gradient-12"/>
    <radialGradient id="radial-gradient-2" cx="3229.56" cy="367.22" fx="3229.56" fy="367.22" r="20.5" xlink:href="#radial-gradient"/>
    <linearGradient id="linear-gradient-21" x1="4244.3" y1="117.57" x2="4243.23" y2="100.46" xlink:href="#linear-gradient"/>
    <linearGradient id="linear-gradient-22" x1="4202.88" y1="124.97" x2="4201.81" y2="107.86" xlink:href="#linear-gradient"/>
    <linearGradient id="linear-gradient-23" x1="4228.26" y1="105.59" x2="4225.99" y2="69.14" xlink:href="#linear-gradient"/>
    <linearGradient id="linear-gradient-24" x1="4229.08" y1="105.53" x2="4226.8" y2="69.09" xlink:href="#linear-gradient"/>
    <linearGradient id="linear-gradient-25" x1="4224.74" y1="89.72" x2="4243.69" y2="145.24" xlink:href="#linear-gradient-5"/>
    <linearGradient id="linear-gradient-26" x1="4232.96" y1="90.62" x2="4249.53" y2="139.19" xlink:href="#linear-gradient-5"/>
    <linearGradient id="linear-gradient-27" x1="4200.71" y1="104.17" x2="4216.52" y2="150.48" xlink:href="#linear-gradient-5"/>
    <linearGradient id="linear-gradient-28" x1="4200.74" y1="103.48" x2="4216.92" y2="150.89" xlink:href="#linear-gradient-5"/>
    <linearGradient id="linear-gradient-29" x1="4222.97" y1="139.11" x2="4224.09" y2="161.33" xlink:href="#linear-gradient-5"/>
    <linearGradient id="linear-gradient-30" x1="4231.83" y1="90.48" x2="4227" y2="138.26" xlink:href="#linear-gradient-5"/>
    <linearGradient id="linear-gradient-31" x1="4229.41" y1="103.22" x2="4215.42" y2="140.16" xlink:href="#linear-gradient-5"/>
    <linearGradient id="linear-gradient-32" x1="4238.6" y1="93.11" x2="4203.16" y2="38.98" xlink:href="#linear-gradient-12"/>
    <linearGradient id="linear-gradient-33" x1="4240.45" y1="81.34" x2="4182.35" y2="33.14" xlink:href="#linear-gradient-12"/>
    <linearGradient id="linear-gradient-34" x1="4203.26" y1="124.95" x2="4202.19" y2="107.84" xlink:href="#linear-gradient"/>
    <linearGradient id="linear-gradient-35" x1="4207.73" y1="119.11" x2="4191.09" y2="93.7" xlink:href="#linear-gradient-12"/>
    <linearGradient id="linear-gradient-36" x1="4208.6" y1="113.59" x2="4181.32" y2="90.96" xlink:href="#linear-gradient-12"/>
    <linearGradient id="linear-gradient-37" x1="4237.16" y1="116.45" x2="4226.61" y2="146.1" xlink:href="#linear-gradient-5"/>
    <linearGradient id="linear-gradient-38" x1="4244.69" y1="117.54" x2="4243.62" y2="100.43" xlink:href="#linear-gradient"/>
    <linearGradient id="linear-gradient-39" x1="4249.16" y1="111.71" x2="4232.52" y2="86.3" xlink:href="#linear-gradient-12"/>
    <linearGradient id="linear-gradient-40" x1="4250.03" y1="106.18" x2="4222.75" y2="83.55" xlink:href="#linear-gradient-12"/>
    <radialGradient id="radial-gradient-3" cx="3121.44" cy="314.32" fx="3121.44" fy="314.32" r="15.24" gradientTransform="translate(12909.71 77.81) rotate(-180) scale(2.76 -.24)" xlink:href="#radial-gradient"/>
    <linearGradient id="linear-gradient-41" x1="3929.65" y1="117.31" x2="3928.86" y2="104.6" gradientTransform="translate(8075) rotate(-180) scale(.96 -1)" xlink:href="#linear-gradient"/>
    <linearGradient id="linear-gradient-42" x1="3898.86" y1="122.82" x2="3898.06" y2="110.1" gradientTransform="translate(8075) rotate(-180) scale(.96 -1)" xlink:href="#linear-gradient"/>
    <linearGradient id="linear-gradient-43" x1="3917.73" y1="108.41" x2="3916.04" y2="81.32" gradientTransform="translate(8075) rotate(-180) scale(.96 -1)" xlink:href="#linear-gradient"/>
    <linearGradient id="linear-gradient-44" x1="3918.33" y1="108.37" x2="3916.64" y2="81.28" gradientTransform="translate(8075) rotate(-180) scale(.96 -1)" xlink:href="#linear-gradient"/>
    <linearGradient id="linear-gradient-45" x1="3915.11" y1="96.62" x2="3929.2" y2="137.89" gradientTransform="translate(8075) rotate(-180) scale(.96 -1)" xlink:href="#linear-gradient-5"/>
    <linearGradient id="linear-gradient-46" x1="3921.22" y1="97.29" x2="3933.54" y2="133.39" gradientTransform="translate(8075) rotate(-180) scale(.96 -1)" xlink:href="#linear-gradient-5"/>
    <linearGradient id="linear-gradient-47" x1="3897.25" y1="107.36" x2="3909" y2="141.78" gradientTransform="translate(8075) rotate(-180) scale(.96 -1)" xlink:href="#linear-gradient-5"/>
    <linearGradient id="linear-gradient-48" x1="3897.27" y1="106.84" x2="3909.3" y2="142.09" gradientTransform="translate(8075) rotate(-180) scale(.96 -1)" xlink:href="#linear-gradient-5"/>
    <linearGradient id="linear-gradient-49" x1="3913.8" y1="133.33" x2="3914.63" y2="149.84" gradientTransform="translate(8075) rotate(-180) scale(.96 -1)" xlink:href="#linear-gradient-5"/>
    <linearGradient id="linear-gradient-50" x1="3920.39" y1="97.18" x2="3916.79" y2="132.7" gradientTransform="translate(8075) rotate(-180) scale(.96 -1)" xlink:href="#linear-gradient-5"/>
    <linearGradient id="linear-gradient-51" x1="3918.58" y1="106.65" x2="3908.18" y2="134.11" gradientTransform="translate(8075) rotate(-180) scale(.96 -1)" xlink:href="#linear-gradient-5"/>
    <linearGradient id="linear-gradient-52" x1="3925.41" y1="99.13" x2="3899.07" y2="58.9" gradientTransform="translate(8075) rotate(-180) scale(.96 -1)" xlink:href="#linear-gradient-12"/>
    <linearGradient id="linear-gradient-53" x1="3926.79" y1="90.39" x2="3883.6" y2="54.55" gradientTransform="translate(8075) rotate(-180) scale(.96 -1)" xlink:href="#linear-gradient-12"/>
    <linearGradient id="linear-gradient-54" x1="3899.14" y1="122.8" x2="3898.35" y2="110.08" gradientTransform="translate(8075) rotate(-180) scale(.96 -1)" xlink:href="#linear-gradient"/>
    <linearGradient id="linear-gradient-55" x1="3902.46" y1="118.46" x2="3890.1" y2="99.57" gradientTransform="translate(8075) rotate(-180) scale(.96 -1)" xlink:href="#linear-gradient-12"/>
    <linearGradient id="linear-gradient-56" x1="3903.11" y1="114.36" x2="3882.83" y2="97.53" gradientTransform="translate(8075) rotate(-180) scale(.96 -1)" xlink:href="#linear-gradient-12"/>
    <linearGradient id="linear-gradient-57" x1="3924.34" y1="116.49" x2="3916.5" y2="138.52" gradientTransform="translate(8075) rotate(-180) scale(.96 -1)" xlink:href="#linear-gradient-5"/>
    <linearGradient id="linear-gradient-58" x1="3929.94" y1="117.3" x2="3929.14" y2="104.58" gradientTransform="translate(8075) rotate(-180) scale(.96 -1)" xlink:href="#linear-gradient"/>
    <linearGradient id="linear-gradient-59" x1="3933.26" y1="112.96" x2="3920.89" y2="94.07" gradientTransform="translate(8075) rotate(-180) scale(.96 -1)" xlink:href="#linear-gradient-12"/>
    <linearGradient id="linear-gradient-60" x1="3933.91" y1="108.85" x2="3913.63" y2="92.03" gradientTransform="translate(8075) rotate(-180) scale(.96 -1)" xlink:href="#linear-gradient-12"/>
    <linearGradient id="Degradado_sin_nombre_84" data-name="Degradado sin nombre 84" x1="5155.31" y1="241.05" x2="5156.27" y2="333.66" gradientUnits="userSpaceOnUse">
      <stop offset="0" stop-color="#38b731"/>
      <stop offset="1" stop-color="#a6de45"/>
    </linearGradient>
    <linearGradient id="Degradado_sin_nombre_84-2" data-name="Degradado sin nombre 84" x1="9408.02" y1="241.05" x2="9408.98" y2="333.66" gradientTransform="translate(10012.71) rotate(-180) scale(1 -1)" xlink:href="#Degradado_sin_nombre_84"/>
  </defs>
  <g style="fill: none; isolation: isolate;">
    <g id="Capa_2" data-name="Capa 2">
      <g id="Capa_5_montanas_2" data-name="Capa 5 montanas 2">
        <g>
          <polygon points="3304 300.91 9 300.91 1920 210.91 3304 210.91 3304 300.91" style="fill: url(#Degradado_sin_nombre_9);"/>
          <path d="m3840,304.05v-126.66c-179.05-17.77-378.58-29.34-504.59-29.34-166.59,0-386.51,17.3-533.78,43.03v112.97h1038.37Z" style="fill: url(#Degradado_sin_nombre_6);"/>
          <path d="m3839,303.91v-126.66c196.06-17.77,414.54-29.34,552.52-29.34,182.41,0,423.22,17.3,584.48,43.03l784,109.97-1921,3Z" style="fill: url(#Degradado_sin_nombre_6-2);"/>
          <g>
            <path d="m3564.28,95.05c13.84-4.91,32.34-9.27,49-8.23,17.5,1.09,33.42,8.16,58.87,28.36,49.68,39.41,135.85,63.84,135.85,63.84,0,0-352.6,24.33-471.79,11.09,0,0,207.99-87.95,228.06-95.06h0Z" style="fill: url(#Degradado_sin_nombre_15);"/>
            <path d="m3612.11,86.26s-49.5,8.75-29.6,37.07c19.9,28.31,146.74,27.75,144.26,59.46l111.92-5.66s-182.18-89.63-226.59-90.87h0Z" style="fill: url(#Degradado_sin_nombre_15-2);"/>
          </g>
          <path d="m2443.78,151.63c-163.18,0-377.99,10.13-523.78,25.25L0,298.91c145.79,14.09,2280.6-29.57,2443.78-29.57,271.99,0,889.83-19.81,889.83-52.32s-617.84-65.4-889.83-65.4h0Z" style="fill: url(#Degradado_sin_nombre_13);"/>
        </g>
        <g>
          <path d="m507.78,285.34C436.43,285.34,494.21,290.69,0,298.91l865.63,3v-23.1c-134,4.27-265.75,6.54-357.85,6.54Z" style="fill: url(#Degradado_sin_nombre_9-2);"/>
          <path d="m1397.61,233.02c0,4.26-10.6,8.29-29.61,12.1v56.79h535v-108.61c-.4-.04-.8-.08-1.2-.12l-30.79,1.56c.65.19.99.29.99.29,0,0-352.6,24.33-471.79,11.09,0,0,45.32-19.16,95.68-40.32-35.23-1.14-67.77-1.74-96.48-1.74-115.07,0-255.58,8.26-380.03,21.84,204.08,12.5,378.22,29.86,378.22,47.12Z" style="fill: url(#Degradado_sin_nombre_6-3);"/>
          <path d="m865.63,278.8v23.1h502.37v-56.79c-77.04,15.42-292.44,27-502.37,33.68Z" style="fill: url(#Degradado_sin_nombre_9-3);"/>
          <path d="m865.63,278.8v23.1h502.37v-56.79c-77.04,15.42-292.44,27-502.37,33.68Z" style="fill: url(#Degradado_sin_nombre_6-4);"/>
          <path d="m1904,301.91h1810.38l-674.38-94.97c-161.26-25.73-402.07-43.03-584.48-43.03-137.98,0-356.46,11.57-552.52,29.34v.05c.33.03.67.07,1,.1v108.51Z" style="fill: url(#Degradado_sin_nombre_6-5);"/>
          <path d="m1904,301.91v-108.51c-.33-.03-.67-.07-1-.1v108.61h1Z" style="fill: url(#Degradado_sin_nombre_6-6);"/>
          <path d="m1904,301.91v-108.51c-.33-.03-.67-.07-1-.1v108.61h1Z" style="fill: url(#Degradado_sin_nombre_6-7);"/>
          <path d="m1646.51,139.33c-17.43-24.81,18.38-34.6,27.54-36.64-15.78-.34-32.81,3.77-45.77,8.37h0s0,0,0,0c-10.7,3.79-74.83,30.57-132.38,54.74,83.29,2.69,181.68,8.38,280.51,16.23-33.37-16.07-114.33-20.55-129.9-42.69Z" style="fill: url(#Degradado_sin_nombre_15-3);"/>
          <path d="m1872,195.02s-.34-.1-.99-.29l-80.24,4.06c.54-6.91-5.06-12.29-14.36-16.77-98.83-7.85-197.23-13.54-280.51-16.23-50.37,21.16-95.68,40.32-95.68,40.32,119.19,13.24,471.79-11.09,471.79-11.09Z" style="fill: url(#Degradado_sin_nombre_6-8);"/>
          <path d="m1872,195.02s-.34-.1-.99-.29l-80.24,4.06c.54-6.91-5.06-12.29-14.36-16.77-98.83-7.85-197.23-13.54-280.51-16.23-50.37,21.16-95.68,40.32-95.68,40.32,119.19,13.24,471.79-11.09,471.79-11.09Z" style="fill: url(#Degradado_sin_nombre_15-4);"/>
          <path d="m1736.15,131.18c34.43,27.31,86.37,47.42,115.03,57.2,17,1.54,33.9,3.14,50.62,4.79l.89-.05s-182.18-89.63-226.58-90.87h0s-.76.14-2.06.43c1.08.02,2.16.07,3.23.13,17.5,1.09,33.42,8.16,58.87,28.36Z" style="fill: url(#Degradado_sin_nombre_15-5);"/>
          <path d="m1871.01,194.73l30.79-1.56c-16.73-1.65-33.62-3.25-50.62-4.79,10.1,3.45,17.31,5.61,19.83,6.35Z" style="fill: url(#Degradado_sin_nombre_6-9);"/>
          <path d="m1871.01,194.73l30.79-1.56c-16.73-1.65-33.62-3.25-50.62-4.79,10.1,3.45,17.31,5.61,19.83,6.35Z" style="fill: url(#Degradado_sin_nombre_15-6);"/>
          <path d="m1646.51,139.33c15.56,22.14,96.53,26.62,129.9,42.69,24.98,1.98,49.98,4.11,74.77,6.36-28.66-9.78-80.6-29.89-115.03-57.2-25.45-20.2-41.37-27.27-58.87-28.36-1.07-.07-2.15-.11-3.23-.13-9.15,2.05-44.97,11.84-27.54,36.64Z" style="fill: url(#Degradado_sin_nombre_15-7);"/>
          <path d="m1646.51,139.33c15.56,22.14,96.53,26.62,129.9,42.69,24.98,1.98,49.98,4.11,74.77,6.36-28.66-9.78-80.6-29.89-115.03-57.2-25.45-20.2-41.37-27.27-58.87-28.36-1.07-.07-2.15-.11-3.23-.13-9.15,2.05-44.97,11.84-27.54,36.64Z" style="fill: url(#Degradado_sin_nombre_15-8);"/>
          <path d="m1776.41,182.03c9.3,4.48,14.9,9.86,14.36,16.77l80.24-4.06c-2.53-.74-9.74-2.91-19.83-6.35-24.79-2.25-49.79-4.37-74.77-6.36Z" style="fill: url(#Degradado_sin_nombre_6-10);"/>
          <path d="m1776.41,182.03c9.3,4.48,14.9,9.86,14.36,16.77l80.24-4.06c-2.53-.74-9.74-2.91-19.83-6.35-24.79-2.25-49.79-4.37-74.77-6.36Z" style="fill: url(#Degradado_sin_nombre_15-9);"/>
          <path d="m1776.41,182.03c9.3,4.48,14.9,9.86,14.36,16.77l80.24-4.06c-2.53-.74-9.74-2.91-19.83-6.35-24.79-2.25-49.79-4.37-74.77-6.36Z" style="fill: url(#Degradado_sin_nombre_15-10);"/>
          <path d="m865.63,226.91h502.37v18.21c19.01-3.8,29.61-7.84,29.61-12.1,0-17.26-174.14-34.63-378.22-47.12-55.71,6.08-291.84,47.05-337.38,55.01l183.63-14Z" style="fill: url(#Degradado_sin_nombre_6-11);"/>
          <path d="m1368,245.12v-18.21h-502.37v51.9c209.92-6.68,425.33-18.27,502.37-33.68Z" style="fill: url(#Degradado_sin_nombre_9-4);"/>
          <path d="m1368,245.12v-18.21h-502.37v51.9c209.92-6.68,425.33-18.27,502.37-33.68Z" style="fill: url(#Degradado_sin_nombre_6-12);"/>
        </g>
        <g>
          <path d="m1904,300.91h1810.38l-674.38-94.97c-161.26-25.73-402.07-43.03-584.48-43.03-137.98,0-356.46,11.57-552.52,29.34v.05c.33.03.67.07,1,.1v108.51Z" style="fill: url(#Degradado_sin_nombre_6-13);"/>
          <path d="m1904,300.91v-108.51c-.33-.03-.67-.07-1-.1v108.61h1Z" style="fill: url(#Degradado_sin_nombre_6-14);"/>
          <path d="m1904,300.91v-108.51c-.33-.03-.67-.07-1-.1v108.61h1Z" style="fill: url(#Degradado_sin_nombre_6-15);"/>
          <path d="m1646.51,138.33c-17.43-24.81,18.38-34.6,27.54-36.64-15.78-.34-32.81,3.77-45.77,8.37h0s0,0,0,0c-10.7,3.79-74.83,30.57-132.38,54.74,83.29,2.69,181.68,8.38,280.51,16.23-33.37-16.07-114.33-20.55-129.9-42.69Z" style="fill: url(#Degradado_sin_nombre_15-11);"/>
          <path d="m1872,194.02s-.34-.1-.99-.29l-80.24,4.06c.54-6.91-5.06-12.29-14.36-16.77-98.83-7.85-197.23-13.54-280.51-16.23-50.37,21.16-95.68,40.32-95.68,40.32,119.19,13.24,471.79-11.09,471.79-11.09Z" style="fill: url(#Degradado_sin_nombre_6-16);"/>
          <path d="m1872,194.02s-.34-.1-.99-.29l-80.24,4.06c.54-6.91-5.06-12.29-14.36-16.77-98.83-7.85-197.23-13.54-280.51-16.23-50.37,21.16-95.68,40.32-95.68,40.32,119.19,13.24,471.79-11.09,471.79-11.09Z" style="fill: url(#Degradado_sin_nombre_15-12);"/>
          <path d="m1736.15,130.18c34.43,27.31,86.37,47.42,115.03,57.2,17,1.54,33.9,3.14,50.62,4.79l.89-.05s-182.18-89.63-226.58-90.87h0s-.76.14-2.06.43c1.08.02,2.16.07,3.23.13,17.5,1.09,33.42,8.16,58.87,28.36Z" style="fill: url(#Degradado_sin_nombre_15-13);"/>
          <path d="m1871.01,193.73l30.79-1.56c-16.73-1.65-33.62-3.25-50.62-4.79,10.1,3.45,17.31,5.61,19.83,6.35Z" style="fill: url(#Degradado_sin_nombre_6-17);"/>
          <path d="m1871.01,193.73l30.79-1.56c-16.73-1.65-33.62-3.25-50.62-4.79,10.1,3.45,17.31,5.61,19.83,6.35Z" style="fill: url(#Degradado_sin_nombre_15-14);"/>
          <path d="m1646.51,138.33c15.56,22.14,96.53,26.62,129.9,42.69,24.98,1.98,49.98,4.11,74.77,6.36-28.66-9.78-80.6-29.89-115.03-57.2-25.45-20.2-41.37-27.27-58.87-28.36-1.07-.07-2.15-.11-3.23-.13-9.15,2.05-44.97,11.84-27.54,36.64Z" style="fill: url(#Degradado_sin_nombre_15-15);"/>
          <path d="m1646.51,138.33c15.56,22.14,96.53,26.62,129.9,42.69,24.98,1.98,49.98,4.11,74.77,6.36-28.66-9.78-80.6-29.89-115.03-57.2-25.45-20.2-41.37-27.27-58.87-28.36-1.07-.07-2.15-.11-3.23-.13-9.15,2.05-44.97,11.84-27.54,36.64Z" style="fill: url(#Degradado_sin_nombre_15-16);"/>
          <path d="m1776.41,181.03c9.3,4.48,14.9,9.86,14.36,16.77l80.24-4.06c-2.53-.74-9.74-2.91-19.83-6.35-24.79-2.25-49.79-4.37-74.77-6.36Z" style="fill: url(#Degradado_sin_nombre_6-18);"/>
          <path d="m1776.41,181.03c9.3,4.48,14.9,9.86,14.36,16.77l80.24-4.06c-2.53-.74-9.74-2.91-19.83-6.35-24.79-2.25-49.79-4.37-74.77-6.36Z" style="fill: url(#Degradado_sin_nombre_15-17);"/>
          <path d="m1776.41,181.03c9.3,4.48,14.9,9.86,14.36,16.77l80.24-4.06c-2.53-.74-9.74-2.91-19.83-6.35-24.79-2.25-49.79-4.37-74.77-6.36Z" style="fill: url(#Degradado_sin_nombre_15-18);"/>
        </g>
        <g>
          <ellipse cx="4379.57" cy="166.99" rx="73.13" ry="6.14" style="fill: url(#radial-gradient); mix-blend-mode: multiply; opacity: .37;"/>
          <g>
            <path d="m4426.5,89.62c.14-.44.21-.93.21-1.43,0-2.5-1.83-4.53-4.07-4.53-.38,0-.75.06-1.1.17-1.03-2.07-2.82-3.62-4.93-4.22.1-.42.15-.86.15-1.33,0-3.03-2.2-5.49-4.92-5.49-.14,0-.27,0-.4.03-1.23-3.06-3.97-5.19-7.17-5.19-4.23,0-7.65,3.69-7.85,8.34-.07,0-.13-.01-.21-.01-2.18,0-3.95,1.91-4.06,4.31-.62-.26-1.29-.41-2-.41-2.75,0-5.04,2.14-5.63,5-4.01.39-7.15,4.14-7.15,8.72,0,2.89,1.27,5.46,3.22,7.05.01-.05.02-.1.04-.15-.07-1.71.09-3.42.49-5.1.26-1.09,1.41-1.53,2.26-1.18.97-.37,2.26.26,2.22,1.66,0,0,0,0,0,0,.38.35.65.86.64,1.41-.03,1.36-.23,2.71-.6,3.99,0,.35,0,.7-.01,1.04.98-.05,1.91-.3,2.77-.72.84,2.93,3.3,5.07,6.23,5.07,1.21,0,2.34-.38,3.31-1.02,2.03,1.11,4.31,1.76,6.72,1.76,4.42,0,8.39-2.11,11.16-5.47,1.22.85,2.65,1.35,4.19,1.35,4.34,0,7.87-3.93,7.87-8.76,0-1.81-.5-3.49-1.35-4.9Z" style="fill: url(#linear-gradient);"/>
            <path d="m4374.92,98.84c.14-.44.21-.93.21-1.43,0-2.5-1.83-4.53-4.07-4.53-.38,0-.75.06-1.1.17-1.03-2.07-2.82-3.62-4.93-4.22.1-.42.15-.86.15-1.33,0-3.03-2.2-5.49-4.92-5.49-.14,0-.27,0-.4.03-1.23-3.06-3.97-5.19-7.17-5.19-4.23,0-7.65,3.69-7.85,8.34-.07,0-.13-.01-.21-.01-2.18,0-3.95,1.91-4.06,4.31-.62-.26-1.29-.4-2-.4-2.75,0-5.04,2.14-5.63,5-4.01.39-7.15,4.14-7.15,8.72,0,4.83,3.52,8.75,7.86,8.75,1.12,0,2.18-.27,3.15-.74.84,2.93,3.3,5.07,6.23,5.07,1.21,0,2.34-.38,3.31-1.02,2.03,1.11,4.31,1.76,6.72,1.76,4.42,0,8.39-2.11,11.16-5.47,1.22.85,2.65,1.35,4.19,1.35,4.34,0,7.87-3.93,7.87-8.76,0-1.81-.5-3.49-1.35-4.9" style="fill: url(#linear-gradient-2);"/>
            <path d="m4432.65,55.7c.3-.95.46-1.97.46-3.04,0-5.33-3.89-9.66-8.67-9.66-.81,0-1.59.14-2.34.37-2.2-4.42-6-7.71-10.5-9,.21-.9.32-1.84.32-2.83,0-6.46-4.69-11.68-10.49-11.68-.29,0-.57.01-.85.06-2.62-6.52-8.47-11.06-15.28-11.06-9.01,0-16.29,7.87-16.72,17.76-.15,0-.29-.03-.45-.03-4.64,0-8.41,4.07-8.65,9.18-1.31-.55-2.76-.86-4.25-.86-5.86,0-10.73,4.57-12,10.65-8.54.84-15.24,8.82-15.24,18.56,0,10.28,7.49,18.65,16.74,18.65,2.39,0,4.65-.56,6.71-1.58,1.79,6.25,7.04,10.79,13.26,10.79,2.57,0,4.98-.8,7.06-2.17,4.32,2.37,9.18,3.74,14.32,3.74,9.41,0,17.88-4.49,23.76-11.65,2.59,1.81,5.64,2.88,8.92,2.88,9.25,0,16.76-8.37,16.76-18.66,0-3.85-1.06-7.45-2.88-10.44" style="fill: url(#linear-gradient-3);"/>
            <path d="m4427.28,53.14c.26-.83.4-1.73.4-2.67,0-4.69-3.42-8.5-7.63-8.5-.7,0-1.4.11-2.04.33-1.95-3.89-5.27-6.77-9.24-7.9.18-.81.28-1.63.28-2.49,0-5.68-4.13-10.28-9.24-10.28-.23,0-.49.03-.73.03-2.29-5.72-7.44-9.71-13.44-9.71-7.9,0-14.33,6.93-14.7,15.63-.13-.02-.24-.02-.38-.02-4.09,0-7.43,3.57-7.62,8.06-1.16-.48-2.43-.76-3.75-.76-5.14,0-9.43,3.99-10.54,9.34-7.51.76-13.39,7.78-13.39,16.34,0,9.04,6.58,16.39,14.7,16.39,2.11,0,4.1-.51,5.91-1.37,1.58,5.49,6.2,9.48,11.65,9.48,2.28,0,4.4-.7,6.21-1.91,3.8,2.11,8.08,3.28,12.61,3.28,8.27,0,15.71-3.94,20.91-10.24,2.26,1.59,4.93,2.53,7.82,2.53,8.12,0,14.72-7.34,14.72-16.39,0-3.4-.93-6.57-2.53-9.19" style="fill: url(#linear-gradient-4);"/>
            <path d="m4403.15,99.15s-6.51,9.18-23.78,10.11l-1.44,5.31s3.5-2.94,7.55-3.73c4.02-.77,15.81-6.28,18.63-11.55l-.97-.15Z" style="fill: url(#linear-gradient-5);"/>
            <path d="m4400.83,97.15s.04,4.24-2.56,7.08c-2.6,2.86-.17.08-.09.09.06.02,1.58-.7,1.58-.7,0,0,1.98-4.76,1.07-6.48" style="fill: url(#linear-gradient-6);"/>
            <path d="m4346.59,107.22s4.93,13.89,25.73,22.13v7.1s-3.32-5.06-8-7.67c-4.67-2.6-17.28-14.19-18.97-21.79l1.24.23Z" style="fill: url(#linear-gradient-7);"/>
            <path d="m4358.97,122.45c-5.36-10.87-1.87-23.22-1.87-23.22-4.03,4.14-2.01,20.03-2.01,20.03,0,0,3.6,3.29,4.05,3.53-.06-.12-.11-.22-.17-.34Z" style="fill: url(#linear-gradient-8);"/>
            <path d="m4369.39,159.89s.77,5.21-6.63,5.85c-7.39.66-8.09,2.07-8.09,2.07,0,0,8.09-.86,12.29-.65,4.18.22,5.56-1.52,9.05-1.2,3.51.34,9.17,2.51,14.04,2.18,4.86-.33,7.89-1.84,11.01-1.09,3.13.76.49-1.31-3.89-1.19-4.4.1-8.39.22-10.44-2.72-2.05-2.92-17.35-3.25-17.35-3.25" style="fill: url(#linear-gradient-9);"/>
            <path d="m4376.6,80.94s3.52,1.08-2.72,31.91c-6.24,30.82-4.09,53.19-4.09,53.19h18.52s-8.65-19.32-7.61-38.43c1.04-19.09,14.94-37.48,17.82-51.08l-4.94-.58s-6.76,20.39-11.18,25.31c0,0,2.33-17.36.52-25.16-1.82-7.82-6.32,4.84-6.32,4.84" style="fill: url(#linear-gradient-10);"/>
            <path d="m4378.45,83.37c.87,3.47-1.45,17.47-2.52,23.77-1.08,6.29-3.9,23.77-3.9,23.77,0,0,2.92-14.98,9.35-21.49,6.44-6.52,14.63-27.78,14.63-27.78,0,0-1.83-.17-4.31-.31-2.33,6.41-6.34,16.65-9.3,19.95,0,0,1.54-11.47,1.15-19.97-3.07.21-5.4.77-5.09,2.06" style="fill: url(#linear-gradient-11);"/>
            <path d="m4432.02,46.84c.3-.95.46-1.97.46-3.04,0-5.33-3.89-9.66-8.67-9.66-.81,0-1.59.14-2.34.37-2.2-4.42-6-7.71-10.5-9,.21-.9.32-1.84.32-2.83,0-6.46-4.69-11.68-10.49-11.68-.29,0-.57.01-.85.06-2.62-6.52-8.47-11.06-15.28-11.06-9,0-16.29,7.87-16.72,17.76-.15,0-.29-.03-.45-.03-4.64,0-8.41,4.07-8.65,9.18-1.32-.55-2.76-.86-4.25-.86-5.86,0-10.73,4.56-12,10.65-8.54.84-15.24,8.82-15.24,18.57,0,10.28,7.49,18.65,16.74,18.65,2.39,0,4.65-.56,6.71-1.58,1.79,6.25,7.03,10.79,13.26,10.79,2.57,0,4.98-.8,7.06-2.17,4.32,2.37,9.18,3.74,14.32,3.74,9.41,0,17.88-4.49,23.76-11.65,2.59,1.81,5.64,2.88,8.92,2.88,9.25,0,16.76-8.37,16.76-18.66,0-3.85-1.06-7.45-2.88-10.44" style="fill: url(#linear-gradient-12);"/>
            <path d="m4426.64,44.27c.26-.83.4-1.73.4-2.67,0-4.69-3.42-8.5-7.63-8.5-.7,0-1.4.11-2.04.33-1.95-3.89-5.27-6.78-9.24-7.9.17-.81.28-1.63.28-2.49,0-5.68-4.13-10.28-9.24-10.28-.23,0-.49.03-.73.03-2.29-5.72-7.44-9.7-13.44-9.7-7.9,0-14.33,6.93-14.7,15.63-.13-.02-.24-.02-.38-.02-4.09,0-7.43,3.57-7.62,8.06-1.16-.48-2.43-.76-3.75-.76-5.14,0-9.43,3.99-10.54,9.34-7.51.76-13.39,7.78-13.39,16.34,0,9.04,6.58,16.39,14.7,16.39,2.11,0,4.1-.51,5.91-1.37,1.58,5.49,6.2,9.48,11.65,9.48,2.28,0,4.4-.7,6.21-1.91,3.8,2.11,8.08,3.28,12.61,3.28,8.27,0,15.71-3.94,20.91-10.24,2.26,1.59,4.93,2.53,7.82,2.53,8.12,0,14.72-7.34,14.72-16.39,0-3.4-.93-6.57-2.53-9.19" style="fill: url(#linear-gradient-13);"/>
            <path d="m4372.4,97.64c.12-.39.19-.81.19-1.25,0-2.2-1.61-3.99-3.58-3.99-.33,0-.66.05-.96.15-.91-1.83-2.47-3.18-4.34-3.71.08-.38.13-.76.13-1.17,0-2.67-1.94-4.83-4.34-4.83-.11,0-.23.01-.34.01-1.08-2.69-3.49-4.56-6.31-4.56-3.71,0-6.73,3.25-6.9,7.34-.06,0-.11,0-.18,0-1.92,0-3.49,1.68-3.58,3.78-.54-.22-1.14-.36-1.76-.36-2.41,0-4.43,1.88-4.95,4.38-3.53.36-6.29,3.65-6.29,7.67,0,4.24,3.09,7.7,6.9,7.7.99,0,1.93-.24,2.77-.64.74,2.58,2.91,4.45,5.47,4.45,1.07,0,2.06-.33,2.91-.9,1.78.99,3.8,1.54,5.92,1.54,3.88,0,7.38-1.85,9.82-4.81,1.06.75,2.31,1.19,3.67,1.19,3.81,0,6.91-3.45,6.91-7.69,0-1.6-.44-3.09-1.19-4.31" style="fill: url(#linear-gradient-14);"/>
            <path d="m4374.62,94.68c.14-.45.22-.93.22-1.43,0-2.5-1.83-4.53-4.07-4.53-.38,0-.75.06-1.1.17-1.03-2.07-2.82-3.62-4.93-4.22.1-.42.15-.86.15-1.33,0-3.03-2.2-5.49-4.92-5.49-.14,0-.27,0-.4.03-1.23-3.06-3.97-5.19-7.17-5.19-4.23,0-7.65,3.69-7.85,8.34-.07,0-.13-.01-.21-.01-2.18,0-3.95,1.91-4.06,4.31-.62-.26-1.29-.4-2-.4-2.75,0-5.04,2.14-5.63,5-4.01.39-7.16,4.14-7.16,8.72,0,4.83,3.52,8.75,7.86,8.75,1.12,0,2.18-.27,3.15-.74.84,2.93,3.3,5.07,6.23,5.07,1.21,0,2.34-.38,3.31-1.02,2.03,1.11,4.31,1.76,6.72,1.76,4.42,0,8.39-2.11,11.16-5.47,1.22.85,2.65,1.35,4.19,1.35,4.34,0,7.87-3.93,7.87-8.76,0-1.81-.5-3.5-1.35-4.9" style="fill: url(#linear-gradient-15);"/>
            <path d="m4372.1,93.48c.12-.39.19-.81.19-1.25,0-2.2-1.61-3.99-3.58-3.99-.33,0-.66.05-.96.15-.91-1.83-2.47-3.18-4.34-3.71.08-.38.13-.76.13-1.17,0-2.66-1.94-4.83-4.34-4.83-.11,0-.23.01-.34.01-1.08-2.69-3.49-4.56-6.31-4.56-3.71,0-6.73,3.25-6.9,7.34-.06,0-.11,0-.18,0-1.92,0-3.49,1.68-3.58,3.79-.54-.22-1.14-.36-1.76-.36-2.41,0-4.43,1.88-4.95,4.38-3.53.36-6.29,3.65-6.29,7.67,0,4.24,3.09,7.7,6.9,7.7.99,0,1.93-.24,2.77-.64.74,2.58,2.91,4.45,5.47,4.45,1.07,0,2.06-.33,2.91-.9,1.78.99,3.8,1.54,5.92,1.54,3.88,0,7.38-1.85,9.82-4.81,1.06.75,2.31,1.19,3.67,1.19,3.81,0,6.91-3.45,6.91-7.69,0-1.6-.44-3.09-1.19-4.31" style="fill: url(#linear-gradient-16);"/>
            <path d="m4382.92,112.86s-4.17,5.51-6.24,13.16c-2.08,7.68-2.35,23.59-1.17,30.68,1.17,7.1.9-4.92,3.63-2.02,2.73,2.9,2.99,8.25,5.33,7.95,0,0-9.48-20.98-1.55-49.78" style="fill: url(#linear-gradient-17);"/>
            <path d="m4423.98,88.42c.12-.39.19-.81.19-1.25,0-2.2-1.61-3.99-3.58-3.99-.33,0-.66.05-.96.15-.91-1.83-2.47-3.18-4.34-3.71.08-.38.13-.76.13-1.17,0-2.67-1.94-4.83-4.34-4.83-.11,0-.23.01-.34.01-1.08-2.69-3.49-4.56-6.31-4.56-3.71,0-6.73,3.25-6.9,7.34-.06,0-.11,0-.18,0-1.92,0-3.49,1.68-3.58,3.78-.54-.22-1.14-.35-1.76-.35-2.41,0-4.43,1.88-4.95,4.38-3.53.36-6.29,3.65-6.29,7.67,0,4.24,3.09,7.7,6.9,7.7.99,0,1.93-.24,2.77-.64.74,2.58,2.91,4.45,5.47,4.45,1.07,0,2.06-.33,2.91-.9,1.78.99,3.8,1.54,5.92,1.54,3.88,0,7.38-1.85,9.82-4.81,1.06.75,2.31,1.19,3.67,1.19,3.81,0,6.91-3.45,6.91-7.69,0-1.6-.44-3.08-1.19-4.31" style="fill: url(#linear-gradient-18);"/>
            <path d="m4426.2,85.46c.14-.44.22-.93.22-1.43,0-2.5-1.83-4.53-4.07-4.53-.38,0-.75.06-1.1.17-1.03-2.07-2.82-3.62-4.93-4.22.1-.42.15-.86.15-1.33,0-3.03-2.2-5.49-4.92-5.49-.14,0-.27,0-.4.03-1.23-3.06-3.97-5.19-7.17-5.19-4.23,0-7.65,3.69-7.85,8.34-.07,0-.13-.01-.21-.01-2.18,0-3.95,1.91-4.06,4.31-.62-.26-1.29-.41-2-.41-2.75,0-5.04,2.14-5.63,5-4.01.39-7.16,4.14-7.16,8.72,0,4.83,3.52,8.76,7.86,8.76,1.12,0,2.18-.27,3.15-.74.84,2.93,3.3,5.07,6.23,5.07,1.21,0,2.34-.38,3.31-1.02,2.03,1.11,4.31,1.76,6.72,1.76,4.42,0,8.39-2.11,11.16-5.47,1.22.85,2.65,1.35,4.19,1.35,4.34,0,7.87-3.93,7.87-8.76,0-1.81-.5-3.5-1.35-4.9" style="fill: url(#linear-gradient-19);"/>
            <path d="m4423.68,84.26c.12-.39.19-.81.19-1.25,0-2.2-1.61-3.99-3.58-3.99-.33,0-.66.05-.96.15-.91-1.83-2.47-3.18-4.34-3.71.08-.38.13-.77.13-1.17,0-2.66-1.94-4.83-4.34-4.83-.11,0-.23.01-.34.01-1.08-2.69-3.49-4.56-6.31-4.56-3.71,0-6.73,3.25-6.9,7.34-.06,0-.11,0-.18,0-1.92,0-3.49,1.68-3.58,3.79-.54-.22-1.14-.35-1.76-.35-2.41,0-4.43,1.88-4.95,4.38-3.53.36-3.2,15.37.62,15.37.99,0,1.93-.24,2.77-.64.74,2.57,2.91,4.45,5.47,4.45,1.07,0,2.06-.33,2.91-.9,1.78.99,3.8,1.54,5.92,1.54,3.88,0,7.38-1.85,9.82-4.81,1.06.75,2.31,1.19,3.67,1.19,3.81,0,6.91-3.45,6.91-7.69,0-1.6-.44-3.09-1.19-4.31" style="fill: url(#linear-gradient-20);"/>
          </g>
        </g>
        <g>
          <ellipse cx="4225.17" cy="166.2" rx="58.74" ry="4.93" style="fill: url(#radial-gradient-2); mix-blend-mode: multiply; opacity: .37;"/>
          <g>
            <path d="m4262.87,104.06c.11-.36.17-.74.17-1.15,0-2.01-1.47-3.64-3.27-3.64-.3,0-.6.05-.88.14-.83-1.67-2.26-2.91-3.96-3.39.08-.34.12-.69.12-1.07,0-2.43-1.77-4.41-3.96-4.41-.11,0-.21,0-.32.02-.99-2.46-3.19-4.17-5.76-4.17-3.4,0-6.14,2.97-6.3,6.7-.06,0-.11,0-.17,0-1.75,0-3.17,1.53-3.26,3.46-.5-.21-1.04-.33-1.6-.33-2.21,0-4.05,1.72-4.52,4.02-3.22.32-5.75,3.33-5.75,7,0,2.32,1.02,4.38,2.59,5.66.01-.04.02-.08.03-.12-.05-1.37.08-2.74.4-4.1.21-.87,1.13-1.23,1.81-.95.78-.3,1.82.21,1.78,1.34,0,0,0,0,0,0,.31.28.52.69.51,1.14-.02,1.09-.18,2.17-.48,3.2,0,.28,0,.56-.01.84.79-.04,1.54-.24,2.22-.58.68,2.36,2.65,4.07,5,4.07.97,0,1.88-.3,2.66-.82,1.63.9,3.46,1.41,5.4,1.41,3.55,0,6.74-1.69,8.96-4.39.98.68,2.13,1.09,3.36,1.09,3.49,0,6.32-3.16,6.32-7.04,0-1.45-.4-2.81-1.09-3.93Z" style="fill: url(#linear-gradient-21);"/>
            <path d="m4221.44,111.46c.11-.36.17-.74.17-1.15,0-2.01-1.47-3.64-3.27-3.64-.3,0-.6.05-.88.14-.83-1.67-2.26-2.91-3.96-3.39.08-.34.12-.69.12-1.07,0-2.43-1.77-4.41-3.96-4.41-.11,0-.21,0-.32.02-.99-2.46-3.19-4.17-5.76-4.17-3.4,0-6.14,2.97-6.3,6.7-.05,0-.11-.01-.17-.01-1.75,0-3.17,1.53-3.26,3.46-.5-.21-1.04-.33-1.6-.33-2.21,0-4.05,1.72-4.52,4.02-3.22.32-5.75,3.33-5.75,7,0,3.88,2.83,7.03,6.31,7.03.9,0,1.75-.21,2.53-.6.68,2.36,2.65,4.07,5,4.07.97,0,1.88-.3,2.66-.82,1.63.9,3.46,1.41,5.4,1.41,3.55,0,6.74-1.69,8.96-4.39.98.68,2.13,1.09,3.36,1.09,3.49,0,6.32-3.16,6.32-7.04,0-1.45-.4-2.81-1.09-3.94" style="fill: url(#linear-gradient-22);"/>
            <path d="m4267.81,76.81c.24-.76.37-1.58.37-2.44,0-4.28-3.13-7.76-6.97-7.76-.65,0-1.28.11-1.88.3-1.77-3.55-4.82-6.19-8.43-7.23.17-.72.26-1.48.26-2.27,0-5.19-3.76-9.39-8.43-9.39-.24,0-.46.01-.69.05-2.1-5.24-6.8-8.89-12.27-8.89-7.23,0-13.09,6.32-13.43,14.27-.12,0-.23-.02-.36-.02-3.73,0-6.76,3.27-6.95,7.37-1.06-.44-2.21-.69-3.42-.69-4.71,0-8.62,3.67-9.64,8.56-6.86.67-12.24,7.09-12.24,14.91,0,8.26,6.02,14.98,13.45,14.98,1.92,0,3.74-.45,5.39-1.27,1.44,5.02,5.65,8.67,10.65,8.67,2.07,0,4-.65,5.67-1.74,3.47,1.91,7.37,3.01,11.5,3.01,7.56,0,14.36-3.6,19.09-9.36,2.08,1.46,4.53,2.32,7.16,2.32,7.43,0,13.46-6.72,13.46-14.99,0-3.09-.85-5.98-2.31-8.38" style="fill: url(#linear-gradient-23);"/>
            <path d="m4263.5,74.75c.21-.67.32-1.39.32-2.14,0-3.77-2.75-6.83-6.13-6.83-.56,0-1.12.09-1.64.26-1.56-3.12-4.23-5.44-7.42-6.35.14-.65.23-1.31.23-2,0-4.56-3.31-8.26-7.42-8.26-.19,0-.39.02-.58.03-1.84-4.6-5.98-7.8-10.79-7.8-6.35,0-11.51,5.57-11.8,12.55-.1-.02-.2-.02-.3-.02-3.28,0-5.96,2.87-6.12,6.48-.93-.38-1.95-.61-3.01-.61-4.13,0-7.57,3.21-8.46,7.5-6.03.61-10.76,6.25-10.76,13.13,0,7.26,5.28,13.17,11.81,13.17,1.69,0,3.3-.41,4.75-1.1,1.27,4.41,4.98,7.61,9.35,7.61,1.83,0,3.53-.56,4.99-1.53,3.05,1.69,6.49,2.64,10.13,2.64,6.64,0,12.62-3.16,16.8-8.22,1.81,1.28,3.96,2.03,6.28,2.03,6.53,0,11.83-5.9,11.83-13.16,0-2.73-.75-5.28-2.03-7.38" style="fill: url(#linear-gradient-24);"/>
            <path d="m4244.11,111.71s-5.23,7.37-19.1,8.12l-1.15,4.27s2.81-2.36,6.07-2.99c3.23-.62,12.7-5.04,14.97-9.28l-.78-.12Z" style="fill: url(#linear-gradient-25);"/>
            <path d="m4242.25,110.11s.03,3.4-2.05,5.69c-2.09,2.3-.13.07-.07.08.05.02,1.27-.56,1.27-.56,0,0,1.59-3.82.86-5.2" style="fill: url(#linear-gradient-26);"/>
            <path d="m4198.69,118.19s3.96,11.15,20.66,17.77v5.7s-2.66-4.06-6.43-6.16c-3.75-2.09-13.88-11.4-15.23-17.5l1,.19Z" style="fill: url(#linear-gradient-27);"/>
            <path d="m4208.63,130.43c-4.31-8.73-1.5-18.65-1.5-18.65-3.24,3.33-1.62,16.09-1.62,16.09,0,0,2.89,2.64,3.25,2.83-.05-.09-.09-.18-.13-.27Z" style="fill: url(#linear-gradient-28);"/>
            <path d="m4217,160.5s.62,4.19-5.32,4.7c-5.93.53-6.5,1.67-6.5,1.67,0,0,6.5-.69,9.87-.52,3.36.18,4.47-1.22,7.27-.97,2.82.27,7.37,2.01,11.27,1.75,3.91-.27,6.34-1.48,8.85-.88,2.51.61.39-1.06-3.12-.96-3.53.08-6.74.17-8.39-2.18-1.64-2.34-13.93-2.61-13.93-2.61" style="fill: url(#linear-gradient-29);"/>
            <path d="m4222.79,97.09s2.82.87-2.19,25.63c-5.02,24.75-3.29,42.72-3.29,42.72h14.88s-6.95-15.52-6.11-30.87c.83-15.33,12-30.11,14.31-41.02l-3.97-.46s-5.43,16.38-8.98,20.33c0,0,1.87-13.94.42-20.21-1.46-6.28-5.08,3.88-5.08,3.88" style="fill: url(#linear-gradient-30);"/>
            <path d="m4224.28,99.04c.7,2.79-1.17,14.03-2.03,19.1-.87,5.05-3.13,19.09-3.13,19.09,0,0,2.35-12.03,7.51-17.26,5.17-5.24,11.75-22.31,11.75-22.31,0,0-1.47-.14-3.46-.25-1.87,5.15-5.09,13.38-7.47,16.02,0,0,1.24-9.22.92-16.04-2.47.17-4.33.62-4.09,1.66" style="fill: url(#linear-gradient-31);"/>
            <path d="m4267.3,69.69c.24-.76.37-1.58.37-2.44,0-4.28-3.13-7.76-6.97-7.76-.65,0-1.28.11-1.88.3-1.77-3.55-4.82-6.19-8.43-7.23.17-.72.26-1.48.26-2.27,0-5.18-3.76-9.38-8.43-9.38-.24,0-.46.01-.69.05-2.1-5.24-6.8-8.88-12.27-8.88-7.23,0-13.09,6.32-13.43,14.27-.12,0-.23-.02-.36-.02-3.73,0-6.76,3.27-6.95,7.37-1.06-.44-2.21-.69-3.42-.69-4.71,0-8.62,3.67-9.64,8.56-6.86.67-12.24,7.09-12.24,14.91,0,8.26,6.02,14.98,13.45,14.98,1.92,0,3.74-.45,5.39-1.27,1.44,5.02,5.65,8.67,10.65,8.67,2.07,0,4-.65,5.67-1.74,3.47,1.91,7.37,3.01,11.5,3.01,7.56,0,14.36-3.61,19.09-9.36,2.08,1.46,4.53,2.31,7.16,2.31,7.43,0,13.46-6.72,13.46-14.99,0-3.09-.85-5.98-2.31-8.38" style="fill: url(#linear-gradient-32);"/>
            <path d="m4262.99,67.63c.21-.67.32-1.39.32-2.14,0-3.77-2.75-6.83-6.13-6.83-.56,0-1.12.09-1.64.26-1.56-3.12-4.23-5.44-7.42-6.35.14-.65.23-1.31.23-2,0-4.56-3.31-8.26-7.42-8.26-.19,0-.39.02-.58.03-1.84-4.6-5.98-7.79-10.79-7.79-6.35,0-11.51,5.57-11.8,12.55-.1-.02-.2-.02-.3-.02-3.28,0-5.96,2.87-6.12,6.48-.93-.38-1.95-.61-3.01-.61-4.13,0-7.57,3.21-8.46,7.5-6.03.61-10.76,6.25-10.76,13.13,0,7.26,5.28,13.17,11.81,13.17,1.69,0,3.3-.41,4.75-1.1,1.27,4.41,4.98,7.61,9.35,7.61,1.83,0,3.53-.56,4.99-1.53,3.05,1.69,6.49,2.64,10.13,2.64,6.64,0,12.62-3.16,16.8-8.22,1.81,1.28,3.96,2.03,6.28,2.03,6.53,0,11.83-5.9,11.83-13.16,0-2.73-.75-5.28-2.03-7.38" style="fill: url(#linear-gradient-33);"/>
            <path d="m4219.42,110.5c.1-.31.15-.65.15-1.01,0-1.77-1.29-3.21-2.88-3.21-.26,0-.53.04-.77.12-.73-1.47-1.99-2.55-3.48-2.98.07-.3.11-.61.11-.94,0-2.14-1.56-3.88-3.49-3.88-.09,0-.18.01-.27.01-.86-2.16-2.81-3.66-5.07-3.66-2.98,0-5.41,2.61-5.54,5.89-.05,0-.09,0-.14,0-1.54,0-2.8,1.35-2.87,3.04-.44-.18-.92-.29-1.41-.29-1.94,0-3.55,1.51-3.97,3.52-2.83.29-5.05,2.93-5.05,6.16,0,3.41,2.48,6.18,5.54,6.18.79,0,1.55-.19,2.23-.52.59,2.07,2.34,3.57,4.39,3.57.86,0,1.66-.26,2.34-.72,1.43.79,3.05,1.24,4.76,1.24,3.12,0,5.93-1.49,7.89-3.86.85.6,1.86.95,2.95.95,3.06,0,5.55-2.77,5.55-6.18,0-1.28-.35-2.48-.96-3.46" style="fill: url(#linear-gradient-34);"/>
            <path d="m4221.2,108.12c.11-.36.17-.74.17-1.15,0-2.01-1.47-3.64-3.27-3.64-.31,0-.6.05-.88.14-.83-1.67-2.26-2.91-3.96-3.39.08-.34.12-.69.12-1.07,0-2.43-1.77-4.41-3.96-4.41-.11,0-.21,0-.32.02-.99-2.46-3.19-4.17-5.76-4.17-3.4,0-6.14,2.97-6.3,6.7-.06,0-.11-.01-.17-.01-1.75,0-3.17,1.54-3.26,3.46-.5-.21-1.04-.33-1.6-.33-2.21,0-4.05,1.72-4.52,4.02-3.22.32-5.75,3.33-5.75,7,0,3.88,2.83,7.03,6.31,7.03.9,0,1.75-.21,2.53-.6.68,2.36,2.65,4.07,5,4.07.97,0,1.88-.3,2.66-.82,1.63.9,3.46,1.41,5.4,1.41,3.55,0,6.74-1.69,8.96-4.39.98.68,2.13,1.09,3.36,1.09,3.49,0,6.32-3.16,6.32-7.04,0-1.45-.4-2.81-1.09-3.94" style="fill: url(#linear-gradient-35);"/>
            <path d="m4219.18,107.15c.1-.31.15-.65.15-1.01,0-1.77-1.29-3.21-2.88-3.21-.26,0-.53.04-.77.12-.73-1.47-1.99-2.55-3.49-2.98.07-.3.11-.61.11-.94,0-2.14-1.56-3.88-3.49-3.88-.09,0-.18.01-.27.01-.86-2.16-2.81-3.66-5.07-3.66-2.98,0-5.41,2.61-5.54,5.89-.05,0-.09,0-.14,0-1.54,0-2.8,1.35-2.87,3.04-.44-.18-.92-.29-1.41-.29-1.94,0-3.55,1.51-3.97,3.52-2.83.29-5.05,2.93-5.05,6.16,0,3.41,2.48,6.18,5.54,6.18.79,0,1.55-.19,2.23-.52.59,2.07,2.34,3.57,4.39,3.57.86,0,1.66-.26,2.34-.72,1.43.79,3.05,1.24,4.76,1.24,3.12,0,5.93-1.49,7.89-3.86.85.6,1.86.95,2.95.95,3.06,0,5.55-2.77,5.55-6.18,0-1.28-.35-2.48-.95-3.46" style="fill: url(#linear-gradient-36);"/>
            <path d="m4227.87,122.72s-3.35,4.42-5.01,10.57c-1.67,6.17-1.89,18.95-.94,24.64.94,5.7.73-3.95,2.92-1.62,2.19,2.33,2.4,6.63,4.28,6.39,0,0-7.62-16.85-1.25-39.98" style="fill: url(#linear-gradient-37);"/>
            <path d="m4260.85,103.09c.1-.31.15-.65.15-1.01,0-1.77-1.29-3.21-2.88-3.21-.26,0-.53.04-.77.12-.73-1.47-1.99-2.55-3.48-2.98.07-.3.11-.61.11-.94,0-2.14-1.56-3.88-3.49-3.88-.09,0-.18.01-.27.01-.86-2.16-2.81-3.66-5.07-3.66-2.98,0-5.41,2.61-5.54,5.89-.05,0-.09,0-.14,0-1.54,0-2.8,1.35-2.87,3.04-.44-.18-.92-.28-1.41-.28-1.94,0-3.55,1.51-3.97,3.52-2.83.29-5.05,2.93-5.05,6.16,0,3.41,2.48,6.18,5.54,6.18.79,0,1.55-.19,2.23-.52.59,2.07,2.34,3.57,4.39,3.57.86,0,1.66-.26,2.34-.72,1.43.79,3.05,1.24,4.76,1.24,3.12,0,5.93-1.49,7.89-3.86.85.6,1.86.95,2.95.95,3.06,0,5.55-2.77,5.55-6.18,0-1.28-.35-2.48-.95-3.46" style="fill: url(#linear-gradient-38);"/>
            <path d="m4262.63,100.72c.11-.36.17-.74.17-1.15,0-2.01-1.47-3.64-3.27-3.64-.31,0-.6.05-.88.14-.83-1.67-2.26-2.91-3.96-3.39.08-.34.12-.69.12-1.07,0-2.43-1.77-4.41-3.96-4.41-.11,0-.21,0-.32.02-.99-2.46-3.19-4.17-5.76-4.17-3.4,0-6.14,2.97-6.3,6.7-.05,0-.11-.01-.17-.01-1.75,0-3.17,1.53-3.26,3.46-.5-.21-1.04-.33-1.6-.33-2.21,0-4.05,1.72-4.52,4.02-3.22.32-5.75,3.33-5.75,7,0,3.88,2.83,7.03,6.31,7.03.9,0,1.75-.21,2.53-.6.68,2.36,2.65,4.07,5,4.07.97,0,1.88-.3,2.66-.82,1.63.9,3.46,1.41,5.4,1.41,3.55,0,6.74-1.69,8.96-4.39.98.68,2.13,1.09,3.36,1.09,3.49,0,6.32-3.16,6.32-7.04,0-1.45-.4-2.81-1.09-3.94" style="fill: url(#linear-gradient-39);"/>
            <path d="m4260.61,99.75c.1-.32.15-.65.15-1.01,0-1.77-1.29-3.2-2.88-3.2-.26,0-.53.04-.77.12-.73-1.47-1.99-2.55-3.49-2.98.07-.31.11-.62.11-.94,0-2.14-1.56-3.88-3.49-3.88-.09,0-.18.01-.27.01-.86-2.16-2.81-3.66-5.07-3.66-2.98,0-5.41,2.61-5.54,5.89-.05,0-.09,0-.14,0-1.54,0-2.8,1.35-2.87,3.04-.44-.18-.92-.28-1.41-.28-1.94,0-3.55,1.51-3.97,3.52-2.83.29-5.05,2.93-5.05,6.16,0,3.41,2.48,6.18,5.54,6.18.79,0,1.55-.19,2.23-.52.59,2.07,2.34,3.57,4.39,3.57.86,0,1.66-.26,2.34-.72,1.43.79,3.05,1.24,4.76,1.24,3.12,0,5.93-1.49,7.89-3.86.85.6,1.86.95,2.95.95,3.06,0,5.55-2.77,5.55-6.18,0-1.28-.35-2.48-.95-3.46" style="fill: url(#linear-gradient-40);"/>
          </g>
        </g>
        <g>
          <ellipse cx="4308.92" cy="153.47" rx="42" ry="3.67" style="fill: url(#radial-gradient-3); mix-blend-mode: multiply; opacity: .37;"/>
          <g>
            <path d="m4281.96,107.27c-.08-.26-.12-.55-.12-.85,0-1.49,1.05-2.71,2.34-2.71.22,0,.43.04.63.1.59-1.24,1.62-2.16,2.83-2.52-.06-.25-.09-.52-.09-.79,0-1.81,1.26-3.28,2.83-3.28.08,0,.15,0,.23.02.71-1.83,2.28-3.1,4.12-3.1,2.43,0,4.39,2.21,4.51,4.98.04,0,.08,0,.12,0,1.25,0,2.27,1.14,2.33,2.57.35-.15.74-.24,1.15-.24,1.58,0,2.89,1.28,3.24,2.99,2.3.24,4.11,2.47,4.11,5.2,0,1.73-.73,3.26-1.85,4.21,0-.03-.01-.06-.02-.09.04-1.02-.05-2.04-.28-3.05-.15-.65-.81-.91-1.3-.71-.56-.22-1.3.15-1.27.99,0,0,0,0,0,0-.22.21-.37.51-.37.84.02.81.13,1.62.35,2.38,0,.21,0,.42,0,.62-.56-.03-1.1-.18-1.59-.43-.48,1.75-1.9,3.03-3.58,3.03-.69,0-1.34-.23-1.9-.61-1.16.67-2.47,1.05-3.86,1.05-2.54,0-4.82-1.26-6.41-3.27-.7.51-1.52.81-2.4.81-2.49,0-4.52-2.35-4.52-5.23,0-1.08.29-2.09.78-2.93Z" style="fill: url(#linear-gradient-41);"/>
            <path d="m4311.58,112.78c-.08-.27-.12-.55-.12-.85,0-1.49,1.05-2.71,2.34-2.71.22,0,.43.04.63.1.59-1.24,1.62-2.16,2.83-2.52-.06-.25-.09-.52-.09-.79,0-1.81,1.26-3.28,2.83-3.28.08,0,.15,0,.23.02.71-1.83,2.28-3.1,4.12-3.1,2.43,0,4.39,2.21,4.51,4.98.04,0,.08,0,.12,0,1.25,0,2.27,1.14,2.33,2.57.35-.15.74-.24,1.15-.24,1.58,0,2.89,1.28,3.24,2.99,2.3.24,4.11,2.47,4.11,5.2,0,2.88-2.02,5.23-4.51,5.23-.64,0-1.25-.16-1.81-.44-.48,1.75-1.9,3.03-3.58,3.03-.69,0-1.34-.23-1.9-.61-1.16.67-2.47,1.05-3.86,1.05-2.54,0-4.82-1.26-6.41-3.27-.7.51-1.52.81-2.4.81-2.49,0-4.52-2.35-4.52-5.23,0-1.08.29-2.09.78-2.93" style="fill: url(#linear-gradient-42);"/>
            <path d="m4278.43,87.02c-.17-.56-.26-1.18-.26-1.82,0-3.18,2.23-5.77,4.98-5.77.46,0,.91.08,1.34.22,1.27-2.64,3.45-4.6,6.03-5.37-.12-.54-.18-1.1-.18-1.69,0-3.85,2.69-6.98,6.02-6.98.17,0,.33,0,.49.04,1.5-3.89,4.86-6.61,8.77-6.61,5.17,0,9.36,4.7,9.6,10.61.08,0,.16-.02.26-.02,2.67,0,4.83,2.43,4.97,5.48.76-.33,1.58-.52,2.44-.52,3.37,0,6.16,2.73,6.89,6.36,4.9.5,8.75,5.27,8.75,11.08,0,6.14-4.3,11.13-9.62,11.13-1.37,0-2.67-.34-3.86-.94-1.03,3.73-4.04,6.44-7.62,6.44-1.48,0-2.86-.48-4.06-1.29-2.48,1.42-5.27,2.23-8.22,2.23-5.4,0-10.27-2.68-13.65-6.96-1.49,1.08-3.24,1.72-5.12,1.72-5.31,0-9.62-5-9.62-11.14,0-2.3.61-4.45,1.65-6.23" style="fill: url(#linear-gradient-43);"/>
            <path d="m4281.51,85.49c-.15-.5-.23-1.03-.23-1.59,0-2.8,1.97-5.08,4.38-5.08.4,0,.8.07,1.17.19,1.12-2.32,3.03-4.04,5.31-4.72-.1-.48-.16-.97-.16-1.49,0-3.39,2.37-6.14,5.31-6.14.13,0,.28.02.42.02,1.32-3.42,4.27-5.79,7.72-5.79,4.54,0,8.23,4.14,8.44,9.33.07-.01.14-.01.22-.01,2.35,0,4.26,2.13,4.37,4.81.66-.28,1.4-.45,2.15-.45,2.95,0,5.41,2.38,6.05,5.58,4.31.45,7.69,4.64,7.69,9.76,0,5.4-3.78,9.79-8.44,9.79-1.21,0-2.36-.3-3.39-.82-.9,3.28-3.56,5.66-6.69,5.66-1.31,0-2.53-.42-3.56-1.14-2.18,1.26-4.64,1.96-7.24,1.96-4.75,0-9.02-2.35-12.01-6.11-1.3.95-2.83,1.51-4.49,1.51-4.67,0-8.46-4.38-8.46-9.78,0-2.03.53-3.92,1.45-5.49" style="fill: url(#linear-gradient-44);"/>
            <path d="m4295.37,112.96s3.74,5.48,13.65,6.04l.82,3.17s-2.01-1.76-4.34-2.23c-2.31-.46-9.08-3.75-10.7-6.9l.56-.09Z" style="fill: url(#linear-gradient-45);"/>
            <path d="m4296.7,111.77s-.02,2.53,1.47,4.23c1.49,1.71.1.05.05.06-.04.01-.91-.42-.91-.42,0,0-1.14-2.84-.61-3.87" style="fill: url(#linear-gradient-46);"/>
            <path d="m4327.85,117.78s-2.83,8.29-14.77,13.21v4.24s1.9-3.02,4.6-4.58c2.68-1.55,9.92-8.47,10.89-13.01l-.71.14Z" style="fill: url(#linear-gradient-47);"/>
            <path d="m4320.75,126.87c3.08-6.49,1.07-13.87,1.07-13.87,2.31,2.47,1.16,11.96,1.16,11.96,0,0-2.07,1.96-2.33,2.11.03-.07.06-.13.1-.2Z" style="fill: url(#linear-gradient-48);"/>
            <path d="m4314.76,149.23s-.45,3.11,3.81,3.49c4.24.39,4.65,1.24,4.65,1.24,0,0-4.65-.51-7.06-.39-2.4.13-3.2-.91-5.2-.72-2.02.2-5.27,1.5-8.06,1.3-2.79-.2-4.53-1.1-6.32-.65-1.8.45-.28-.78,2.23-.71,2.53.06,4.82.13,6-1.62,1.18-1.74,9.96-1.94,9.96-1.94" style="fill: url(#linear-gradient-49);"/>
            <path d="m4310.62,102.09s-2.02.65,1.56,19.06c3.59,18.4,2.35,31.76,2.35,31.76h-10.64s4.97-11.53,4.37-22.95c-.6-11.4-8.58-22.38-10.23-30.5l2.84-.35s3.88,12.18,6.42,15.11c0,0-1.34-10.37-.3-15.02,1.04-4.67,3.63,2.89,3.63,2.89" style="fill: url(#linear-gradient-50);"/>
            <path d="m4309.55,103.54c-.5,2.07.84,10.43,1.45,14.19.62,3.75,2.24,14.19,2.24,14.19,0,0-1.68-8.94-5.37-12.83-3.7-3.89-8.4-16.58-8.4-16.58,0,0,1.05-.1,2.48-.19,1.34,3.83,3.64,9.94,5.34,11.91,0,0-.89-6.85-.66-11.92,1.76.12,3.1.46,2.92,1.23" style="fill: url(#linear-gradient-51);"/>
            <path d="m4278.79,81.73c-.17-.56-.26-1.18-.26-1.82,0-3.18,2.23-5.77,4.98-5.77.46,0,.91.08,1.34.22,1.27-2.64,3.45-4.6,6.03-5.37-.12-.54-.19-1.1-.19-1.69,0-3.85,2.69-6.98,6.02-6.98.17,0,.33,0,.49.04,1.5-3.89,4.86-6.6,8.77-6.6,5.17,0,9.36,4.7,9.6,10.61.08,0,.16-.02.26-.02,2.67,0,4.83,2.43,4.97,5.48.76-.33,1.58-.52,2.44-.52,3.37,0,6.16,2.73,6.89,6.36,4.9.5,8.75,5.27,8.75,11.08,0,6.14-4.3,11.13-9.62,11.13-1.37,0-2.67-.34-3.86-.94-1.03,3.73-4.04,6.44-7.62,6.44-1.48,0-2.86-.48-4.05-1.29-2.48,1.42-5.27,2.23-8.22,2.23-5.4,0-10.27-2.68-13.65-6.96-1.49,1.08-3.24,1.72-5.12,1.72-5.31,0-9.62-5-9.62-11.14,0-2.3.61-4.45,1.65-6.23" style="fill: url(#linear-gradient-52);"/>
            <path d="m4281.88,80.2c-.15-.5-.23-1.03-.23-1.59,0-2.8,1.97-5.08,4.38-5.08.4,0,.8.07,1.17.19,1.12-2.32,3.03-4.05,5.31-4.72-.1-.48-.16-.97-.16-1.48,0-3.39,2.37-6.14,5.31-6.14.13,0,.28.02.42.02,1.32-3.42,4.27-5.79,7.72-5.79,4.54,0,8.23,4.14,8.44,9.33.07-.01.14-.01.22-.01,2.35,0,4.26,2.13,4.37,4.81.66-.28,1.4-.45,2.15-.45,2.95,0,5.41,2.39,6.05,5.58,4.31.45,7.69,4.64,7.69,9.76,0,5.4-3.78,9.79-8.44,9.79-1.21,0-2.36-.3-3.39-.82-.9,3.28-3.56,5.66-6.69,5.66-1.31,0-2.53-.42-3.56-1.14-2.18,1.26-4.64,1.96-7.24,1.96-4.75,0-9.02-2.35-12.01-6.11-1.3.95-2.83,1.51-4.49,1.51-4.67,0-8.46-4.38-8.46-9.78,0-2.03.53-3.92,1.45-5.49" style="fill: url(#linear-gradient-53);"/>
            <path d="m4313.03,112.06c-.07-.23-.11-.49-.11-.75,0-1.32.92-2.38,2.06-2.38.19,0,.38.03.55.09.52-1.09,1.42-1.9,2.49-2.22-.05-.23-.08-.46-.08-.7,0-1.59,1.11-2.88,2.49-2.88.06,0,.13,0,.2,0,.62-1.6,2.01-2.72,3.62-2.72,2.13,0,3.86,1.94,3.96,4.38.03,0,.07,0,.1,0,1.1,0,2,1,2.05,2.26.31-.13.66-.21,1.01-.21,1.39,0,2.54,1.12,2.84,2.62,2.02.21,3.61,2.18,3.61,4.58,0,2.53-1.77,4.59-3.96,4.59-.57,0-1.11-.14-1.59-.38-.42,1.54-1.67,2.66-3.14,2.66-.61,0-1.19-.2-1.67-.54-1.02.59-2.18.92-3.4.92-2.23,0-4.24-1.1-5.64-2.87-.61.45-1.33.71-2.11.71-2.19,0-3.97-2.06-3.97-4.59,0-.95.25-1.84.68-2.58" style="fill: url(#linear-gradient-54);"/>
            <path d="m4311.76,110.29c-.08-.27-.12-.55-.12-.85,0-1.49,1.05-2.71,2.34-2.71.22,0,.43.04.63.1.59-1.24,1.62-2.16,2.83-2.52-.06-.25-.09-.52-.09-.79,0-1.81,1.26-3.28,2.83-3.28.08,0,.15,0,.23.02.71-1.83,2.28-3.1,4.12-3.1,2.43,0,4.39,2.21,4.51,4.98.04,0,.08,0,.12,0,1.25,0,2.27,1.14,2.33,2.57.35-.15.74-.24,1.15-.24,1.58,0,2.89,1.28,3.24,2.99,2.3.23,4.11,2.47,4.11,5.2,0,2.88-2.02,5.23-4.51,5.23-.64,0-1.25-.16-1.81-.44-.48,1.75-1.9,3.03-3.58,3.03-.69,0-1.34-.22-1.9-.61-1.16.67-2.47,1.05-3.86,1.05-2.54,0-4.82-1.26-6.41-3.27-.7.51-1.52.81-2.4.81-2.49,0-4.52-2.35-4.52-5.23,0-1.08.29-2.09.78-2.93" style="fill: url(#linear-gradient-55);"/>
            <path d="m4313.2,109.57c-.07-.23-.11-.49-.11-.75,0-1.31.92-2.38,2.06-2.38.19,0,.38.03.55.09.52-1.09,1.42-1.9,2.49-2.22-.05-.23-.08-.46-.08-.7,0-1.59,1.11-2.88,2.49-2.88.06,0,.13,0,.2,0,.62-1.6,2.01-2.72,3.62-2.72,2.13,0,3.86,1.94,3.96,4.38.03,0,.07,0,.1,0,1.1,0,2,1,2.05,2.26.31-.13.66-.21,1.01-.21,1.38,0,2.54,1.12,2.84,2.62,2.02.21,3.61,2.18,3.61,4.58,0,2.53-1.77,4.59-3.96,4.59-.57,0-1.11-.14-1.59-.38-.42,1.54-1.67,2.66-3.14,2.66-.61,0-1.19-.2-1.67-.53-1.02.59-2.18.92-3.4.92-2.23,0-4.24-1.1-5.64-2.87-.61.45-1.33.71-2.11.71-2.19,0-3.97-2.06-3.97-4.59,0-.95.25-1.84.68-2.58" style="fill: url(#linear-gradient-56);"/>
            <path d="m4306.99,121.15s2.39,3.29,3.58,7.86c1.2,4.58,1.35,14.09.67,18.32-.67,4.24-.52-2.94-2.09-1.2-1.57,1.73-1.72,4.93-3.06,4.75,0,0,5.45-12.53.89-29.72" style="fill: url(#linear-gradient-57);"/>
            <path d="m4283.41,106.55c-.07-.23-.11-.49-.11-.75,0-1.32.92-2.38,2.06-2.38.19,0,.38.03.55.09.52-1.09,1.42-1.9,2.49-2.21-.05-.23-.08-.46-.08-.7,0-1.59,1.11-2.88,2.49-2.88.06,0,.13,0,.2,0,.62-1.6,2.01-2.72,3.62-2.72,2.13,0,3.86,1.94,3.96,4.38.03,0,.07,0,.1,0,1.1,0,2,1,2.05,2.26.31-.13.66-.21,1.01-.21,1.39,0,2.54,1.12,2.84,2.62,2.02.21,3.61,2.18,3.61,4.58,0,2.53-1.77,4.59-3.96,4.59-.57,0-1.11-.14-1.59-.38-.42,1.54-1.67,2.66-3.14,2.66-.61,0-1.19-.2-1.67-.53-1.02.59-2.18.92-3.4.92-2.23,0-4.24-1.1-5.64-2.87-.61.45-1.33.71-2.11.71-2.19,0-3.97-2.06-3.97-4.59,0-.95.25-1.84.68-2.58" style="fill: url(#linear-gradient-58);"/>
            <path d="m4282.13,104.79c-.08-.27-.12-.55-.12-.85,0-1.49,1.05-2.71,2.34-2.71.22,0,.43.04.63.1.59-1.24,1.62-2.16,2.83-2.52-.06-.25-.09-.52-.09-.79,0-1.81,1.26-3.28,2.83-3.28.08,0,.15,0,.23.02.71-1.83,2.28-3.1,4.12-3.1,2.43,0,4.39,2.21,4.51,4.98.04,0,.08,0,.12,0,1.25,0,2.27,1.14,2.33,2.57.35-.15.74-.24,1.15-.24,1.58,0,2.89,1.28,3.24,2.99,2.3.23,4.11,2.47,4.11,5.2,0,2.88-2.02,5.23-4.51,5.23-.64,0-1.25-.16-1.81-.44-.48,1.75-1.9,3.03-3.58,3.03-.69,0-1.34-.23-1.9-.61-1.16.67-2.47,1.05-3.86,1.05-2.54,0-4.82-1.26-6.41-3.27-.7.51-1.52.81-2.4.81-2.49,0-4.52-2.35-4.52-5.23,0-1.08.29-2.09.78-2.93" style="fill: url(#linear-gradient-59);"/>
            <path d="m4283.58,104.07c-.07-.23-.11-.49-.11-.75,0-1.31.92-2.38,2.06-2.38.19,0,.38.03.55.09.52-1.09,1.42-1.9,2.49-2.21-.05-.23-.08-.46-.08-.7,0-1.59,1.11-2.88,2.49-2.88.06,0,.13,0,.2,0,.62-1.6,2.01-2.72,3.62-2.72,2.13,0,3.86,1.94,3.96,4.38.03,0,.07,0,.1,0,1.1,0,2,1,2.05,2.26.31-.13.66-.21,1.01-.21,1.38,0,2.54,1.12,2.84,2.62,2.02.21,3.61,2.18,3.61,4.58,0,2.53-1.77,4.6-3.96,4.6-.57,0-1.11-.14-1.59-.38-.42,1.54-1.67,2.66-3.14,2.66-.61,0-1.19-.2-1.67-.53-1.02.59-2.18.92-3.4.92-2.23,0-4.24-1.1-5.64-2.87-.61.45-1.33.71-2.11.71-2.19,0-3.97-2.06-3.97-4.59,0-.95.25-1.84.68-2.58" style="fill: url(#linear-gradient-60);"/>
          </g>
        </g>
        <path d="m5760,190.91v110l-1209.29-1s176.29-64,319.29-80c57.84-6.47,554.59-12.86,632-21,113.98-11.99,258-8,258-8Z" style="fill: url(#Degradado_sin_nombre_84);"/>
        <path d="m0,190.91v110s1209.29-1,1209.29-1c0,0-176.29-64-319.29-80-57.84-6.47-554.59-12.86-632-21C144.02,186.92,0,190.91,0,190.91Z" style="fill: url(#Degradado_sin_nombre_84-2);"/>
      </g>
    </g>
  </g>
</svg>