<?xml version="1.0" encoding="UTF-8"?><svg id="a" xmlns="http://www.w3.org/2000/svg" xmlns:xlink="http://www.w3.org/1999/xlink" viewBox="0 0 4320 1915"><defs><linearGradient id="c" x1="1620.96" y1="349.76" x2="1620.96" y2="2199.34" gradientTransform="translate(539.04 2396.34) scale(1 -1)" gradientUnits="userSpaceOnUse"><stop offset="0" stop-color="#fff"/><stop offset="0" stop-color="#fbfefe"/><stop offset="0" stop-color="#ddfafe"/><stop offset="0" stop-color="#fff"/><stop offset=".27" stop-color="#acf3fd"/><stop offset=".43" stop-color="#79edfd"/><stop offset=".54" stop-color="#48e7fd"/><stop offset=".68" stop-color="#11e0fd"/><stop offset=".69" stop-color="#00defd"/><stop offset=".98" stop-color="#00bae5"/></linearGradient><linearGradient id="f" x1="432.64" y1="1725.1" x2="431.5" y2="1578.23" gradientTransform="translate(0 1918) scale(1 -1)" gradientUnits="userSpaceOnUse"><stop offset=".07" stop-color="#fff"/><stop offset=".73" stop-color="#fff" stop-opacity="0"/></linearGradient><linearGradient id="i" x1="542.64" y1="1663.1" x2="541.5" y2="1516.23" xlink:href="#f"/><linearGradient id="l" x1="260.64" y1="984.1" x2="259.5" y2="837.23" xlink:href="#f"/><linearGradient id="o" x1="446.64" y1="928.1" x2="445.5" y2="781.23" xlink:href="#f"/><linearGradient id="r" x1="1084.64" y1="1421.1" x2="1083.5" y2="1274.23" xlink:href="#f"/><linearGradient id="u" x1="1223.64" y1="1374.1" x2="1222.5" y2="1227.23" xlink:href="#f"/><linearGradient id="x" x1="1954.64" y1="1803.1" x2="1953.5" y2="1656.23" xlink:href="#f"/><linearGradient id="aa" x1="2068.64" y1="1759.1" x2="2067.5" y2="1612.23" xlink:href="#f"/><linearGradient id="ad" x1="2061.64" y1="1262.1" x2="2060.5" y2="1115.23" xlink:href="#f"/><linearGradient id="ag" x1="2142.64" y1="1222.1" x2="2141.5" y2="1075.23" xlink:href="#f"/><linearGradient id="aj" x1="2646.64" y1="1524.1" x2="2645.5" y2="1377.23" xlink:href="#f"/><linearGradient id="am" x1="2738.64" y1="1492.1" x2="2737.5" y2="1345.23" xlink:href="#f"/><linearGradient id="ap" x1="3246.64" y1="1762.1" x2="3245.5" y2="1615.23" xlink:href="#f"/><linearGradient id="as" x1="3338.64" y1="1717.1" x2="3337.5" y2="1570.23" xlink:href="#f"/><linearGradient id="av" x1="3156.64" y1="1017.1" x2="3155.5" y2="870.23" xlink:href="#f"/><linearGradient id="ay" x1="3302.64" y1="980.1" x2="3301.5" y2="833.23" xlink:href="#f"/><linearGradient id="bb" x1="3892.64" y1="1501.1" x2="3891.5" y2="1354.23" xlink:href="#f"/><linearGradient id="be" x1="4016.64" y1="1460.1" x2="4015.5" y2="1313.23" xlink:href="#f"/></defs><g id="b"><rect x="0" width="4320" height="1915" style="fill:url(#c);"/></g><g id="d"><g id="e"><path d="m570,238.99c-3.66-.76-6.89-1.29-9.27-1.61,2.48-24.51-38.88-27.09-56.18-26.55,1.43-18.98-20.48-17.7-34.23-17.18-2.52-12.91-15.59-12.72-26.47-9.33-5.07-17.55-24.83-14.76-33.06-1.49-15.7-23.02-42.68-7.46-37.52,18.39-7.33-19.03-64.98-11.76-52.93,18.62-10.04-5.42-21.71-4.56-21.03,6.95-11.26-2.64-24.84-1.67-19.87,10.5-13.68.07-28.26-1.14-39.1,8.05,14.11,20.54,59.51,12.37,81.03,13.52,1.22,7.72,21.61,18.73,22,11.85-.74,12.96,10.9,13.49,21.91,9.64,4.45,14.39,24.87,14.16,32.55,1.49,12.23,16.16,41.01,20.48,50.67-.35,11.49,2.92,25.22,3.92,32.86-6.24,10.3,4.15,24.13,5.18,30.57-1.56,1.88,10.63,37.07,10.64,41.11-4.69,3.92,1.01,64.04-.43,70.9.87l-53.92-30.87h-.02Z" style="fill:url(#f); isolation:isolate; opacity:.53;"/></g></g><g id="g"><g id="h"><path d="m680,300.99c-3.66-.76-6.89-1.29-9.27-1.61,2.48-24.51-38.88-27.09-56.18-26.55,1.43-18.98-20.48-17.7-34.23-17.18-2.52-12.91-15.59-12.72-26.47-9.33-5.07-17.55-24.83-14.76-33.06-1.49-15.7-23.02-42.68-7.46-37.52,18.39-7.33-19.03-64.98-11.76-52.93,18.62-10.04-5.42-21.71-4.56-21.03,6.95-11.26-2.64-24.84-1.67-19.87,10.5-13.68.07-28.26-1.14-39.1,8.05,14.11,20.54,59.51,12.37,81.03,13.52,1.22,7.72,21.61,18.73,22,11.85-.74,12.96,10.9,13.49,21.91,9.64,4.45,14.39,24.87,14.16,32.55,1.49,12.23,16.16,41.01,20.48,50.67-.35,11.49,2.92,25.22,3.92,32.86-6.24,10.3,4.15,24.13,5.18,30.57-1.56,1.88,10.63,37.07,10.64,41.11-4.69,3.92,1.01,64.04-.43,70.9.87l-53.92-30.87h-.02Z" style="fill:url(#i); isolation:isolate; opacity:.53;"/></g></g><g id="j"><g id="k"><path d="m398,979.99c-3.66-.76-6.89-1.29-9.27-1.61,2.48-24.51-38.88-27.09-56.18-26.55,1.43-18.98-20.48-17.7-34.23-17.18-2.52-12.91-15.59-12.72-26.47-9.33-5.07-17.55-24.83-14.76-33.06-1.49-15.7-23.02-42.68-7.46-37.52,18.39-7.33-19.03-64.98-11.76-52.93,18.62-10.04-5.42-21.71-4.56-21.03,6.95-11.26-2.64-24.84-1.67-19.87,10.5-13.68.07-28.26-1.14-39.1,8.05,14.11,20.54,59.51,12.37,81.03,13.52,1.22,7.72,21.61,18.73,22,11.85-.74,12.96,10.9,13.49,21.91,9.64,4.45,14.39,24.87,14.16,32.55,1.49,12.23,16.16,41.01,20.48,50.67-.35,11.49,2.92,25.22,3.92,32.86-6.24,10.3,4.15,24.13,5.18,30.57-1.56,1.88,10.63,37.07,10.64,41.11-4.69,3.92,1.01,64.04-.43,70.9.87l-53.92-30.87h-.02Z" style="fill:url(#l); isolation:isolate; opacity:.53;"/></g></g><g id="m"><g id="n"><path d="m584,1035.99c-3.66-.76-6.89-1.29-9.27-1.61,2.48-24.51-38.88-27.09-56.18-26.55,1.43-18.98-20.48-17.7-34.23-17.18-2.52-12.91-15.59-12.72-26.47-9.33-5.07-17.55-24.83-14.76-33.06-1.49-15.7-23.02-42.68-7.46-37.52,18.39-7.33-19.03-64.98-11.76-52.93,18.62-10.04-5.42-21.71-4.56-21.03,6.95-11.26-2.64-24.84-1.67-19.87,10.5-13.68.07-28.26-1.14-39.1,8.05,14.11,20.54,59.51,12.37,81.03,13.52,1.22,7.72,21.61,18.73,22,11.85-.74,12.96,10.9,13.49,21.91,9.64,4.45,14.39,24.87,14.16,32.55,1.49,12.23,16.16,41.01,20.48,50.67-.35,11.49,2.92,25.22,3.92,32.86-6.24,10.3,4.15,24.13,5.18,30.57-1.56,1.88,10.63,37.07,10.64,41.11-4.69,3.92,1.01,64.04-.43,70.9.87l-53.92-30.87h-.02Z" style="fill:url(#o); isolation:isolate; opacity:.53;"/></g></g><g id="p"><g id="q"><path d="m1222,542.99c-3.66-.76-6.89-1.29-9.27-1.61,2.48-24.51-38.88-27.09-56.18-26.55,1.43-18.98-20.48-17.7-34.23-17.18-2.52-12.91-15.59-12.72-26.47-9.33-5.07-17.55-24.83-14.76-33.06-1.49-15.7-23.02-42.68-7.46-37.52,18.39-7.33-19.03-64.98-11.76-52.93,18.62-10.04-5.42-21.71-4.56-21.03,6.95-11.26-2.64-24.84-1.67-19.87,10.5-13.68.07-28.26-1.14-39.1,8.05,14.11,20.54,59.51,12.37,81.03,13.52,1.22,7.72,21.61,18.73,22,11.85-.74,12.96,10.9,13.49,21.91,9.64,4.45,14.39,24.87,14.16,32.55,1.49,12.23,16.16,41.01,20.48,50.67-.35,11.49,2.92,25.22,3.92,32.86-6.24,10.3,4.15,24.13,5.18,30.57-1.56,1.88,10.63,37.07,10.64,41.11-4.69,3.92,1.01,64.04-.43,70.9.87l-53.92-30.87h-.02Z" style="fill:url(#r); isolation:isolate; opacity:.53;"/></g></g><g id="s"><g id="t"><path d="m1361,589.99c-3.66-.76-6.89-1.29-9.27-1.61,2.48-24.51-38.88-27.09-56.18-26.55,1.43-18.98-20.48-17.7-34.23-17.18-2.52-12.91-15.59-12.72-26.47-9.33-5.07-17.55-24.83-14.76-33.06-1.49-15.7-23.02-42.68-7.46-37.52,18.39-7.33-19.03-64.98-11.76-52.93,18.62-10.04-5.42-21.71-4.56-21.03,6.95-11.26-2.64-24.84-1.67-19.87,10.5-13.68.07-28.26-1.14-39.1,8.05,14.11,20.54,59.51,12.37,81.03,13.52,1.22,7.72,21.61,18.73,22,11.85-.74,12.96,10.9,13.49,21.91,9.64,4.45,14.39,24.87,14.16,32.55,1.49,12.23,16.16,41.01,20.48,50.67-.35,11.49,2.92,25.22,3.92,32.86-6.24,10.3,4.15,24.13,5.18,30.57-1.56,1.88,10.63,37.07,10.64,41.11-4.69,3.92,1.01,64.04-.43,70.9.87l-53.92-30.87h-.02Z" style="fill:url(#u); isolation:isolate; opacity:.53;"/></g></g><g id="v"><g id="w"><path d="m2092,160.99c-3.66-.76-6.89-1.29-9.27-1.61,2.48-24.51-38.88-27.09-56.18-26.55,1.43-18.98-20.48-17.7-34.23-17.18-2.52-12.91-15.59-12.72-26.47-9.33-5.07-17.55-24.83-14.76-33.06-1.49-15.7-23.02-42.68-7.46-37.52,18.39-7.33-19.03-64.98-11.76-52.93,18.62-10.04-5.42-21.71-4.56-21.03,6.95-11.26-2.64-24.84-1.67-19.87,10.5-13.68.07-28.26-1.14-39.1,8.05,14.11,20.54,59.51,12.37,81.03,13.52,1.22,7.72,21.61,18.73,22,11.85-.74,12.96,10.9,13.49,21.91,9.64,4.45,14.39,24.87,14.16,32.55,1.49,12.23,16.16,41.01,20.48,50.67-.35,11.49,2.92,25.22,3.92,32.86-6.24,10.3,4.15,24.13,5.18,30.57-1.56,1.88,10.63,37.07,10.64,41.11-4.69,3.92,1.01,64.04-.43,70.9.87l-53.92-30.87h-.02Z" style="fill:url(#x); isolation:isolate; opacity:.53;"/></g></g><g id="y"><g id="z"><path d="m2206,204.99c-3.66-.76-6.89-1.29-9.27-1.61,2.48-24.51-38.88-27.09-56.18-26.55,1.43-18.98-20.48-17.7-34.23-17.18-2.52-12.91-15.59-12.72-26.47-9.33-5.07-17.55-24.83-14.76-33.06-1.49-15.7-23.02-42.68-7.46-37.52,18.39-7.33-19.03-64.98-11.76-52.93,18.62-10.04-5.42-21.71-4.56-21.03,6.95-11.26-2.64-24.84-1.67-19.87,10.5-13.68.07-28.26-1.14-39.1,8.05,14.11,20.54,59.51,12.37,81.03,13.52,1.22,7.72,21.61,18.73,22,11.85-.74,12.96,10.9,13.49,21.91,9.64,4.45,14.39,24.87,14.16,32.55,1.49,12.23,16.16,41.01,20.48,50.67-.35,11.49,2.92,25.22,3.92,32.86-6.24,10.3,4.15,24.13,5.18,30.57-1.56,1.88,10.63,37.07,10.64,41.11-4.69,3.92,1.01,64.04-.43,70.9.87l-53.92-30.87h-.02Z" style="fill:url(#aa); isolation:isolate; opacity:.53;"/></g></g><g id="ab"><g id="ac"><path d="m2199,701.99c-3.66-.76-6.89-1.29-9.27-1.61,2.48-24.51-38.88-27.09-56.18-26.55,1.43-18.98-20.48-17.7-34.23-17.18-2.52-12.91-15.59-12.72-26.47-9.33-5.07-17.55-24.83-14.76-33.06-1.49-15.7-23.02-42.68-7.46-37.52,18.39-7.33-19.03-64.98-11.76-52.93,18.62-10.04-5.42-21.71-4.56-21.03,6.95-11.26-2.64-24.84-1.67-19.87,10.5-13.68.07-28.26-1.14-39.1,8.05,14.11,20.54,59.51,12.37,81.03,13.52,1.22,7.72,21.61,18.73,22,11.85-.74,12.96,10.9,13.49,21.91,9.64,4.45,14.39,24.87,14.16,32.55,1.49,12.23,16.16,41.01,20.48,50.67-.35,11.49,2.92,25.22,3.92,32.86-6.24,10.3,4.15,24.13,5.18,30.57-1.56,1.88,10.63,37.07,10.64,41.11-4.69,3.92,1.01,64.04-.43,70.9.87l-53.92-30.87h-.02Z" style="fill:url(#ad); isolation:isolate; opacity:.53;"/></g></g><g id="ae"><g id="af"><path d="m2280,741.99c-3.66-.76-6.89-1.29-9.27-1.61,2.48-24.51-38.88-27.09-56.18-26.55,1.43-18.98-20.48-17.7-34.23-17.18-2.52-12.91-15.59-12.72-26.47-9.33-5.07-17.55-24.83-14.76-33.06-1.49-15.7-23.02-42.68-7.46-37.52,18.39-7.33-19.03-64.98-11.76-52.93,18.62-10.04-5.42-21.71-4.56-21.03,6.95-11.26-2.64-24.84-1.67-19.87,10.5-13.68.07-28.26-1.14-39.1,8.05,14.11,20.54,59.51,12.37,81.03,13.52,1.22,7.72,21.61,18.73,22,11.85-.74,12.96,10.9,13.49,21.91,9.64,4.45,14.39,24.87,14.16,32.55,1.49,12.23,16.16,41.01,20.48,50.67-.35,11.49,2.92,25.22,3.92,32.86-6.24,10.3,4.15,24.13,5.18,30.57-1.56,1.88,10.63,37.07,10.64,41.11-4.69,3.92,1.01,64.04-.43,70.9.87l-53.92-30.87h-.02Z" style="fill:url(#ag); isolation:isolate; opacity:.53;"/></g></g><g id="ah"><g id="ai"><path d="m2784,439.99c-3.66-.76-6.89-1.29-9.27-1.61,2.48-24.51-38.88-27.09-56.18-26.55,1.43-18.98-20.48-17.7-34.23-17.18-2.52-12.91-15.59-12.72-26.47-9.33-5.07-17.55-24.83-14.76-33.06-1.49-15.7-23.02-42.68-7.46-37.52,18.39-7.33-19.03-64.98-11.76-52.93,18.62-10.04-5.42-21.71-4.56-21.03,6.95-11.26-2.64-24.84-1.67-19.87,10.5-13.68.07-28.26-1.14-39.1,8.05,14.11,20.54,59.51,12.37,81.03,13.52,1.22,7.72,21.61,18.73,22,11.85-.74,12.96,10.9,13.49,21.91,9.64,4.45,14.39,24.87,14.16,32.55,1.49,12.23,16.16,41.01,20.48,50.67-.35,11.49,2.92,25.22,3.92,32.86-6.24,10.3,4.15,24.13,5.18,30.57-1.56,1.88,10.63,37.07,10.64,41.11-4.69,3.92,1.01,64.04-.43,70.9.87l-53.92-30.87h-.02Z" style="fill:url(#aj); isolation:isolate; opacity:.53;"/></g></g><g id="ak"><g id="al"><path d="m2876,471.99c-3.66-.76-6.89-1.29-9.27-1.61,2.48-24.51-38.88-27.09-56.18-26.55,1.43-18.98-20.48-17.7-34.23-17.18-2.52-12.91-15.59-12.72-26.47-9.33-5.07-17.55-24.83-14.76-33.06-1.49-15.7-23.02-42.68-7.46-37.52,18.39-7.33-19.03-64.98-11.76-52.93,18.62-10.04-5.42-21.71-4.56-21.03,6.95-11.26-2.64-24.84-1.67-19.87,10.5-13.68.07-28.26-1.14-39.1,8.05,14.11,20.54,59.51,12.37,81.03,13.52,1.22,7.72,21.61,18.73,22,11.85-.74,12.96,10.9,13.49,21.91,9.64,4.45,14.39,24.87,14.16,32.55,1.49,12.23,16.16,41.01,20.48,50.67-.35,11.49,2.92,25.22,3.92,32.86-6.24,10.3,4.15,24.13,5.18,30.57-1.56,1.88,10.63,37.07,10.64,41.11-4.69,3.92,1.01,64.04-.43,70.9.87l-53.92-30.87h-.02Z" style="fill:url(#am); isolation:isolate; opacity:.53;"/></g></g><g id="an"><g id="ao"><path d="m3384,201.99c-3.66-.76-6.89-1.29-9.27-1.61,2.48-24.51-38.88-27.09-56.18-26.55,1.43-18.98-20.48-17.7-34.23-17.18-2.52-12.91-15.59-12.72-26.47-9.33-5.07-17.55-24.83-14.76-33.06-1.49-15.7-23.02-42.68-7.46-37.52,18.39-7.33-19.03-64.98-11.76-52.93,18.62-10.04-5.42-21.71-4.56-21.03,6.95-11.26-2.64-24.84-1.67-19.87,10.5-13.68.07-28.26-1.14-39.1,8.05,14.11,20.54,59.51,12.37,81.03,13.52,1.22,7.72,21.61,18.73,22,11.85-.74,12.96,10.9,13.49,21.91,9.64,4.45,14.39,24.87,14.16,32.55,1.49,12.23,16.16,41.01,20.48,50.67-.35,11.49,2.92,25.22,3.92,32.86-6.24,10.3,4.15,24.13,5.18,30.57-1.56,1.88,10.63,37.07,10.64,41.11-4.69,3.92,1.01,64.04-.43,70.9.87l-53.92-30.87h-.02Z" style="fill:url(#ap); isolation:isolate; opacity:.53;"/></g></g><g id="aq"><g id="ar"><path d="m3476,246.99c-3.66-.76-6.89-1.29-9.27-1.61,2.48-24.51-38.88-27.09-56.18-26.55,1.43-18.98-20.48-17.7-34.23-17.18-2.52-12.91-15.59-12.72-26.47-9.33-5.07-17.55-24.83-14.76-33.06-1.49-15.7-23.02-42.68-7.46-37.52,18.39-7.33-19.03-64.98-11.76-52.93,18.62-10.04-5.42-21.71-4.56-21.03,6.95-11.26-2.64-24.84-1.67-19.87,10.5-13.68.07-28.26-1.14-39.1,8.05,14.11,20.54,59.51,12.37,81.03,13.52,1.22,7.72,21.61,18.73,22,11.85-.74,12.96,10.9,13.49,21.91,9.64,4.45,14.39,24.87,14.16,32.55,1.49,12.23,16.16,41.01,20.48,50.67-.35,11.49,2.92,25.22,3.92,32.86-6.24,10.3,4.15,24.13,5.18,30.57-1.56,1.88,10.63,37.07,10.64,41.11-4.69,3.92,1.01,64.04-.43,70.9.87l-53.92-30.87h-.02Z" style="fill:url(#as); isolation:isolate; opacity:.53;"/></g></g><g id="at"><g id="au"><path d="m3294,946.99c-3.66-.76-6.89-1.29-9.27-1.61,2.48-24.51-38.88-27.09-56.18-26.55,1.43-18.98-20.48-17.7-34.23-17.18-2.52-12.91-15.59-12.72-26.47-9.33-5.07-17.55-24.83-14.76-33.06-1.49-15.7-23.02-42.68-7.46-37.52,18.39-7.33-19.03-64.98-11.76-52.93,18.62-10.04-5.42-21.71-4.56-21.03,6.95-11.26-2.64-24.84-1.67-19.87,10.5-13.68.07-28.26-1.14-39.1,8.05,14.11,20.54,59.51,12.37,81.03,13.52,1.22,7.72,21.61,18.73,22,11.85-.74,12.96,10.9,13.49,21.91,9.64,4.45,14.39,24.87,14.16,32.55,1.49,12.23,16.16,41.01,20.48,50.67-.35,11.49,2.92,25.22,3.92,32.86-6.24,10.3,4.15,24.13,5.18,30.57-1.56,1.88,10.63,37.07,10.64,41.11-4.69,3.92,1.01,64.04-.43,70.9.87l-53.92-30.87h-.02Z" style="fill:url(#av); isolation:isolate; opacity:.53;"/></g></g><g id="aw"><g id="ax"><path d="m3440,983.99c-3.66-.76-6.89-1.29-9.27-1.61,2.48-24.51-38.88-27.09-56.18-26.55,1.43-18.98-20.48-17.7-34.23-17.18-2.52-12.91-15.59-12.72-26.47-9.33-5.07-17.55-24.83-14.76-33.06-1.49-15.7-23.02-42.68-7.46-37.52,18.39-7.33-19.03-64.98-11.76-52.93,18.62-10.04-5.42-21.71-4.56-21.03,6.95-11.26-2.64-24.84-1.67-19.87,10.5-13.68.07-28.26-1.14-39.1,8.05,14.11,20.54,59.51,12.37,81.03,13.52,1.22,7.72,21.61,18.73,22,11.85-.74,12.96,10.9,13.49,21.91,9.64,4.45,14.39,24.87,14.16,32.55,1.49,12.23,16.16,41.01,20.48,50.67-.35,11.49,2.92,25.22,3.92,32.86-6.24,10.3,4.15,24.13,5.18,30.57-1.56,1.88,10.63,37.07,10.64,41.11-4.69,3.92,1.01,64.04-.43,70.9.87l-53.92-30.87h-.02Z" style="fill:url(#ay); isolation:isolate; opacity:.53;"/></g></g><g id="az"><g id="ba"><path d="m4030,462.99c-3.66-.76-6.89-1.29-9.27-1.61,2.48-24.51-38.88-27.09-56.18-26.55,1.43-18.98-20.48-17.7-34.23-17.18-2.52-12.91-15.59-12.72-26.47-9.33-5.07-17.55-24.83-14.76-33.06-1.49-15.7-23.02-42.68-7.46-37.52,18.39-7.33-19.03-64.98-11.76-52.93,18.62-10.04-5.42-21.71-4.56-21.03,6.95-11.26-2.64-24.84-1.67-19.87,10.5-13.68.07-28.26-1.14-39.1,8.05,14.11,20.54,59.51,12.37,81.03,13.52,1.22,7.72,21.61,18.73,22,11.85-.74,12.96,10.9,13.49,21.91,9.64,4.45,14.39,24.87,14.16,32.55,1.49,12.23,16.16,41.01,20.48,50.67-.35,11.49,2.92,25.22,3.92,32.86-6.24,10.3,4.15,24.13,5.18,30.57-1.56,1.88,10.63,37.07,10.64,41.11-4.69,3.92,1.01,64.04-.43,70.9.87l-53.92-30.87h-.02Z" style="fill:url(#bb); isolation:isolate; opacity:.53;"/></g></g><g id="bc"><g id="bd"><path d="m4154,503.99c-3.66-.76-6.89-1.29-9.27-1.61,2.48-24.51-38.88-27.09-56.18-26.55,1.43-18.98-20.48-17.7-34.23-17.18-2.52-12.91-15.59-12.72-26.47-9.33-5.07-17.55-24.83-14.76-33.06-1.49-15.7-23.02-42.68-7.46-37.52,18.39-7.33-19.03-64.98-11.76-52.93,18.62-10.04-5.42-21.71-4.56-21.03,6.95-11.26-2.64-24.84-1.67-19.87,10.5-13.68.07-28.26-1.14-39.1,8.05,14.11,20.54,59.51,12.37,81.03,13.52,1.22,7.72,21.61,18.73,22,11.85-.74,12.96,10.9,13.49,21.91,9.64,4.45,14.39,24.87,14.16,32.55,1.49,12.23,16.16,41.01,20.48,50.67-.35,11.49,2.92,25.22,3.92,32.86-6.24,10.3,4.15,24.13,5.18,30.57-1.56,1.88,10.63,37.07,10.64,41.11-4.69,3.92,1.01,64.04-.43,70.9.87l-53.92-30.87h-.02Z" style="fill:url(#be); isolation:isolate; opacity:.53;"/></g></g></svg>