<?xml version="1.0" encoding="UTF-8" standalone="no"?>
<!DOCTYPE svg PUBLIC "-//W3C//DTD SVG 1.1//EN" "http://www.w3.org/Graphics/SVG/1.1/DTD/svg11.dtd">
<svg xmlns="http://www.w3.org/2000/svg" version="1.1" viewBox="0.00 0.00 620.00 620.00">
<g>
<path fill="#ffffff" d="
  M 397.10 288.30
  Q 402.54 291.69 408.03 295.06
  Q 446.39 318.66 473.74 354.29
  C 478.00 359.85 486.05 372.31 480.47 379.11
  C 476.37 384.10 468.43 387.24 462.55 383.73
  Q 460.29 382.38 456.63 377.16
  Q 422.29 328.15 367.18 303.78
  Q 364.99 302.82 362.28 299.71
  C 358.02 294.83 356.43 288.59 359.84 282.76
  C 362.45 278.28 368.96 275.32 373.19 271.95
  Q 406.49 245.43 411.43 203.72
  Q 412.60 193.83 411.39 183.79
  C 407.50 151.37 389.77 123.29 360.70 107.24
  C 357.42 105.42 353.75 103.61 351.47 100.80
  C 346.18 94.29 348.30 85.68 355.01 81.35
  Q 361.58 77.11 370.00 81.49
  C 393.84 93.92 412.79 112.39 424.98 136.10
  C 448.44 181.75 441.70 236.90 408.27 275.86
  C 405.25 279.39 400.71 283.57 396.99 287.50
  Q 396.56 287.97 397.10 288.30
  Z"
/>
<path fill="#ffffff" d="
  M 301.17 304.72
  A 0.21 0.21 0.0 0 0 301.30 304.94
  Q 378.30 330.19 417.42 400.06
  C 421.69 407.69 432.60 427.48 420.24 433.30
  C 412.29 437.05 404.61 437.02 400.73 427.96
  Q 382.43 385.32 345.65 357.62
  C 282.65 310.18 193.61 311.60 132.58 361.57
  Q 81.30 403.56 70.74 470.09
  Q 69.63 477.06 68.03 479.53
  C 61.90 488.98 47.50 486.54 43.96 476.14
  Q 42.96 473.20 43.55 468.77
  C 47.51 439.12 57.97 410.19 74.64 385.34
  Q 113.65 327.23 181.84 305.08
  A 0.48 0.48 0.0 0 0 181.94 304.21
  C 143.24 281.16 121.27 239.84 124.73 194.75
  C 128.64 143.93 166.38 101.34 215.73 90.47
  Q 246.10 83.79 276.41 92.86
  C 327.93 108.29 362.16 158.13 358.74 211.45
  Q 358.10 221.35 355.66 231.18
  Q 344.06 277.81 302.37 303.72
  Q 302.30 303.77 301.71 303.98
  Q 301.26 304.14 301.17 304.72
  Z
  M 331.4068 199.2360
  A 89.88 89.60 -3.0 0 0 236.9607 114.4628
  A 89.88 89.60 -3.0 0 0 151.8932 208.6440
  A 89.88 89.60 -3.0 0 0 246.3393 293.4172
  A 89.88 89.60 -3.0 0 0 331.4068 199.2360
  Z"
/>
<path fill="#ffffff" d="
  M 495.50 466.50
  A 1.00 1.00 0.0 0 0 494.50 465.50
  L 424.26 465.49
  A 4.00 3.99 -0.1 0 1 420.26 461.51
  L 420.25 448.82
  A 3.69 3.69 0.0 0 1 423.93 445.12
  L 494.19 445.12
  A 1.31 1.30 -90.0 0 0 495.49 443.81
  L 495.49 373.97
  A 4.08 4.07 -1.3 0 1 499.38 369.90
  Q 503.49 369.71 507.11 369.73
  C 515.29 369.78 516.07 370.23 516.05 378.27
  Q 516.00 411.01 516.02 443.73
  A 1.38 1.38 0.0 0 0 517.40 445.11
  Q 551.76 445.15 586.51 445.10
  Q 589.92 445.10 591.21 447.71
  C 592.60 450.50 591.87 457.17 591.90 460.58
  A 4.89 4.88 -0.2 0 1 587.01 465.50
  L 517.27 465.49
  Q 516.04 465.49 516.04 466.73
  L 516.00 537.11
  A 3.86 3.86 0.0 0 1 512.14 540.97
  L 499.86 540.97
  A 4.36 4.36 0.0 0 1 495.49 536.61
  L 495.50 466.50
  Z"
/>
</g>
</svg>
