<?xml version="1.0" encoding="UTF-8" standalone="no"?>
<!DOCTYPE svg PUBLIC "-//W3C//DTD SVG 1.1//EN" "http://www.w3.org/Graphics/SVG/1.1/DTD/svg11.dtd">
<svg xmlns="http://www.w3.org/2000/svg" version="1.1" viewBox="0.00 0.00 492.00 500.00">
<g>
<path fill="#ffffff" d="
  M 342.97 1.74
  Q 370.28 7.71 382.50 31.77
  Q 389.44 45.43 388.18 62.00
  C 387.99 64.54 387.01 67.84 386.99 70.96
  Q 386.99 71.46 386.76 71.90
  Q 386.15 73.07 385.01 76.25
  Q 381.51 86.03 374.37 93.99
  C 359.29 110.78 336.74 117.11 314.82 110.61
  Q 303.10 107.14 292.96 97.28
  C 280.40 85.07 275.22 69.09 276.01 51.75
  C 276.05 51.01 276.54 50.53 276.62 49.73
  Q 277.57 39.84 282.42 31.18
  C 284.01 28.33 285.48 25.16 287.41 22.70
  Q 297.87 9.33 313.91 3.58
  Q 315.28 3.09 318.71 2.40
  C 320.92 1.96 322.95 1.03 325.16 0.97
  Q 334.46 0.70 341.50 1.02
  Q 341.84 1.04 342.17 1.33
  Q 342.52 1.64 342.97 1.74
  Z"
/>
<path fill="#ffffff" d="
  M 219.15 327.95
  Q 219.03 327.36 219.21 327.00
  Q 228.18 308.24 241.98 292.87
  Q 252.51 281.14 253.19 280.27
  Q 272.52 255.55 278.85 224.25
  Q 279.03 223.38 279.02 222.03
  Q 279.02 221.54 279.28 221.11
  Q 280.08 219.77 280.72 216.73
  Q 282.32 209.23 283.72 201.67
  Q 289.09 172.52 266.15 156.07
  Q 254.65 147.82 238.35 141.66
  Q 221.46 135.27 204.54 128.91
  C 179.39 119.46 160.28 92.47 179.69 66.93
  Q 182.32 63.46 188.69 59.20
  Q 197.96 53.02 208.64 52.68
  Q 216.05 52.45 223.22 55.68
  Q 230.17 58.81 235.90 64.11
  Q 247.46 74.81 253.51 83.75
  C 266.30 102.65 279.74 121.57 301.01 131.80
  Q 314.36 138.23 330.23 140.08
  Q 343.30 141.61 354.22 140.37
  Q 356.07 140.16 359.09 138.98
  C 361.19 138.17 363.76 137.83 365.60 136.93
  Q 381.33 129.23 390.82 114.42
  Q 391.03 114.10 391.10 113.72
  Q 391.22 113.09 391.82 112.99
  Q 392.33 112.91 392.59 112.46
  Q 402.73 95.29 406.58 86.00
  Q 415.24 65.11 424.59 44.52
  Q 431.16 30.05 444.71 22.69
  Q 448.13 20.83 452.07 20.49
  Q 476.66 18.35 487.94 40.22
  C 489.00 42.26 489.41 44.69 490.24 46.97
  Q 491.03 49.15 491.01 51.16
  Q 491.00 53.00 491.00 54.84
  Q 491.01 55.34 490.76 55.77
  C 489.34 58.30 489.22 61.14 488.00 63.50
  C 486.71 65.98 485.54 68.82 483.89 70.99
  Q 476.63 80.50 467.45 88.12
  Q 458.95 95.17 457.10 97.01
  C 431.71 122.27 419.34 157.12 411.16 191.30
  Q 408.86 200.92 408.34 209.89
  Q 407.26 228.71 409.52 247.50
  Q 411.50 264.03 414.20 280.46
  Q 422.40 330.33 424.95 348.76
  Q 428.73 376.12 426.91 397.50
  Q 425.66 412.23 420.98 423.48
  Q 420.28 425.17 416.73 430.50
  Q 410.08 440.47 398.16 442.22
  C 381.28 444.70 374.84 425.17 372.14 412.72
  Q 368.50 395.92 367.21 378.75
  Q 366.08 363.67 364.66 326.13
  Q 364.41 319.58 362.93 311.36
  Q 361.12 301.22 360.01 296.82
  Q 356.81 284.12 349.49 274.53
  Q 344.78 268.36 337.33 266.41
  C 328.10 263.99 318.99 268.33 313.80 276.04
  Q 306.37 287.08 303.16 301.39
  Q 301.57 308.53 297.83 320.53
  Q 291.70 340.26 281.86 356.62
  Q 276.26 365.94 266.82 373.13
  Q 254.96 382.16 240.74 377.10
  C 225.34 371.61 212.94 357.44 215.71 340.25
  Q 216.42 335.81 219.07 328.90
  Q 219.25 328.44 219.15 327.95
  Z"
/>
<circle fill="#ffffff" cx="119.16" cy="212.97" r="41.73"/>
<path fill="#ffffff" d="
  M 82.88 493.52
  C 78.16 500.19 69.69 500.29 62.98 496.62
  C 53.58 491.47 50.14 478.40 49.18 468.54
  Q 47.19 448.25 50.40 429.48
  C 51.36 423.82 51.96 417.69 52.67 413.53
  Q 56.65 390.00 60.12 366.38
  C 61.21 358.96 61.70 351.31 62.37 343.74
  C 63.53 330.69 62.27 319.17 58.77 306.02
  C 52.80 283.54 43.78 260.79 27.37 243.81
  Q 25.94 242.33 17.64 235.27
  C 7.39 226.55 -3.71 213.58 4.11 199.28
  C 11.07 186.53 27.74 180.92 39.73 190.03
  C 46.16 194.93 49.76 201.77 53.35 210.20
  Q 59.93 225.69 66.94 240.99
  C 74.51 257.55 87.07 274.03 106.61 275.29
  Q 127.92 276.67 145.64 266.74
  C 158.73 259.41 168.66 246.46 177.07 233.59
  Q 182.44 225.37 191.39 217.44
  Q 203.21 206.97 217.05 210.83
  C 234.40 215.66 244.12 233.90 234.12 250.25
  Q 228.15 260.01 217.85 264.60
  Q 210.43 267.91 195.57 273.28
  C 177.82 279.69 155.19 288.73 154.34 310.93
  Q 154.15 315.72 156.34 327.51
  C 159.58 345.01 165.37 363.01 176.30 376.95
  C 181.37 383.42 188.76 390.72 193.39 397.17
  C 203.87 411.76 214.08 432.72 195.27 446.27
  C 160.31 471.47 143.73 408.61 138.74 387.50
  Q 137.85 383.72 133.62 377.13
  C 129.29 370.35 123.04 366.47 114.93 368.71
  C 96.70 373.73 94.70 409.63 94.35 424.50
  Q 93.76 450.34 90.43 472.88
  C 89.48 479.38 86.36 488.60 82.88 493.52
  Z"
/>
</g>
</svg>
