<?xml version="1.0" encoding="UTF-8" standalone="no"?>
<!DOCTYPE svg PUBLIC "-//W3C//DTD SVG 1.1//EN" "http://www.w3.org/Graphics/SVG/1.1/DTD/svg11.dtd">
<svg xmlns="http://www.w3.org/2000/svg" version="1.1" viewBox="0.00 0.00 620.00 620.00">
<path fill="#ffffff" d="
  M 502.61 498.30
  Q 502.06 499.95 502.06 500.88
  Q 501.97 517.59 501.66 534.31
  C 501.50 543.21 500.29 548.82 493.56 554.04
  Q 486.27 559.69 477.00 559.69
  Q 355.37 559.73 233.75 559.76
  C 198.84 559.77 164.24 559.38 135.50 559.78
  C 121.18 559.97 109.36 550.30 109.14 535.49
  Q 108.75 509.86 109.01 502.51
  C 109.15 498.64 108.32 497.23 104.30 496.76
  C 101.25 496.39 98.55 496.57 95.75 495.18
  C 86.81 490.76 79.85 485.73 76.58 476.05
  Q 74.99 471.36 74.91 460.27
  Q 74.67 426.10 74.90 391.92
  C 74.93 387.65 76.42 380.28 78.72 376.63
  Q 82.19 371.10 87.47 367.28
  C 89.59 365.75 92.77 364.53 95.44 362.91
  C 98.57 361.02 103.16 361.04 106.78 360.84
  A 2.31 2.29 -1.6 0 0 108.96 358.55
  Q 109.07 302.13 109.01 245.00
  Q 108.99 231.10 111.56 219.96
  C 112.53 215.74 112.22 211.30 113.92 207.28
  C 116.06 202.22 116.71 196.96 119.06 192.07
  C 120.62 188.81 121.83 185.19 123.32 182.23
  C 130.14 168.59 137.72 158.26 147.74 145.72
  C 149.58 143.42 149.98 138.56 150.00 135.00
  Q 150.14 102.37 150.15 69.75
  Q 150.15 68.73 148.84 66.26
  Q 148.60 65.80 148.81 65.33
  Q 150.21 62.19 151.79 59.19
  C 153.24 56.43 156.58 54.46 159.35 53.24
  Q 174.62 46.53 189.95 39.94
  Q 196.17 37.28 199.91 37.18
  Q 210.33 36.91 216.42 47.09
  Q 228.94 68.01 241.23 89.09
  Q 241.49 89.53 242.00 89.53
  C 244.61 89.53 247.07 89.72 249.61 88.91
  Q 254.35 87.41 258.91 86.08
  A 2.47 2.46 -10.7 0 0 260.67 83.51
  Q 259.95 75.04 261.09 66.34
  Q 261.57 62.66 263.31 59.79
  Q 269.25 49.97 279.30 45.60
  Q 282.95 44.01 288.35 42.72
  C 295.34 41.05 303.43 41.70 310.73 41.78
  Q 319.00 41.87 323.62 43.08
  Q 338.53 47.00 346.97 60.28
  Q 348.45 62.60 348.82 65.58
  Q 349.97 74.83 349.89 83.91
  A 2.22 2.22 0.0 0 0 351.70 86.10
  C 357.42 87.20 362.33 89.84 368.32 89.60
  Q 368.82 89.58 369.19 89.25
  Q 371.35 87.34 372.52 85.27
  Q 382.67 67.33 393.44 49.76
  C 398.39 41.68 402.89 36.21 412.25 37.19
  Q 415.42 37.52 422.47 40.48
  Q 437.43 46.76 452.22 53.34
  C 457.18 55.54 462.11 59.86 462.09 65.50
  Q 461.93 115.38 462.03 138.00
  Q 462.06 144.17 466.16 149.04
  Q 486.32 172.96 496.23 202.60
  C 497.51 206.41 497.70 210.27 498.90 214.13
  C 502.47 225.53 501.97 236.80 502.00 249.75
  Q 502.08 291.44 501.80 333.12
  C 501.74 341.07 502.12 350.16 502.05 358.63
  A 2.20 2.19 -86.7 0 0 504.00 360.83
  L 512.79 361.82
  Q 513.32 361.88 513.73 362.24
  C 515.95 364.20 518.82 364.90 520.80 366.20
  Q 525.97 369.61 529.76 374.44
  Q 531.87 377.14 533.08 381.18
  C 534.09 384.55 535.11 387.41 535.13 391.02
  Q 535.31 425.11 535.17 459.19
  Q 535.12 470.74 533.56 475.64
  C 529.96 486.95 518.62 495.80 507.00 496.53
  Q 506.05 496.59 503.23 497.66
  Q 502.77 497.84 502.61 498.30
  Z
  M 178.34 63.47
  C 176.07 64.56 172.11 65.34 171.14 67.84
  C 170.44 69.63 172.45 70.89 173.13 72.07
  Q 183.40 89.78 193.38 106.56
  A 2.96 2.95 -32.8 0 0 197.61 107.47
  C 200.60 105.38 204.30 104.10 206.86 102.91
  Q 214.21 99.47 221.47 96.30
  A 1.47 1.47 0.0 0 0 222.25 94.44
  C 220.82 90.71 218.15 87.21 216.72 84.73
  Q 209.99 73.00 203.12 61.33
  C 201.79 59.06 200.30 57.50 198.50 55.65
  Q 198.18 55.32 197.74 55.47
  Q 187.83 58.93 178.34 63.47
  Z
  M 440.20 68.98
  A 1.90 1.90 0.0 0 0 439.31 66.28
  L 413.96 55.27
  A 1.90 1.90 0.0 0 0 411.57 56.05
  L 389.36 93.69
  A 1.90 1.90 0.0 0 0 390.21 96.38
  L 415.46 107.81
  A 1.90 1.90 0.0 0 0 417.88 107.04
  L 440.20 68.98
  Z
  M 281.05 83.39
  L 328.97 83.23
  A 1.57 1.57 0.0 0 0 330.54 81.65
  L 330.51 72.53
  A 18.44 14.07 -0.2 0 0 312.02 58.53
  L 297.84 58.57
  A 18.44 14.07 -0.2 0 0 279.45 72.71
  L 279.48 81.83
  A 1.57 1.57 0.0 0 0 281.05 83.39
  Z
  M 480.17 220.87
  C 478.94 216.08 479.02 211.64 477.14 206.87
  C 475.15 201.84 473.54 196.30 471.48 191.79
  C 453.42 152.42 419.08 125.78 379.22 110.92
  C 375.66 109.60 371.06 108.79 367.07 107.14
  C 362.24 105.14 357.05 105.17 351.74 103.80
  Q 344.96 102.05 335.75 101.57
  Q 300.42 99.74 272.50 101.79
  C 264.21 102.39 257.26 104.52 249.44 105.71
  Q 247.04 106.08 243.73 107.40
  C 240.14 108.82 236.01 109.60 232.84 110.75
  C 193.46 125.00 161.02 150.16 141.83 187.90
  Q 141.11 189.31 139.85 192.61
  C 138.59 195.90 136.70 198.46 136.00 201.97
  Q 135.08 206.54 133.33 210.86
  Q 131.93 214.34 131.53 217.13
  Q 128.93 235.62 128.95 245.25
  Q 129.18 390.62 129.04 536.00
  Q 129.04 538.05 130.61 540.77
  C 131.91 542.99 133.63 543.18 136.00 543.18
  Q 305.63 543.25 475.25 542.99
  Q 482.73 542.98 482.73 536.00
  Q 482.71 389.87 482.70 243.75
  Q 482.70 230.76 480.17 220.87
  Z
  M 441.60 123.76
  L 442.01 124.06
  A 0.23 0.23 0.0 0 0 442.36 123.79
  Q 441.89 122.66 441.86 120.26
  Q 441.77 112.91 443.07 105.46
  A 0.35 0.35 0.0 0 0 442.43 105.21
  L 441.19 107.14
  A 1.53 1.48 2.8 0 1 440.61 107.65
  C 435.77 110.00 437.40 114.23 433.62 117.57
  Q 433.34 117.81 433.57 118.10
  L 437.16 122.48
  A 0.75 0.68 -10.2 0 0 437.56 122.73
  L 440.90 123.44
  Q 441.28 123.52 441.60 123.76
  Z
  M 171.64 107.27
  A 0.84 0.84 0.0 0 0 170.07 107.69
  L 170.02 122.05
  A 0.84 0.84 0.0 0 0 170.17 122.52
  L 171.05 123.83
  A 0.84 0.84 0.0 0 0 172.31 123.98
  L 177.68 119.08
  A 0.84 0.84 0.0 0 0 177.84 118.03
  L 171.64 107.27
  Z
  M 107.23 480.06
  L 107.23 377.62
  A 0.11 0.11 0.0 0 0 107.12 377.51
  L 106.74 377.51
  A 12.54 11.53 90.0 0 0 95.21 390.05
  L 95.21 467.63
  A 12.54 11.53 90.0 0 0 106.74 480.17
  L 107.12 480.17
  A 0.11 0.11 0.0 0 0 107.23 480.06
  Z
  M 505.84 377.66
  Q 504.58 377.52 503.29 377.54
  Q 502.83 377.55 502.83 378.01
  L 502.87 479.07
  Q 502.87 479.51 503.28 479.66
  Q 506.02 480.63 508.78 478.73
  Q 514.76 474.62 514.76 467.76
  Q 514.70 428.75 514.73 389.75
  C 514.73 386.46 513.67 383.14 511.02 380.94
  C 509.25 379.47 508.27 377.92 505.84 377.66
  Z"
/>
<g>
<path fill="#ffffff" d="
  M 372.6388 209.6568
  A 15.20 15.20 0.0 0 1 357.4123 224.8303
  L 253.9124 224.6496
  A 15.20 15.20 0.0 0 1 238.7390 209.4231
  L 238.7812 185.2232
  A 15.20 15.20 0.0 0 1 254.0077 170.0497
  L 357.5076 170.2304
  A 15.20 15.20 0.0 0 1 372.6810 185.4569
  L 372.6388 209.6568
  Z
  M 352.63 189.00
  A 1.98 1.98 0.0 0 0 350.65 187.02
  L 260.01 187.02
  A 1.98 1.98 0.0 0 0 258.03 189.00
  L 258.03 206.40
  A 1.98 1.98 0.0 0 0 260.01 208.38
  L 350.65 208.38
  A 1.98 1.98 0.0 0 0 352.63 206.40
  L 352.63 189.00
  Z"
/>
<path fill="#ffffff" d="
  M 462.6497 503.1262
  A 23.93 23.93 0.0 0 1 438.7615 527.0979
  L 173.0219 527.5618
  A 23.93 23.93 0.0 0 1 149.0502 503.6736
  L 148.7903 354.7938
  A 23.93 23.93 0.0 0 1 172.6785 330.8221
  L 438.4181 330.3582
  A 23.93 23.93 0.0 0 1 462.3898 354.2464
  L 462.6497 503.1262
  Z
  M 442.26 351.39
  C 440.71 348.14 438.61 347.31 434.85 347.31
  Q 308.55 347.43 182.25 347.31
  Q 177.18 347.30 172.97 347.52
  A 3.66 3.65 88.8 0 0 169.50 351.15
  L 169.41 373.64
  A 2.48 2.48 0.0 0 0 171.89 376.13
  L 440.24 376.09
  Q 442.73 376.09 442.80 373.59
  Q 443.06 364.85 442.91 354.97
  Q 442.87 352.67 442.26 351.39
  Z
  M 400.49 409.14
  C 398.96 404.54 400.30 398.38 399.49 393.42
  Q 399.39 392.80 398.76 392.80
  L 172.02 392.75
  A 2.59 2.59 0.0 0 0 169.43 395.32
  Q 169.05 450.87 169.53 505.75
  C 169.56 508.48 170.33 509.92 173.26 510.15
  Q 176.75 510.42 180.25 510.42
  Q 306.57 510.54 432.89 510.45
  C 438.74 510.44 443.05 509.74 443.04 503.00
  Q 442.95 451.05 442.96 399.09
  C 442.96 395.78 443.03 393.08 438.89 392.84
  Q 433.96 392.56 420.42 392.89
  Q 419.90 392.91 419.83 393.42
  Q 418.84 400.17 419.10 407.01
  Q 419.19 409.40 417.66 410.43
  Q 409.42 415.98 401.03 409.88
  Q 400.64 409.60 400.49 409.14
  Z"
/>
</g>
</svg>
