<?xml version="1.0" encoding="UTF-8" standalone="no"?>
<!DOCTYPE svg PUBLIC "-//W3C//DTD SVG 1.1//EN" "http://www.w3.org/Graphics/SVG/1.1/DTD/svg11.dtd">
<svg xmlns="http://www.w3.org/2000/svg" version="1.1" viewBox="0.00 0.00 620.00 620.00">
<g>
<path fill="#ffffff" d="
  M 317.79 47.35
  C 290.76 40.96 276.40 67.57 270.14 88.79
  Q 269.62 90.54 266.75 90.56
  Q 258.25 90.63 249.75 90.53
  Q 246.84 90.49 244.56 89.32
  A 1.44 1.44 0.0 0 1 243.83 87.64
  C 245.18 82.85 246.25 77.43 247.61 73.20
  C 253.66 54.43 265.97 37.30 282.95 27.45
  C 305.87 14.14 331.30 18.76 350.23 36.51
  Q 363.51 48.95 369.29 62.77
  Q 372.67 70.84 376.85 84.53
  C 378.00 88.32 375.96 90.52 372.00 90.60
  Q 362.98 90.78 353.96 90.42
  C 352.42 90.36 350.36 89.29 350.06 87.89
  C 346.43 71.31 336.09 51.68 317.79 47.35
  Z"
/>
<path fill="#ffffff" d="
  M 382.80 281.55
  Q 298.65 281.50 214.50 281.58
  C 207.66 281.58 198.75 281.19 192.83 277.57
  C 181.57 270.68 174.63 259.35 175.36 245.50
  Q 175.92 235.01 177.63 227.73
  Q 189.01 179.37 200.22 130.98
  Q 201.30 126.33 202.66 122.14
  C 205.13 114.58 207.10 106.92 214.84 104.54
  Q 216.96 103.90 226.69 103.46
  C 241.67 102.78 259.24 103.44 271.50 103.46
  Q 314.26 103.50 357.01 103.58
  C 371.87 103.61 390.24 102.84 405.25 103.75
  C 412.62 104.20 417.81 112.15 419.11 118.77
  C 422.47 135.92 427.07 150.49 429.03 159.25
  Q 437.91 198.89 446.87 238.51
  Q 447.62 241.84 447.60 247.43
  C 447.55 261.09 438.60 272.97 426.83 279.31
  Q 424.96 280.32 417.25 280.90
  C 405.68 281.78 394.37 281.56 382.80 281.55
  Z"
/>
<path fill="#ffffff" d="
  M 444.17 284.16
  C 453.98 275.32 460.07 262.48 460.95 249.34
  Q 461.33 243.72 459.49 234.81
  Q 457.84 226.83 455.99 218.94
  Q 447.75 183.76 439.94 148.48
  Q 439.06 144.51 438.74 141.73
  Q 438.49 139.49 440.59 140.33
  Q 445.52 142.31 449.65 145.34
  Q 467.75 158.65 475.45 178.99
  Q 477.47 184.34 480.57 198.30
  Q 491.37 247.05 499.22 286.25
  Q 503.96 309.91 504.05 334.74
  C 504.12 353.93 504.67 372.14 505.75 390.75
  Q 507.65 423.62 507.57 434.75
  Q 507.28 474.46 507.87 514.16
  C 507.98 521.33 507.60 528.39 507.31 535.51
  Q 507.14 539.57 503.50 546.79
  Q 495.28 563.08 479.29 571.05
  Q 469.67 575.85 458.25 575.86
  Q 315.88 575.95 173.50 576.00
  Q 159.47 576.01 153.62 574.59
  C 137.89 570.78 123.43 559.83 117.24 544.71
  Q 111.57 530.85 112.24 515.74
  Q 113.27 492.48 114.63 469.23
  C 115.99 445.95 116.49 419.81 116.24 401.50
  Q 115.77 366.89 116.97 351.25
  Q 118.48 331.46 119.70 311.65
  Q 120.21 303.39 121.67 295.66
  Q 131.45 243.72 143.43 192.25
  Q 146.04 181.03 148.92 174.85
  Q 157.61 156.19 174.82 144.12
  C 177.46 142.27 179.82 140.46 182.09 140.31
  Q 184.46 140.14 183.95 142.46
  Q 174.75 184.39 164.99 225.41
  Q 161.77 238.95 161.61 245.07
  Q 161.10 264.77 174.02 279.75
  C 185.00 292.49 197.98 294.84 214.50 294.84
  Q 311.38 294.80 408.25 294.77
  C 420.77 294.77 433.40 293.87 444.17 284.16
  Z
  M 411.41 334.94
  C 403.82 333.50 396.27 333.44 388.63 331.68
  Q 384.75 330.78 380.78 330.57
  Q 371.89 330.11 363.23 328.10
  C 353.71 325.88 341.73 326.40 335.00 325.51
  Q 312.82 322.56 293.61 324.62
  Q 280.67 326.01 279.86 326.07
  Q 272.96 326.56 266.04 326.89
  Q 262.64 327.05 258.59 328.12
  Q 249.36 330.54 239.75 330.60
  C 234.53 330.63 229.73 333.06 224.22 333.39
  Q 209.16 334.28 197.73 338.45
  C 174.41 346.97 155.54 367.62 149.83 392.65
  Q 148.73 397.49 148.15 407.45
  C 147.77 414.10 147.91 421.81 146.31 428.26
  Q 146.02 429.45 145.97 430.27
  Q 144.97 446.15 144.61 462.05
  C 144.50 467.24 143.80 472.52 143.36 477.75
  C 143.14 480.45 142.17 484.73 142.28 488.72
  C 143.21 523.12 167.67 550.45 202.74 551.21
  Q 205.40 551.26 210.96 552.42
  C 218.98 554.08 227.42 554.13 235.59 554.63
  C 241.34 554.98 246.32 557.21 252.24 557.32
  Q 266.14 557.60 279.95 559.10
  Q 293.74 560.59 299.88 560.78
  C 313.13 561.20 327.16 561.40 340.27 559.23
  C 350.02 557.62 360.39 557.61 370.26 557.29
  C 375.83 557.10 380.85 554.83 386.54 554.50
  C 394.15 554.06 402.28 554.19 409.69 552.42
  C 415.38 551.06 421.89 550.94 427.26 550.39
  Q 433.24 549.77 438.01 548.08
  Q 466.40 537.98 476.41 509.62
  C 479.24 501.62 479.27 493.85 479.00 485.25
  Q 478.21 460.38 477.72 451.00
  C 477.68 450.15 476.80 448.90 476.74 447.78
  Q 476.38 441.01 475.81 434.25
  C 474.83 422.54 475.35 410.32 473.49 398.75
  C 469.37 373.19 453.72 351.66 430.27 340.92
  Q 421.28 336.80 411.41 334.94
  Z"
/>
<path fill="#ffffff" d="
  M 65.22 421.21
  Q 74.14 400.11 92.19 382.92
  Q 97.61 377.76 100.94 375.49
  A 1.04 1.03 41.7 0 1 102.02 375.43
  Q 104.25 376.64 104.15 379.76
  C 103.66 394.74 102.51 409.40 102.30 422.75
  C 101.89 448.98 102.33 475.29 101.32 501.49
  Q 100.68 517.86 101.20 534.25
  Q 101.46 542.46 104.71 549.44
  A 1.19 1.19 0.0 0 1 103.96 551.09
  Q 101.34 551.83 98.93 550.94
  C 92.67 548.61 86.24 546.83 79.86 544.85
  Q 69.13 541.52 65.70 538.98
  C 57.26 532.73 55.95 524.01 55.92 513.00
  Q 55.81 473.73 56.31 459.63
  Q 56.99 440.65 65.22 421.21
  Z"
/>
<path fill="#ffffff" d="
  M 520.42 456.96
  Q 519.84 455.96 519.80 454.81
  C 519.01 429.57 517.17 403.32 518.67 377.66
  Q 518.82 375.10 521.21 376.01
  Q 521.62 376.17 523.07 377.42
  Q 558.38 407.77 563.21 453.28
  Q 563.89 459.72 563.90 473.26
  Q 563.92 492.19 563.93 511.13
  Q 563.94 523.88 562.36 528.46
  Q 558.84 538.64 547.75 542.96
  Q 540.87 545.64 530.13 548.37
  C 527.09 549.15 524.03 550.56 520.69 551.46
  A 2.37 2.36 -2.2 0 1 517.75 548.74
  C 518.86 542.84 520.65 536.86 521.15 531.00
  Q 521.76 523.82 521.68 520.25
  Q 520.97 489.90 520.66 459.55
  C 520.65 458.75 520.95 457.85 520.42 456.96
  Z"
/>
</g>
<path fill="#ffffff" d="
  M 226.02 419.90
  Q 226.21 418.86 225.93 417.85
  Q 224.53 412.77 224.15 406.81
  C 223.95 403.67 221.85 401.84 221.60 398.79
  Q 220.96 391.07 218.93 383.62
  C 217.45 378.17 217.06 372.33 215.25 366.76
  C 214.82 365.45 215.76 362.66 216.73 361.22
  Q 220.77 355.15 220.64 348.09
  A 1.37 1.37 0.0 0 1 221.63 346.75
  Q 225.71 345.60 229.63 344.58
  C 238.06 342.38 246.44 343.56 254.79 341.18
  Q 260.61 339.52 263.37 339.52
  Q 272.92 339.53 282.28 337.86
  C 295.87 335.44 310.38 335.84 324.14 336.31
  Q 330.41 336.52 340.80 337.95
  Q 350.54 339.29 360.36 339.94
  Q 364.04 340.18 368.01 341.29
  C 376.33 343.63 385.15 342.67 393.69 344.68
  Q 398.11 345.71 401.93 346.01
  C 436.12 348.67 461.21 375.95 462.28 409.45
  Q 462.72 423.07 463.47 433.00
  C 463.61 434.80 464.47 436.80 464.56 438.69
  C 464.98 446.85 465.57 454.07 465.79 463.12
  Q 466.01 472.04 467.14 486.13
  Q 467.60 491.80 466.41 498.83
  C 463.45 516.38 450.62 530.09 434.24 536.22
  Q 431.29 537.32 425.06 538.30
  Q 420.93 538.94 414.25 540.26
  Q 407.36 541.61 394.00 541.50
  Q 391.16 541.48 386.27 542.74
  C 374.85 545.67 363.22 544.14 351.76 546.33
  Q 344.96 547.63 342.75 547.73
  Q 312.40 549.05 282.05 547.79
  C 275.18 547.50 267.61 545.26 260.75 545.17
  Q 245.64 544.98 241.75 543.96
  Q 232.88 541.65 228.50 541.60
  Q 212.84 541.41 207.99 540.31
  Q 201.46 538.83 194.83 537.92
  Q 190.04 537.26 186.83 535.89
  C 166.22 527.08 153.42 508.20 154.66 485.48
  Q 155.07 478.03 156.25 468.24
  Q 157.88 454.73 157.95 433.00
  Q 157.96 428.68 159.07 421.13
  Q 159.99 414.79 160.30 409.30
  Q 160.83 399.64 161.49 396.75
  C 166.31 375.74 182.25 357.41 202.34 349.80
  A 1.69 1.69 0.0 0 1 204.45 350.63
  L 211.41 364.61
  A 0.73 0.73 0.0 0 1 211.47 365.05
  Q 210.88 368.25 209.94 371.31
  C 208.21 376.96 208.21 382.57 206.33 388.25
  Q 205.25 391.50 205.02 394.39
  Q 204.55 400.34 203.90 402.13
  C 202.10 407.03 198.98 419.88 202.11 424.33
  C 205.21 428.73 213.76 427.19 218.56 427.03
  Q 224.74 426.81 226.02 419.90
  Z"
/>
</svg>
