<?xml version="1.0" encoding="UTF-8" standalone="no"?>
<!DOCTYPE svg PUBLIC "-//W3C//DTD SVG 1.1//EN" "http://www.w3.org/Graphics/SVG/1.1/DTD/svg11.dtd">
<svg xmlns="http://www.w3.org/2000/svg" version="1.1" viewBox="0.00 0.00 485.00 456.00">
<g>
<path fill="#ffffff" d="
  M 187.24 60.61
  Q 187.19 60.75 187.12 60.88
  Q 187.09 60.94 187.02 60.95
  Q 183.56 61.24 180.09 61.21
  C 173.78 61.16 167.88 57.67 161.73 56.29
  Q 146.66 52.92 131.64 49.36
  Q 120.65 46.76 110.31 42.37
  Q 104.59 39.94 101.66 36.83
  Q 94.17 28.90 97.59 18.02
  Q 98.77 14.26 101.79 11.30
  Q 104.80 8.34 108.43 6.13
  Q 108.86 5.87 109.35 5.92
  Q 110.91 6.04 112.13 5.15
  A 1.02 1.01 25.9 0 1 112.69 4.96
  Q 123.34 4.71 134.00 4.53
  Q 134.46 4.52 134.77 4.23
  A 1.13 1.12 23.1 0 1 135.50 3.94
  L 149.80 3.62
  Q 150.32 3.60 150.76 3.34
  Q 151.37 2.98 151.75 2.98
  Q 162.00 2.80 172.25 2.65
  Q 172.96 2.64 173.53 2.30
  Q 173.95 2.05 174.43 2.03
  Q 184.84 1.51 195.24 1.80
  Q 199.59 1.92 204.17 2.89
  Q 208.59 3.82 212.99 4.80
  Q 215.42 5.33 217.57 6.60
  Q 218.00 6.85 218.49 6.77
  Q 219.25 6.65 219.52 6.77
  Q 230.21 11.31 239.88 17.72
  Q 240.55 18.16 242.71 20.20
  Q 243.65 21.09 244.81 21.71
  C 247.06 22.91 249.40 25.56 252.02 27.75
  Q 259.98 34.42 276.49 49.60
  C 278.24 51.21 281.29 51.90 281.16 55.43
  Q 281.14 56.02 280.55 56.03
  Q 270.58 56.22 260.72 56.32
  C 259.63 56.33 258.82 57.05 258.00 57.06
  Q 249.80 57.17 241.61 57.43
  C 240.66 57.46 239.98 58.02 239.25 58.03
  Q 232.53 58.15 225.82 58.34
  C 224.02 58.39 221.76 59.50 219.53 58.62
  Q 219.09 58.45 218.62 58.50
  Q 218.09 58.56 217.66 58.81
  Q 217.22 59.05 216.72 59.07
  Q 210.86 59.28 204.99 59.39
  Q 204.64 59.39 204.14 59.75
  Q 203.72 60.05 203.21 60.06
  L 187.53 60.41
  Q 187.32 60.42 187.24 60.61
  Z"
/>
<path fill="#ffffff" d="
  M 113.81 77.43
  C 113.66 76.36 112.67 75.72 112.78 74.26
  Q 113.31 67.64 117.34 62.51
  Q 117.65 62.12 118.13 62.02
  Q 119.24 61.77 120.08 62.42
  Q 120.49 62.74 120.99 62.85
  Q 136.71 66.55 152.49 69.96
  Q 162.10 72.03 171.08 75.91
  Q 173.34 76.89 175.63 76.88
  Q 183.66 76.85 191.70 76.63
  C 192.77 76.60 193.12 75.83 194.11 75.87
  Q 203.29 76.19 212.37 75.00
  Q 212.79 74.95 213.15 75.19
  Q 214.41 76.04 215.60 75.19
  Q 215.98 74.91 216.45 74.90
  Q 222.22 74.78 227.99 74.38
  C 228.93 74.32 229.14 73.93 230.02 73.93
  Q 243.18 73.91 248.63 73.34
  Q 252.92 72.88 256.04 72.75
  Q 260.02 72.59 263.42 72.18
  Q 269.20 71.48 275.05 71.84
  Q 275.48 71.87 275.78 71.56
  L 276.00 71.34
  Q 276.11 71.23 276.26 71.22
  L 311.91 69.59
  A 2.03 2.02 83.7 0 1 313.99 71.26
  Q 318.51 97.15 322.26 123.49
  C 322.64 126.21 321.15 127.28 318.56 127.23
  C 313.41 127.11 306.79 127.83 303.27 128.01
  Q 281.26 129.18 259.25 130.52
  C 257.42 130.63 255.73 131.10 254.24 131.08
  Q 246.62 130.97 235.50 131.94
  Q 229.43 132.47 210.77 133.27
  C 207.93 133.39 202.25 134.41 197.86 133.97
  A 1.69 1.65 -20.9 0 1 196.98 133.59
  Q 185.72 124.06 174.43 114.59
  Q 167.25 108.57 162.25 106.13
  C 135.01 92.84 104.25 107.24 95.16 135.68
  C 94.54 137.62 93.63 138.48 92.16 139.73
  Q 91.78 140.06 91.28 140.07
  L 76.09 140.35
  Q 75.60 140.36 75.18 140.64
  Q 74.83 140.88 74.21 140.95
  Q 60.78 142.46 54.39 131.20
  A 0.90 0.88 84.3 0 0 53.89 130.78
  L 32.13 122.85
  Q 31.77 122.72 31.71 122.34
  L 28.99 104.91
  Q 28.91 104.39 29.22 103.95
  Q 30.84 101.74 33.33 100.96
  Q 36.72 99.91 36.76 99.88
  Q 44.50 96.60 52.30 93.52
  Q 52.77 93.33 53.02 92.89
  Q 55.52 88.52 59.53 85.70
  Q 62.03 83.93 65.78 83.43
  Q 73.65 82.37 81.63 82.71
  Q 82.26 82.74 82.88 82.26
  A 1.50 1.49 -64.2 0 1 83.76 81.95
  Q 89.82 81.82 95.86 81.67
  Q 96.28 81.66 96.60 81.47
  Q 96.76 81.37 96.92 81.27
  A 1.53 1.51 26.3 0 1 97.77 80.99
  L 112.32 80.75
  Q 112.93 80.74 113.25 80.22
  Q 114.02 78.98 113.81 77.43
  Z"
/>
<path fill="#ffffff" d="
  M 382.75 80.94
  Q 389.91 80.93 397.10 80.75
  C 400.85 80.66 402.77 81.64 405.06 84.25
  Q 406.20 85.56 406.57 87.57
  Q 407.34 91.75 407.16 95.99
  Q 407.03 99.00 405.47 101.11
  Q 403.92 103.22 401.71 104.78
  Q 401.27 105.09 400.73 105.10
  L 386.11 105.32
  A 2.75 2.75 0.0 0 0 383.40 108.14
  C 383.47 110.82 383.60 113.40 382.09 115.84
  Q 379.04 120.79 375.91 122.67
  Q 374.15 123.73 370.03 124.44
  C 364.98 125.30 359.39 125.15 354.14 125.31
  C 350.35 125.42 344.70 126.49 339.79 126.06
  Q 339.30 126.02 338.94 125.69
  C 337.36 124.26 337.88 123.05 337.60 121.36
  Q 333.79 98.34 330.81 75.21
  C 330.61 73.71 329.61 71.57 330.07 69.43
  Q 330.18 68.92 330.69 68.87
  Q 342.17 67.70 353.69 67.56
  C 357.72 67.51 362.98 66.36 366.91 66.83
  Q 379.38 68.33 382.11 80.44
  Q 382.23 80.94 382.75 80.94
  Z"
/>
<path fill="#ffffff" d="
  M 9.93 107.34
  L 10.12 107.13
  Q 10.21 107.03 10.34 107.02
  Q 13.22 106.79 15.26 105.00
  A 1.35 1.35 0.0 0 1 17.49 105.78
  Q 18.34 110.72 19.11 116.26
  Q 19.12 116.34 19.93 119.63
  Q 20.32 121.22 20.10 122.96
  Q 20.02 123.52 19.46 123.43
  Q 12.05 122.22 5.49 118.47
  Q 5.03 118.21 4.51 118.26
  C 2.53 118.47 1.03 117.53 0.74 115.46
  Q 0.08 110.77 4.80 109.66
  Q 5.30 109.55 5.73 109.27
  Q 7.41 108.19 9.32 107.69
  Q 9.67 107.60 9.93 107.34
  Z"
/>
<path fill="#ffffff" d="
  M 243.72 187.60
  C 244.29 185.75 243.94 183.05 244.32 180.85
  Q 245.11 176.26 244.63 171.66
  Q 244.06 166.06 244.00 163.75
  Q 243.83 156.78 242.39 152.09
  Q 241.53 149.28 241.88 147.50
  Q 241.99 146.95 242.55 146.94
  L 256.75 146.65
  Q 257.29 146.64 257.75 146.37
  Q 258.52 145.93 259.25 145.94
  Q 269.51 145.98 279.75 145.22
  Q 295.84 144.04 311.97 143.54
  Q 312.46 143.52 312.88 143.25
  Q 313.30 142.97 313.50 142.97
  Q 320.69 142.79 327.90 142.69
  Q 328.38 142.68 328.76 142.38
  Q 329.48 141.83 330.50 141.84
  Q 336.92 141.93 343.32 141.65
  Q 344.08 141.61 348.10 140.99
  Q 350.52 140.61 353.00 140.94
  Q 354.89 141.19 356.01 142.77
  Q 364.58 154.91 373.21 166.98
  Q 378.39 174.24 380.34 184.53
  C 381.18 188.96 380.91 195.01 381.43 200.36
  Q 381.77 203.83 381.87 206.69
  C 382.29 219.04 384.32 231.33 388.27 243.06
  C 389.35 246.28 390.17 249.55 391.61 252.52
  Q 394.60 258.68 401.27 270.74
  Q 408.52 283.85 415.90 296.40
  A 2.32 2.32 0.0 0 1 414.89 299.68
  C 411.75 301.16 409.52 303.38 407.09 305.31
  Q 361.73 341.47 316.51 377.79
  Q 313.06 380.56 309.88 382.79
  A 2.49 2.48 -45.3 0 1 307.05 382.81
  Q 300.20 378.20 293.82 373.69
  Q 289.99 370.98 280.52 364.61
  Q 259.85 350.72 242.58 332.80
  Q 240.29 330.42 229.02 318.11
  Q 192.73 278.45 159.89 235.87
  Q 150.68 223.93 137.66 205.10
  Q 134.82 200.99 132.85 197.78
  Q 130.82 194.44 128.06 190.48
  Q 126.14 187.72 124.51 184.77
  Q 122.29 180.78 121.18 178.95
  Q 115.72 170.00 111.44 160.42
  Q 110.99 159.39 110.75 157.47
  C 110.57 155.98 109.93 154.82 109.77 153.49
  Q 108.76 145.22 111.15 138.94
  Q 119.36 117.30 141.98 117.03
  Q 149.39 116.93 157.18 121.81
  Q 161.56 124.55 171.47 133.14
  Q 179.87 140.42 185.46 144.85
  Q 207.75 162.50 230.23 179.91
  Q 231.01 180.52 235.83 183.93
  Q 238.76 186.01 241.11 188.27
  Q 242.97 190.06 243.72 187.60
  Z"
/>
<path fill="#ffffff" d="
  M 341.53 452.18
  Q 337.94 450.76 334.78 446.99
  Q 327.51 438.34 320.55 429.44
  C 316.97 424.87 313.01 420.81 312.29 415.32
  Q 311.13 406.44 316.11 399.96
  Q 317.68 397.92 327.40 390.15
  Q 410.30 323.82 432.89 305.62
  C 437.44 301.96 443.12 299.84 448.82 301.51
  C 450.45 301.99 451.70 301.66 453.29 302.47
  Q 459.87 305.79 462.42 309.82
  Q 464.54 313.15 467.41 315.85
  Q 468.00 316.40 468.25 317.22
  A 2.23 2.23 0.0 0 0 468.68 318.03
  Q 473.12 323.30 477.30 328.77
  Q 482.10 335.05 483.10 339.17
  C 485.75 350.17 478.92 356.93 469.71 364.25
  Q 416.26 406.76 362.91 449.39
  Q 358.61 452.83 355.42 453.71
  Q 350.84 454.96 346.00 454.01
  C 344.55 453.73 342.97 452.75 341.53 452.18
  Z
  M 360.57 424.75
  L 360.72 425.00
  Q 360.92 425.33 361.29 425.25
  C 371.59 423.13 377.09 414.21 374.13 404.17
  C 371.37 394.79 361.38 391.06 352.56 394.24
  Q 344.27 397.23 342.83 406.31
  C 341.59 414.15 345.32 420.83 352.52 423.95
  C 353.99 424.58 356.12 424.70 357.83 425.26
  Q 358.30 425.41 358.75 425.22
  L 360.16 424.62
  Q 360.42 424.51 360.57 424.75
  Z"
/>
</g>
</svg>
