<?xml version="1.0" encoding="UTF-8" standalone="no"?>
<!DOCTYPE svg PUBLIC "-//W3C//DTD SVG 1.1//EN" "http://www.w3.org/Graphics/SVG/1.1/DTD/svg11.dtd">
<svg xmlns="http://www.w3.org/2000/svg" version="1.1" viewBox="0.00 0.00 620.00 620.00">
<path fill="#ffffff" d="
  M 115.74 162.73
  Q 72.62 162.65 29.50 162.59
  Q 20.93 162.58 16.73 161.21
  Q 10.94 159.34 10.84 152.25
  Q 10.67 140.68 13.18 129.53
  Q 15.47 119.34 20.55 111.07
  Q 34.99 87.54 62.34 82.20
  Q 69.13 80.88 82.25 80.97
  Q 186.35 81.66 256.50 81.16
  Q 269.10 81.07 287.25 79.22
  Q 303.58 77.57 323.29 81.48
  Q 361.80 89.14 374.27 126.27
  Q 375.08 128.70 375.33 134.38
  Q 375.35 134.85 375.64 135.22
  Q 378.64 138.88 382.54 136.79
  Q 398.83 128.05 411.50 124.00
  Q 427.67 118.84 448.90 114.92
  C 469.47 111.12 491.45 111.54 512.27 112.55
  C 526.90 113.25 542.40 115.92 557.46 117.80
  Q 561.94 118.35 568.93 119.89
  C 576.26 121.51 584.31 122.03 590.96 123.70
  Q 596.15 125.01 601.26 126.59
  Q 607.94 128.66 607.81 136.03
  C 607.75 140.29 603.51 142.23 600.10 143.84
  C 568.48 158.74 539.34 175.13 514.96 196.95
  C 493.55 216.11 475.73 239.85 469.60 267.72
  Q 467.38 277.82 466.21 281.06
  C 457.34 305.50 437.11 324.28 411.60 329.99
  C 402.76 331.97 392.13 331.51 382.50 331.51
  C 373.85 331.50 377.08 341.88 376.80 347.01
  Q 376.29 356.37 376.27 365.75
  Q 376.13 429.00 376.21 448.75
  Q 376.21 449.66 376.54 451.18
  Q 376.65 451.69 377.14 451.87
  Q 380.93 453.29 385.50 453.26
  Q 413.79 453.06 456.80 453.31
  C 461.77 453.34 471.37 454.60 472.50 460.69
  C 474.82 473.18 473.22 482.02 471.89 493.24
  C 469.86 510.36 459.58 522.75 445.42 531.64
  C 441.18 534.30 436.08 535.75 431.25 537.74
  Q 426.02 539.90 415.49 540.05
  C 403.16 540.21 391.55 540.27 378.51 540.78
  Q 343.85 542.13 302.25 541.02
  Q 296.58 540.86 292.91 540.65
  Q 286.23 540.26 283.58 540.26
  Q 230.79 540.30 178.00 540.26
  C 170.17 540.26 162.95 539.29 155.67 536.26
  C 137.24 528.57 121.97 512.15 118.75 492.24
  Q 117.93 487.18 117.94 473.99
  Q 118.04 325.53 117.95 177.07
  C 117.94 172.22 118.16 167.95 116.54 163.30
  Q 116.34 162.73 115.74 162.73
  Z
  M 32.38 145.27
  L 114.82 145.41
  A 2.42 2.42 0.0 0 0 117.24 143.00
  L 117.24 142.22
  A 43.30 43.28 0.1 0 0 74.02 98.86
  L 73.34 98.86
  A 43.30 43.28 0.1 0 0 29.97 142.06
  L 29.96 142.84
  A 2.42 2.42 0.0 0 0 32.38 145.27
  Z
  M 340.62 327.17
  C 336.54 326.45 332.97 326.16 329.07 324.17
  C 326.92 323.07 319.21 320.40 317.21 322.96
  Q 302.04 342.36 287.57 367.38
  Q 285.76 370.51 283.00 376.07
  C 280.23 381.65 273.96 393.58 266.88 388.61
  C 264.29 386.80 260.99 384.59 261.04 381.00
  Q 261.10 376.15 263.51 371.95
  Q 269.00 362.41 274.26 352.72
  C 281.02 340.26 293.60 324.04 303.59 309.60
  C 306.51 305.38 307.51 301.60 307.37 296.75
  C 306.95 281.27 305.69 266.77 308.73 252.82
  C 309.91 247.42 310.17 242.61 310.81 237.39
  C 311.46 232.15 313.70 227.05 314.92 221.61
  C 316.16 216.08 318.38 211.53 320.16 206.32
  Q 321.01 203.83 322.78 200.39
  C 325.30 195.50 327.14 191.20 330.65 185.41
  C 337.62 173.90 347.07 163.14 356.47 153.55
  C 361.24 148.70 355.78 130.33 353.55 124.50
  Q 349.29 113.42 339.44 106.81
  C 327.50 98.80 314.01 98.78 302.00 98.80
  Q 213.35 98.92 124.70 98.92
  C 123.16 98.92 121.49 99.30 119.99 99.49
  A 0.67 0.66 -24.4 0 0 119.57 100.59
  Q 126.74 108.61 130.98 118.09
  C 133.18 123.00 134.47 129.39 136.11 135.02
  C 136.87 137.61 136.80 141.99 136.80 144.56
  Q 136.73 306.90 136.81 469.24
  Q 136.82 486.01 137.34 489.22
  C 140.59 509.25 160.64 524.41 180.62 521.35
  Q 201.74 518.12 211.46 497.89
  Q 213.89 492.82 214.07 486.74
  Q 214.44 473.80 214.35 464.75
  C 214.27 457.29 221.11 453.15 228.00 453.15
  Q 292.62 453.17 356.60 453.11
  A 1.62 1.61 -89.6 0 0 358.21 451.51
  Q 358.70 395.79 358.27 340.80
  C 358.26 338.40 359.75 331.81 356.48 331.14
  Q 355.10 330.85 355.00 330.82
  Q 347.94 328.45 340.62 327.17
  Z
  M 564.88 138.03
  Q 556.01 136.99 547.25 135.21
  Q 537.77 133.29 523.12 132.59
  Q 498.70 131.42 474.25 132.07
  Q 448.11 132.76 422.97 139.85
  C 390.61 148.98 362.63 168.02 345.31 197.16
  C 343.38 200.42 341.74 204.38 339.88 207.99
  Q 337.55 212.49 336.30 216.31
  Q 329.89 235.87 328.23 244.50
  Q 325.87 256.70 325.93 279.00
  Q 325.93 280.58 327.13 281.27
  A 0.94 0.94 0.0 0 0 328.32 281.07
  Q 341.89 264.94 357.17 250.43
  Q 374.06 234.38 391.86 219.39
  Q 438.10 180.45 491.03 151.26
  Q 495.01 149.07 499.98 150.97
  Q 500.42 151.14 500.68 151.53
  Q 502.24 153.82 504.13 155.88
  C 509.10 161.29 501.15 167.54 496.75 169.97
  Q 455.75 192.55 419.01 221.53
  Q 374.76 256.42 337.51 298.70
  Q 335.47 301.01 334.12 303.32
  A 1.47 1.47 0.0 0 0 335.13 305.50
  Q 339.87 306.36 343.96 308.34
  C 348.15 310.39 352.53 310.43 356.99 311.05
  Q 359.83 311.45 365.19 312.56
  C 397.00 319.19 432.91 312.32 447.09 279.50
  C 449.93 272.93 451.86 263.76 454.11 255.94
  Q 460.01 235.47 472.44 218.16
  C 482.99 203.47 495.16 191.31 508.97 179.35
  Q 528.06 162.82 549.91 149.98
  Q 558.00 145.22 566.03 140.19
  Q 567.46 139.29 566.09 138.30
  Q 565.87 138.15 564.88 138.03
  Z
  M 233.46 488.93
  C 233.09 493.47 231.34 497.80 230.15 502.34
  C 228.95 506.92 226.08 510.61 223.99 514.85
  A 1.71 1.69 89.6 0 1 223.23 515.63
  Q 219.96 517.33 220.83 521.25
  Q 220.96 521.82 221.53 521.82
  Q 316.39 521.77 411.25 521.76
  C 423.22 521.76 435.10 519.13 443.51 510.77
  C 453.06 501.27 456.76 486.78 455.29 473.48
  Q 455.24 472.98 454.74 472.86
  Q 452.04 472.23 450.00 472.23
  Q 343.63 472.41 237.25 472.38
  Q 235.65 472.37 234.10 473.24
  A 0.79 0.79 0.0 0 0 233.69 473.98
  Q 234.08 481.49 233.46 488.93
  Z"
/>
</svg>
