<?xml version="1.0" encoding="UTF-8"?><svg xmlns="http://www.w3.org/2000/svg" viewBox="0 0 289.97 496.85"><g id="a"><path d="m210.45,223.86c-.01-.31-.27-.56-.58-.56-.18,0-.35.1-.45.25-8.51,12.32-18.63,23.15-30.36,32.49-.36.29-.42.82-.13,1.19,0,0,0,0,0,0,28.08,34.94,36.44,79.1,36.54,122.88.01,7.03,4.2,10.61,6.37,16.69,15.66,43.81-14.55,82.2-55.31,94.65-28.26,8.63-55.61,6.9-82.06-5.19-14.85-6.79-28.36-18.35-36.86-32.31-10.84-17.81-12.54-37.03-5.09-57.67,1.26-3.48,4.26-7.56,5.65-11.73.53-1.59.78-3.54.73-5.85-.95-43.64,9.59-87.88,37.15-122.66.34-.43.29-.8-.15-1.13-18.03-13.23-34.6-28.28-49.69-45.15C1.77,171.26-15.13,123.26,17.51,76.77c.14-.2.4-.29.64-.21,28.92,9.43,48.36,27.48,53.42,58.25.57,3.42,1.09,8.33,1.57,14.74.96,12.87,2.03,25.73,3.21,38.58,1.89,20.67,9.07,39.13,21.56,55.38.34.44.96.55,1.44.27l11.53-6.81c.32-.19.54-.51.61-.88,1.89-9.85.76-19.36-3.39-28.51-.11-.26,0-.57.27-.68.17-.07.36-.05.51.05,6.96,5.09,12.13,11.61,15.5,19.56.16.37.59.54.96.37.19-.08.33-.24.4-.43,3.48-10.79,1.3-20.77-2.67-31.05-.09-.23.02-.49.25-.58.16-.06.34-.03.47.08,8.57,7.59,14.07,17.02,16.5,28.29.1.45.54.73.99.64.27-.06.49-.24.59-.5,3.21-7.99,7.91-15.01,14.08-21.04.16-.17.43-.18.61-.02.13.12.17.31.1.48-3.33,8.95-7.52,26.08-2.2,34.78.16.25.38.46.64.59,3.59,1.8,6.99,3.91,10.19,6.33.33.24.79.18,1.04-.15.04-.05.07-.11.09-.17,3.97-10.13,8.53-20.1,13.68-29.91,2.38-4.53,13.88-21.67,19.55-22.06.6-.04,1.35.02,2.25.19,14.04,2.56,27.34,6.19,39.89,10.88,12.43,4.64,24.57,12.48,32.65,22.92,10.25,13.26,12.98,26.96,14.58,44.34,1.17,12.7,1.26,25.47.27,38.3-.03.45-.42.78-.87.75,0,0-.02,0-.03,0-11.74-1.12-23.2-3.13-34.13-7.69-18.21-7.61-31.58-21.35-37.76-40.19-3.63-11.06-5.67-25.34-6.05-37.8Zm-115.34,121.33c11.32-.06,20.44-11.03,20.37-24.5-.07-13.47-9.31-24.34-20.63-24.28h0c-11.32.06-20.44,11.03-20.37,24.5.07,13.47,9.31,24.34,20.63,24.28h0Zm74.08-.22c11.21,0,20.3-10.81,20.3-24.15h0c0-13.34-9.09-24.15-20.3-24.15h0c-11.21,0-20.3,10.81-20.3,24.15s9.09,24.15,20.3,24.15Zm47.18,75.2c0-37-37.75-67-84.31-67s-84.31,30-84.31,67,37.75,67,84.31,67,84.31-30,84.31-67Z" style="fill:#fff;"/><ellipse cx="167.95" cy="320.79" rx="12.11" ry="14.53" transform="translate(-.56 .29) rotate(-.1)" style="fill:#fff;"/><ellipse cx="96.19" cy="320.8" rx="11.9" ry="14.25" transform="translate(-.56 .17) rotate(-.1)" style="fill:#fff;"/><path d="m91.3,416.85c9.17-5.24,10.18-17.01.88-22.73-7.81-4.81-15.6-.02-18.3,7.75-.05.16-.22.24-.38.19-.14-.05-.22-.18-.21-.33.98-8.67,5.68-14.64,14.6-15.28,11.72-.83,19.81,12.45,14.81,22.65-2.46,5.01-6.43,8.17-11.92,9.46-.3.07-.59-.12-.66-.42-.04-.16,0-.33.11-.46.23-.27.58-.54,1.07-.83Z" style="fill:#fff;"/><path d="m177.51,386.7c7.64,1.12,12.5,6.94,13.11,14.62.02.15-.09.29-.25.31-.13.01-.25-.06-.29-.18-4.12-10.31-17.68-13.07-23.12-2.03-3.63,7.38.16,14.62,6.76,18.06.24.12.34.42.21.66-.1.19-.3.29-.51.26-15.08-2.22-18.12-24.23-4.66-30.47,2.75-1.27,5.67-1.68,8.75-1.23Z" style="fill:#fff;"/><path d="m133.72,467.72c-19.71-.15-39.1-9.66-51.37-24.86-2.38-2.95.2-7.33,3.9-6.39.93.23,1.93.96,3,2.19,21.56,24.55,57.87,29.11,82.88,7.08,1.42-1.25,4.18-4.07,6-4.39,3.15-.56,5.19,1.79,4.69,4.76-.05.32-.2.61-.42.84-13.53,13.99-29.76,20.91-48.68,20.77Z" style="fill:#fff;"/></g><g id="b"><text transform="translate(201.48 164.65)" style="fill:#fff; font-family:MyriadPro-Regular, &apos;Myriad Pro&apos;; font-size:160.11px;"><tspan x="0" y="0">?</tspan></text><text transform="translate(122.55 134.02)" style="fill:#fff; font-family:MyriadPro-Regular, &apos;Myriad Pro&apos;; font-size:160.11px;"><tspan x="0" y="0">¿</tspan></text></g></svg>