<?xml version="1.0" encoding="UTF-8" standalone="no"?>
<!DOCTYPE svg PUBLIC "-//W3C//DTD SVG 1.1//EN" "http://www.w3.org/Graphics/SVG/1.1/DTD/svg11.dtd">
<svg xmlns="http://www.w3.org/2000/svg" version="1.1" viewBox="0.00 0.00 620.00 620.00">
<g>
<path fill="#ffffff" d="
  M 462.46 47.30
  C 456.66 33.51 439.43 27.33 426.35 34.54
  C 417.11 39.64 412.75 49.83 411.75 60.14
  A 0.65 0.65 0.0 0 1 411.02 60.72
  L 394.72 58.54
  A 0.61 0.60 6.9 0 1 394.20 57.88
  C 396.94 28.47 418.65 13.11 447.49 17.67
  C 465.25 20.47 478.86 32.73 481.51 50.49
  C 484.58 71.02 471.53 83.63 457.67 96.42
  C 448.26 105.09 445.02 114.12 446.14 126.84
  A 0.64 0.63 -2.5 0 1 445.50 127.53
  L 430.01 127.52
  Q 429.47 127.52 429.45 126.98
  C 428.64 111.07 432.21 98.09 443.98 86.98
  C 455.34 76.26 470.03 65.28 462.46 47.30
  Z"
/>
<rect fill="#ffffff" x="-8.74" y="-10.08" transform="translate(351.21,30.44) rotate(0.1)" width="17.48" height="20.16" rx="0.55"/>
<path fill="#ffffff" d="
  M 409.29 235.42
  A 0.34 0.33 43.2 0 0 408.76 235.43
  Q 391.50 258.70 368.18 275.91
  A 0.71 0.71 0.0 0 0 368.06 276.94
  C 404.37 319.52 417.25 374.46 416.72 429.75
  C 416.65 437.22 422.15 443.10 424.91 449.78
  C 442.17 491.60 420.83 532.36 383.89 554.37
  Q 362.96 566.84 339.04 571.75
  Q 289.49 581.93 242.71 562.33
  C 198.68 543.88 166.46 500.27 185.41 451.14
  C 188.33 443.57 194.62 437.57 194.36 428.11
  Q 193.84 409.27 196.52 387.28
  Q 204.26 323.73 243.82 275.27
  Q 244.16 274.86 243.73 274.56
  C 214.21 253.40 187.52 231.06 164.78 204.22
  Q 152.55 189.78 143.11 171.53
  C 122.18 131.09 124.77 89.29 152.58 52.82
  Q 152.88 52.42 153.35 52.56
  C 187.32 61.92 215.42 83.63 223.69 119.00
  Q 225.69 127.53 226.61 139.26
  Q 228.50 163.44 230.95 187.57
  Q 232.24 200.30 233.86 207.34
  Q 240.64 236.88 260.29 260.23
  A 0.99 0.99 0.0 0 0 261.54 260.45
  Q 269.14 256.12 276.24 252.28
  Q 277.62 251.53 277.91 249.99
  Q 281.34 231.98 273.27 215.56
  A 0.95 0.94 60.7 0 1 273.60 214.36
  Q 273.86 214.19 274.44 214.58
  Q 288.08 223.62 295.29 238.66
  A 0.90 0.90 0.0 0 0 296.96 238.55
  C 301.13 226.01 298.65 212.38 293.26 200.61
  A 0.87 0.87 0.0 0 1 294.60 199.58
  Q 311.53 213.50 316.61 234.83
  A 0.94 0.94 0.0 0 0 318.39 234.98
  Q 324.61 220.18 336.82 209.07
  Q 337.33 208.61 337.90 208.77
  Q 338.63 208.98 338.34 209.68
  C 334.41 219.49 326.29 248.32 338.15 254.14
  Q 344.24 257.14 349.43 260.97
  A 1.22 1.22 0.0 0 0 351.27 260.46
  C 360.40 238.55 372.29 213.22 390.44 198.20
  C 392.40 196.59 395.69 195.96 398.45 196.40
  Q 429.51 201.43 458.94 212.52
  Q 464.13 214.48 473.49 220.05
  Q 507.34 240.19 513.20 279.50
  Q 517.80 310.37 515.23 341.72
  A 0.57 0.57 0.0 0 1 514.63 342.24
  Q 488.42 340.97 464.53 331.23
  Q 435.11 319.23 421.33 291.02
  C 413.60 275.19 410.54 254.89 409.94 237.27
  Q 409.90 236.16 409.29 235.42
  Z
  M 256.2128 386.3189
  A 30.12 27.14 89.5 0 0 283.0890 355.9632
  A 30.12 27.14 89.5 0 0 255.6872 326.0811
  A 30.12 27.14 89.5 0 0 228.8110 356.4368
  A 30.12 27.14 89.5 0 0 256.2128 386.3189
  Z
  M 355.0021 386.0500
  A 29.83 26.90 89.9 0 0 381.8500 356.1731
  A 29.83 26.90 89.9 0 0 354.8979 326.3900
  A 29.83 26.90 89.9 0 0 328.0500 356.2669
  A 29.83 26.90 89.9 0 0 355.0021 386.0500
  Z
  M 417.69 479.71
  A 112.27 83.11 0.0 0 0 305.42 396.60
  A 112.27 83.11 0.0 0 0 193.15 479.71
  A 112.27 83.11 0.0 0 0 305.42 562.82
  A 112.27 83.11 0.0 0 0 417.69 479.71
  Z"
/>
<path fill="#ffffff" d="
  M 328.09 112.37
  C 315.34 130.94 332.31 153.23 353.00 151.02
  C 367.89 149.43 375.69 136.50 377.03 122.76
  A 0.81 0.81 0.0 0 1 377.95 122.03
  L 394.25 124.18
  Q 394.68 124.24 394.64 124.67
  Q 393.96 131.14 393.06 134.06
  Q 382.69 167.57 346.23 165.56
  Q 337.46 165.07 330.17 162.08
  C 304.93 151.73 298.42 120.17 316.58 100.33
  Q 324.68 91.48 331.94 84.94
  C 341.41 76.43 341.79 68.03 342.52 55.67
  Q 342.55 55.08 343.14 55.08
  L 358.07 55.12
  Q 358.64 55.12 358.67 55.69
  C 359.48 67.76 357.26 81.38 349.15 90.40
  Q 341.56 98.83 335.44 104.19
  Q 331.09 107.99 328.09 112.37
  Z"
/>
<rect fill="#ffffff" x="426.48" y="142.14" width="19.14" height="20.12" rx="0.46"/>
<path fill="#ffffff" d="
  M 111.11 370.56
  C 110.18 359.06 112.55 348.36 120.16 339.59
  C 128.21 330.31 138.79 321.13 134.14 307.34
  C 131.51 299.51 124.60 292.75 116.05 293.52
  C 104.40 294.58 99.52 306.41 98.83 316.48
  A 0.69 0.69 0.0 0 1 98.03 317.12
  L 87.23 315.42
  A 0.71 0.70 6.6 0 1 86.63 314.67
  C 88.19 295.25 98.73 281.06 119.23 281.68
  C 129.25 281.98 137.80 287.60 142.78 296.39
  Q 151.70 312.11 143.18 330.07
  C 141.28 334.09 135.19 340.90 130.70 345.63
  Q 121.06 355.77 122.57 370.53
  A 0.56 0.56 0.0 0 1 122.01 371.15
  L 111.71 371.12
  Q 111.15 371.12 111.11 370.56
  Z"
/>
<rect fill="#ffffff" x="50.87" y="284.50" width="12.12" height="16.40" rx="0.52"/>
<path fill="#ffffff" d="
  M 49.67 325.39
  Q 51.10 319.42 50.76 313.07
  Q 50.73 312.55 51.25 312.55
  L 61.51 312.59
  A 0.61 0.60 -1.0 0 1 62.12 313.17
  C 62.60 324.25 60.91 334.96 53.61 343.62
  C 43.52 355.59 31.48 364.84 41.41 381.56
  C 45.01 387.63 51.72 391.20 58.73 390.05
  C 69.42 388.31 73.99 376.84 74.79 367.20
  A 0.59 0.59 0.0 0 1 75.47 366.66
  L 86.50 368.41
  Q 87.01 368.49 86.96 369.00
  C 85.66 383.33 78.93 397.58 64.14 401.15
  C 43.54 406.13 26.79 392.35 25.90 371.59
  Q 25.27 356.74 35.90 345.39
  C 41.64 339.27 47.77 333.34 49.67 325.39
  Z"
/>
<rect fill="#ffffff" x="108.90" y="382.93" width="13.28" height="16.30" rx="0.37"/>
<path fill="#ffffff" d="
  M 529.60 429.21
  C 530.44 418.51 535.63 408.01 546.24 404.67
  C 563.96 399.09 580.03 412.46 578.31 431.00
  C 577.47 440.14 571.58 446.50 565.16 453.46
  C 559.21 459.90 558.39 463.98 558.42 472.56
  A 0.66 0.66 0.0 0 1 557.76 473.22
  L 549.97 473.17
  Q 549.41 473.17 549.35 472.61
  Q 548.14 460.96 554.15 451.66
  C 556.68 447.73 561.35 443.41 564.83 439.28
  C 571.15 431.78 569.37 420.38 561.50 414.94
  C 557.21 411.98 551.49 412.07 547.16 414.91
  C 541.89 418.37 540.01 424.84 539.30 430.75
  Q 539.24 431.24 538.75 431.16
  L 530.03 429.76
  Q 529.56 429.69 529.60 429.21
  Z"
/>
<rect fill="#ffffff" x="500.79" y="405.74" width="9.72" height="12.74" rx="0.44"/>
<path fill="#ffffff" d="
  M 505.63 448.08
  C 499.63 458.22 485.02 464.77 492.10 479.40
  C 495.60 486.63 504.25 490.66 511.45 486.50
  C 516.90 483.35 519.59 476.25 520.03 470.11
  A 0.45 0.44 6.0 0 1 520.54 469.70
  L 529.25 471.01
  Q 529.77 471.09 529.74 471.62
  C 528.95 484.82 521.55 495.74 507.64 497.12
  C 492.58 498.61 481.35 488.32 480.70 473.56
  Q 480.23 462.73 488.28 453.80
  C 492.75 448.85 499.31 443.10 500.25 436.26
  Q 500.57 433.97 500.82 428.22
  A 0.66 0.66 0.0 0 1 501.49 427.59
  L 509.13 427.62
  Q 509.70 427.63 509.76 428.19
  Q 510.93 439.14 505.63 448.08
  Z"
/>
<rect fill="#ffffff" x="-5.36" y="-6.35" transform="translate(552.87,488.71) rotate(-0.1)" width="10.72" height="12.70" rx="0.44"/>
</g>
<g>
<ellipse fill="#ffffff" cx="0.00" cy="0.00" transform="translate(353.30,356.16) rotate(90.0)" rx="18.24" ry="16.34"/>
<ellipse fill="#ffffff" cx="0.00" cy="0.00" transform="translate(257.57,356.20) rotate(89.8)" rx="17.89" ry="16.06"/>
<path fill="#ffffff" d="
  M 226.64 456.90
  C 228.68 444.03 237.45 435.98 250.79 437.87
  C 266.28 440.06 274.22 458.36 263.37 470.43
  Q 257.89 476.54 250.25 477.92
  A 0.91 0.90 -64.8 0 1 249.65 476.24
  C 256.13 472.57 261.41 467.38 260.59 459.39
  C 259.62 450.05 248.93 443.38 240.16 445.55
  C 233.73 447.14 230.70 451.86 227.49 457.21
  A 0.46 0.46 0.0 0 1 226.64 456.90
  Z"
/>
<path fill="#ffffff" d="
  M 350.38 460.64
  C 349.98 467.74 354.97 472.74 360.93 476.23
  Q 361.28 476.43 361.26 476.83
  L 361.24 477.17
  A 0.57 0.57 0.0 0 1 360.58 477.72
  C 348.25 475.81 340.56 464.50 343.26 452.49
  C 348.07 431.10 381.78 433.45 383.75 456.21
  A 0.50 0.50 0.0 0 1 382.80 456.48
  Q 380.99 453.02 378.35 450.38
  C 367.93 439.93 351.16 446.40 350.38 460.64
  Z"
/>
<path fill="#ffffff" d="
  M 275.32 521.67
  Q 322.43 541.48 361.21 509.40
  C 365.19 506.11 369.73 503.20 373.14 508.79
  C 374.20 510.52 373.24 512.58 371.78 513.99
  C 335.30 549.04 274.92 546.83 240.57 509.85
  C 237.64 506.70 235.71 503.08 240.32 500.27
  C 243.24 498.50 245.88 499.96 248.16 502.35
  Q 260.72 515.52 275.32 521.67
  Z"
/>
</g>
</svg>
