<?xml version="1.0" encoding="UTF-8" standalone="no"?>
<!DOCTYPE svg PUBLIC "-//W3C//DTD SVG 1.1//EN" "http://www.w3.org/Graphics/SVG/1.1/DTD/svg11.dtd">
<svg xmlns="http://www.w3.org/2000/svg" version="1.1" viewBox="0.00 0.00 620.00 620.00">
<path fill="#ffffff" d="
  M 407.73 53.66
  C 411.85 55.93 416.15 55.75 420.24 58.25
  Q 424.24 60.71 428.67 62.29
  C 432.61 63.69 435.60 66.23 439.48 67.83
  C 443.64 69.55 446.58 72.02 450.39 74.11
  Q 451.86 74.92 456.02 77.59
  Q 458.28 79.03 461.81 80.90
  Q 464.83 82.49 469.63 86.58
  Q 473.69 90.04 477.19 92.56
  Q 494.49 105.03 509.17 120.47
  C 520.59 132.48 530.95 146.87 540.48 160.78
  Q 544.91 167.24 548.50 174.22
  Q 559.79 196.16 565.93 211.00
  C 568.42 217.03 569.54 224.39 572.24 231.11
  C 575.28 238.67 575.57 245.87 578.86 254.34
  Q 580.10 257.55 580.41 260.82
  C 581.51 272.47 582.11 283.98 582.95 295.60
  Q 583.69 305.72 583.36 313.92
  Q 582.49 335.63 580.19 357.25
  Q 579.88 360.16 578.90 362.95
  Q 575.77 371.87 574.29 381.22
  Q 573.89 383.73 572.65 386.07
  Q 569.20 392.54 568.56 397.50
  Q 567.98 401.90 566.59 404.99
  C 564.05 410.63 562.10 416.40 559.32 421.92
  Q 558.71 423.12 556.30 428.56
  C 554.97 431.58 552.90 434.47 551.58 437.12
  Q 547.15 446.00 544.05 451.07
  Q 514.74 498.97 469.29 531.57
  Q 465.37 534.38 458.57 538.61
  C 452.68 542.28 447.26 546.06 440.83 549.38
  C 437.59 551.05 435.02 553.10 431.50 554.32
  Q 427.39 555.74 423.68 558.00
  Q 421.49 559.34 419.08 559.96
  Q 413.31 561.45 408.10 564.30
  Q 405.71 565.61 403.17 566.16
  Q 396.13 567.69 389.64 570.82
  Q 387.27 571.96 384.72 572.30
  Q 378.24 573.14 372.06 575.11
  Q 364.35 577.57 361.83 577.96
  C 356.57 578.79 351.06 578.54 346.09 579.35
  Q 328.00 582.31 309.69 582.60
  Q 302.04 582.72 292.90 581.58
  Q 284.53 580.54 276.17 579.37
  C 271.16 578.68 262.90 578.74 257.46 576.81
  Q 246.64 572.97 239.86 572.63
  Q 233.70 572.32 229.35 570.39
  Q 224.98 568.45 224.96 568.44
  C 220.41 566.85 215.49 566.50 211.26 564.23
  Q 207.19 562.04 202.90 560.36
  C 198.66 558.70 194.90 556.03 190.44 554.39
  C 186.74 553.03 184.10 550.60 180.59 548.87
  C 164.15 540.73 148.37 529.63 134.11 518.14
  Q 129.16 514.15 115.47 500.17
  Q 107.05 491.57 101.89 485.49
  Q 75.53 454.46 59.59 416.73
  Q 57.01 410.64 54.37 404.56
  Q 53.36 402.23 51.39 396.01
  Q 50.06 391.82 47.74 386.76
  C 45.94 382.84 45.91 376.80 45.32 373.74
  C 44.13 367.55 41.40 361.85 40.75 355.75
  Q 37.74 327.61 37.57 309.26
  Q 37.51 302.64 38.68 290.58
  Q 39.41 283.10 39.77 274.85
  C 40.17 265.46 40.77 258.42 43.56 250.28
  Q 45.04 245.98 45.74 241.56
  C 47.03 233.47 49.80 226.92 52.03 219.57
  Q 53.35 215.20 55.64 210.18
  C 57.53 206.03 59.20 201.22 60.82 197.58
  C 82.21 149.89 115.45 111.43 158.48 81.74
  C 161.12 79.92 163.50 79.07 166.21 76.65
  C 168.71 74.42 171.82 73.63 174.39 71.88
  Q 178.21 69.26 182.56 67.70
  C 185.92 66.48 187.72 63.96 190.78 63.00
  Q 196.22 61.30 201.07 58.33
  Q 203.28 56.98 205.78 56.32
  Q 211.11 54.92 215.94 52.32
  Q 218.69 50.84 221.29 50.26
  C 225.43 49.32 228.73 48.52 232.99 46.66
  Q 238.40 44.31 243.25 43.98
  Q 252.97 43.31 260.37 40.86
  C 263.37 39.86 266.32 39.11 269.31 38.87
  Q 282.35 37.79 295.33 36.20
  Q 302.46 35.33 308.75 35.25
  Q 315.47 35.18 322.20 35.16
  C 325.43 35.15 328.24 36.50 331.25 36.75
  Q 344.20 37.80 357.15 38.89
  C 363.63 39.43 369.22 42.66 375.71 43.66
  Q 381.79 44.60 383.23 45.05
  C 388.65 46.71 393.73 49.62 399.96 50.32
  C 403.35 50.69 404.96 52.13 407.73 53.66
  Z
  M 563.17 335.45
  A 0.40 0.40 0.0 0 1 563.96 335.41
  Q 565.09 340.03 564.77 344.66
  Q 564.76 344.74 564.83 344.81
  Q 564.86 344.85 564.88 344.88
  Q 564.97 345.00 565.00 344.87
  Q 566.71 334.21 567.03 327.51
  C 567.47 318.57 564.68 312.61 563.56 303.99
  Q 563.27 301.78 561.52 299.29
  A 0.83 0.82 65.2 0 0 560.64 298.96
  L 558.35 299.54
  A 1.63 1.63 0.0 0 1 556.32 298.12
  Q 555.38 288.62 552.95 279.50
  Q 552.56 278.04 552.46 277.93
  Q 550.73 276.00 549.18 278.08
  Q 544.33 284.56 541.62 291.84
  C 538.96 298.96 538.26 308.71 536.73 317.09
  C 536.27 319.60 536.73 321.34 537.28 323.69
  C 538.18 327.50 538.14 330.51 538.06 334.20
  A 2.12 2.11 2.5 0 1 535.81 336.26
  C 531.91 336.00 533.71 329.77 534.39 327.44
  A 0.16 0.16 0.0 0 0 534.16 327.26
  C 530.52 329.23 526.69 328.03 525.81 323.80
  C 524.57 317.85 527.27 312.24 525.87 306.11
  Q 523.23 294.53 523.25 282.63
  Q 523.25 281.09 521.89 276.23
  A 1.11 1.10 -86.0 0 0 521.28 275.52
  C 517.40 273.73 517.87 270.82 516.54 267.66
  A 1.24 1.21 88.0 0 0 515.83 266.98
  C 510.57 265.15 510.99 261.04 507.34 257.70
  C 504.08 254.72 498.38 254.17 494.21 253.29
  C 490.74 252.56 487.91 251.16 484.84 249.62
  C 482.44 248.43 480.90 250.10 478.67 249.53
  Q 477.50 249.23 476.36 248.65
  Q 475.88 248.41 475.70 247.91
  Q 473.37 241.62 467.67 238.10
  Q 467.23 237.82 466.73 237.97
  C 462.95 239.07 464.94 243.37 465.96 245.79
  Q 469.79 254.80 476.53 260.60
  A 2.26 2.26 0.0 0 0 480.14 259.63
  Q 481.53 255.60 485.79 254.72
  Q 486.27 254.62 486.48 255.07
  Q 489.30 260.95 492.49 266.64
  C 498.70 277.72 485.85 290.25 477.43 297.69
  C 471.33 303.10 460.81 310.29 455.22 300.19
  C 452.17 294.70 450.38 288.06 447.96 283.10
  C 442.03 270.94 436.07 259.61 431.84 246.39
  Q 431.64 245.75 430.98 245.84
  L 428.59 246.14
  Q 427.97 246.22 428.03 246.83
  Q 428.13 247.89 428.81 249.70
  Q 440.31 280.34 452.59 304.92
  C 454.31 308.34 458.07 315.78 462.78 314.05
  Q 468.35 311.99 473.32 310.33
  A 1.61 1.61 0.0 0 1 475.43 311.72
  C 476.83 329.08 460.80 347.92 451.02 360.93
  C 448.04 364.90 444.32 370.39 442.65 375.03
  C 439.73 383.15 442.87 393.36 441.71 401.40
  C 440.17 412.10 434.30 416.29 426.51 423.30
  C 420.91 428.33 419.34 431.73 416.74 438.52
  C 414.17 445.27 412.14 452.72 407.16 458.15
  Q 401.21 464.63 394.43 470.16
  C 390.22 473.61 378.58 479.77 374.20 473.71
  C 372.28 471.05 373.16 465.00 372.97 461.54
  Q 372.85 459.44 371.70 457.22
  C 367.30 448.71 366.14 437.79 365.05 428.39
  Q 363.34 413.77 370.07 400.78
  Q 372.98 395.15 372.79 389.09
  C 372.61 383.36 368.75 376.45 366.39 370.76
  Q 364.07 365.19 363.49 360.94
  Q 362.70 355.14 363.16 349.28
  Q 363.50 344.87 363.09 343.21
  C 361.00 334.80 351.06 334.31 344.00 334.55
  Q 327.89 335.10 313.83 341.20
  C 311.74 342.10 310.10 342.25 308.32 340.93
  Q 294.99 331.04 287.88 316.08
  C 278.98 297.34 276.89 270.51 290.52 253.15
  C 295.96 246.23 301.63 240.11 304.46 231.65
  Q 307.23 223.32 314.43 219.49
  Q 316.78 218.23 320.76 217.92
  Q 338.67 216.51 355.73 210.86
  Q 357.84 210.17 359.28 210.81
  Q 361.02 211.59 362.21 213.17
  A 1.56 1.55 -63.2 0 1 362.51 214.09
  C 362.53 219.02 361.01 225.33 367.18 227.61
  Q 374.46 230.31 383.49 235.20
  Q 385.17 236.10 387.40 235.26
  Q 387.88 235.08 388.05 234.61
  Q 389.04 231.91 390.40 229.39
  C 391.57 227.21 392.06 226.13 394.92 226.62
  Q 402.40 227.89 407.99 233.02
  C 409.27 234.20 409.62 235.77 410.42 237.31
  Q 410.68 237.83 411.18 237.53
  Q 415.77 234.83 420.84 233.28
  Q 424.96 232.03 426.17 230.68
  C 429.60 226.84 427.36 218.01 426.64 214.00
  A 0.44 0.43 67.3 0 0 425.96 213.72
  C 418.35 219.16 410.57 214.10 405.49 207.75
  Q 402.79 204.37 402.58 201.21
  A 0.51 0.48 -31.9 0 1 402.66 200.91
  L 403.78 199.18
  Q 404.02 198.82 403.61 198.69
  Q 398.14 196.83 396.12 201.74
  Q 395.94 202.17 396.11 202.61
  Q 397.65 206.47 397.05 210.54
  A 1.19 1.19 0.0 0 1 395.32 211.43
  C 393.46 210.48 391.90 209.56 390.57 207.78
  C 386.88 202.85 382.98 199.47 378.41 194.35
  C 375.77 191.39 371.32 188.37 366.70 184.86
  Q 365.13 183.67 363.72 184.10
  A 1.53 1.53 0.0 0 0 362.95 186.48
  C 367.05 191.96 373.66 195.23 379.77 197.80
  A 0.80 0.80 0.0 0 1 380.26 198.62
  L 380.00 201.15
  A 0.88 0.88 0.0 0 1 379.56 201.84
  L 375.12 204.45
  Q 374.66 204.72 374.36 204.27
  C 373.49 202.98 372.96 202.12 371.61 201.21
  Q 366.46 197.72 362.00 193.39
  C 359.78 191.23 357.40 189.74 354.96 187.98
  C 352.24 186.02 349.83 186.14 346.94 187.27
  C 336.31 191.44 332.99 203.43 325.64 211.15
  C 318.26 218.89 308.32 220.43 303.93 208.93
  C 300.35 199.52 300.92 184.62 315.62 187.90
  Q 318.71 188.59 320.80 188.27
  A 0.95 0.93 2.9 0 0 321.55 187.60
  Q 322.04 185.82 321.08 184.45
  Q 316.86 178.44 314.87 175.29
  Q 314.59 174.85 314.94 174.47
  C 317.70 171.39 320.94 170.84 324.25 169.12
  C 331.65 165.26 338.13 162.85 344.86 157.56
  C 348.32 154.83 343.64 151.52 347.01 148.97
  Q 347.50 148.60 348.07 148.81
  Q 356.30 151.83 366.02 153.63
  Q 375.63 155.41 380.01 147.38
  A 1.35 1.33 4.5 0 1 380.77 146.74
  L 383.87 145.72
  A 1.53 1.53 0.0 0 0 384.92 144.42
  L 385.69 136.57
  A 1.24 1.23 -6.6 0 0 384.06 135.28
  Q 378.63 137.13 375.28 133.67
  C 373.22 131.54 371.47 129.46 374.54 127.03
  Q 376.47 125.49 378.94 124.88
  A 0.80 0.80 0.0 0 0 379.54 124.12
  L 379.57 121.41
  A 0.99 0.99 0.0 0 0 378.07 120.55
  Q 375.65 122.03 372.92 123.06
  C 370.48 123.97 368.88 125.30 366.89 126.79
  A 2.46 2.44 58.3 0 0 366.17 129.87
  L 370.27 137.92
  Q 371.02 139.38 369.51 140.03
  C 365.18 141.89 363.94 145.74 361.54 149.40
  A 2.46 2.45 44.5 0 1 357.46 149.43
  L 351.67 140.94
  A 3.05 3.04 -24.5 0 0 348.38 139.72
  C 345.32 140.53 340.95 141.96 338.16 141.08
  C 332.59 139.33 333.75 132.27 337.95 129.67
  C 342.80 126.67 348.25 123.43 351.85 118.90
  Q 354.52 115.55 359.53 113.82
  Q 373.58 108.99 379.28 107.81
  Q 386.25 106.38 394.76 106.51
  Q 402.52 106.62 407.71 111.62
  C 409.72 113.55 410.66 114.33 410.09 117.14
  C 409.66 119.27 408.48 120.10 406.33 119.31
  Q 402.60 117.92 398.82 116.58
  A 0.52 0.51 9.5 0 0 398.13 117.07
  L 398.15 117.91
  A 0.73 0.73 0.0 0 0 398.76 118.62
  C 401.65 119.12 403.63 120.87 406.11 121.40
  Q 409.75 122.17 413.49 121.86
  A 1.15 1.13 13.5 0 0 414.35 121.34
  L 415.98 118.75
  Q 416.24 118.35 416.13 117.88
  L 415.39 114.52
  A 0.72 0.70 -25.3 0 1 415.66 113.80
  C 417.70 112.30 419.59 112.33 421.69 113.93
  Q 427.62 118.40 435.02 116.43
  C 439.98 115.10 447.14 112.42 452.03 113.69
  Q 455.51 114.59 453.39 111.68
  L 449.55 106.39
  A 1.87 1.86 -29.3 0 1 450.35 103.57
  C 451.82 102.97 453.44 103.48 454.59 104.69
  C 456.48 106.68 460.25 109.40 461.04 111.90
  Q 461.20 112.38 461.64 112.63
  Q 463.30 113.56 464.31 115.17
  Q 464.62 115.65 465.17 115.77
  L 467.48 116.26
  Q 468.27 116.42 467.84 115.74
  Q 465.53 112.13 461.94 109.90
  A 1.71 1.71 0.0 0 1 462.93 106.73
  Q 464.86 106.83 466.14 105.44
  Q 466.53 105.02 466.03 104.73
  C 465.01 104.13 464.17 103.93 463.33 103.08
  Q 458.09 97.72 451.58 94.01
  Q 449.74 92.96 447.27 90.83
  C 443.98 88.01 440.41 87.63 437.11 85.16
  Q 433.32 82.32 428.77 80.95
  C 425.08 79.84 423.34 76.92 419.27 75.75
  C 414.31 74.34 410.34 71.55 405.60 70.06
  Q 400.72 68.51 396.08 66.33
  C 390.23 63.60 384.32 63.68 378.56 60.89
  Q 372.03 57.74 364.75 57.37
  C 357.63 57.00 350.83 54.55 344.04 53.55
  Q 315.09 49.31 286.05 53.03
  C 281.08 53.66 275.67 55.03 270.45 56.03
  Q 267.60 56.57 259.50 57.32
  Q 249.75 58.21 240.58 61.74
  Q 238.13 62.69 235.32 63.07
  C 231.07 63.66 228.64 64.25 224.52 66.57
  Q 219.17 69.57 212.94 69.95
  C 209.73 70.14 208.77 73.13 206.16 74.33
  C 203.91 75.37 201.46 75.88 199.34 77.03
  Q 193.78 80.03 187.97 82.52
  C 185.48 83.59 184.44 85.79 181.68 86.80
  C 179.21 87.69 174.83 88.91 173.01 90.78
  Q 172.34 91.48 173.25 91.16
  Q 181.76 88.25 190.77 89.21
  A 1.11 1.10 33.9 0 1 191.18 91.28
  C 183.06 95.61 175.57 99.04 169.92 106.65
  Q 167.31 110.17 162.17 110.26
  A 0.48 0.47 65.9 0 1 161.81 110.12
  L 157.94 106.35
  A 0.58 0.57 24.3 0 1 157.76 105.89
  L 157.95 101.75
  A 0.28 0.27 -26.0 0 0 157.45 101.58
  C 156.07 103.46 155.30 104.64 153.14 105.90
  Q 150.55 107.42 148.69 109.84
  Q 148.38 110.24 147.91 110.43
  Q 143.13 112.29 140.77 116.60
  Q 139.63 118.68 138.35 119.71
  Q 133.71 123.46 129.93 125.87
  Q 126.55 128.03 130.32 126.65
  C 135.49 124.76 141.03 124.44 146.34 122.63
  C 147.75 122.14 149.12 122.58 150.48 122.77
  A 0.75 0.74 18.5 0 1 151.03 123.87
  Q 147.69 129.85 141.89 133.37
  Q 133.73 138.31 126.45 144.45
  C 123.75 146.73 118.30 153.22 119.71 156.79
  Q 121.70 161.82 128.85 172.90
  Q 129.10 173.30 129.51 173.07
  Q 131.54 171.94 132.07 170.99
  Q 139.38 157.82 150.31 142.58
  Q 153.07 138.73 156.83 140.61
  A 1.41 1.39 4.6 0 1 157.51 141.40
  Q 158.64 144.89 161.11 150.43
  Q 162.40 153.33 165.51 152.24
  A 1.17 1.15 1.6 0 0 166.20 151.60
  C 167.74 147.99 170.98 148.07 173.37 150.87
  C 176.12 154.11 179.77 159.65 178.05 164.10
  Q 175.91 169.65 171.45 172.38
  Q 161.31 178.58 151.72 183.58
  Q 149.89 184.54 151.95 184.62
  Q 154.21 184.72 155.31 186.68
  Q 155.55 187.10 155.35 187.54
  Q 154.24 190.01 151.95 192.21
  Q 142.35 201.44 136.83 206.33
  Q 129.69 212.64 125.41 221.01
  C 121.98 227.72 116.30 234.46 113.82 239.83
  C 109.08 250.08 110.09 260.64 109.88 271.44
  A 1.73 1.72 -84.3 0 1 107.85 273.11
  C 100.59 271.81 104.79 262.25 102.62 257.51
  Q 101.66 255.41 99.75 254.96
  C 89.98 252.67 82.30 259.88 79.98 269.01
  C 78.33 275.53 78.09 281.36 79.00 288.26
  Q 79.49 292.02 79.96 295.77
  Q 80.32 298.67 82.07 299.16
  C 85.25 300.04 87.54 296.22 88.76 293.91
  Q 90.30 290.98 93.18 289.13
  Q 93.77 288.75 94.08 289.38
  C 96.36 293.97 94.54 302.98 92.82 307.73
  A 1.86 1.85 12.2 0 0 94.42 310.21
  C 105.23 311.08 101.84 327.58 111.10 332.58
  Q 114.77 334.56 117.64 337.11
  A 0.79 0.79 0.0 0 0 118.92 336.75
  C 120.05 333.06 121.01 328.25 123.93 325.93
  Q 127.13 323.39 131.49 324.42
  Q 141.39 326.76 149.76 326.77
  C 158.42 326.78 162.73 340.37 170.27 343.85
  Q 171.60 344.46 174.34 344.40
  C 181.99 344.23 184.66 350.43 187.39 356.89
  C 190.45 364.15 196.74 367.27 204.27 369.71
  Q 212.51 372.37 220.72 375.08
  C 227.79 377.42 234.30 381.93 235.71 389.38
  Q 236.34 392.67 234.98 399.06
  C 232.25 411.98 229.74 424.91 226.52 437.73
  C 225.44 442.01 223.62 445.49 221.38 449.12
  C 218.19 454.27 217.99 458.00 218.18 464.79
  C 218.33 470.06 218.32 474.75 216.15 479.81
  Q 212.12 489.20 208.61 498.81
  C 207.31 502.35 204.88 503.68 206.65 507.98
  C 210.90 518.31 223.33 524.93 231.53 534.33
  Q 231.86 534.70 231.49 535.02
  Q 229.89 536.46 228.24 536.49
  C 207.55 536.93 190.11 507.44 182.81 491.47
  Q 174.62 473.55 167.87 455.04
  C 164.23 445.05 160.13 437.15 153.37 430.40
  Q 136.90 413.97 130.76 406.78
  Q 123.29 398.03 121.36 387.05
  Q 120.93 384.64 120.93 375.95
  C 120.93 366.44 119.48 356.01 114.90 347.89
  Q 111.49 341.85 106.03 336.21
  C 98.96 328.90 93.32 322.58 85.39 317.97
  C 81.07 315.47 75.85 313.01 72.55 309.64
  C 68.09 305.11 65.46 299.01 64.13 292.88
  Q 63.34 289.28 62.21 286.49
  Q 57.88 275.87 57.14 264.34
  A 0.09 0.08 -40.3 0 0 56.97 264.33
  C 55.47 269.90 54.66 275.01 54.32 281.12
  Q 53.20 301.11 53.60 323.50
  Q 53.91 340.85 58.19 356.87
  Q 59.03 360.03 59.42 364.24
  Q 60.19 372.41 63.44 379.90
  C 65.37 384.33 66.30 388.04 67.63 392.33
  C 68.78 396.03 71.51 400.99 72.23 406.02
  C 72.59 408.59 75.66 412.15 76.79 415.69
  C 78.63 421.44 82.08 426.02 84.55 431.60
  C 85.69 434.17 87.69 436.04 88.91 438.75
  Q 90.73 442.80 93.50 446.26
  C 94.86 447.95 95.61 449.92 96.69 451.54
  Q 117.76 483.02 147.14 506.85
  C 148.60 508.03 150.70 510.25 153.00 511.48
  C 155.57 512.86 156.58 515.20 159.23 516.70
  C 162.82 518.73 165.55 521.11 169.46 523.13
  C 172.69 524.81 174.88 527.22 178.15 528.77
  C 182.19 530.69 185.17 533.54 189.15 535.37
  Q 191.58 536.49 193.88 537.84
  C 198.92 540.78 204.08 542.57 209.00 545.57
  C 211.21 546.92 213.31 547.16 215.74 547.71
  Q 217.82 548.18 220.30 549.63
  C 225.21 552.51 230.04 552.47 234.99 554.24
  Q 246.36 558.30 258.34 559.77
  Q 262.39 560.27 266.30 561.46
  Q 277.25 564.80 287.00 565.21
  Q 303.09 565.87 328.46 565.38
  C 334.77 565.26 341.16 564.30 347.56 563.68
  Q 351.11 563.34 355.35 562.07
  Q 363.16 559.75 371.28 559.02
  C 378.08 558.42 382.70 554.88 389.12 553.68
  Q 394.60 552.65 399.49 550.10
  Q 403.62 547.94 406.20 547.03
  Q 418.11 542.83 429.25 536.82
  C 431.69 535.50 434.08 535.08 436.39 533.31
  Q 440.04 530.52 444.21 528.56
  Q 445.93 527.74 447.49 526.50
  C 449.88 524.58 453.57 522.48 455.08 521.44
  Q 490.48 496.89 516.36 462.36
  C 521.23 455.85 527.19 448.94 530.87 441.74
  Q 533.66 436.30 535.03 434.06
  Q 539.53 426.70 542.28 420.58
  Q 546.61 410.94 553.48 393.54
  C 555.58 388.22 556.39 381.70 556.22 375.89
  Q 555.76 360.40 556.69 344.69
  A 1.73 1.73 0.0 0 1 559.02 343.17
  L 560.19 343.61
  Q 562.07 344.31 562.32 342.32
  L 563.17 335.45
  Z
  M 392.96 137.21
  Q 393.89 138.19 393.62 136.87
  Q 393.38 135.67 392.22 135.42
  A 0.39 0.39 0.0 0 0 391.86 136.07
  L 392.96 137.21
  Z
  M 461.32 187.88
  Q 463.03 187.11 465.44 185.93
  C 468.60 184.39 467.68 181.43 465.18 179.84
  Q 457.65 175.08 448.03 170.99
  Q 446.09 170.16 444.28 170.76
  Q 443.83 170.91 443.63 171.34
  Q 442.76 173.23 443.27 174.52
  Q 447.89 186.26 457.42 198.63
  A 1.59 1.57 -66.2 0 1 457.76 199.52
  L 458.02 204.00
  Q 458.04 204.45 458.35 204.79
  C 462.60 209.48 465.55 215.27 473.08 214.14
  A 1.12 1.12 0.0 0 0 473.86 213.62
  C 475.75 210.44 470.52 204.69 468.44 202.54
  A 0.88 0.87 44.8 0 1 468.43 201.34
  C 470.73 198.83 469.42 196.74 467.01 195.00
  Q 463.95 192.78 461.00 190.45
  A 1.52 1.51 -38.0 0 1 461.32 187.88
  Z
  M 423.70 184.70
  L 420.33 186.52
  A 0.97 0.97 0.0 0 1 419.36 186.50
  Q 416.77 184.93 417.25 181.83
  Q 417.34 181.26 416.90 180.89
  L 410.59 175.72
  A 0.51 0.50 24.8 0 0 409.77 176.02
  Q 409.13 179.52 407.23 182.45
  C 404.05 187.36 405.95 191.86 406.57 196.88
  A 0.90 0.89 77.0 0 0 407.74 197.62
  Q 415.33 195.06 423.24 194.54
  Q 430.95 194.02 434.97 198.77
  Q 435.36 199.23 435.79 198.81
  L 437.92 196.71
  Q 438.36 196.28 437.87 195.90
  Q 429.84 189.72 428.90 179.50
  Q 428.67 176.97 426.23 177.38
  Q 423.45 177.84 421.29 180.64
  Q 420.99 181.02 421.35 181.36
  L 423.83 183.65
  Q 424.50 184.27 423.70 184.70
  Z
  M 563.0061 356.5693
  A 0.27 0.27 0.0 0 0 562.7801 356.2616
  L 562.5428 356.2253
  A 0.27 0.27 0.0 0 0 562.2351 356.4514
  L 559.3339 375.4107
  A 0.27 0.27 0.0 0 0 559.5599 375.7184
  L 559.7972 375.7547
  A 0.27 0.27 0.0 0 0 560.1049 375.5286
  L 563.0061 356.5693
  Z"
/>
<g>
<path fill="#ffffff" d="
  M 205.85 109.39
  C 203.53 105.29 201.13 103.74 196.38 103.78
  C 192.10 103.82 186.45 103.53 185.12 101.79
  A 1.87 1.87 0.0 0 1 185.57 99.11
  C 189.91 96.22 194.38 93.82 199.43 91.93
  Q 226.71 81.73 256.01 82.31
  Q 264.43 82.48 270.95 85.48
  Q 275.25 87.46 276.31 91.98
  C 277.03 95.04 273.94 99.75 272.64 102.55
  Q 269.24 109.82 268.77 110.48
  C 265.10 115.73 257.98 117.06 251.81 117.39
  C 238.48 118.09 225.64 132.21 217.35 140.87
  Q 215.70 142.59 212.42 143.38
  C 204.84 145.19 200.18 143.27 197.98 135.50
  C 196.44 130.07 201.66 122.26 205.16 118.44
  Q 208.75 114.51 205.85 109.39
  Z"
/>
<path fill="#ffffff" d="
  M 353.83 90.75
  C 353.12 92.80 352.70 96.63 349.45 95.66
  Q 345.08 94.36 340.05 92.61
  A 1.78 1.77 17.0 0 1 338.91 90.48
  C 339.79 87.13 342.87 86.72 346.40 85.94
  Q 354.63 84.11 363.08 84.69
  Q 363.60 84.72 363.84 85.19
  C 365.30 88.10 364.11 89.45 362.96 92.05
  Q 362.78 92.48 362.33 92.59
  Q 359.04 93.42 357.75 90.37
  A 0.96 0.96 0.0 0 0 356.72 89.79
  L 354.64 90.09
  Q 354.03 90.17 353.83 90.75
  Z"
/>
<path fill="#ffffff" d="
  M 442.18 97.95
  C 439.14 101.32 433.89 99.88 432.18 105.04
  A 2.15 2.14 25.3 0 1 428.99 106.18
  Q 426.06 104.32 424.68 101.02
  Q 424.19 99.85 425.03 98.91
  C 427.73 95.86 430.28 95.86 434.04 95.05
  C 437.43 94.33 438.88 94.69 441.81 96.10
  A 1.18 1.18 0.0 0 1 442.18 97.95
  Z"
/>
<path fill="#ffffff" d="
  M 162.35 126.62
  C 165.80 121.06 156.06 121.51 152.94 121.84
  A 0.82 0.81 -16.0 0 1 152.12 121.39
  Q 150.45 118.10 151.48 114.54
  A 1.14 1.14 0.0 0 1 152.03 113.85
  Q 154.65 112.45 158.23 112.41
  Q 169.16 112.29 176.42 119.79
  C 180.82 124.33 179.92 130.03 175.54 134.14
  C 171.63 137.82 160.92 141.31 158.61 133.87
  A 1.26 1.24 -40.3 0 1 158.70 132.90
  Q 160.48 129.64 162.35 126.62
  Z"
/>
<ellipse fill="#ffffff" cx="0.00" cy="0.00" transform="translate(147.08,115.08) rotate(-21.1)" rx="1.18" ry="0.75"/>
<path fill="#ffffff" d="
  M 282.99 129.39
  C 278.19 129.87 269.96 129.75 268.55 124.26
  Q 268.39 123.65 269.01 123.53
  C 273.16 122.73 287.34 120.23 290.60 122.35
  A 1.65 1.64 37.8 0 1 290.92 124.83
  C 288.59 127.40 286.61 129.02 282.99 129.39
  Z"
/>
<path fill="#ffffff" d="
  M 320.78 150.53
  Q 324.56 155.46 328.85 159.95
  Q 329.19 160.30 328.93 160.72
  C 325.28 166.59 318.60 169.45 313.02 163.72
  A 0.98 0.97 -58.3 0 1 312.79 162.74
  Q 315.71 153.99 308.32 148.70
  Q 307.91 148.41 308.04 147.92
  Q 309.32 142.83 314.29 142.00
  Q 314.80 141.91 315.24 142.20
  C 319.06 144.69 318.42 147.46 320.78 150.53
  Z"
/>
<path fill="#ffffff" d="
  M 300.92 158.44
  Q 303.70 153.24 310.21 152.95
  Q 310.76 152.92 310.76 153.47
  L 310.76 156.57
  Q 310.76 157.17 310.41 157.66
  Q 307.58 161.70 303.50 164.47
  Q 303.11 164.74 302.68 164.53
  Q 298.71 162.59 300.92 158.44
  Z"
/>
<path fill="#ffffff" d="
  M 182.07 177.55
  C 187.30 179.49 185.58 185.80 180.74 185.97
  Q 174.46 186.19 167.29 185.01
  A 1.05 1.05 0.0 0 1 166.61 183.35
  C 167.54 182.06 168.43 180.47 169.91 179.68
  C 173.08 177.99 178.55 176.24 182.07 177.55
  Z"
/>
<path fill="#ffffff" d="
  M 357.21 203.68
  A 0.17 0.17 0.0 0 1 357.13 203.91
  L 356.76 204.09
  A 3.54 2.74 -25.5 0 1 352.38 203.14
  L 352.20 202.76
  A 3.54 2.74 -25.5 0 1 354.22 198.76
  L 354.59 198.58
  A 0.17 0.17 0.0 0 1 354.81 198.66
  L 357.21 203.68
  Z"
/>
<path fill="#ffffff" d="
  M 371.25 213.09
  L 367.72 211.63
  A 1.76 1.76 0.0 0 1 366.63 210.04
  L 366.60 208.60
  A 1.76 1.76 0.0 0 1 368.05 206.82
  L 372.27 206.07
  A 1.76 1.76 0.0 0 1 374.31 208.11
  L 373.66 211.77
  A 1.76 1.76 0.0 0 1 371.25 213.09
  Z"
/>
<path fill="#ffffff" d="
  M 122.75 293.70
  Q 119.55 295.33 116.07 293.31
  Q 110.54 290.11 104.94 286.55
  A 0.93 0.91 20.4 0 1 104.52 285.65
  C 105.42 279.11 118.02 282.15 121.45 283.83
  Q 121.99 284.10 122.33 284.60
  L 125.26 288.94
  A 1.17 1.17 0.0 0 0 125.97 289.42
  Q 131.32 290.73 135.63 294.29
  A 1.06 1.06 0.0 0 1 135.32 296.11
  L 129.18 298.37
  Q 128.68 298.55 128.20 298.34
  Q 125.31 297.11 124.13 294.21
  A 1.00 1.00 0.0 0 0 122.75 293.70
  Z"
/>
<path fill="#ffffff" d="
  M 442.17 421.94
  C 444.71 415.23 453.54 407.60 459.02 402.62
  A 1.25 1.25 0.0 0 1 461.11 403.47
  C 461.58 412.21 457.98 417.70 452.65 426.00
  C 448.35 432.69 444.05 440.00 438.15 445.43
  A 1.01 1.01 0.0 0 1 436.52 445.05
  Q 435.84 443.27 436.30 441.28
  Q 438.59 431.41 442.17 421.94
  Z"
/>
</g>
</svg>
