<?xml version="1.0" encoding="UTF-8"?><svg id="b" xmlns="http://www.w3.org/2000/svg" xmlns:xlink="http://www.w3.org/1999/xlink" viewBox="0 0 110 110"><defs><clipPath id="d"><circle cx="55" cy="55" r="55" style="fill:none;"/></clipPath></defs><g id="c"><g style="clip-path:url(#d); fill:none;"><circle cx="55" cy="55" r="55" style="fill:#247383;"/><g style="fill:none; opacity:.3;"><path d="m85.88,112.35c-1.57-.9-3.38-1.43-5.33-1.43-5.89,0-10.67,4.77-10.67,10.67s4.78,10.67,10.67,10.67,10.67-4.77,10.67-10.67v-27.64h-5.34v18.41Z"/><path d="m122.92,93.94v18.41c-1.57-.9-3.38-1.43-5.32-1.43-5.89,0-10.67,4.77-10.67,10.67s4.77,10.67,10.67,10.67,10.67-4.77,10.67-10.67v-27.64h-5.34Z"/><path d="m124.62,77.75h-35.09c-2.01,0-3.64,1.63-3.64,3.65v12.55h42.38v-12.55c0-2.01-1.63-3.65-3.64-3.65Z"/><path d="m85.67,112.14c-1.57-.9-3.38-1.43-5.33-1.43-5.89,0-10.67,4.78-10.67,10.67s4.78,10.67,10.67,10.67,10.67-4.77,10.67-10.67v-27.65h-5.34v18.41Z"/><path d="m122.71,93.73v18.41c-1.57-.9-3.38-1.43-5.32-1.43-5.89,0-10.67,4.78-10.67,10.67s4.77,10.67,10.67,10.67,10.67-4.77,10.67-10.67v-27.65h-5.34Z"/><path d="m124.41,77.54h-35.09c-2.01,0-3.64,1.63-3.64,3.65v12.55h42.38v-12.55c0-2.01-1.63-3.65-3.64-3.65Z"/><path d="m85.46,111.92c-1.57-.9-3.38-1.43-5.33-1.43-5.89,0-10.67,4.77-10.67,10.67s4.78,10.67,10.67,10.67,10.67-4.77,10.67-10.67v-27.65h-5.34v18.41Z"/><path d="m122.49,93.52v18.41c-1.57-.9-3.38-1.43-5.32-1.43-5.89,0-10.67,4.77-10.67,10.67s4.77,10.67,10.67,10.67,10.67-4.77,10.67-10.67v-27.65h-5.34Z"/><path d="m124.2,77.32h-35.09c-2.01,0-3.64,1.63-3.64,3.65v12.55h42.38v-12.55c0-2.01-1.63-3.65-3.64-3.65Z"/><path d="m85.25,111.71c-1.57-.9-3.38-1.43-5.33-1.43-5.89,0-10.67,4.77-10.67,10.67s4.78,10.67,10.67,10.67,10.67-4.77,10.67-10.67v-27.64h-5.34v18.41Z"/><path d="m122.28,93.31v18.41c-1.57-.9-3.38-1.43-5.32-1.43-5.89,0-10.67,4.77-10.67,10.67s4.77,10.67,10.67,10.67,10.67-4.77,10.67-10.67v-27.64h-5.34Z"/><path d="m123.99,77.11h-35.09c-2.01,0-3.64,1.63-3.64,3.65v12.55h42.38v-12.55c0-2.01-1.63-3.65-3.64-3.65Z"/><path d="m85.04,111.5c-1.57-.9-3.38-1.43-5.33-1.43-5.89,0-10.67,4.77-10.67,10.67s4.78,10.67,10.67,10.67,10.67-4.77,10.67-10.67v-27.64h-5.34v18.41Z"/><path d="m122.07,93.09v18.41c-1.57-.9-3.38-1.43-5.32-1.43-5.89,0-10.67,4.77-10.67,10.67s4.77,10.67,10.67,10.67,10.67-4.77,10.67-10.67v-27.64h-5.34Z"/><path d="m123.77,76.9h-35.1c-2.01,0-3.64,1.63-3.64,3.65v12.55h42.38v-12.55c0-2.01-1.63-3.65-3.64-3.65Z"/><path d="m84.82,111.29c-1.57-.9-3.38-1.43-5.33-1.43-5.89,0-10.67,4.77-10.67,10.67s4.78,10.67,10.67,10.67,10.67-4.77,10.67-10.67v-27.65h-5.34v18.41Z"/><path d="m121.86,92.88v18.41c-1.57-.9-3.38-1.43-5.32-1.43-5.89,0-10.67,4.77-10.67,10.67s4.78,10.67,10.67,10.67,10.67-4.77,10.67-10.67v-27.65h-5.34Z"/><path d="m123.56,76.69h-35.1c-2.01,0-3.64,1.63-3.64,3.65v12.55h42.38v-12.55c0-2.01-1.63-3.65-3.64-3.65Z"/><path d="m84.61,111.08c-1.57-.9-3.38-1.43-5.33-1.43-5.89,0-10.67,4.78-10.67,10.67s4.78,10.67,10.67,10.67,10.67-4.78,10.67-10.67v-27.65h-5.34v18.41Z"/><path d="m121.65,92.67v18.41c-1.57-.9-3.38-1.43-5.32-1.43-5.89,0-10.67,4.78-10.67,10.67s4.78,10.67,10.67,10.67,10.67-4.78,10.67-10.67v-27.65h-5.34Z"/><path d="m123.35,76.48h-35.09c-2.01,0-3.64,1.63-3.64,3.65v12.55h42.38v-12.55c0-2.01-1.63-3.65-3.64-3.65Z"/><path d="m84.4,110.86c-1.57-.9-3.38-1.43-5.33-1.43-5.89,0-10.67,4.77-10.67,10.67s4.78,10.67,10.67,10.67,10.67-4.77,10.67-10.67v-27.64h-5.34v18.41Z"/><path d="m121.43,92.46v18.41c-1.57-.9-3.38-1.43-5.32-1.43-5.89,0-10.67,4.77-10.67,10.67s4.77,10.67,10.67,10.67,10.67-4.77,10.67-10.67v-27.64h-5.34Z"/><path d="m123.14,76.26h-35.09c-2.01,0-3.64,1.63-3.64,3.65v12.55h42.38v-12.55c0-2.01-1.63-3.65-3.64-3.65Z"/><path d="m84.19,110.65c-1.57-.9-3.38-1.43-5.33-1.43-5.89,0-10.67,4.78-10.67,10.67s4.78,10.67,10.67,10.67,10.67-4.77,10.67-10.67v-27.65h-5.34v18.41Z"/><path d="m121.22,92.25v18.41c-1.57-.9-3.38-1.43-5.32-1.43-5.89,0-10.67,4.78-10.67,10.67s4.77,10.67,10.67,10.67,10.67-4.77,10.67-10.67v-27.65h-5.34Z"/><path d="m122.93,76.05h-35.09c-2.01,0-3.64,1.63-3.64,3.65v12.55h42.38v-12.55c0-2.01-1.63-3.65-3.64-3.65Z"/><path d="m83.98,110.44c-1.57-.9-3.38-1.43-5.33-1.43-5.89,0-10.67,4.77-10.67,10.67s4.78,10.67,10.67,10.67,10.67-4.78,10.67-10.67v-27.65h-5.34v18.41Z"/><path d="m121.01,92.03v18.41c-1.57-.9-3.38-1.43-5.32-1.43-5.89,0-10.67,4.77-10.67,10.67s4.77,10.67,10.67,10.67,10.67-4.78,10.67-10.67v-27.65h-5.34Z"/><path d="m122.71,75.84h-35.09c-2.01,0-3.64,1.63-3.64,3.65v12.55h42.38v-12.55c0-2.01-1.63-3.65-3.64-3.65Z"/><path d="m83.77,110.23c-1.57-.9-3.38-1.43-5.33-1.43-5.89,0-10.67,4.78-10.67,10.67s4.78,10.67,10.67,10.67,10.67-4.78,10.67-10.67v-27.64h-5.34v18.41Z"/><path d="m120.8,91.82v18.41c-1.57-.9-3.38-1.43-5.32-1.43-5.89,0-10.67,4.78-10.67,10.67s4.77,10.67,10.67,10.67,10.67-4.78,10.67-10.67v-27.64h-5.34Z"/><path d="m122.5,75.63h-35.09c-2.01,0-3.64,1.63-3.64,3.65v12.55h42.38v-12.55c0-2.01-1.63-3.65-3.64-3.65Z"/><path d="m83.55,110.02c-1.57-.9-3.38-1.43-5.33-1.43-5.89,0-10.67,4.77-10.67,10.67s4.78,10.67,10.67,10.67,10.67-4.77,10.67-10.67v-27.65h-5.34v18.41Z"/><path d="m120.59,91.61v18.41c-1.57-.9-3.38-1.43-5.32-1.43-5.89,0-10.67,4.77-10.67,10.67s4.77,10.67,10.67,10.67,10.67-4.77,10.67-10.67v-27.65h-5.34Z"/><path d="m122.29,75.42h-35.09c-2.01,0-3.64,1.63-3.64,3.65v12.55h42.38v-12.55c0-2.01-1.63-3.65-3.64-3.65Z"/><path d="m83.34,109.81c-1.57-.9-3.38-1.43-5.33-1.43-5.89,0-10.67,4.77-10.67,10.67s4.78,10.67,10.67,10.67,10.67-4.77,10.67-10.67v-27.64h-5.34v18.41Z"/><path d="m120.38,91.4v18.41c-1.57-.9-3.38-1.43-5.32-1.43-5.89,0-10.67,4.77-10.67,10.67s4.77,10.67,10.67,10.67,10.67-4.77,10.67-10.67v-27.64h-5.34Z"/><path d="m122.08,75.2h-35.1c-2.01,0-3.64,1.63-3.64,3.65v12.55h42.38v-12.55c0-2.01-1.63-3.65-3.64-3.65Z"/><path d="m83.13,109.59c-1.57-.9-3.38-1.43-5.33-1.43-5.89,0-10.67,4.78-10.67,10.67s4.78,10.67,10.67,10.67,10.67-4.78,10.67-10.67v-27.64h-5.34v18.41Z"/><path d="m120.16,91.19v18.41c-1.57-.9-3.38-1.43-5.32-1.43-5.89,0-10.67,4.78-10.67,10.67s4.77,10.67,10.67,10.67,10.67-4.78,10.67-10.67v-27.64h-5.34Z"/><path d="m121.87,74.99h-35.09c-2.01,0-3.64,1.63-3.64,3.65v12.55h42.38v-12.55c0-2.01-1.63-3.65-3.64-3.65Z"/><path d="m82.92,109.38c-1.57-.9-3.38-1.43-5.33-1.43-5.89,0-10.67,4.77-10.67,10.67s4.78,10.67,10.67,10.67,10.67-4.77,10.67-10.67v-27.64h-5.34v18.41Z"/><path d="m119.95,90.98v18.41c-1.57-.9-3.38-1.43-5.32-1.43-5.89,0-10.67,4.77-10.67,10.67s4.77,10.67,10.67,10.67,10.67-4.77,10.67-10.67v-27.64h-5.34Z"/><path d="m121.65,74.78h-35.1c-2.01,0-3.64,1.63-3.64,3.65v12.55h42.38v-12.55c0-2.01-1.63-3.65-3.64-3.65Z"/><path d="m82.71,109.17c-1.57-.9-3.38-1.43-5.33-1.43-5.89,0-10.67,4.78-10.67,10.67s4.78,10.67,10.67,10.67,10.67-4.77,10.67-10.67v-27.65h-5.34v18.41Z"/><path d="m119.74,90.76v18.41c-1.57-.9-3.38-1.43-5.32-1.43-5.89,0-10.67,4.78-10.67,10.67s4.78,10.67,10.67,10.67,10.67-4.77,10.67-10.67v-27.65h-5.34Z"/><path d="m121.44,74.57h-35.09c-2.01,0-3.64,1.63-3.64,3.65v12.55h42.38v-12.55c0-2.01-1.63-3.65-3.64-3.65Z"/><path d="m82.49,108.96c-1.57-.9-3.38-1.43-5.33-1.43-5.89,0-10.67,4.77-10.67,10.67s4.78,10.67,10.67,10.67,10.67-4.77,10.67-10.67v-27.65h-5.34v18.41Z"/><path d="m119.53,90.55v18.41c-1.57-.9-3.38-1.43-5.32-1.43-5.89,0-10.67,4.77-10.67,10.67s4.77,10.67,10.67,10.67,10.67-4.77,10.67-10.67v-27.65h-5.34Z"/><path d="m121.23,74.36h-35.09c-2.01,0-3.64,1.63-3.64,3.65v12.55h42.38v-12.55c0-2.01-1.63-3.65-3.64-3.65Z"/><path d="m82.28,108.75c-1.57-.9-3.38-1.43-5.33-1.43-5.89,0-10.67,4.78-10.67,10.67s4.78,10.67,10.67,10.67,10.67-4.77,10.67-10.67v-27.64h-5.34v18.41Z"/><path d="m119.32,90.34v18.41c-1.57-.9-3.38-1.43-5.32-1.43-5.89,0-10.67,4.78-10.67,10.67s4.77,10.67,10.67,10.67,10.67-4.77,10.67-10.67v-27.64h-5.34Z"/><path d="m121.02,74.15h-35.09c-2.01,0-3.64,1.63-3.64,3.65v12.55h42.38v-12.55c0-2.01-1.63-3.65-3.64-3.65Z"/><path d="m82.07,108.53c-1.57-.9-3.38-1.43-5.33-1.43-5.89,0-10.67,4.77-10.67,10.67s4.78,10.67,10.67,10.67,10.67-4.77,10.67-10.67v-27.64h-5.34v18.41Z"/><path d="m119.1,90.13v18.41c-1.57-.9-3.38-1.43-5.32-1.43-5.89,0-10.67,4.77-10.67,10.67s4.77,10.67,10.67,10.67,10.67-4.77,10.67-10.67v-27.64h-5.34Z"/><path d="m120.81,73.93h-35.09c-2.01,0-3.64,1.63-3.64,3.65v12.55h42.38v-12.55c0-2.01-1.63-3.65-3.64-3.65Z"/><path d="m81.86,108.32c-1.57-.9-3.38-1.43-5.33-1.43-5.89,0-10.67,4.78-10.67,10.67s4.78,10.67,10.67,10.67,10.67-4.77,10.67-10.67v-27.65h-5.34v18.41Z"/><path d="m118.89,89.92v18.41c-1.57-.9-3.38-1.43-5.32-1.43-5.89,0-10.67,4.78-10.67,10.67s4.77,10.67,10.67,10.67,10.67-4.77,10.67-10.67v-27.65h-5.34Z"/><path d="m120.6,73.72h-35.1c-2.01,0-3.64,1.63-3.64,3.65v12.55h42.38v-12.55c0-2.01-1.63-3.65-3.64-3.65Z"/><path d="m81.65,108.11c-1.57-.9-3.38-1.43-5.33-1.43-5.89,0-10.67,4.77-10.67,10.67s4.78,10.67,10.67,10.67,10.67-4.77,10.67-10.67v-27.64h-5.34v18.41Z"/><path d="m118.68,89.7v18.41c-1.57-.9-3.38-1.43-5.32-1.43-5.89,0-10.67,4.77-10.67,10.67s4.77,10.67,10.67,10.67,10.67-4.77,10.67-10.67v-27.64h-5.34Z"/><path d="m120.38,73.51h-35.09c-2.01,0-3.64,1.63-3.64,3.65v12.55h42.38v-12.55c0-2.01-1.63-3.65-3.64-3.65Z"/><path d="m81.43,107.9c-1.57-.9-3.38-1.43-5.33-1.43-5.89,0-10.67,4.77-10.67,10.67s4.78,10.67,10.67,10.67,10.67-4.77,10.67-10.67v-27.64h-5.34v18.41Z"/><path d="m118.47,89.49v18.41c-1.57-.9-3.38-1.43-5.32-1.43-5.89,0-10.67,4.77-10.67,10.67s4.78,10.67,10.67,10.67,10.67-4.77,10.67-10.67v-27.64h-5.34Z"/><path d="m120.17,73.3h-35.1c-2.01,0-3.64,1.63-3.64,3.65v12.55h42.38v-12.55c0-2.01-1.63-3.65-3.64-3.65Z"/><path d="m81.22,107.69c-1.57-.9-3.38-1.43-5.33-1.43-5.89,0-10.67,4.78-10.67,10.67s4.78,10.67,10.67,10.67,10.67-4.77,10.67-10.67v-27.65h-5.34v18.41Z"/><path d="m118.26,89.28v18.41c-1.57-.9-3.38-1.43-5.32-1.43-5.89,0-10.67,4.78-10.67,10.67s4.77,10.67,10.67,10.67,10.67-4.77,10.67-10.67v-27.65h-5.34Z"/><path d="m119.96,73.09h-35.09c-2.01,0-3.64,1.63-3.64,3.65v12.55h42.38v-12.55c0-2.01-1.63-3.65-3.64-3.65Z"/><path d="m81.01,107.48c-1.57-.9-3.38-1.43-5.33-1.43-5.89,0-10.67,4.77-10.67,10.67s4.78,10.67,10.67,10.67,10.67-4.78,10.67-10.67v-27.65h-5.34v18.41Z"/><path d="m118.05,89.07v18.41c-1.57-.9-3.38-1.43-5.32-1.43-5.89,0-10.67,4.77-10.67,10.67s4.77,10.67,10.67,10.67,10.67-4.78,10.67-10.67v-27.65h-5.34Z"/><path d="m119.75,72.87h-35.09c-2.01,0-3.64,1.63-3.64,3.65v12.55h42.38v-12.55c0-2.01-1.63-3.65-3.64-3.65Z"/><path d="m80.8,107.26c-1.57-.9-3.38-1.43-5.33-1.43-5.89,0-10.67,4.77-10.67,10.67s4.78,10.67,10.67,10.67,10.67-4.77,10.67-10.67v-27.65h-5.34v18.41Z"/><path d="m117.83,88.86v18.41c-1.57-.9-3.38-1.43-5.32-1.43-5.89,0-10.67,4.77-10.67,10.67s4.78,10.67,10.67,10.67,10.67-4.77,10.67-10.67v-27.65h-5.34Z"/><path d="m119.54,72.66h-35.09c-2.01,0-3.64,1.63-3.64,3.65v12.55h42.38v-12.55c0-2.01-1.63-3.65-3.64-3.65Z"/><path d="m80.59,107.05c-1.57-.9-3.38-1.43-5.33-1.43-5.89,0-10.67,4.77-10.67,10.67s4.78,10.67,10.67,10.67,10.67-4.77,10.67-10.67v-27.65h-5.34v18.41Z"/><path d="m117.62,88.64v18.41c-1.57-.9-3.38-1.43-5.32-1.43-5.89,0-10.67,4.77-10.67,10.67s4.77,10.67,10.67,10.67,10.67-4.77,10.67-10.67v-27.65h-5.34Z"/><path d="m119.32,72.45h-35.09c-2.01,0-3.64,1.63-3.64,3.65v12.55h42.38v-12.55c0-2.01-1.63-3.65-3.64-3.65Z"/><path d="m80.38,106.84c-1.57-.9-3.38-1.43-5.33-1.43-5.89,0-10.67,4.78-10.67,10.67s4.78,10.67,10.67,10.67,10.67-4.78,10.67-10.67v-27.64h-5.34v18.41Z"/><path d="m117.41,88.43v18.41c-1.57-.9-3.38-1.43-5.32-1.43-5.89,0-10.67,4.78-10.67,10.67s4.77,10.67,10.67,10.67,10.67-4.78,10.67-10.67v-27.64h-5.34Z"/><path d="m119.11,72.24h-35.09c-2.01,0-3.64,1.63-3.64,3.65v12.55h42.38v-12.55c0-2.01-1.63-3.65-3.64-3.65Z"/><path d="m80.16,106.63c-1.57-.9-3.38-1.43-5.33-1.43-5.89,0-10.67,4.77-10.67,10.67s4.78,10.67,10.67,10.67,10.67-4.77,10.67-10.67v-27.64h-5.34v18.41Z"/><path d="m117.2,88.22v18.41c-1.57-.9-3.38-1.43-5.32-1.43-5.89,0-10.67,4.77-10.67,10.67s4.77,10.67,10.67,10.67,10.67-4.77,10.67-10.67v-27.64h-5.34Z"/><path d="m118.9,72.03h-35.09c-2.01,0-3.64,1.63-3.64,3.65v12.55h42.38v-12.55c0-2.01-1.63-3.65-3.64-3.65Z"/><path d="m79.95,106.42c-1.57-.9-3.38-1.43-5.33-1.43-5.89,0-10.67,4.77-10.67,10.67s4.78,10.67,10.67,10.67,10.67-4.77,10.67-10.67v-27.65h-5.34v18.41Z"/><path d="m116.99,88.01v18.41c-1.57-.9-3.38-1.43-5.32-1.43-5.89,0-10.67,4.77-10.67,10.67s4.77,10.67,10.67,10.67,10.67-4.77,10.67-10.67v-27.65h-5.34Z"/><path d="m118.69,71.81h-35.1c-2.01,0-3.64,1.63-3.64,3.65v12.55h42.38v-12.55c0-2.01-1.63-3.65-3.64-3.65Z"/><path d="m79.74,106.2c-1.57-.9-3.38-1.43-5.33-1.43-5.89,0-10.67,4.77-10.67,10.67s4.78,10.67,10.67,10.67,10.67-4.78,10.67-10.67v-27.65h-5.34v18.41Z"/><path d="m116.77,87.8v18.41c-1.57-.9-3.38-1.43-5.32-1.43-5.89,0-10.67,4.77-10.67,10.67s4.77,10.67,10.67,10.67,10.67-4.78,10.67-10.67v-27.65h-5.34Z"/><path d="m118.48,71.6h-35.09c-2.01,0-3.64,1.63-3.64,3.65v12.55h42.38v-12.55c0-2.01-1.63-3.65-3.64-3.65Z"/><path d="m79.53,105.99c-1.57-.9-3.38-1.43-5.33-1.43-5.89,0-10.67,4.78-10.67,10.67s4.78,10.67,10.67,10.67,10.67-4.77,10.67-10.67v-27.64h-5.34v18.41Z"/><path d="m116.56,87.58v18.41c-1.57-.9-3.38-1.43-5.32-1.43-5.89,0-10.67,4.78-10.67,10.67s4.77,10.67,10.67,10.67,10.67-4.77,10.67-10.67v-27.64h-5.34Z"/><path d="m118.26,71.39h-35.09c-2.01,0-3.64,1.63-3.64,3.65v12.55h42.38v-12.55c0-2.01-1.63-3.65-3.64-3.65Z"/><path d="m79.32,105.78c-1.57-.9-3.38-1.43-5.33-1.43-5.89,0-10.67,4.78-10.67,10.67s4.78,10.67,10.67,10.67,10.67-4.77,10.67-10.67v-27.64h-5.34v18.41Z"/><path d="m116.35,87.37v18.41c-1.57-.9-3.38-1.43-5.32-1.43-5.89,0-10.67,4.78-10.67,10.67s4.77,10.67,10.67,10.67,10.67-4.77,10.67-10.67v-27.64h-5.34Z"/><path d="m118.05,71.18h-35.09c-2.01,0-3.64,1.63-3.64,3.65v12.55h42.38v-12.55c0-2.01-1.63-3.65-3.64-3.65Z"/><path d="m79.1,105.57c-1.57-.9-3.38-1.43-5.33-1.43-5.89,0-10.67,4.77-10.67,10.67s4.78,10.67,10.67,10.67,10.67-4.77,10.67-10.67v-27.65h-5.34v18.41Z"/><path d="m116.14,87.16v18.41c-1.57-.9-3.38-1.43-5.32-1.43-5.89,0-10.67,4.77-10.67,10.67s4.77,10.67,10.67,10.67,10.67-4.77,10.67-10.67v-27.65h-5.34Z"/><path d="m117.84,70.97h-35.09c-2.01,0-3.64,1.63-3.64,3.65v12.55h42.38v-12.55c0-2.01-1.63-3.65-3.64-3.65Z"/><path d="m78.89,105.36c-1.57-.9-3.38-1.43-5.33-1.43-5.89,0-10.67,4.78-10.67,10.67s4.78,10.67,10.67,10.67,10.67-4.78,10.67-10.67v-27.65h-5.34v18.41Z"/><path d="m115.93,86.95v18.41c-1.57-.9-3.38-1.43-5.32-1.43-5.89,0-10.67,4.78-10.67,10.67s4.78,10.67,10.67,10.67,10.67-4.78,10.67-10.67v-27.65h-5.34Z"/><path d="m117.63,70.76h-35.09c-2.01,0-3.64,1.63-3.64,3.65v12.55h42.38v-12.55c0-2.01-1.63-3.65-3.64-3.65Z"/><path d="m78.68,105.14c-1.57-.9-3.38-1.43-5.33-1.43-5.89,0-10.67,4.77-10.67,10.67s4.78,10.67,10.67,10.67,10.67-4.77,10.67-10.67v-27.64h-5.34v18.41Z"/><path d="m115.71,86.74v18.41c-1.57-.9-3.38-1.43-5.32-1.43-5.89,0-10.67,4.77-10.67,10.67s4.77,10.67,10.67,10.67,10.67-4.77,10.67-10.67v-27.64h-5.34Z"/><path d="m117.42,70.54h-35.09c-2.01,0-3.64,1.63-3.64,3.65v12.55h42.38v-12.55c0-2.01-1.63-3.65-3.64-3.65Z"/><path d="m78.47,104.93c-1.57-.9-3.38-1.43-5.33-1.43-5.89,0-10.67,4.78-10.67,10.67s4.78,10.67,10.67,10.67,10.67-4.77,10.67-10.67v-27.64h-5.34v18.41Z"/><path d="m115.5,86.53v18.41c-1.57-.9-3.38-1.43-5.32-1.43-5.89,0-10.67,4.78-10.67,10.67s4.77,10.67,10.67,10.67,10.67-4.77,10.67-10.67v-27.64h-5.34Z"/><path d="m117.21,70.33h-35.09c-2.01,0-3.64,1.63-3.64,3.65v12.55h42.38v-12.55c0-2.01-1.63-3.65-3.64-3.65Z"/><path d="m78.26,104.72c-1.57-.9-3.38-1.43-5.33-1.43-5.89,0-10.67,4.77-10.67,10.67s4.78,10.67,10.67,10.67,10.67-4.77,10.67-10.67v-27.65h-5.34v18.41Z"/><path d="m115.29,86.31v18.41c-1.57-.9-3.38-1.43-5.32-1.43-5.89,0-10.67,4.77-10.67,10.67s4.78,10.67,10.67,10.67,10.67-4.77,10.67-10.67v-27.65h-5.34Z"/><path d="m116.99,70.12h-35.09c-2.01,0-3.64,1.63-3.64,3.65v12.55h42.38v-12.55c0-2.01-1.63-3.65-3.64-3.65Z"/><path d="m78.05,104.51c-1.57-.9-3.38-1.43-5.33-1.43-5.89,0-10.67,4.77-10.67,10.67s4.78,10.67,10.67,10.67,10.67-4.77,10.67-10.67v-27.65h-5.34v18.41Z"/><path d="m115.08,86.1v18.41c-1.57-.9-3.38-1.43-5.32-1.43-5.89,0-10.67,4.77-10.67,10.67s4.77,10.67,10.67,10.67,10.67-4.77,10.67-10.67v-27.65h-5.34Z"/><path d="m116.78,69.91h-35.09c-2.01,0-3.64,1.63-3.64,3.65v12.55h42.38v-12.55c0-2.01-1.63-3.65-3.64-3.65Z"/><path d="m77.83,104.3c-1.57-.9-3.38-1.43-5.33-1.43-5.89,0-10.67,4.78-10.67,10.67s4.78,10.67,10.67,10.67,10.67-4.77,10.67-10.67v-27.64h-5.34v18.41Z"/><path d="m114.87,85.89v18.41c-1.57-.9-3.38-1.43-5.32-1.43-5.89,0-10.67,4.78-10.67,10.67s4.77,10.67,10.67,10.67,10.67-4.77,10.67-10.67v-27.64h-5.34Z"/><path d="m116.57,69.7h-35.09c-2.01,0-3.64,1.63-3.64,3.65v12.55h42.38v-12.55c0-2.01-1.63-3.65-3.64-3.65Z"/><path d="m77.62,104.08c-1.57-.9-3.38-1.43-5.33-1.43-5.89,0-10.67,4.77-10.67,10.67s4.78,10.67,10.67,10.67,10.67-4.78,10.67-10.67v-27.65h-5.34v18.41Z"/><path d="m114.66,85.68v18.41c-1.57-.9-3.38-1.43-5.32-1.43-5.89,0-10.67,4.77-10.67,10.67s4.77,10.67,10.67,10.67,10.67-4.78,10.67-10.67v-27.65h-5.34Z"/><path d="m116.36,69.48h-35.09c-2.01,0-3.64,1.63-3.64,3.65v12.55h42.38v-12.55c0-2.01-1.63-3.65-3.64-3.65Z"/><path d="m77.41,103.87c-1.57-.9-3.38-1.43-5.33-1.43-5.89,0-10.67,4.77-10.67,10.67s4.78,10.67,10.67,10.67,10.67-4.77,10.67-10.67v-27.65h-5.34v18.41Z"/><path d="m114.44,85.47v18.41c-1.57-.9-3.38-1.43-5.32-1.43-5.89,0-10.67,4.77-10.67,10.67s4.77,10.67,10.67,10.67,10.67-4.77,10.67-10.67v-27.65h-5.34Z"/><path d="m116.15,69.27h-35.1c-2.01,0-3.64,1.63-3.64,3.65v12.55h42.38v-12.55c0-2.01-1.63-3.65-3.64-3.65Z"/><path d="m77.2,103.66c-1.57-.9-3.38-1.43-5.33-1.43-5.89,0-10.67,4.77-10.67,10.67s4.78,10.67,10.67,10.67,10.67-4.77,10.67-10.67v-27.64h-5.34v18.41Z"/><path d="m114.23,85.25v18.41c-1.57-.9-3.38-1.43-5.32-1.43-5.89,0-10.67,4.77-10.67,10.67s4.77,10.67,10.67,10.67,10.67-4.77,10.67-10.67v-27.64h-5.34Z"/><path d="m115.93,69.06h-35.09c-2.01,0-3.64,1.63-3.64,3.65v12.55h42.38v-12.55c0-2.01-1.63-3.65-3.64-3.65Z"/><path d="m76.99,103.45c-1.57-.9-3.38-1.43-5.33-1.43-5.89,0-10.67,4.77-10.67,10.67s4.78,10.67,10.67,10.67,10.67-4.77,10.67-10.67v-27.65h-5.34v18.41Z"/><path d="m114.02,85.04v18.41c-1.57-.9-3.38-1.43-5.32-1.43-5.89,0-10.67,4.77-10.67,10.67s4.78,10.67,10.67,10.67,10.67-4.77,10.67-10.67v-27.65h-5.34Z"/><path d="m115.72,68.85h-35.09c-2.01,0-3.64,1.63-3.64,3.65v12.55h42.38v-12.55c0-2.01-1.63-3.65-3.64-3.65Z"/><path d="m76.77,103.24c-1.57-.9-3.38-1.43-5.33-1.43-5.89,0-10.67,4.77-10.67,10.67s4.78,10.67,10.67,10.67,10.67-4.77,10.67-10.67v-27.65h-5.34v18.41Z"/><path d="m113.81,84.83v18.41c-1.57-.9-3.38-1.43-5.32-1.43-5.89,0-10.67,4.77-10.67,10.67s4.77,10.67,10.67,10.67,10.67-4.77,10.67-10.67v-27.65h-5.34Z"/><path d="m115.51,68.64h-35.09c-2.01,0-3.64,1.63-3.64,3.65v12.55h42.38v-12.55c0-2.01-1.63-3.65-3.64-3.65Z"/><path d="m76.56,103.03c-1.57-.9-3.38-1.43-5.33-1.43-5.89,0-10.67,4.77-10.67,10.67s4.78,10.67,10.67,10.67,10.67-4.78,10.67-10.67v-27.64h-5.34v18.41Z"/><path d="m113.6,84.62v18.41c-1.57-.9-3.38-1.43-5.32-1.43-5.89,0-10.67,4.77-10.67,10.67s4.78,10.67,10.67,10.67,10.67-4.78,10.67-10.67v-27.64h-5.34Z"/><path d="m115.3,68.43h-35.09c-2.01,0-3.64,1.63-3.64,3.65v12.55h42.38v-12.55c0-2.01-1.63-3.65-3.64-3.65Z"/><path d="m76.35,102.81c-1.57-.9-3.38-1.43-5.33-1.43-5.89,0-10.67,4.78-10.67,10.67s4.78,10.67,10.67,10.67,10.67-4.77,10.67-10.67v-27.65h-5.34v18.41Z"/><path d="m113.38,84.41v18.41c-1.57-.9-3.38-1.43-5.32-1.43-5.89,0-10.67,4.78-10.67,10.67s4.78,10.67,10.67,10.67,10.67-4.77,10.67-10.67v-27.65h-5.34Z"/><path d="m115.09,68.21h-35.09c-2.01,0-3.64,1.63-3.64,3.65v12.55h42.38v-12.55c0-2.01-1.63-3.65-3.64-3.65Z"/><path d="m76.14,102.6c-1.57-.9-3.38-1.43-5.33-1.43-5.89,0-10.67,4.77-10.67,10.67s4.78,10.67,10.67,10.67,10.67-4.77,10.67-10.67v-27.65h-5.34v18.41Z"/><path d="m113.17,84.19v18.41c-1.57-.9-3.38-1.43-5.32-1.43-5.89,0-10.67,4.77-10.67,10.67s4.78,10.67,10.67,10.67,10.67-4.77,10.67-10.67v-27.65h-5.34Z"/><path d="m114.87,68h-35.1c-2.01,0-3.64,1.63-3.64,3.65v12.55h42.38v-12.55c0-2.01-1.63-3.65-3.64-3.65Z"/><path d="m75.93,102.39c-1.57-.9-3.38-1.43-5.33-1.43-5.89,0-10.67,4.77-10.67,10.67s4.78,10.67,10.67,10.67,10.67-4.78,10.67-10.67v-27.65h-5.34v18.41Z"/><path d="m112.96,83.98v18.41c-1.57-.9-3.38-1.43-5.32-1.43-5.89,0-10.67,4.77-10.67,10.67s4.77,10.67,10.67,10.67,10.67-4.78,10.67-10.67v-27.65h-5.34Z"/><path d="m114.66,67.79h-35.1c-2.01,0-3.64,1.63-3.64,3.65v12.55h42.38v-12.55c0-2.01-1.63-3.65-3.64-3.65Z"/><path d="m75.71,102.18c-1.57-.9-3.38-1.43-5.33-1.43-5.89,0-10.67,4.77-10.67,10.67s4.78,10.67,10.67,10.67,10.67-4.77,10.67-10.67v-27.65h-5.34v18.41Z"/><path d="m112.75,83.77v18.41c-1.57-.9-3.38-1.43-5.32-1.43-5.89,0-10.67,4.77-10.67,10.67s4.77,10.67,10.67,10.67,10.67-4.77,10.67-10.67v-27.65h-5.34Z"/><path d="m114.45,67.58h-35.1c-2.01,0-3.64,1.63-3.64,3.65v12.55h42.38v-12.55c0-2.01-1.63-3.65-3.64-3.65Z"/><path d="m75.5,101.97c-1.57-.9-3.38-1.43-5.33-1.43-5.89,0-10.67,4.77-10.67,10.67s4.78,10.67,10.67,10.67,10.67-4.77,10.67-10.67v-27.64h-5.34v18.41Z"/><path d="m112.54,83.56v18.41c-1.57-.9-3.38-1.43-5.32-1.43-5.89,0-10.67,4.77-10.67,10.67s4.77,10.67,10.67,10.67,10.67-4.77,10.67-10.67v-27.64h-5.34Z"/><path d="m114.24,67.37h-35.09c-2.01,0-3.64,1.63-3.64,3.65v12.55h42.38v-12.55c0-2.01-1.63-3.65-3.64-3.65Z"/><path d="m75.29,101.75c-1.57-.9-3.38-1.43-5.33-1.43-5.89,0-10.67,4.78-10.67,10.67s4.78,10.67,10.67,10.67,10.67-4.77,10.67-10.67v-27.65h-5.34v18.41Z"/><path d="m112.32,83.35v18.41c-1.57-.9-3.38-1.43-5.32-1.43-5.89,0-10.67,4.78-10.67,10.67s4.77,10.67,10.67,10.67,10.67-4.77,10.67-10.67v-27.65h-5.34Z"/><path d="m114.03,67.15h-35.09c-2.01,0-3.64,1.63-3.64,3.65v12.55h42.38v-12.55c0-2.01-1.63-3.65-3.64-3.65Z"/><path d="m75.08,101.54c-1.57-.9-3.38-1.43-5.33-1.43-5.89,0-10.67,4.78-10.67,10.67s4.78,10.67,10.67,10.67,10.67-4.77,10.67-10.67v-27.64h-5.34v18.41Z"/><path d="m112.11,83.14v18.41c-1.57-.9-3.38-1.43-5.32-1.43-5.89,0-10.67,4.78-10.67,10.67s4.77,10.67,10.67,10.67,10.67-4.77,10.67-10.67v-27.64h-5.34Z"/><path d="m113.82,66.94h-35.09c-2.01,0-3.64,1.63-3.64,3.65v12.55h42.38v-12.55c0-2.01-1.63-3.65-3.64-3.65Z"/><path d="m74.87,101.33c-1.57-.9-3.38-1.43-5.33-1.43-5.89,0-10.67,4.77-10.67,10.67s4.78,10.67,10.67,10.67,10.67-4.77,10.67-10.67v-27.64h-5.34v18.41Z"/><path d="m111.9,82.92v18.41c-1.57-.9-3.38-1.43-5.32-1.43-5.89,0-10.67,4.77-10.67,10.67s4.77,10.67,10.67,10.67,10.67-4.77,10.67-10.67v-27.64h-5.34Z"/><path d="m113.6,66.73h-35.09c-2.01,0-3.64,1.63-3.64,3.65v12.55h42.38v-12.55c0-2.01-1.63-3.65-3.64-3.65Z"/><path d="m74.66,101.12c-1.57-.9-3.38-1.43-5.33-1.43-5.89,0-10.67,4.78-10.67,10.67s4.78,10.67,10.67,10.67,10.67-4.77,10.67-10.67v-27.64h-5.34v18.41Z"/><path d="m111.69,82.71v18.41c-1.57-.9-3.38-1.43-5.32-1.43-5.89,0-10.67,4.78-10.67,10.67s4.77,10.67,10.67,10.67,10.67-4.77,10.67-10.67v-27.64h-5.34Z"/><path d="m113.39,66.52h-35.09c-2.01,0-3.64,1.63-3.64,3.65v12.55h42.38v-12.55c0-2.01-1.63-3.65-3.64-3.65Z"/><path d="m74.44,100.91c-1.57-.9-3.38-1.43-5.33-1.43-5.89,0-10.67,4.78-10.67,10.67s4.78,10.67,10.67,10.67,10.67-4.77,10.67-10.67v-27.65h-5.34v18.41Z"/><path d="m111.48,82.5v18.41c-1.57-.9-3.38-1.43-5.32-1.43-5.89,0-10.67,4.78-10.67,10.67s4.78,10.67,10.67,10.67,10.67-4.77,10.67-10.67v-27.65h-5.34Z"/><path d="m113.18,66.31h-35.09c-2.01,0-3.64,1.63-3.64,3.65v12.55h42.38v-12.55c0-2.01-1.63-3.65-3.64-3.65Z"/><path d="m74.23,100.7c-1.57-.9-3.38-1.43-5.33-1.43-5.89,0-10.67,4.77-10.67,10.67s4.78,10.67,10.67,10.67,10.67-4.77,10.67-10.67v-27.65h-5.34v18.41Z"/><path d="m111.27,82.29v18.41c-1.57-.9-3.38-1.43-5.32-1.43-5.89,0-10.67,4.77-10.67,10.67s4.77,10.67,10.67,10.67,10.67-4.77,10.67-10.67v-27.65h-5.34Z"/><path d="m112.97,66.09h-35.09c-2.01,0-3.64,1.63-3.64,3.65v12.55h42.38v-12.55c0-2.01-1.63-3.65-3.64-3.65Z"/><path d="m74.02,100.48c-1.57-.9-3.38-1.43-5.33-1.43-5.89,0-10.67,4.78-10.67,10.67s4.78,10.67,10.67,10.67,10.67-4.77,10.67-10.67v-27.64h-5.34v18.41Z"/><path d="m111.05,82.08v18.41c-1.57-.9-3.38-1.43-5.32-1.43-5.89,0-10.67,4.78-10.67,10.67s4.78,10.67,10.67,10.67,10.67-4.77,10.67-10.67v-27.64h-5.34Z"/><path d="m112.76,65.88h-35.09c-2.01,0-3.64,1.63-3.64,3.65v12.55h42.38v-12.55c0-2.01-1.63-3.65-3.64-3.65Z"/><path d="m73.81,100.27c-1.57-.9-3.38-1.43-5.33-1.43-5.89,0-10.67,4.77-10.67,10.67s4.78,10.67,10.67,10.67,10.67-4.77,10.67-10.67v-27.64h-5.34v18.41Z"/><path d="m110.84,81.86v18.41c-1.57-.9-3.38-1.43-5.32-1.43-5.89,0-10.67,4.77-10.67,10.67s4.77,10.67,10.67,10.67,10.67-4.77,10.67-10.67v-27.64h-5.34Z"/><path d="m112.54,65.67h-35.09c-2.01,0-3.64,1.63-3.64,3.65v12.55h42.38v-12.55c0-2.01-1.63-3.65-3.64-3.65Z"/><path d="m73.6,100.06c-1.57-.9-3.38-1.43-5.33-1.43-5.89,0-10.67,4.77-10.67,10.67s4.78,10.67,10.67,10.67,10.67-4.77,10.67-10.67v-27.64h-5.34v18.41Z"/><path d="m110.63,81.65v18.41c-1.57-.9-3.38-1.43-5.32-1.43-5.89,0-10.67,4.77-10.67,10.67s4.77,10.67,10.67,10.67,10.67-4.77,10.67-10.67v-27.64h-5.34Z"/><path d="m112.33,65.46h-35.09c-2.01,0-3.64,1.63-3.64,3.65v12.55h42.38v-12.55c0-2.01-1.63-3.65-3.64-3.65Z"/><path d="m73.38,99.85c-1.57-.9-3.38-1.43-5.33-1.43-5.89,0-10.67,4.77-10.67,10.67s4.78,10.67,10.67,10.67,10.67-4.78,10.67-10.67v-27.64h-5.34v18.41Z"/><path d="m110.42,81.44v18.41c-1.57-.9-3.38-1.43-5.32-1.43-5.89,0-10.67,4.77-10.67,10.67s4.77,10.67,10.67,10.67,10.67-4.78,10.67-10.67v-27.64h-5.34Z"/><path d="m112.12,65.25h-35.09c-2.01,0-3.64,1.63-3.64,3.65v12.55h42.38v-12.55c0-2.01-1.63-3.65-3.64-3.65Z"/><path d="m73.17,99.64c-1.57-.9-3.38-1.43-5.33-1.43-5.89,0-10.67,4.77-10.67,10.67s4.78,10.67,10.67,10.67,10.67-4.78,10.67-10.67v-27.65h-5.34v18.41Z"/><path d="m110.21,81.23v18.41c-1.57-.9-3.38-1.43-5.32-1.43-5.89,0-10.67,4.77-10.67,10.67s4.78,10.67,10.67,10.67,10.67-4.78,10.67-10.67v-27.65h-5.34Z"/><path d="m111.91,65.04h-35.09c-2.01,0-3.64,1.63-3.64,3.65v12.55h42.38v-12.55c0-2.01-1.63-3.65-3.64-3.65Z"/><path d="m72.96,99.42c-1.57-.9-3.38-1.43-5.33-1.43-5.89,0-10.67,4.77-10.67,10.67s4.78,10.67,10.67,10.67,10.67-4.77,10.67-10.67v-27.65h-5.34v18.41Z"/><path d="m109.99,81.02v18.41c-1.57-.9-3.38-1.43-5.32-1.43-5.89,0-10.67,4.77-10.67,10.67s4.77,10.67,10.67,10.67,10.67-4.77,10.67-10.67v-27.65h-5.34Z"/><path d="m111.7,64.82h-35.09c-2.01,0-3.64,1.63-3.64,3.65v12.55h42.38v-12.55c0-2.01-1.63-3.65-3.64-3.65Z"/><path d="m72.75,99.21c-1.57-.9-3.38-1.43-5.33-1.43-5.89,0-10.67,4.77-10.67,10.67s4.78,10.67,10.67,10.67,10.67-4.77,10.67-10.67v-27.64h-5.34v18.41Z"/><path d="m109.78,80.81v18.41c-1.57-.9-3.38-1.43-5.32-1.43-5.89,0-10.67,4.77-10.67,10.67s4.78,10.67,10.67,10.67,10.67-4.77,10.67-10.67v-27.64h-5.34Z"/><path d="m111.48,64.61h-35.09c-2.01,0-3.64,1.63-3.64,3.65v12.55h42.38v-12.55c0-2.01-1.63-3.65-3.64-3.65Z"/><path d="m72.54,99c-1.57-.9-3.38-1.43-5.33-1.43-5.89,0-10.67,4.77-10.67,10.67s4.78,10.67,10.67,10.67,10.67-4.78,10.67-10.67v-27.65h-5.34v18.41Z"/><path d="m109.57,80.59v18.41c-1.57-.9-3.38-1.43-5.32-1.43-5.89,0-10.67,4.77-10.67,10.67s4.78,10.67,10.67,10.67,10.67-4.78,10.67-10.67v-27.65h-5.34Z"/><path d="m111.27,64.4h-35.1c-2.01,0-3.64,1.63-3.64,3.65v12.55h42.38v-12.55c0-2.01-1.63-3.65-3.64-3.65Z"/><path d="m72.32,98.79c-1.57-.9-3.38-1.43-5.33-1.43-5.89,0-10.67,4.77-10.67,10.67s4.78,10.67,10.67,10.67,10.67-4.78,10.67-10.67v-27.65h-5.34v18.41Z"/><path d="m109.36,80.38v18.41c-1.57-.9-3.38-1.43-5.32-1.43-5.89,0-10.67,4.77-10.67,10.67s4.77,10.67,10.67,10.67,10.67-4.78,10.67-10.67v-27.65h-5.34Z"/><path d="m111.06,64.19h-35.09c-2.01,0-3.64,1.63-3.64,3.65v12.55h42.38v-12.55c0-2.01-1.63-3.65-3.64-3.65Z"/><path d="m72.11,98.58c-1.57-.9-3.38-1.43-5.33-1.43-5.89,0-10.67,4.77-10.67,10.67s4.78,10.67,10.67,10.67,10.67-4.77,10.67-10.67v-27.65h-5.34v18.41Z"/><path d="m109.15,80.17v18.41c-1.57-.9-3.38-1.43-5.32-1.43-5.89,0-10.67,4.77-10.67,10.67s4.78,10.67,10.67,10.67,10.67-4.77,10.67-10.67v-27.65h-5.34Z"/><path d="m110.85,63.98h-35.1c-2.01,0-3.64,1.63-3.64,3.65v12.55h42.38v-12.55c0-2.01-1.63-3.65-3.64-3.65Z"/><path d="m71.9,98.36c-1.57-.9-3.38-1.43-5.33-1.43-5.89,0-10.67,4.77-10.67,10.67s4.78,10.67,10.67,10.67,10.67-4.77,10.67-10.67v-27.64h-5.34v18.41Z"/><path d="m108.93,79.96v18.41c-1.57-.9-3.38-1.43-5.32-1.43-5.89,0-10.67,4.77-10.67,10.67s4.77,10.67,10.67,10.67,10.67-4.77,10.67-10.67v-27.64h-5.34Z"/><path d="m110.64,63.76h-35.09c-2.01,0-3.64,1.63-3.64,3.65v12.55h42.38v-12.55c0-2.01-1.63-3.65-3.64-3.65Z"/><path d="m71.69,98.15c-1.57-.9-3.38-1.43-5.33-1.43-5.89,0-10.67,4.77-10.67,10.67s4.78,10.67,10.67,10.67,10.67-4.78,10.67-10.67v-27.65h-5.34v18.41Z"/><path d="m108.72,79.75v18.41c-1.57-.9-3.38-1.43-5.32-1.43-5.89,0-10.67,4.77-10.67,10.67s4.77,10.67,10.67,10.67,10.67-4.78,10.67-10.67v-27.65h-5.34Z"/><path d="m110.43,63.55h-35.09c-2.01,0-3.64,1.63-3.64,3.65v12.55h42.38v-12.55c0-2.01-1.63-3.65-3.64-3.65Z"/><path d="m71.48,97.94c-1.57-.9-3.38-1.43-5.33-1.43-5.89,0-10.67,4.77-10.67,10.67s4.78,10.67,10.67,10.67,10.67-4.77,10.67-10.67v-27.65h-5.34v18.41Z"/><path d="m108.51,79.53v18.41c-1.57-.9-3.38-1.43-5.32-1.43-5.89,0-10.67,4.77-10.67,10.67s4.77,10.67,10.67,10.67,10.67-4.77,10.67-10.67v-27.65h-5.34Z"/><path d="m110.21,63.34h-35.09c-2.01,0-3.64,1.63-3.64,3.65v12.55h42.38v-12.55c0-2.01-1.63-3.65-3.64-3.65Z"/><path d="m71.27,97.73c-1.57-.9-3.38-1.43-5.33-1.43-5.89,0-10.67,4.78-10.67,10.67s4.78,10.67,10.67,10.67,10.67-4.77,10.67-10.67v-27.64h-5.34v18.41Z"/><path d="m108.3,79.32v18.41c-1.57-.9-3.38-1.43-5.32-1.43-5.89,0-10.67,4.78-10.67,10.67s4.77,10.67,10.67,10.67,10.67-4.77,10.67-10.67v-27.64h-5.34Z"/><path d="m110,63.13h-35.09c-2.01,0-3.64,1.63-3.64,3.65v12.55h42.38v-12.55c0-2.01-1.63-3.65-3.64-3.65Z"/><path d="m71.05,97.52c-1.57-.9-3.38-1.43-5.33-1.43-5.89,0-10.67,4.78-10.67,10.67s4.78,10.67,10.67,10.67,10.67-4.77,10.67-10.67v-27.64h-5.34v18.41Z"/><path d="m108.09,79.11v18.41c-1.57-.9-3.38-1.43-5.32-1.43-5.89,0-10.67,4.78-10.67,10.67s4.77,10.67,10.67,10.67,10.67-4.77,10.67-10.67v-27.64h-5.34Z"/><path d="m109.79,62.92h-35.1c-2.01,0-3.64,1.63-3.64,3.65v12.55h42.38v-12.55c0-2.01-1.63-3.65-3.64-3.65Z"/><path d="m70.84,97.31c-1.57-.9-3.38-1.43-5.33-1.43-5.89,0-10.67,4.78-10.67,10.67s4.78,10.67,10.67,10.67,10.67-4.77,10.67-10.67v-27.65h-5.34v18.41Z"/><path d="m107.88,78.9v18.41c-1.57-.9-3.38-1.43-5.32-1.43-5.89,0-10.67,4.78-10.67,10.67s4.77,10.67,10.67,10.67,10.67-4.77,10.67-10.67v-27.65h-5.34Z"/><path d="m109.58,62.7h-35.09c-2.01,0-3.64,1.63-3.64,3.65v12.55h42.38v-12.55c0-2.01-1.63-3.65-3.64-3.65Z"/><path d="m70.63,97.09c-1.57-.9-3.38-1.43-5.33-1.43-5.89,0-10.67,4.78-10.67,10.67s4.78,10.67,10.67,10.67,10.67-4.77,10.67-10.67v-27.64h-5.34v18.41Z"/><path d="m107.66,78.69v18.41c-1.57-.9-3.38-1.43-5.32-1.43-5.89,0-10.67,4.78-10.67,10.67s4.77,10.67,10.67,10.67,10.67-4.77,10.67-10.67v-27.64h-5.34Z"/><path d="m109.37,62.49h-35.1c-2.01,0-3.64,1.63-3.64,3.65v12.55h42.38v-12.55c0-2.01-1.63-3.65-3.64-3.65Z"/><path d="m70.42,96.88c-1.57-.9-3.38-1.43-5.33-1.43-5.89,0-10.67,4.77-10.67,10.67s4.78,10.67,10.67,10.67,10.67-4.77,10.67-10.67v-27.64h-5.34v18.41Z"/><path d="m107.45,78.48v18.41c-1.57-.9-3.38-1.43-5.32-1.43-5.89,0-10.67,4.77-10.67,10.67s4.77,10.67,10.67,10.67,10.67-4.77,10.67-10.67v-27.64h-5.34Z"/><path d="m109.15,62.28h-35.09c-2.01,0-3.64,1.63-3.64,3.65v12.55h42.38v-12.55c0-2.01-1.63-3.65-3.64-3.65Z"/><path d="m70.21,96.67c-1.57-.9-3.38-1.43-5.33-1.43-5.89,0-10.67,4.78-10.67,10.67s4.78,10.67,10.67,10.67,10.67-4.77,10.67-10.67v-27.64h-5.34v18.41Z"/><path d="m107.24,78.26v18.41c-1.57-.9-3.38-1.43-5.32-1.43-5.89,0-10.67,4.78-10.67,10.67s4.77,10.67,10.67,10.67,10.67-4.77,10.67-10.67v-27.64h-5.34Z"/><path d="m108.94,62.07h-35.09c-2.01,0-3.64,1.63-3.64,3.65v12.55h42.38v-12.55c0-2.01-1.63-3.65-3.64-3.65Z"/><path d="m69.99,96.46c-1.57-.9-3.38-1.43-5.33-1.43-5.89,0-10.67,4.77-10.67,10.67s4.78,10.67,10.67,10.67,10.67-4.77,10.67-10.67v-27.64h-5.34v18.41Z"/><path d="m107.03,78.05v18.41c-1.57-.9-3.38-1.43-5.32-1.43-5.89,0-10.67,4.77-10.67,10.67s4.77,10.67,10.67,10.67,10.67-4.77,10.67-10.67v-27.64h-5.34Z"/><path d="m108.73,61.86h-35.09c-2.01,0-3.64,1.63-3.64,3.65v12.55h42.38v-12.55c0-2.01-1.63-3.65-3.64-3.65Z"/><path d="m69.78,96.25c-1.57-.9-3.38-1.43-5.33-1.43-5.89,0-10.67,4.77-10.67,10.67s4.78,10.67,10.67,10.67,10.67-4.77,10.67-10.67v-27.64h-5.34v18.41Z"/><path d="m106.82,77.84v18.41c-1.57-.9-3.38-1.43-5.32-1.43-5.89,0-10.67,4.77-10.67,10.67s4.77,10.67,10.67,10.67,10.67-4.77,10.67-10.67v-27.64h-5.34Z"/><path d="m108.52,61.65h-35.09c-2.01,0-3.64,1.63-3.64,3.65v12.55h42.38v-12.55c0-2.01-1.63-3.65-3.64-3.65Z"/><path d="m69.57,96.03c-1.57-.9-3.38-1.43-5.33-1.43-5.89,0-10.67,4.78-10.67,10.67s4.78,10.67,10.67,10.67,10.67-4.77,10.67-10.67v-27.65h-5.34v18.41Z"/><path d="m106.6,77.63v18.41c-1.57-.9-3.38-1.43-5.32-1.43-5.89,0-10.67,4.78-10.67,10.67s4.77,10.67,10.67,10.67,10.67-4.77,10.67-10.67v-27.65h-5.34Z"/><path d="m108.31,61.43h-35.09c-2.01,0-3.64,1.63-3.64,3.65v12.55h42.38v-12.55c0-2.01-1.63-3.65-3.64-3.65Z"/><path d="m69.36,95.82c-1.57-.9-3.38-1.43-5.33-1.43-5.89,0-10.67,4.77-10.67,10.67s4.78,10.67,10.67,10.67,10.67-4.77,10.67-10.67v-27.65h-5.34v18.41Z"/><path d="m106.39,77.42v18.41c-1.57-.9-3.38-1.43-5.32-1.43-5.89,0-10.67,4.77-10.67,10.67s4.78,10.67,10.67,10.67,10.67-4.77,10.67-10.67v-27.65h-5.34Z"/><path d="m108.1,61.22h-35.09c-2.01,0-3.64,1.63-3.64,3.65v12.55h42.38v-12.55c0-2.01-1.63-3.65-3.64-3.65Z"/><path d="m69.15,95.61c-1.57-.9-3.38-1.43-5.33-1.43-5.89,0-10.67,4.77-10.67,10.67s4.78,10.67,10.67,10.67,10.67-4.78,10.67-10.67v-27.64h-5.34v18.41Z"/><path d="m106.18,77.2v18.41c-1.57-.9-3.38-1.43-5.32-1.43-5.89,0-10.67,4.77-10.67,10.67s4.77,10.67,10.67,10.67,10.67-4.78,10.67-10.67v-27.64h-5.34Z"/><path d="m107.88,61.01h-35.09c-2.01,0-3.64,1.63-3.64,3.65v12.55h42.38v-12.55c0-2.01-1.63-3.65-3.64-3.65Z"/><path d="m68.93,95.4c-1.57-.9-3.38-1.43-5.33-1.43-5.89,0-10.67,4.77-10.67,10.67s4.78,10.67,10.67,10.67,10.67-4.78,10.67-10.67v-27.64h-5.34v18.41Z"/><path d="m105.97,76.99v18.41c-1.57-.9-3.38-1.43-5.32-1.43-5.89,0-10.67,4.77-10.67,10.67s4.77,10.67,10.67,10.67,10.67-4.78,10.67-10.67v-27.64h-5.34Z"/><path d="m107.67,60.8h-35.09c-2.01,0-3.64,1.63-3.64,3.65v12.55h42.38v-12.55c0-2.01-1.63-3.65-3.64-3.65Z"/><path d="m68.72,95.19c-1.57-.9-3.38-1.43-5.33-1.43-5.89,0-10.67,4.77-10.67,10.67s4.78,10.67,10.67,10.67,10.67-4.77,10.67-10.67v-27.65h-5.34v18.41Z"/><path d="m105.76,76.78v18.41c-1.57-.9-3.38-1.43-5.32-1.43-5.89,0-10.67,4.77-10.67,10.67s4.78,10.67,10.67,10.67,10.67-4.77,10.67-10.67v-27.65h-5.34Z"/><path d="m107.46,60.59h-35.09c-2.01,0-3.64,1.63-3.64,3.65v12.55h42.38v-12.55c0-2.01-1.63-3.65-3.64-3.65Z"/><path d="m68.51,94.98c-1.57-.9-3.38-1.43-5.33-1.43-5.89,0-10.67,4.77-10.67,10.67s4.78,10.67,10.67,10.67,10.67-4.78,10.67-10.67v-27.65h-5.34v18.41Z"/><path d="m105.55,76.57v18.41c-1.57-.9-3.38-1.43-5.32-1.43-5.89,0-10.67,4.77-10.67,10.67s4.77,10.67,10.67,10.67,10.67-4.78,10.67-10.67v-27.65h-5.34Z"/><path d="m107.25,60.37h-35.09c-2.01,0-3.64,1.63-3.64,3.65v12.55h42.38v-12.55c0-2.01-1.63-3.65-3.64-3.65Z"/><path d="m68.3,94.76c-1.57-.9-3.38-1.43-5.33-1.43-5.89,0-10.67,4.77-10.67,10.67s4.78,10.67,10.67,10.67,10.67-4.78,10.67-10.67v-27.65h-5.34v18.41Z"/><path d="m105.33,76.36v18.41c-1.57-.9-3.38-1.43-5.32-1.43-5.89,0-10.67,4.77-10.67,10.67s4.78,10.67,10.67,10.67,10.67-4.78,10.67-10.67v-27.65h-5.34Z"/><path d="m107.04,60.16h-35.09c-2.01,0-3.64,1.63-3.64,3.65v12.55h42.38v-12.55c0-2.01-1.63-3.65-3.64-3.65Z"/><path d="m68.09,94.55c-1.57-.9-3.38-1.43-5.33-1.43-5.89,0-10.67,4.77-10.67,10.67s4.78,10.67,10.67,10.67,10.67-4.77,10.67-10.67v-27.64h-5.34v18.41Z"/><path d="m105.12,76.14v18.41c-1.57-.9-3.38-1.43-5.32-1.43-5.89,0-10.67,4.77-10.67,10.67s4.78,10.67,10.67,10.67,10.67-4.77,10.67-10.67v-27.64h-5.34Z"/><path d="m106.82,59.95h-35.09c-2.01,0-3.64,1.63-3.64,3.65v12.55h42.38v-12.55c0-2.01-1.63-3.65-3.64-3.65Z"/><path d="m67.88,94.34c-1.57-.9-3.38-1.43-5.33-1.43-5.89,0-10.67,4.77-10.67,10.67s4.78,10.67,10.67,10.67,10.67-4.77,10.67-10.67v-27.65h-5.34v18.41Z"/><path d="m104.91,75.93v18.41c-1.57-.9-3.38-1.43-5.32-1.43-5.89,0-10.67,4.77-10.67,10.67s4.78,10.67,10.67,10.67,10.67-4.77,10.67-10.67v-27.65h-5.34Z"/><path d="m106.61,59.74h-35.09c-2.01,0-3.64,1.63-3.64,3.65v12.55h42.38v-12.55c0-2.01-1.63-3.65-3.64-3.65Z"/><path d="m67.66,94.13c-1.57-.9-3.38-1.43-5.33-1.43-5.89,0-10.67,4.77-10.67,10.67s4.78,10.67,10.67,10.67,10.67-4.78,10.67-10.67v-27.65h-5.34v18.41Z"/><path d="m104.7,75.72v18.41c-1.57-.9-3.38-1.43-5.32-1.43-5.89,0-10.67,4.77-10.67,10.67s4.77,10.67,10.67,10.67,10.67-4.78,10.67-10.67v-27.65h-5.34Z"/><path d="m106.4,59.53h-35.09c-2.01,0-3.64,1.63-3.64,3.65v12.55h42.38v-12.55c0-2.01-1.63-3.65-3.64-3.65Z"/><path d="m67.45,93.92c-1.57-.9-3.38-1.43-5.33-1.43-5.89,0-10.67,4.77-10.67,10.67s4.78,10.67,10.67,10.67,10.67-4.77,10.67-10.67v-27.65h-5.34v18.41Z"/><path d="m104.49,75.51v18.41c-1.57-.9-3.38-1.43-5.32-1.43-5.89,0-10.67,4.77-10.67,10.67s4.77,10.67,10.67,10.67,10.67-4.77,10.67-10.67v-27.65h-5.34Z"/><path d="m106.19,59.31h-35.09c-2.01,0-3.64,1.63-3.64,3.65v12.55h42.38v-12.55c0-2.01-1.63-3.65-3.64-3.65Z"/><path d="m67.24,93.7c-1.57-.9-3.38-1.43-5.33-1.43-5.89,0-10.67,4.77-10.67,10.67s4.78,10.67,10.67,10.67,10.67-4.77,10.67-10.67v-27.64h-5.34v18.41Z"/><path d="m104.27,75.3v18.41c-1.57-.9-3.38-1.43-5.32-1.43-5.89,0-10.67,4.77-10.67,10.67s4.77,10.67,10.67,10.67,10.67-4.77,10.67-10.67v-27.64h-5.34Z"/><path d="m105.98,59.1h-35.09c-2.01,0-3.64,1.63-3.64,3.65v12.55h42.38v-12.55c0-2.01-1.63-3.65-3.64-3.65Z"/><path d="m67.03,93.49c-1.57-.9-3.38-1.43-5.33-1.43-5.89,0-10.67,4.78-10.67,10.67s4.78,10.67,10.67,10.67,10.67-4.78,10.67-10.67v-27.65h-5.34v18.41Z"/><path d="m104.06,75.08v18.41c-1.57-.9-3.38-1.43-5.32-1.43-5.89,0-10.67,4.78-10.67,10.67s4.77,10.67,10.67,10.67,10.67-4.78,10.67-10.67v-27.65h-5.34Z"/><path d="m105.76,58.89h-35.09c-2.01,0-3.64,1.63-3.64,3.65v12.55h42.38v-12.55c0-2.01-1.63-3.65-3.64-3.65Z"/><path d="m66.82,93.28c-1.57-.9-3.38-1.43-5.33-1.43-5.89,0-10.67,4.78-10.67,10.67s4.78,10.67,10.67,10.67,10.67-4.77,10.67-10.67v-27.64h-5.34v18.41Z"/><path d="m103.85,74.87v18.41c-1.57-.9-3.38-1.43-5.32-1.43-5.89,0-10.67,4.78-10.67,10.67s4.77,10.67,10.67,10.67,10.67-4.77,10.67-10.67v-27.64h-5.34Z"/><path d="m105.55,58.68h-35.1c-2.01,0-3.64,1.63-3.64,3.65v12.55h42.38v-12.55c0-2.01-1.63-3.65-3.64-3.65Z"/><path d="m66.6,93.07c-1.57-.9-3.38-1.43-5.33-1.43-5.89,0-10.67,4.77-10.67,10.67s4.78,10.67,10.67,10.67,10.67-4.77,10.67-10.67v-27.64h-5.34v18.41Z"/><path d="m103.64,74.66v18.41c-1.57-.9-3.38-1.43-5.32-1.43-5.89,0-10.67,4.77-10.67,10.67s4.77,10.67,10.67,10.67,10.67-4.77,10.67-10.67v-27.64h-5.34Z"/><path d="m105.34,58.47h-35.09c-2.01,0-3.64,1.63-3.64,3.65v12.55h42.38v-12.55c0-2.01-1.63-3.65-3.64-3.65Z"/><path d="m66.39,92.86c-1.57-.9-3.38-1.43-5.33-1.43-5.89,0-10.67,4.78-10.67,10.67s4.78,10.67,10.67,10.67,10.67-4.77,10.67-10.67v-27.64h-5.34v18.41Z"/><path d="m103.43,74.45v18.41c-1.57-.9-3.38-1.43-5.32-1.43-5.89,0-10.67,4.78-10.67,10.67s4.77,10.67,10.67,10.67,10.67-4.77,10.67-10.67v-27.64h-5.34Z"/><path d="m105.13,58.26h-35.09c-2.01,0-3.64,1.63-3.64,3.65v12.55h42.38v-12.55c0-2.01-1.63-3.65-3.64-3.65Z"/><path d="m66.18,92.64c-1.57-.9-3.38-1.43-5.33-1.43-5.89,0-10.67,4.78-10.67,10.67s4.78,10.67,10.67,10.67,10.67-4.77,10.67-10.67v-27.65h-5.34v18.41Z"/><path d="m103.21,74.24v18.41c-1.57-.9-3.38-1.43-5.32-1.43-5.89,0-10.67,4.78-10.67,10.67s4.78,10.67,10.67,10.67,10.67-4.77,10.67-10.67v-27.65h-5.34Z"/><path d="m104.92,58.04h-35.09c-2.01,0-3.64,1.63-3.64,3.65v12.55h42.38v-12.55c0-2.01-1.63-3.65-3.64-3.65Z"/><path d="m65.97,92.43c-1.57-.9-3.38-1.43-5.33-1.43-5.89,0-10.67,4.77-10.67,10.67s4.78,10.67,10.67,10.67,10.67-4.77,10.67-10.67v-27.65h-5.34v18.41Z"/><path d="m103,74.03v18.41c-1.57-.9-3.38-1.43-5.32-1.43-5.89,0-10.67,4.77-10.67,10.67s4.77,10.67,10.67,10.67,10.67-4.77,10.67-10.67v-27.65h-5.34Z"/><path d="m104.71,57.83h-35.09c-2.01,0-3.64,1.63-3.64,3.65v12.55h42.38v-12.55c0-2.01-1.63-3.65-3.64-3.65Z"/><path d="m65.76,92.22c-1.57-.9-3.38-1.43-5.33-1.43-5.89,0-10.67,4.78-10.67,10.67s4.78,10.67,10.67,10.67,10.67-4.77,10.67-10.67v-27.64h-5.34v18.41Z"/><path d="m102.79,73.81v18.41c-1.57-.9-3.38-1.43-5.32-1.43-5.89,0-10.67,4.78-10.67,10.67s4.77,10.67,10.67,10.67,10.67-4.77,10.67-10.67v-27.64h-5.34Z"/><path d="m104.49,57.62h-35.09c-2.01,0-3.64,1.63-3.64,3.65v12.55h42.38v-12.55c0-2.01-1.63-3.65-3.64-3.65Z"/><path d="m65.55,92.01c-1.57-.9-3.38-1.43-5.33-1.43-5.89,0-10.67,4.77-10.67,10.67s4.78,10.67,10.67,10.67,10.67-4.77,10.67-10.67v-27.64h-5.34v18.41Z"/><path d="m102.58,73.6v18.41c-1.57-.9-3.38-1.43-5.32-1.43-5.89,0-10.67,4.77-10.67,10.67s4.77,10.67,10.67,10.67,10.67-4.77,10.67-10.67v-27.64h-5.34Z"/><path d="m104.28,57.41h-35.09c-2.01,0-3.64,1.63-3.64,3.65v12.55h42.38v-12.55c0-2.01-1.63-3.65-3.64-3.65Z"/><path d="m65.33,91.8c-1.57-.9-3.38-1.43-5.33-1.43-5.89,0-10.67,4.77-10.67,10.67s4.78,10.67,10.67,10.67,10.67-4.77,10.67-10.67v-27.64h-5.34v18.41Z"/><path d="m102.37,73.39v18.41c-1.57-.9-3.38-1.43-5.32-1.43-5.89,0-10.67,4.77-10.67,10.67s4.77,10.67,10.67,10.67,10.67-4.77,10.67-10.67v-27.64h-5.34Z"/><path d="m104.07,57.2h-35.09c-2.01,0-3.64,1.63-3.64,3.65v12.55h42.38v-12.55c0-2.01-1.63-3.65-3.64-3.65Z"/><path d="m65.12,91.59c-1.57-.9-3.38-1.43-5.33-1.43-5.89,0-10.67,4.77-10.67,10.67s4.78,10.67,10.67,10.67,10.67-4.77,10.67-10.67v-27.65h-5.34v18.41Z"/><path d="m102.16,73.18v18.41c-1.57-.9-3.38-1.43-5.32-1.43-5.89,0-10.67,4.77-10.67,10.67s4.77,10.67,10.67,10.67,10.67-4.77,10.67-10.67v-27.65h-5.34Z"/><path d="m103.86,56.98h-35.09c-2.01,0-3.64,1.63-3.64,3.65v12.55h42.38v-12.55c0-2.01-1.63-3.65-3.64-3.65Z"/><path d="m64.91,91.37c-1.57-.9-3.38-1.43-5.33-1.43-5.89,0-10.67,4.77-10.67,10.67s4.78,10.67,10.67,10.67,10.67-4.78,10.67-10.67v-27.65h-5.34v18.41Z"/><path d="m101.94,72.97v18.41c-1.57-.9-3.38-1.43-5.32-1.43-5.89,0-10.67,4.77-10.67,10.67s4.78,10.67,10.67,10.67,10.67-4.78,10.67-10.67v-27.65h-5.34Z"/><path d="m103.65,56.77h-35.09c-2.01,0-3.64,1.63-3.64,3.65v12.55h42.38v-12.55c0-2.01-1.63-3.65-3.64-3.65Z"/><path d="m64.7,91.16c-1.57-.9-3.38-1.43-5.33-1.43-5.89,0-10.67,4.77-10.67,10.67s4.78,10.67,10.67,10.67,10.67-4.78,10.67-10.67v-27.65h-5.34v18.41Z"/><path d="m101.73,72.75v18.41c-1.57-.9-3.38-1.43-5.32-1.43-5.89,0-10.67,4.77-10.67,10.67s4.77,10.67,10.67,10.67,10.67-4.78,10.67-10.67v-27.65h-5.34Z"/><path d="m103.43,56.56h-35.09c-2.01,0-3.64,1.63-3.64,3.65v12.55h42.38v-12.55c0-2.01-1.63-3.65-3.64-3.65Z"/><path d="m64.49,90.95c-1.57-.9-3.38-1.43-5.33-1.43-5.89,0-10.67,4.77-10.67,10.67s4.78,10.67,10.67,10.67,10.67-4.77,10.67-10.67v-27.65h-5.34v18.41Z"/><path d="m101.52,72.54v18.41c-1.57-.9-3.38-1.43-5.32-1.43-5.89,0-10.67,4.77-10.67,10.67s4.78,10.67,10.67,10.67,10.67-4.77,10.67-10.67v-27.65h-5.34Z"/><path d="m103.22,56.35h-35.09c-2.01,0-3.64,1.63-3.64,3.65v12.55h42.38v-12.55c0-2.01-1.63-3.65-3.64-3.65Z"/><path d="m64.27,90.74c-1.57-.9-3.38-1.43-5.33-1.43-5.89,0-10.67,4.77-10.67,10.67s4.78,10.67,10.67,10.67,10.67-4.78,10.67-10.67v-27.65h-5.34v18.41Z"/><path d="m101.31,72.33v18.41c-1.57-.9-3.38-1.43-5.32-1.43-5.89,0-10.67,4.77-10.67,10.67s4.78,10.67,10.67,10.67,10.67-4.78,10.67-10.67v-27.65h-5.34Z"/><path d="m103.01,56.14h-35.09c-2.01,0-3.64,1.63-3.64,3.65v12.55h42.38v-12.55c0-2.01-1.63-3.65-3.64-3.65Z"/><path d="m64.06,90.53c-1.57-.9-3.38-1.43-5.33-1.43-5.89,0-10.67,4.77-10.67,10.67s4.78,10.67,10.67,10.67,10.67-4.78,10.67-10.67v-27.64h-5.34v18.41Z"/><path d="m101.1,72.12v18.41c-1.57-.9-3.38-1.43-5.32-1.43-5.89,0-10.67,4.77-10.67,10.67s4.77,10.67,10.67,10.67,10.67-4.78,10.67-10.67v-27.64h-5.34Z"/><path d="m102.8,55.93h-35.09c-2.01,0-3.64,1.63-3.64,3.65v12.55h42.38v-12.55c0-2.01-1.63-3.65-3.64-3.65Z"/><path d="m63.85,90.31c-1.57-.9-3.38-1.43-5.33-1.43-5.89,0-10.67,4.77-10.67,10.67s4.78,10.67,10.67,10.67,10.67-4.77,10.67-10.67v-27.65h-5.34v18.41Z"/><path d="m100.88,71.91v18.41c-1.57-.9-3.38-1.43-5.32-1.43-5.89,0-10.67,4.77-10.67,10.67s4.78,10.67,10.67,10.67,10.67-4.77,10.67-10.67v-27.65h-5.34Z"/><path d="m102.59,55.71h-35.09c-2.01,0-3.64,1.63-3.64,3.65v12.55h42.38v-12.55c0-2.01-1.63-3.65-3.64-3.65Z"/><path d="m63.64,90.1c-1.57-.9-3.38-1.43-5.33-1.43-5.89,0-10.67,4.77-10.67,10.67s4.78,10.67,10.67,10.67,10.67-4.78,10.67-10.67v-27.65h-5.34v18.41Z"/><path d="m100.67,71.7v18.41c-1.57-.9-3.38-1.43-5.32-1.43-5.89,0-10.67,4.77-10.67,10.67s4.77,10.67,10.67,10.67,10.67-4.78,10.67-10.67v-27.65h-5.34Z"/><path d="m102.38,55.5h-35.1c-2.01,0-3.64,1.63-3.64,3.65v12.55h42.38v-12.55c0-2.01-1.63-3.65-3.64-3.65Z"/><path d="m63.43,89.89c-1.57-.9-3.38-1.43-5.33-1.43-5.89,0-10.67,4.77-10.67,10.67s4.78,10.67,10.67,10.67,10.67-4.77,10.67-10.67v-27.64h-5.34v18.41Z"/><path d="m100.46,71.48v18.41c-1.57-.9-3.38-1.43-5.32-1.43-5.89,0-10.67,4.77-10.67,10.67s4.77,10.67,10.67,10.67,10.67-4.77,10.67-10.67v-27.64h-5.34Z"/><path d="m102.16,55.29h-35.1c-2.01,0-3.64,1.63-3.64,3.65v12.55h42.38v-12.55c0-2.01-1.63-3.65-3.64-3.65Z"/><path d="m63.21,89.68c-1.57-.9-3.38-1.43-5.33-1.43-5.89,0-10.67,4.77-10.67,10.67s4.78,10.67,10.67,10.67,10.67-4.77,10.67-10.67v-27.65h-5.34v18.41Z"/><path d="m100.25,71.27v18.41c-1.57-.9-3.38-1.43-5.32-1.43-5.89,0-10.67,4.77-10.67,10.67s4.77,10.67,10.67,10.67,10.67-4.77,10.67-10.67v-27.65h-5.34Z"/><path d="m101.95,55.08h-35.09c-2.01,0-3.64,1.63-3.64,3.65v12.55h42.38v-12.55c0-2.01-1.63-3.65-3.64-3.65Z"/><path d="m63,89.47c-1.57-.9-3.38-1.43-5.33-1.43-5.89,0-10.67,4.77-10.67,10.67s4.78,10.67,10.67,10.67,10.67-4.77,10.67-10.67v-27.65h-5.34v18.41Z"/><path d="m100.04,71.06v18.41c-1.57-.9-3.38-1.43-5.32-1.43-5.89,0-10.67,4.77-10.67,10.67s4.77,10.67,10.67,10.67,10.67-4.77,10.67-10.67v-27.65h-5.34Z"/><path d="m101.74,54.87h-35.09c-2.01,0-3.64,1.63-3.64,3.65v12.55h42.38v-12.55c0-2.01-1.63-3.65-3.64-3.65Z"/><path d="m62.79,89.25c-1.57-.9-3.38-1.43-5.33-1.43-5.89,0-10.67,4.78-10.67,10.67s4.78,10.67,10.67,10.67,10.67-4.77,10.67-10.67v-27.64h-5.34v18.41Z"/><path d="m99.82,70.85v18.41c-1.57-.9-3.38-1.43-5.32-1.43-5.89,0-10.67,4.78-10.67,10.67s4.77,10.67,10.67,10.67,10.67-4.77,10.67-10.67v-27.64h-5.34Z"/><path d="m101.53,54.65h-35.09c-2.01,0-3.64,1.63-3.64,3.65v12.55h42.38v-12.55c0-2.01-1.63-3.65-3.64-3.65Z"/><path d="m62.58,89.04c-1.57-.9-3.38-1.43-5.33-1.43-5.89,0-10.67,4.78-10.67,10.67s4.78,10.67,10.67,10.67,10.67-4.77,10.67-10.67v-27.64h-5.34v18.41Z"/><path d="m99.61,70.64v18.41c-1.57-.9-3.38-1.43-5.32-1.43-5.89,0-10.67,4.78-10.67,10.67s4.77,10.67,10.67,10.67,10.67-4.77,10.67-10.67v-27.64h-5.34Z"/><path d="m101.32,54.44h-35.09c-2.01,0-3.64,1.63-3.64,3.65v12.55h42.38v-12.55c0-2.01-1.63-3.65-3.64-3.65Z"/><path d="m62.37,88.83c-1.57-.9-3.38-1.43-5.33-1.43-5.89,0-10.67,4.78-10.67,10.67s4.78,10.67,10.67,10.67,10.67-4.77,10.67-10.67v-27.64h-5.34v18.41Z"/><path d="m99.4,70.42v18.41c-1.57-.9-3.38-1.43-5.32-1.43-5.89,0-10.67,4.78-10.67,10.67s4.77,10.67,10.67,10.67,10.67-4.77,10.67-10.67v-27.64h-5.34Z"/><path d="m101.1,54.23h-35.09c-2.01,0-3.64,1.63-3.64,3.65v12.55h42.38v-12.55c0-2.01-1.63-3.65-3.64-3.65Z"/><path d="m62.16,88.62c-1.57-.9-3.38-1.43-5.33-1.43-5.89,0-10.67,4.78-10.67,10.67s4.78,10.67,10.67,10.67,10.67-4.78,10.67-10.67v-27.64h-5.34v18.41Z"/><path d="m99.19,70.21v18.41c-1.57-.9-3.38-1.43-5.32-1.43-5.89,0-10.67,4.78-10.67,10.67s4.77,10.67,10.67,10.67,10.67-4.78,10.67-10.67v-27.64h-5.34Z"/><path d="m100.89,54.02h-35.09c-2.01,0-3.64,1.63-3.64,3.65v12.55h42.38v-12.55c0-2.01-1.63-3.65-3.64-3.65Z"/><path d="m61.94,88.41c-1.57-.9-3.38-1.43-5.33-1.43-5.89,0-10.67,4.78-10.67,10.67s4.78,10.67,10.67,10.67,10.67-4.77,10.67-10.67v-27.64h-5.34v18.41Z"/><path d="m98.98,70v18.41c-1.57-.9-3.38-1.43-5.32-1.43-5.89,0-10.67,4.78-10.67,10.67s4.77,10.67,10.67,10.67,10.67-4.77,10.67-10.67v-27.64h-5.34Z"/><path d="m100.68,53.81h-35.09c-2.01,0-3.64,1.63-3.64,3.65v12.55h42.38v-12.55c0-2.01-1.63-3.65-3.64-3.65Z"/><path d="m61.73,88.19c-1.57-.9-3.38-1.43-5.33-1.43-5.89,0-10.67,4.77-10.67,10.67s4.78,10.67,10.67,10.67,10.67-4.77,10.67-10.67v-27.65h-5.34v18.41Z"/><path d="m98.77,69.79v18.41c-1.57-.9-3.38-1.43-5.32-1.43-5.89,0-10.67,4.77-10.67,10.67s4.78,10.67,10.67,10.67,10.67-4.77,10.67-10.67v-27.65h-5.34Z"/><path d="m100.47,53.59h-35.09c-2.01,0-3.64,1.63-3.64,3.65v12.55h42.38v-12.55c0-2.01-1.63-3.65-3.64-3.65Z"/><path d="m61.52,87.98c-1.57-.9-3.38-1.43-5.33-1.43-5.89,0-10.67,4.78-10.67,10.67s4.78,10.67,10.67,10.67,10.67-4.78,10.67-10.67v-27.64h-5.34v18.41Z"/><path d="m98.55,69.58v18.41c-1.57-.9-3.38-1.43-5.32-1.43-5.89,0-10.67,4.78-10.67,10.67s4.77,10.67,10.67,10.67,10.67-4.78,10.67-10.67v-27.64h-5.34Z"/><path d="m100.26,53.38h-35.09c-2.01,0-3.64,1.63-3.64,3.65v12.55h42.38v-12.55c0-2.01-1.63-3.65-3.64-3.65Z"/><path d="m61.31,87.77c-1.57-.9-3.38-1.43-5.33-1.43-5.89,0-10.67,4.77-10.67,10.67s4.78,10.67,10.67,10.67,10.67-4.77,10.67-10.67v-27.65h-5.34v18.41Z"/><path d="m98.34,69.36v18.41c-1.57-.9-3.38-1.43-5.32-1.43-5.89,0-10.67,4.77-10.67,10.67s4.77,10.67,10.67,10.67,10.67-4.77,10.67-10.67v-27.65h-5.34Z"/><path d="m100.04,53.17h-35.09c-2.01,0-3.64,1.63-3.64,3.65v12.55h42.38v-12.55c0-2.01-1.63-3.65-3.64-3.65Z"/><path d="m61.1,87.56c-1.57-.9-3.38-1.43-5.33-1.43-5.89,0-10.67,4.77-10.67,10.67s4.78,10.67,10.67,10.67,10.67-4.77,10.67-10.67v-27.64h-5.34v18.41Z"/><path d="m98.13,69.15v18.41c-1.57-.9-3.38-1.43-5.32-1.43-5.89,0-10.67,4.77-10.67,10.67s4.77,10.67,10.67,10.67,10.67-4.77,10.67-10.67v-27.64h-5.34Z"/><path d="m99.83,52.96h-35.09c-2.01,0-3.64,1.63-3.64,3.65v12.55h42.38v-12.55c0-2.01-1.63-3.65-3.64-3.65Z"/><path d="m60.88,87.35c-1.57-.9-3.38-1.43-5.33-1.43-5.89,0-10.67,4.77-10.67,10.67s4.78,10.67,10.67,10.67,10.67-4.77,10.67-10.67v-27.64h-5.34v18.41Z"/><path d="m97.92,68.94v18.41c-1.57-.9-3.38-1.43-5.32-1.43-5.89,0-10.67,4.77-10.67,10.67s4.77,10.67,10.67,10.67,10.67-4.77,10.67-10.67v-27.64h-5.34Z"/><path d="m99.62,52.75h-35.09c-2.01,0-3.64,1.63-3.64,3.65v12.55h42.38v-12.55c0-2.01-1.63-3.65-3.64-3.65Z"/><path d="m60.67,87.14c-1.57-.9-3.38-1.43-5.33-1.43-5.89,0-10.67,4.77-10.67,10.67s4.78,10.67,10.67,10.67,10.67-4.77,10.67-10.67v-27.65h-5.34v18.41Z"/><path d="m97.71,68.73v18.41c-1.57-.9-3.38-1.43-5.32-1.43-5.89,0-10.67,4.77-10.67,10.67s4.77,10.67,10.67,10.67,10.67-4.77,10.67-10.67v-27.65h-5.34Z"/><path d="m99.41,52.54h-35.09c-2.01,0-3.64,1.63-3.64,3.65v12.55h42.38v-12.55c0-2.01-1.63-3.65-3.64-3.65Z"/><path d="m60.46,86.92c-1.57-.9-3.38-1.43-5.33-1.43-5.89,0-10.67,4.77-10.67,10.67s4.78,10.67,10.67,10.67,10.67-4.77,10.67-10.67v-27.65h-5.34v18.41Z"/><path d="m97.49,68.52v18.41c-1.57-.9-3.38-1.43-5.32-1.43-5.89,0-10.67,4.77-10.67,10.67s4.78,10.67,10.67,10.67,10.67-4.77,10.67-10.67v-27.65h-5.34Z"/><path d="m99.2,52.32h-35.09c-2.01,0-3.64,1.63-3.64,3.65v12.55h42.38v-12.55c0-2.01-1.63-3.65-3.64-3.65Z"/><path d="m60.25,86.71c-1.57-.9-3.38-1.43-5.33-1.43-5.89,0-10.67,4.77-10.67,10.67s4.78,10.67,10.67,10.67,10.67-4.78,10.67-10.67v-27.65h-5.34v18.41Z"/><path d="m97.28,68.31v18.41c-1.57-.9-3.38-1.43-5.32-1.43-5.89,0-10.67,4.77-10.67,10.67s4.78,10.67,10.67,10.67,10.67-4.78,10.67-10.67v-27.65h-5.34Z"/><path d="m98.98,52.11h-35.09c-2.01,0-3.64,1.63-3.64,3.65v12.55h42.38v-12.55c0-2.01-1.63-3.65-3.64-3.65Z"/><path d="m60.04,86.5c-1.57-.9-3.38-1.43-5.33-1.43-5.89,0-10.67,4.78-10.67,10.67s4.78,10.67,10.67,10.67,10.67-4.77,10.67-10.67v-27.65h-5.34v18.41Z"/><path d="m97.07,68.09v18.41c-1.57-.9-3.38-1.43-5.32-1.43-5.89,0-10.67,4.78-10.67,10.67s4.77,10.67,10.67,10.67,10.67-4.77,10.67-10.67v-27.65h-5.34Z"/><path d="m98.77,51.9h-35.09c-2.01,0-3.64,1.63-3.64,3.65v12.55h42.38v-12.55c0-2.01-1.63-3.65-3.64-3.65Z"/><path d="m59.82,86.29c-1.57-.9-3.38-1.43-5.33-1.43-5.89,0-10.67,4.77-10.67,10.67s4.78,10.67,10.67,10.67,10.67-4.78,10.67-10.67v-27.65h-5.34v18.41Z"/><path d="m96.86,67.88v18.41c-1.57-.9-3.38-1.43-5.32-1.43-5.89,0-10.67,4.77-10.67,10.67s4.78,10.67,10.67,10.67,10.67-4.78,10.67-10.67v-27.65h-5.34Z"/><path d="m98.56,51.69h-35.09c-2.01,0-3.64,1.63-3.64,3.65v12.55h42.38v-12.55c0-2.01-1.63-3.65-3.64-3.65Z"/><path d="m59.61,86.08c-1.57-.9-3.38-1.43-5.33-1.43-5.89,0-10.67,4.77-10.67,10.67s4.78,10.67,10.67,10.67,10.67-4.77,10.67-10.67v-27.65h-5.34v18.41Z"/><path d="m96.65,67.67v18.41c-1.57-.9-3.38-1.43-5.32-1.43-5.89,0-10.67,4.77-10.67,10.67s4.78,10.67,10.67,10.67,10.67-4.77,10.67-10.67v-27.65h-5.34Z"/><path d="m98.35,51.48h-35.09c-2.01,0-3.64,1.63-3.64,3.65v12.55h42.38v-12.55c0-2.01-1.63-3.65-3.64-3.65Z"/><path d="m59.4,85.86c-1.57-.9-3.38-1.43-5.33-1.43-5.89,0-10.67,4.77-10.67,10.67s4.78,10.67,10.67,10.67,10.67-4.77,10.67-10.67v-27.64h-5.34v18.41Z"/><path d="m96.43,67.46v18.41c-1.57-.9-3.38-1.43-5.32-1.43-5.89,0-10.67,4.77-10.67,10.67s4.78,10.67,10.67,10.67,10.67-4.77,10.67-10.67v-27.64h-5.34Z"/><path d="m98.14,51.26h-35.1c-2.01,0-3.64,1.63-3.64,3.65v12.55h42.38v-12.55c0-2.01-1.63-3.65-3.64-3.65Z"/><path d="m59.19,85.65c-1.57-.9-3.38-1.43-5.33-1.43-5.89,0-10.67,4.77-10.67,10.67s4.78,10.67,10.67,10.67,10.67-4.77,10.67-10.67v-27.65h-5.34v18.41Z"/><path d="m96.22,67.25v18.41c-1.57-.9-3.38-1.43-5.32-1.43-5.89,0-10.67,4.77-10.67,10.67s4.78,10.67,10.67,10.67,10.67-4.77,10.67-10.67v-27.65h-5.34Z"/><path d="m97.93,51.05h-35.09c-2.01,0-3.64,1.63-3.64,3.65v12.55h42.38v-12.55c0-2.01-1.63-3.65-3.64-3.65Z"/><path d="m58.98,85.44c-1.57-.9-3.38-1.43-5.33-1.43-5.89,0-10.67,4.77-10.67,10.67s4.78,10.67,10.67,10.67,10.67-4.78,10.67-10.67v-27.65h-5.34v18.41Z"/><path d="m96.01,67.03v18.41c-1.57-.9-3.38-1.43-5.32-1.43-5.89,0-10.67,4.77-10.67,10.67s4.77,10.67,10.67,10.67,10.67-4.78,10.67-10.67v-27.65h-5.34Z"/><path d="m97.71,50.84h-35.09c-2.01,0-3.64,1.63-3.64,3.65v12.55h42.38v-12.55c0-2.01-1.63-3.65-3.64-3.65Z"/><path d="m58.77,85.23c-1.57-.9-3.38-1.43-5.33-1.43-5.89,0-10.67,4.77-10.67,10.67s4.78,10.67,10.67,10.67,10.67-4.77,10.67-10.67v-27.64h-5.34v18.41Z"/><path d="m95.8,66.82v18.41c-1.57-.9-3.38-1.43-5.32-1.43-5.89,0-10.67,4.77-10.67,10.67s4.77,10.67,10.67,10.67,10.67-4.77,10.67-10.67v-27.64h-5.34Z"/><path d="m97.5,50.63h-35.1c-2.01,0-3.64,1.63-3.64,3.65v12.55h42.38v-12.55c0-2.01-1.63-3.65-3.64-3.65Z"/><path d="m58.55,85.02c-1.57-.9-3.38-1.43-5.33-1.43-5.89,0-10.67,4.77-10.67,10.67s4.78,10.67,10.67,10.67,10.67-4.77,10.67-10.67v-27.64h-5.34v18.41Z"/><path d="m95.59,66.61v18.41c-1.57-.9-3.38-1.43-5.32-1.43-5.89,0-10.67,4.77-10.67,10.67s4.77,10.67,10.67,10.67,10.67-4.77,10.67-10.67v-27.64h-5.34Z"/><path d="m97.29,50.42h-35.09c-2.01,0-3.64,1.63-3.64,3.65v12.55h42.38v-12.55c0-2.01-1.63-3.65-3.64-3.65Z"/><path d="m58.34,84.81c-1.57-.9-3.38-1.43-5.33-1.43-5.89,0-10.67,4.77-10.67,10.67s4.78,10.67,10.67,10.67,10.67-4.77,10.67-10.67v-27.65h-5.34v18.41Z"/><path d="m95.38,66.4v18.41c-1.57-.9-3.38-1.43-5.32-1.43-5.89,0-10.67,4.77-10.67,10.67s4.77,10.67,10.67,10.67,10.67-4.77,10.67-10.67v-27.65h-5.34Z"/><path d="m97.08,50.2h-35.09c-2.01,0-3.64,1.63-3.64,3.65v12.55h42.38v-12.55c0-2.01-1.63-3.65-3.64-3.65Z"/><path d="m58.13,84.59c-1.57-.9-3.38-1.43-5.33-1.43-5.89,0-10.67,4.77-10.67,10.67s4.78,10.67,10.67,10.67,10.67-4.77,10.67-10.67v-27.64h-5.34v18.41Z"/><path d="m95.16,66.19v18.41c-1.57-.9-3.38-1.43-5.32-1.43-5.89,0-10.67,4.77-10.67,10.67s4.77,10.67,10.67,10.67,10.67-4.77,10.67-10.67v-27.64h-5.34Z"/><path d="m96.87,49.99h-35.09c-2.01,0-3.64,1.63-3.64,3.65v12.55h42.38v-12.55c0-2.01-1.63-3.65-3.64-3.65Z"/><path d="m57.92,84.38c-1.57-.9-3.38-1.43-5.33-1.43-5.89,0-10.67,4.78-10.67,10.67s4.78,10.67,10.67,10.67,10.67-4.77,10.67-10.67v-27.64h-5.34v18.41Z"/><path d="m94.95,65.98v18.41c-1.57-.9-3.38-1.43-5.32-1.43-5.89,0-10.67,4.78-10.67,10.67s4.77,10.67,10.67,10.67,10.67-4.77,10.67-10.67v-27.64h-5.34Z"/><path d="m96.65,49.78h-35.09c-2.01,0-3.64,1.63-3.64,3.65v12.55h42.38v-12.55c0-2.01-1.63-3.65-3.64-3.65Z"/><path d="m57.71,84.17c-1.57-.9-3.38-1.43-5.33-1.43-5.89,0-10.67,4.77-10.67,10.67s4.78,10.67,10.67,10.67,10.67-4.77,10.67-10.67v-27.64h-5.34v18.41Z"/><path d="m94.74,65.76v18.41c-1.57-.9-3.38-1.43-5.32-1.43-5.89,0-10.67,4.77-10.67,10.67s4.77,10.67,10.67,10.67,10.67-4.77,10.67-10.67v-27.64h-5.34Z"/><path d="m96.44,49.57h-35.09c-2.01,0-3.64,1.63-3.64,3.65v12.55h42.38v-12.55c0-2.01-1.63-3.65-3.64-3.65Z"/><path d="m57.49,83.96c-1.57-.9-3.38-1.43-5.33-1.43-5.89,0-10.67,4.78-10.67,10.67s4.78,10.67,10.67,10.67,10.67-4.77,10.67-10.67v-27.65h-5.34v18.41Z"/><path d="m94.53,65.55v18.41c-1.57-.9-3.38-1.43-5.32-1.43-5.89,0-10.67,4.78-10.67,10.67s4.77,10.67,10.67,10.67,10.67-4.77,10.67-10.67v-27.65h-5.34Z"/><path d="m96.23,49.36h-35.09c-2.01,0-3.64,1.63-3.64,3.65v12.55h42.38v-12.55c0-2.01-1.63-3.65-3.64-3.65Z"/><path d="m57.28,83.75c-1.57-.9-3.38-1.43-5.33-1.43-5.89,0-10.67,4.77-10.67,10.67s4.78,10.67,10.67,10.67,10.67-4.77,10.67-10.67v-27.64h-5.34v18.41Z"/><path d="m94.32,65.34v18.41c-1.57-.9-3.38-1.43-5.32-1.43-5.89,0-10.67,4.77-10.67,10.67s4.77,10.67,10.67,10.67,10.67-4.77,10.67-10.67v-27.64h-5.34Z"/><path d="m96.02,49.15h-35.09c-2.01,0-3.64,1.63-3.64,3.65v12.55h42.38v-12.55c0-2.01-1.63-3.65-3.64-3.65Z"/><path d="m57.07,83.53c-1.57-.9-3.38-1.43-5.33-1.43-5.89,0-10.67,4.77-10.67,10.67s4.78,10.67,10.67,10.67,10.67-4.77,10.67-10.67v-27.65h-5.34v18.41Z"/><path d="m94.1,65.13v18.41c-1.57-.9-3.38-1.43-5.32-1.43-5.89,0-10.67,4.77-10.67,10.67s4.78,10.67,10.67,10.67,10.67-4.77,10.67-10.67v-27.65h-5.34Z"/><path d="m95.81,48.93h-35.09c-2.01,0-3.64,1.63-3.64,3.65v12.55h42.38v-12.55c0-2.01-1.63-3.65-3.64-3.65Z"/><path d="m56.86,83.32c-1.57-.9-3.38-1.43-5.33-1.43-5.89,0-10.67,4.78-10.67,10.67s4.78,10.67,10.67,10.67,10.67-4.77,10.67-10.67v-27.65h-5.34v18.41Z"/><path d="m93.89,64.92v18.41c-1.57-.9-3.38-1.43-5.32-1.43-5.89,0-10.67,4.78-10.67,10.67s4.77,10.67,10.67,10.67,10.67-4.77,10.67-10.67v-27.65h-5.34Z"/><path d="m95.6,48.72h-35.09c-2.01,0-3.64,1.63-3.64,3.65v12.55h42.38v-12.55c0-2.01-1.63-3.65-3.64-3.65Z"/><path d="m56.65,83.11c-1.57-.9-3.38-1.43-5.33-1.43-5.89,0-10.67,4.77-10.67,10.67s4.78,10.67,10.67,10.67,10.67-4.78,10.67-10.67v-27.64h-5.34v18.41Z"/><path d="m93.68,64.7v18.41c-1.57-.9-3.38-1.43-5.32-1.43-5.89,0-10.67,4.77-10.67,10.67s4.77,10.67,10.67,10.67,10.67-4.78,10.67-10.67v-27.64h-5.34Z"/><path d="m95.38,48.51h-35.09c-2.01,0-3.64,1.63-3.64,3.65v12.55h42.38v-12.55c0-2.01-1.63-3.65-3.64-3.65Z"/><path d="m56.43,82.9c-1.57-.9-3.38-1.43-5.33-1.43-5.89,0-10.67,4.77-10.67,10.67s4.78,10.67,10.67,10.67,10.67-4.77,10.67-10.67v-27.65h-5.34v18.41Z"/><path d="m93.47,64.49v18.41c-1.57-.9-3.38-1.43-5.32-1.43-5.89,0-10.67,4.77-10.67,10.67s4.78,10.67,10.67,10.67,10.67-4.77,10.67-10.67v-27.65h-5.34Z"/><path d="m95.17,48.3h-35.09c-2.01,0-3.64,1.63-3.64,3.65v12.55h42.38v-12.55c0-2.01-1.63-3.65-3.64-3.65Z"/><path d="m56.22,82.69c-1.57-.9-3.38-1.43-5.33-1.43-5.89,0-10.67,4.77-10.67,10.67s4.78,10.67,10.67,10.67,10.67-4.77,10.67-10.67v-27.65h-5.34v18.41Z"/><path d="m93.26,64.28v18.41c-1.57-.9-3.38-1.43-5.32-1.43-5.89,0-10.67,4.77-10.67,10.67s4.77,10.67,10.67,10.67,10.67-4.77,10.67-10.67v-27.65h-5.34Z"/><path d="m94.96,48.09h-35.09c-2.01,0-3.64,1.63-3.64,3.65v12.55h42.38v-12.55c0-2.01-1.63-3.65-3.64-3.65Z"/><path d="m56.01,82.48c-1.57-.9-3.38-1.43-5.33-1.43-5.89,0-10.67,4.77-10.67,10.67s4.78,10.67,10.67,10.67,10.67-4.77,10.67-10.67v-27.65h-5.34v18.41Z"/><path d="m93.05,64.07v18.41c-1.57-.9-3.38-1.43-5.32-1.43-5.89,0-10.67,4.77-10.67,10.67s4.78,10.67,10.67,10.67,10.67-4.77,10.67-10.67v-27.65h-5.34Z"/><path d="m94.75,47.87h-35.09c-2.01,0-3.64,1.63-3.64,3.65v12.55h42.38v-12.55c0-2.01-1.63-3.65-3.64-3.65Z"/><path d="m55.8,82.26c-1.57-.9-3.38-1.43-5.33-1.43-5.89,0-10.67,4.77-10.67,10.67s4.78,10.67,10.67,10.67,10.67-4.78,10.67-10.67v-27.65h-5.34v18.41Z"/><path d="m92.83,63.86v18.41c-1.57-.9-3.38-1.43-5.32-1.43-5.89,0-10.67,4.77-10.67,10.67s4.78,10.67,10.67,10.67,10.67-4.78,10.67-10.67v-27.65h-5.34Z"/><path d="m94.54,47.66h-35.09c-2.01,0-3.64,1.63-3.64,3.65v12.55h42.38v-12.55c0-2.01-1.63-3.65-3.64-3.65Z"/><path d="m55.59,82.05c-1.57-.9-3.38-1.43-5.33-1.43-5.89,0-10.67,4.77-10.67,10.67s4.78,10.67,10.67,10.67,10.67-4.78,10.67-10.67v-27.65h-5.34v18.41Z"/><path d="m92.62,63.64v18.41c-1.57-.9-3.38-1.43-5.32-1.43-5.89,0-10.67,4.77-10.67,10.67s4.78,10.67,10.67,10.67,10.67-4.78,10.67-10.67v-27.65h-5.34Z"/><path d="m94.32,47.45h-35.09c-2.01,0-3.64,1.63-3.64,3.65v12.55h42.38v-12.55c0-2.01-1.63-3.65-3.64-3.65Z"/><path d="m55.38,81.84c-1.57-.9-3.38-1.43-5.33-1.43-5.89,0-10.67,4.77-10.67,10.67s4.78,10.67,10.67,10.67,10.67-4.77,10.67-10.67v-27.65h-5.34v18.41Z"/><path d="m92.41,63.43v18.41c-1.57-.9-3.38-1.43-5.32-1.43-5.89,0-10.67,4.77-10.67,10.67s4.78,10.67,10.67,10.67,10.67-4.77,10.67-10.67v-27.65h-5.34Z"/><path d="m94.11,47.24h-35.09c-2.01,0-3.64,1.63-3.64,3.65v12.55h42.38v-12.55c0-2.01-1.63-3.65-3.64-3.65Z"/><path d="m55.16,81.63c-1.57-.9-3.38-1.43-5.33-1.43-5.89,0-10.67,4.77-10.67,10.67s4.78,10.67,10.67,10.67,10.67-4.77,10.67-10.67v-27.65h-5.34v18.41Z"/><path d="m92.2,63.22v18.41c-1.57-.9-3.38-1.43-5.32-1.43-5.89,0-10.67,4.77-10.67,10.67s4.78,10.67,10.67,10.67,10.67-4.77,10.67-10.67v-27.65h-5.34Z"/><path d="m93.9,47.03h-35.09c-2.01,0-3.64,1.63-3.64,3.65v12.55h42.38v-12.55c0-2.01-1.63-3.65-3.64-3.65Z"/><path d="m54.95,81.42c-1.57-.9-3.38-1.43-5.33-1.43-5.89,0-10.67,4.77-10.67,10.67s4.78,10.67,10.67,10.67,10.67-4.78,10.67-10.67v-27.65h-5.34v18.41Z"/><path d="m91.99,63.01v18.41c-1.57-.9-3.38-1.43-5.32-1.43-5.89,0-10.67,4.77-10.67,10.67s4.78,10.67,10.67,10.67,10.67-4.78,10.67-10.67v-27.65h-5.34Z"/><path d="m93.69,46.81h-35.09c-2.01,0-3.64,1.63-3.64,3.65v12.55h42.38v-12.55c0-2.01-1.63-3.65-3.64-3.65Z"/><path d="m54.74,81.2c-1.57-.9-3.38-1.43-5.33-1.43-5.89,0-10.67,4.77-10.67,10.67s4.78,10.67,10.67,10.67,10.67-4.77,10.67-10.67v-27.64h-5.34v18.41Z"/><path d="m91.77,62.8v18.41c-1.57-.9-3.38-1.43-5.32-1.43-5.89,0-10.67,4.77-10.67,10.67s4.77,10.67,10.67,10.67,10.67-4.77,10.67-10.67v-27.64h-5.34Z"/><path d="m93.48,46.6h-35.09c-2.01,0-3.64,1.63-3.64,3.65v12.55h42.38v-12.55c0-2.01-1.63-3.65-3.64-3.65Z"/><path d="m54.53,80.99c-1.57-.9-3.38-1.43-5.33-1.43-5.89,0-10.67,4.77-10.67,10.67s4.78,10.67,10.67,10.67,10.67-4.77,10.67-10.67v-27.64h-5.34v18.41Z"/><path d="m91.56,62.58v18.41c-1.57-.9-3.38-1.43-5.32-1.43-5.89,0-10.67,4.77-10.67,10.67s4.77,10.67,10.67,10.67,10.67-4.77,10.67-10.67v-27.64h-5.34Z"/><path d="m93.26,46.39h-35.09c-2.01,0-3.64,1.63-3.64,3.65v12.55h42.38v-12.55c0-2.01-1.63-3.65-3.64-3.65Z"/><path d="m54.32,80.78c-1.57-.9-3.38-1.43-5.33-1.43-5.89,0-10.67,4.77-10.67,10.67s4.78,10.67,10.67,10.67,10.67-4.77,10.67-10.67v-27.64h-5.34v18.41Z"/><path d="m91.35,62.37v18.41c-1.57-.9-3.38-1.43-5.32-1.43-5.89,0-10.67,4.77-10.67,10.67s4.77,10.67,10.67,10.67,10.67-4.77,10.67-10.67v-27.64h-5.34Z"/><path d="m93.05,46.18h-35.09c-2.01,0-3.64,1.63-3.64,3.65v12.55h42.38v-12.55c0-2.01-1.63-3.65-3.64-3.65Z"/><path d="m54.1,80.57c-1.57-.9-3.38-1.43-5.33-1.43-5.89,0-10.67,4.77-10.67,10.67s4.78,10.67,10.67,10.67,10.67-4.77,10.67-10.67v-27.64h-5.34v18.41Z"/><path d="m91.14,62.16v18.41c-1.57-.9-3.38-1.43-5.32-1.43-5.89,0-10.67,4.77-10.67,10.67s4.77,10.67,10.67,10.67,10.67-4.77,10.67-10.67v-27.64h-5.34Z"/><path d="m92.84,45.97h-35.09c-2.01,0-3.64,1.63-3.64,3.65v12.55h42.38v-12.55c0-2.01-1.63-3.65-3.64-3.65Z"/><path d="m53.89,80.36c-1.57-.9-3.38-1.43-5.33-1.43-5.89,0-10.67,4.77-10.67,10.67s4.78,10.67,10.67,10.67,10.67-4.77,10.67-10.67v-27.64h-5.34v18.41Z"/><path d="m90.93,61.95v18.41c-1.57-.9-3.38-1.43-5.32-1.43-5.89,0-10.67,4.77-10.67,10.67s4.77,10.67,10.67,10.67,10.67-4.77,10.67-10.67v-27.64h-5.34Z"/><path d="m92.63,45.76h-35.09c-2.01,0-3.64,1.63-3.64,3.65v12.55h42.38v-12.55c0-2.01-1.63-3.65-3.64-3.65Z"/><path d="m53.68,80.14c-1.57-.9-3.38-1.43-5.33-1.43-5.89,0-10.67,4.78-10.67,10.67s4.78,10.67,10.67,10.67,10.67-4.77,10.67-10.67v-27.65h-5.34v18.41Z"/><path d="m90.71,61.74v18.41c-1.57-.9-3.38-1.43-5.32-1.43-5.89,0-10.67,4.78-10.67,10.67s4.77,10.67,10.67,10.67,10.67-4.77,10.67-10.67v-27.65h-5.34Z"/><path d="m92.42,45.54h-35.09c-2.01,0-3.64,1.63-3.64,3.65v12.55h42.38v-12.55c0-2.01-1.63-3.65-3.64-3.65Z"/><path d="m53.47,79.93c-1.57-.9-3.38-1.43-5.33-1.43-5.89,0-10.67,4.78-10.67,10.67s4.78,10.67,10.67,10.67,10.67-4.77,10.67-10.67v-27.65h-5.34v18.41Z"/><path d="m90.5,61.53v18.41c-1.57-.9-3.38-1.43-5.32-1.43-5.89,0-10.67,4.78-10.67,10.67s4.77,10.67,10.67,10.67,10.67-4.77,10.67-10.67v-27.65h-5.34Z"/><path d="m92.21,45.33h-35.09c-2.01,0-3.64,1.63-3.64,3.65v12.55h42.38v-12.55c0-2.01-1.63-3.65-3.64-3.65Z"/><path d="m53.26,79.72c-1.57-.9-3.38-1.43-5.33-1.43-5.89,0-10.67,4.77-10.67,10.67s4.78,10.67,10.67,10.67,10.67-4.77,10.67-10.67v-27.64h-5.34v18.41Z"/><path d="m90.29,61.31v18.41c-1.57-.9-3.38-1.43-5.32-1.43-5.89,0-10.67,4.77-10.67,10.67s4.77,10.67,10.67,10.67,10.67-4.77,10.67-10.67v-27.64h-5.34Z"/><path d="m91.99,45.12h-35.09c-2.01,0-3.64,1.63-3.64,3.65v12.55h42.38v-12.55c0-2.01-1.63-3.65-3.64-3.65Z"/><path d="m53.05,79.51c-1.57-.9-3.38-1.43-5.33-1.43-5.89,0-10.67,4.78-10.67,10.67s4.78,10.67,10.67,10.67,10.67-4.77,10.67-10.67v-27.64h-5.34v18.41Z"/><path d="m90.08,61.1v18.41c-1.57-.9-3.38-1.43-5.32-1.43-5.89,0-10.67,4.78-10.67,10.67s4.77,10.67,10.67,10.67,10.67-4.77,10.67-10.67v-27.64h-5.34Z"/><path d="m91.78,44.91h-35.09c-2.01,0-3.64,1.63-3.64,3.65v12.55h42.38v-12.55c0-2.01-1.63-3.65-3.64-3.65Z"/><path d="m52.83,79.3c-1.57-.9-3.38-1.43-5.33-1.43-5.89,0-10.67,4.77-10.67,10.67s4.78,10.67,10.67,10.67,10.67-4.77,10.67-10.67v-27.64h-5.34v18.41Z"/><path d="m89.87,60.89v18.41c-1.57-.9-3.38-1.43-5.32-1.43-5.89,0-10.67,4.77-10.67,10.67s4.77,10.67,10.67,10.67,10.67-4.77,10.67-10.67v-27.64h-5.34Z"/><path d="m91.57,44.7h-35.09c-2.01,0-3.64,1.63-3.64,3.65v12.55h42.38v-12.55c0-2.01-1.63-3.65-3.64-3.65Z"/><path d="m52.62,79.08c-1.57-.9-3.38-1.43-5.33-1.43-5.89,0-10.67,4.77-10.67,10.67s4.78,10.67,10.67,10.67,10.67-4.77,10.67-10.67v-27.65h-5.34v18.41Z"/><path d="m89.66,60.68v18.41c-1.57-.9-3.38-1.43-5.32-1.43-5.89,0-10.67,4.77-10.67,10.67s4.78,10.67,10.67,10.67,10.67-4.77,10.67-10.67v-27.65h-5.34Z"/><path d="m91.36,44.48h-35.09c-2.01,0-3.64,1.63-3.64,3.65v12.55h42.38v-12.55c0-2.01-1.63-3.65-3.64-3.65Z"/><path d="m52.41,78.87c-1.57-.9-3.38-1.43-5.33-1.43-5.89,0-10.67,4.77-10.67,10.67s4.78,10.67,10.67,10.67,10.67-4.78,10.67-10.67v-27.65h-5.34v18.41Z"/><path d="m89.44,60.47v18.41c-1.57-.9-3.38-1.43-5.32-1.43-5.89,0-10.67,4.77-10.67,10.67s4.77,10.67,10.67,10.67,10.67-4.78,10.67-10.67v-27.65h-5.34Z"/><path d="m91.15,44.27h-35.09c-2.01,0-3.64,1.63-3.64,3.65v12.55h42.38v-12.55c0-2.01-1.63-3.65-3.64-3.65Z"/><path d="m52.2,78.66c-1.57-.9-3.38-1.43-5.33-1.43-5.89,0-10.67,4.77-10.67,10.67s4.78,10.67,10.67,10.67,10.67-4.77,10.67-10.67v-27.64h-5.34v18.41Z"/><path d="m89.23,60.25v18.41c-1.57-.9-3.38-1.43-5.32-1.43-5.89,0-10.67,4.77-10.67,10.67s4.78,10.67,10.67,10.67,10.67-4.77,10.67-10.67v-27.64h-5.34Z"/><path d="m90.93,44.06h-35.09c-2.01,0-3.64,1.63-3.64,3.65v12.55h42.38v-12.55c0-2.01-1.63-3.65-3.64-3.65Z"/><path d="m51.99,78.45c-1.57-.9-3.38-1.43-5.33-1.43-5.89,0-10.67,4.77-10.67,10.67s4.78,10.67,10.67,10.67,10.67-4.77,10.67-10.67v-27.65h-5.34v18.41Z"/><path d="m89.02,60.04v18.41c-1.57-.9-3.38-1.43-5.32-1.43-5.89,0-10.67,4.77-10.67,10.67s4.78,10.67,10.67,10.67,10.67-4.77,10.67-10.67v-27.65h-5.34Z"/><path d="m90.72,43.85h-35.1c-2.01,0-3.64,1.63-3.64,3.65v12.55h42.38v-12.55c0-2.01-1.63-3.65-3.64-3.65Z"/><path d="m51.77,78.24c-1.57-.9-3.38-1.43-5.33-1.43-5.89,0-10.67,4.77-10.67,10.67s4.78,10.67,10.67,10.67,10.67-4.78,10.67-10.67v-27.65h-5.34v18.41Z"/><path d="m88.81,59.83v18.41c-1.57-.9-3.38-1.43-5.32-1.43-5.89,0-10.67,4.77-10.67,10.67s4.77,10.67,10.67,10.67,10.67-4.78,10.67-10.67v-27.65h-5.34Z"/><path d="m90.51,43.64h-35.09c-2.01,0-3.64,1.63-3.64,3.65v12.55h42.38v-12.55c0-2.01-1.63-3.65-3.64-3.65Z"/><path d="m51.56,78.03c-1.57-.9-3.38-1.43-5.33-1.43-5.89,0-10.67,4.77-10.67,10.67s4.78,10.67,10.67,10.67,10.67-4.78,10.67-10.67v-27.64h-5.34v18.41Z"/><path d="m88.6,59.62v18.41c-1.57-.9-3.38-1.43-5.32-1.43-5.89,0-10.67,4.77-10.67,10.67s4.78,10.67,10.67,10.67,10.67-4.78,10.67-10.67v-27.64h-5.34Z"/><path d="m90.3,43.43h-35.1c-2.01,0-3.64,1.63-3.64,3.65v12.55h42.38v-12.55c0-2.01-1.63-3.65-3.64-3.65Z"/><path d="m51.35,77.81c-1.57-.9-3.38-1.43-5.33-1.43-5.89,0-10.67,4.77-10.67,10.67s4.78,10.67,10.67,10.67,10.67-4.77,10.67-10.67v-27.65h-5.34v18.41Z"/><path d="m88.38,59.41v18.41c-1.57-.9-3.38-1.43-5.32-1.43-5.89,0-10.67,4.77-10.67,10.67s4.78,10.67,10.67,10.67,10.67-4.77,10.67-10.67v-27.65h-5.34Z"/><path d="m90.09,43.21h-35.09c-2.01,0-3.64,1.63-3.64,3.65v12.55h42.38v-12.55c0-2.01-1.63-3.65-3.64-3.65Z"/><path d="m51.14,77.6c-1.57-.9-3.38-1.43-5.33-1.43-5.89,0-10.67,4.77-10.67,10.67s4.78,10.67,10.67,10.67,10.67-4.77,10.67-10.67v-27.65h-5.34v18.41Z"/><path d="m88.17,59.19v18.41c-1.57-.9-3.38-1.43-5.32-1.43-5.89,0-10.67,4.77-10.67,10.67s4.78,10.67,10.67,10.67,10.67-4.77,10.67-10.67v-27.65h-5.34Z"/><path d="m89.87,43h-35.1c-2.01,0-3.64,1.63-3.64,3.65v12.55h42.38v-12.55c0-2.01-1.63-3.65-3.64-3.65Z"/><path d="m50.93,77.39c-1.57-.9-3.38-1.43-5.33-1.43-5.89,0-10.67,4.77-10.67,10.67s4.78,10.67,10.67,10.67,10.67-4.78,10.67-10.67v-27.65h-5.34v18.41Z"/><path d="m87.96,58.98v18.41c-1.57-.9-3.38-1.43-5.32-1.43-5.89,0-10.67,4.77-10.67,10.67s4.78,10.67,10.67,10.67,10.67-4.78,10.67-10.67v-27.65h-5.34Z"/><path d="m89.66,42.79h-35.09c-2.01,0-3.64,1.63-3.64,3.65v12.55h42.38v-12.55c0-2.01-1.63-3.65-3.64-3.65Z"/><path d="m50.71,77.18c-1.57-.9-3.38-1.43-5.33-1.43-5.89,0-10.67,4.77-10.67,10.67s4.78,10.67,10.67,10.67,10.67-4.77,10.67-10.67v-27.65h-5.34v18.41Z"/><path d="m87.75,58.77v18.41c-1.57-.9-3.38-1.43-5.32-1.43-5.89,0-10.67,4.77-10.67,10.67s4.77,10.67,10.67,10.67,10.67-4.77,10.67-10.67v-27.65h-5.34Z"/><path d="m89.45,42.58h-35.1c-2.01,0-3.64,1.63-3.64,3.65v12.55h42.38v-12.55c0-2.01-1.63-3.65-3.64-3.65Z"/><path d="m50.5,76.97c-1.57-.9-3.38-1.43-5.33-1.43-5.89,0-10.67,4.77-10.67,10.67s4.78,10.67,10.67,10.67,10.67-4.77,10.67-10.67v-27.65h-5.34v18.41Z"/><path d="m87.54,58.56v18.41c-1.57-.9-3.38-1.43-5.32-1.43-5.89,0-10.67,4.77-10.67,10.67s4.77,10.67,10.67,10.67,10.67-4.77,10.67-10.67v-27.65h-5.34Z"/><path d="m89.24,42.37h-35.1c-2.01,0-3.64,1.63-3.64,3.65v12.55h42.38v-12.55c0-2.01-1.63-3.65-3.64-3.65Z"/><path d="m50.29,76.75c-1.57-.9-3.38-1.43-5.33-1.43-5.89,0-10.67,4.77-10.67,10.67s4.78,10.67,10.67,10.67,10.67-4.77,10.67-10.67v-27.64h-5.34v18.41Z"/><path d="m87.32,58.35v18.41c-1.57-.9-3.38-1.43-5.32-1.43-5.89,0-10.67,4.77-10.67,10.67s4.77,10.67,10.67,10.67,10.67-4.77,10.67-10.67v-27.64h-5.34Z"/><path d="m89.03,42.15h-35.1c-2.01,0-3.64,1.63-3.64,3.65v12.55h42.38v-12.55c0-2.01-1.63-3.65-3.64-3.65Z"/><path d="m50.08,76.54c-1.57-.9-3.38-1.43-5.33-1.43-5.89,0-10.67,4.77-10.67,10.67s4.78,10.67,10.67,10.67,10.67-4.77,10.67-10.67v-27.64h-5.34v18.41Z"/><path d="m87.11,58.14v18.41c-1.57-.9-3.38-1.43-5.32-1.43-5.89,0-10.67,4.77-10.67,10.67s4.77,10.67,10.67,10.67,10.67-4.77,10.67-10.67v-27.64h-5.34Z"/><path d="m88.82,41.94h-35.09c-2.01,0-3.64,1.63-3.64,3.65v12.55h42.38v-12.55c0-2.01-1.63-3.65-3.64-3.65Z"/><path d="m49.87,76.33c-1.57-.9-3.38-1.43-5.33-1.43-5.89,0-10.67,4.77-10.67,10.67s4.78,10.67,10.67,10.67,10.67-4.77,10.67-10.67v-27.64h-5.34v18.41Z"/><path d="m86.9,57.92v18.41c-1.57-.9-3.38-1.43-5.32-1.43-5.89,0-10.67,4.77-10.67,10.67s4.77,10.67,10.67,10.67,10.67-4.77,10.67-10.67v-27.64h-5.34Z"/><path d="m88.6,41.73h-35.1c-2.01,0-3.64,1.63-3.64,3.65v12.55h42.38v-12.55c0-2.01-1.63-3.65-3.64-3.65Z"/><path d="m49.66,76.12c-1.57-.9-3.38-1.43-5.33-1.43-5.89,0-10.67,4.77-10.67,10.67s4.78,10.67,10.67,10.67,10.67-4.77,10.67-10.67v-27.64h-5.34v18.41Z"/><path d="m86.69,57.71v18.41c-1.57-.9-3.38-1.43-5.32-1.43-5.89,0-10.67,4.77-10.67,10.67s4.77,10.67,10.67,10.67,10.67-4.77,10.67-10.67v-27.64h-5.34Z"/><path d="m88.39,41.52h-35.09c-2.01,0-3.64,1.63-3.64,3.65v12.55h42.38v-12.55c0-2.01-1.63-3.65-3.64-3.65Z"/><path d="m49.44,75.91c-1.57-.9-3.38-1.43-5.33-1.43-5.89,0-10.67,4.77-10.67,10.67s4.78,10.67,10.67,10.67,10.67-4.77,10.67-10.67v-27.64h-5.34v18.41Z"/><path d="m86.48,57.5v18.41c-1.57-.9-3.38-1.43-5.32-1.43-5.89,0-10.67,4.77-10.67,10.67s4.77,10.67,10.67,10.67,10.67-4.77,10.67-10.67v-27.64h-5.34Z"/><path d="m88.18,41.31h-35.09c-2.01,0-3.64,1.63-3.64,3.65v12.55h42.38v-12.55c0-2.01-1.63-3.65-3.64-3.65Z"/><path d="m49.23,75.69c-1.57-.9-3.38-1.43-5.33-1.43-5.89,0-10.67,4.78-10.67,10.67s4.78,10.67,10.67,10.67,10.67-4.77,10.67-10.67v-27.64h-5.34v18.41Z"/><path d="m86.27,57.29v18.41c-1.57-.9-3.38-1.43-5.32-1.43-5.89,0-10.67,4.78-10.67,10.67s4.77,10.67,10.67,10.67,10.67-4.77,10.67-10.67v-27.64h-5.34Z"/><path d="m87.97,41.09h-35.09c-2.01,0-3.64,1.63-3.64,3.65v12.55h42.38v-12.55c0-2.01-1.63-3.65-3.64-3.65Z"/><path d="m49.02,75.48c-1.57-.9-3.38-1.43-5.33-1.43-5.89,0-10.67,4.77-10.67,10.67s4.78,10.67,10.67,10.67,10.67-4.77,10.67-10.67v-27.64h-5.34v18.41Z"/><path d="m86.05,57.08v18.41c-1.57-.9-3.38-1.43-5.32-1.43-5.89,0-10.67,4.77-10.67,10.67s4.77,10.67,10.67,10.67,10.67-4.77,10.67-10.67v-27.64h-5.34Z"/><path d="m87.76,40.88h-35.09c-2.01,0-3.64,1.63-3.64,3.65v12.55h42.38v-12.55c0-2.01-1.63-3.65-3.64-3.65Z"/><path d="m48.81,75.27c-1.57-.9-3.38-1.43-5.33-1.43-5.89,0-10.67,4.77-10.67,10.67s4.78,10.67,10.67,10.67,10.67-4.77,10.67-10.67v-27.65h-5.34v18.41Z"/><path d="m85.84,56.86v18.41c-1.57-.9-3.38-1.43-5.32-1.43-5.89,0-10.67,4.77-10.67,10.67s4.77,10.67,10.67,10.67,10.67-4.77,10.67-10.67v-27.65h-5.34Z"/><path d="m87.54,40.67h-35.09c-2.01,0-3.64,1.63-3.64,3.65v12.55h42.38v-12.55c0-2.01-1.63-3.65-3.64-3.65Z"/><path d="m48.6,75.06c-1.57-.9-3.38-1.43-5.33-1.43-5.89,0-10.67,4.77-10.67,10.67s4.78,10.67,10.67,10.67,10.67-4.77,10.67-10.67v-27.64h-5.34v18.41Z"/><path d="m85.63,56.65v18.41c-1.57-.9-3.38-1.43-5.32-1.43-5.89,0-10.67,4.77-10.67,10.67s4.77,10.67,10.67,10.67,10.67-4.77,10.67-10.67v-27.64h-5.34Z"/><path d="m87.33,40.46h-35.09c-2.01,0-3.64,1.63-3.64,3.65v12.55h42.38v-12.55c0-2.01-1.63-3.65-3.64-3.65Z"/><path d="m48.38,74.85c-1.57-.9-3.38-1.43-5.33-1.43-5.89,0-10.67,4.77-10.67,10.67s4.78,10.67,10.67,10.67,10.67-4.77,10.67-10.67v-27.64h-5.34v18.41Z"/><path d="m85.42,56.44v18.41c-1.57-.9-3.38-1.43-5.32-1.43-5.89,0-10.67,4.77-10.67,10.67s4.77,10.67,10.67,10.67,10.67-4.77,10.67-10.67v-27.64h-5.34Z"/><path d="m87.12,40.25h-35.09c-2.01,0-3.64,1.63-3.64,3.65v12.55h42.38v-12.55c0-2.01-1.63-3.65-3.64-3.65Z"/><path d="m48.17,74.64c-1.57-.9-3.38-1.43-5.33-1.43-5.89,0-10.67,4.77-10.67,10.67s4.78,10.67,10.67,10.67,10.67-4.78,10.67-10.67v-27.65h-5.34v18.41Z"/><path d="m85.21,56.23v18.41c-1.57-.9-3.38-1.43-5.32-1.43-5.89,0-10.67,4.77-10.67,10.67s4.77,10.67,10.67,10.67,10.67-4.78,10.67-10.67v-27.65h-5.34Z"/><path d="m86.91,40.04h-35.09c-2.01,0-3.64,1.63-3.64,3.65v12.55h42.38v-12.55c0-2.01-1.63-3.65-3.64-3.65Z"/><path d="m47.96,74.42c-1.57-.9-3.38-1.43-5.33-1.43-5.89,0-10.67,4.77-10.67,10.67s4.78,10.67,10.67,10.67,10.67-4.77,10.67-10.67v-27.65h-5.34v18.41Z"/><path d="m84.99,56.02v18.41c-1.57-.9-3.38-1.43-5.32-1.43-5.89,0-10.67,4.77-10.67,10.67s4.77,10.67,10.67,10.67,10.67-4.77,10.67-10.67v-27.65h-5.34Z"/><path d="m86.7,39.82h-35.09c-2.01,0-3.64,1.63-3.64,3.65v12.55h42.38v-12.55c0-2.01-1.63-3.65-3.64-3.65Z"/><path d="m47.75,74.21c-1.57-.9-3.38-1.43-5.33-1.43-5.89,0-10.67,4.77-10.67,10.67s4.78,10.67,10.67,10.67,10.67-4.77,10.67-10.67v-27.64h-5.34v18.41Z"/><path d="m84.78,55.81v18.41c-1.57-.9-3.38-1.43-5.32-1.43-5.89,0-10.67,4.77-10.67,10.67s4.78,10.67,10.67,10.67,10.67-4.77,10.67-10.67v-27.64h-5.34Z"/><path d="m86.48,39.61h-35.09c-2.01,0-3.64,1.63-3.64,3.65v12.55h42.38v-12.55c0-2.01-1.63-3.65-3.64-3.65Z"/><path d="m47.54,74c-1.57-.9-3.38-1.43-5.33-1.43-5.89,0-10.67,4.77-10.67,10.67s4.78,10.67,10.67,10.67,10.67-4.78,10.67-10.67v-27.65h-5.34v18.41Z"/><path d="m84.57,55.59v18.41c-1.57-.9-3.38-1.43-5.32-1.43-5.89,0-10.67,4.77-10.67,10.67s4.77,10.67,10.67,10.67,10.67-4.78,10.67-10.67v-27.65h-5.34Z"/><path d="m86.27,39.4h-35.1c-2.01,0-3.64,1.63-3.64,3.65v12.55h42.38v-12.55c0-2.01-1.63-3.65-3.64-3.65Z"/><path d="m47.33,73.79c-1.57-.9-3.38-1.43-5.33-1.43-5.89,0-10.67,4.77-10.67,10.67s4.78,10.67,10.67,10.67,10.67-4.78,10.67-10.67v-27.65h-5.34v18.41Z"/><path d="m84.36,55.38v18.41c-1.57-.9-3.38-1.43-5.32-1.43-5.89,0-10.67,4.77-10.67,10.67s4.78,10.67,10.67,10.67,10.67-4.78,10.67-10.67v-27.65h-5.34Z"/><path d="m86.06,39.19h-35.09c-2.01,0-3.64,1.63-3.64,3.65v12.55h42.38v-12.55c0-2.01-1.63-3.65-3.64-3.65Z"/><path d="m47.11,73.58c-1.57-.9-3.38-1.43-5.33-1.43-5.89,0-10.67,4.77-10.67,10.67s4.78,10.67,10.67,10.67,10.67-4.77,10.67-10.67v-27.65h-5.34v18.41Z"/><path d="m84.15,55.17v18.41c-1.57-.9-3.38-1.43-5.32-1.43-5.89,0-10.67,4.77-10.67,10.67s4.78,10.67,10.67,10.67,10.67-4.77,10.67-10.67v-27.65h-5.34Z"/><path d="m85.85,38.98h-35.09c-2.01,0-3.64,1.63-3.64,3.65v12.55h42.38v-12.55c0-2.01-1.63-3.65-3.64-3.65Z"/><path d="m46.9,73.36c-1.57-.9-3.38-1.43-5.33-1.43-5.89,0-10.67,4.78-10.67,10.67s4.78,10.67,10.67,10.67,10.67-4.77,10.67-10.67v-27.64h-5.34v18.41Z"/><path d="m83.93,54.96v18.41c-1.57-.9-3.38-1.43-5.32-1.43-5.89,0-10.67,4.78-10.67,10.67s4.77,10.67,10.67,10.67,10.67-4.77,10.67-10.67v-27.64h-5.34Z"/><path d="m85.64,38.76h-35.09c-2.01,0-3.64,1.63-3.64,3.65v12.55h42.38v-12.55c0-2.01-1.63-3.65-3.64-3.65Z"/><path d="m46.69,73.15c-1.57-.9-3.38-1.43-5.33-1.43-5.89,0-10.67,4.77-10.67,10.67s4.78,10.67,10.67,10.67,10.67-4.78,10.67-10.67v-27.65h-5.34v18.41Z"/><path d="m83.72,54.75v18.41c-1.57-.9-3.38-1.43-5.32-1.43-5.89,0-10.67,4.77-10.67,10.67s4.77,10.67,10.67,10.67,10.67-4.78,10.67-10.67v-27.65h-5.34Z"/><path d="m85.43,38.55h-35.09c-2.01,0-3.64,1.63-3.64,3.65v12.55h42.38v-12.55c0-2.01-1.63-3.65-3.64-3.65Z"/><path d="m46.48,72.94c-1.57-.9-3.38-1.43-5.33-1.43-5.89,0-10.67,4.77-10.67,10.67s4.78,10.67,10.67,10.67,10.67-4.77,10.67-10.67v-27.64h-5.34v18.41Z"/><path d="m83.51,54.53v18.41c-1.57-.9-3.38-1.43-5.32-1.43-5.89,0-10.67,4.77-10.67,10.67s4.77,10.67,10.67,10.67,10.67-4.77,10.67-10.67v-27.64h-5.34Z"/><path d="m85.21,38.34h-35.09c-2.01,0-3.64,1.63-3.64,3.65v12.55h42.38v-12.55c0-2.01-1.63-3.65-3.64-3.65Z"/><path d="m46.27,72.73c-1.57-.9-3.38-1.43-5.33-1.43-5.89,0-10.67,4.77-10.67,10.67s4.78,10.67,10.67,10.67,10.67-4.77,10.67-10.67v-27.64h-5.34v18.41Z"/><path d="m83.3,54.32v18.41c-1.57-.9-3.38-1.43-5.32-1.43-5.89,0-10.67,4.77-10.67,10.67s4.77,10.67,10.67,10.67,10.67-4.77,10.67-10.67v-27.64h-5.34Z"/><path d="m85,38.13h-35.09c-2.01,0-3.64,1.63-3.64,3.65v12.55h42.38v-12.55c0-2.01-1.63-3.65-3.64-3.65Z"/><path d="m46.05,72.52c-1.57-.9-3.38-1.43-5.33-1.43-5.89,0-10.67,4.77-10.67,10.67s4.78,10.67,10.67,10.67,10.67-4.77,10.67-10.67v-27.65h-5.34v18.41Z"/><path d="m83.09,54.11v18.41c-1.57-.9-3.38-1.43-5.32-1.43-5.89,0-10.67,4.77-10.67,10.67s4.77,10.67,10.67,10.67,10.67-4.77,10.67-10.67v-27.65h-5.34Z"/><path d="m84.79,37.92h-35.09c-2.01,0-3.64,1.63-3.64,3.65v12.55h42.38v-12.55c0-2.01-1.63-3.65-3.64-3.65Z"/><path d="m45.84,72.31c-1.57-.9-3.38-1.43-5.33-1.43-5.89,0-10.67,4.77-10.67,10.67s4.78,10.67,10.67,10.67,10.67-4.77,10.67-10.67v-27.64h-5.34v18.41Z"/><path d="m82.88,53.9v18.41c-1.57-.9-3.38-1.43-5.32-1.43-5.89,0-10.67,4.77-10.67,10.67s4.78,10.67,10.67,10.67,10.67-4.77,10.67-10.67v-27.64h-5.34Z"/><path d="m84.58,37.7h-35.09c-2.01,0-3.64,1.63-3.64,3.65v12.55h42.38v-12.55c0-2.01-1.63-3.65-3.64-3.65Z"/><path d="m45.63,72.09c-1.57-.9-3.38-1.43-5.33-1.43-5.89,0-10.67,4.77-10.67,10.67s4.78,10.67,10.67,10.67,10.67-4.77,10.67-10.67v-27.64h-5.34v18.41Z"/><path d="m82.66,53.69v18.41c-1.57-.9-3.38-1.43-5.32-1.43-5.89,0-10.67,4.77-10.67,10.67s4.77,10.67,10.67,10.67,10.67-4.77,10.67-10.67v-27.64h-5.34Z"/><path d="m84.37,37.49h-35.09c-2.01,0-3.64,1.63-3.64,3.65v12.55h42.38v-12.55c0-2.01-1.63-3.65-3.64-3.65Z"/><path d="m45.42,71.88c-1.57-.9-3.38-1.43-5.33-1.43-5.89,0-10.67,4.77-10.67,10.67s4.78,10.67,10.67,10.67,10.67-4.77,10.67-10.67v-27.65h-5.34v18.41Z"/><path d="m82.45,53.47v18.41c-1.57-.9-3.38-1.43-5.32-1.43-5.89,0-10.67,4.77-10.67,10.67s4.77,10.67,10.67,10.67,10.67-4.77,10.67-10.67v-27.65h-5.34Z"/><path d="m84.15,37.28h-35.09c-2.01,0-3.64,1.63-3.64,3.65v12.55h42.38v-12.55c0-2.01-1.63-3.65-3.64-3.65Z"/><path d="m45.21,71.67c-1.57-.9-3.38-1.43-5.33-1.43-5.89,0-10.67,4.77-10.67,10.67s4.78,10.67,10.67,10.67,10.67-4.77,10.67-10.67v-27.65h-5.34v18.41Z"/><path d="m82.24,53.26v18.41c-1.57-.9-3.38-1.43-5.32-1.43-5.89,0-10.67,4.77-10.67,10.67s4.77,10.67,10.67,10.67,10.67-4.77,10.67-10.67v-27.65h-5.34Z"/><path d="m83.94,37.07h-35.09c-2.01,0-3.64,1.63-3.64,3.65v12.55h42.38v-12.55c0-2.01-1.63-3.65-3.64-3.65Z"/><path d="m44.99,71.46c-1.57-.9-3.38-1.43-5.33-1.43-5.89,0-10.67,4.78-10.67,10.67s4.78,10.67,10.67,10.67,10.67-4.78,10.67-10.67v-27.64h-5.34v18.41Z"/><path d="m82.03,53.05v18.41c-1.57-.9-3.38-1.43-5.32-1.43-5.89,0-10.67,4.78-10.67,10.67s4.77,10.67,10.67,10.67,10.67-4.78,10.67-10.67v-27.64h-5.34Z"/><path d="m83.73,36.86h-35.09c-2.01,0-3.64,1.63-3.64,3.65v12.55h42.38v-12.55c0-2.01-1.63-3.65-3.64-3.65Z"/><path d="m44.78,71.25c-1.57-.9-3.38-1.43-5.33-1.43-5.89,0-10.67,4.77-10.67,10.67s4.78,10.67,10.67,10.67,10.67-4.77,10.67-10.67v-27.64h-5.34v18.41Z"/><path d="m81.82,52.84v18.41c-1.57-.9-3.38-1.43-5.32-1.43-5.89,0-10.67,4.77-10.67,10.67s4.77,10.67,10.67,10.67,10.67-4.77,10.67-10.67v-27.64h-5.34Z"/><path d="m83.52,36.65h-35.09c-2.01,0-3.64,1.63-3.64,3.65v12.55h42.38v-12.55c0-2.01-1.63-3.65-3.64-3.65Z"/><path d="m44.57,71.03c-1.57-.9-3.38-1.43-5.33-1.43-5.89,0-10.67,4.77-10.67,10.67s4.78,10.67,10.67,10.67,10.67-4.77,10.67-10.67v-27.65h-5.34v18.41Z"/><path d="m81.6,52.63v18.41c-1.57-.9-3.38-1.43-5.32-1.43-5.89,0-10.67,4.77-10.67,10.67s4.77,10.67,10.67,10.67,10.67-4.77,10.67-10.67v-27.65h-5.34Z"/><path d="m83.31,36.43h-35.09c-2.01,0-3.64,1.63-3.64,3.65v12.55h42.38v-12.55c0-2.01-1.63-3.65-3.64-3.65Z"/><path d="m44.36,70.82c-1.57-.9-3.38-1.43-5.33-1.43-5.89,0-10.67,4.78-10.67,10.67s4.78,10.67,10.67,10.67,10.67-4.77,10.67-10.67v-27.65h-5.34v18.41Z"/><path d="m81.39,52.42v18.41c-1.57-.9-3.38-1.43-5.32-1.43-5.89,0-10.67,4.78-10.67,10.67s4.77,10.67,10.67,10.67,10.67-4.77,10.67-10.67v-27.65h-5.34Z"/><path d="m83.1,36.22h-35.09c-2.01,0-3.64,1.63-3.64,3.65v12.55h42.38v-12.55c0-2.01-1.63-3.65-3.64-3.65Z"/><path d="m44.15,70.61c-1.57-.9-3.38-1.43-5.33-1.43-5.89,0-10.67,4.77-10.67,10.67s4.78,10.67,10.67,10.67,10.67-4.77,10.67-10.67v-27.64h-5.34v18.41Z"/><path d="m81.18,52.2v18.41c-1.57-.9-3.38-1.43-5.32-1.43-5.89,0-10.67,4.77-10.67,10.67s4.77,10.67,10.67,10.67,10.67-4.77,10.67-10.67v-27.64h-5.34Z"/><path d="m82.88,36.01h-35.09c-2.01,0-3.64,1.63-3.64,3.65v12.55h42.38v-12.55c0-2.01-1.63-3.65-3.64-3.65Z"/><path d="m43.93,70.4c-1.57-.9-3.38-1.43-5.33-1.43-5.89,0-10.67,4.77-10.67,10.67s4.78,10.67,10.67,10.67,10.67-4.78,10.67-10.67v-27.64h-5.34v18.41Z"/><path d="m80.97,51.99v18.41c-1.57-.9-3.38-1.43-5.32-1.43-5.89,0-10.67,4.77-10.67,10.67s4.77,10.67,10.67,10.67,10.67-4.78,10.67-10.67v-27.64h-5.34Z"/><path d="m82.67,35.8h-35.09c-2.01,0-3.64,1.63-3.64,3.65v12.55h42.38v-12.55c0-2.01-1.63-3.65-3.64-3.65Z"/><path d="m43.72,70.19c-1.57-.9-3.38-1.43-5.33-1.43-5.89,0-10.67,4.77-10.67,10.67s4.78,10.67,10.67,10.67,10.67-4.77,10.67-10.67v-27.65h-5.34v18.41Z"/><path d="m80.76,51.78v18.41c-1.57-.9-3.38-1.43-5.32-1.43-5.89,0-10.67,4.77-10.67,10.67s4.77,10.67,10.67,10.67,10.67-4.77,10.67-10.67v-27.65h-5.34Z"/><path d="m82.46,35.59h-35.09c-2.01,0-3.64,1.63-3.64,3.65v12.55h42.38v-12.55c0-2.01-1.63-3.65-3.64-3.65Z"/><path d="m43.51,69.98c-1.57-.9-3.38-1.43-5.33-1.43-5.89,0-10.67,4.77-10.67,10.67s4.78,10.67,10.67,10.67,10.67-4.77,10.67-10.67v-27.65h-5.34v18.41Z"/><path d="m80.55,51.57v18.41c-1.57-.9-3.38-1.43-5.32-1.43-5.89,0-10.67,4.77-10.67,10.67s4.77,10.67,10.67,10.67,10.67-4.77,10.67-10.67v-27.65h-5.34Z"/><path d="m82.25,35.37h-35.09c-2.01,0-3.64,1.63-3.64,3.65v12.55h42.38v-12.55c0-2.01-1.63-3.65-3.64-3.65Z"/><path d="m43.3,69.76c-1.57-.9-3.38-1.43-5.33-1.43-5.89,0-10.67,4.77-10.67,10.67s4.78,10.67,10.67,10.67,10.67-4.78,10.67-10.67v-27.65h-5.34v18.41Z"/><path d="m80.33,51.36v18.41c-1.57-.9-3.38-1.43-5.32-1.43-5.89,0-10.67,4.77-10.67,10.67s4.78,10.67,10.67,10.67,10.67-4.78,10.67-10.67v-27.65h-5.34Z"/><path d="m82.04,35.16h-35.09c-2.01,0-3.64,1.63-3.64,3.65v12.55h42.38v-12.55c0-2.01-1.63-3.65-3.64-3.65Z"/><path d="m43.09,69.55c-1.57-.9-3.38-1.43-5.33-1.43-5.89,0-10.67,4.78-10.67,10.67s4.78,10.67,10.67,10.67,10.67-4.77,10.67-10.67v-27.64h-5.34v18.41Z"/><path d="m80.12,51.14v18.41c-1.57-.9-3.38-1.43-5.32-1.43-5.89,0-10.67,4.78-10.67,10.67s4.77,10.67,10.67,10.67,10.67-4.77,10.67-10.67v-27.64h-5.34Z"/><path d="m81.82,34.95h-35.09c-2.01,0-3.64,1.63-3.64,3.65v12.55h42.38v-12.55c0-2.01-1.63-3.65-3.64-3.65Z"/><path d="m42.88,69.34c-1.57-.9-3.38-1.43-5.33-1.43-5.89,0-10.67,4.77-10.67,10.67s4.78,10.67,10.67,10.67,10.67-4.77,10.67-10.67v-27.65h-5.34v18.41Z"/><path d="m79.91,50.93v18.41c-1.57-.9-3.38-1.43-5.32-1.43-5.89,0-10.67,4.77-10.67,10.67s4.78,10.67,10.67,10.67,10.67-4.77,10.67-10.67v-27.65h-5.34Z"/><path d="m81.61,34.74h-35.09c-2.01,0-3.64,1.63-3.64,3.65v12.55h42.38v-12.55c0-2.01-1.63-3.65-3.64-3.65Z"/><path d="m42.66,69.13c-1.57-.9-3.38-1.43-5.33-1.43-5.89,0-10.67,4.77-10.67,10.67s4.78,10.67,10.67,10.67,10.67-4.77,10.67-10.67v-27.65h-5.34v18.41Z"/><path d="m79.7,50.72v18.41c-1.57-.9-3.38-1.43-5.32-1.43-5.89,0-10.67,4.77-10.67,10.67s4.77,10.67,10.67,10.67,10.67-4.77,10.67-10.67v-27.65h-5.34Z"/><path d="m81.4,34.53h-35.09c-2.01,0-3.64,1.63-3.64,3.65v12.55h42.38v-12.55c0-2.01-1.63-3.65-3.64-3.65Z"/><path d="m42.45,68.92c-1.57-.9-3.38-1.43-5.33-1.43-5.89,0-10.67,4.77-10.67,10.67s4.78,10.67,10.67,10.67,10.67-4.77,10.67-10.67v-27.65h-5.34v18.41Z"/><path d="m79.49,50.51v18.41c-1.57-.9-3.38-1.43-5.32-1.43-5.89,0-10.67,4.77-10.67,10.67s4.77,10.67,10.67,10.67,10.67-4.77,10.67-10.67v-27.65h-5.34Z"/><path d="m81.19,34.31h-35.09c-2.01,0-3.64,1.63-3.64,3.65v12.55h42.38v-12.55c0-2.01-1.63-3.65-3.64-3.65Z"/><path d="m42.24,68.7c-1.57-.9-3.38-1.43-5.33-1.43-5.89,0-10.67,4.77-10.67,10.67s4.78,10.67,10.67,10.67,10.67-4.77,10.67-10.67v-27.65h-5.34v18.41Z"/><path d="m79.27,50.3v18.41c-1.57-.9-3.38-1.43-5.32-1.43-5.89,0-10.67,4.77-10.67,10.67s4.77,10.67,10.67,10.67,10.67-4.77,10.67-10.67v-27.65h-5.34Z"/><path d="m80.98,34.1h-35.09c-2.01,0-3.64,1.63-3.64,3.65v12.55h42.38v-12.55c0-2.01-1.63-3.65-3.64-3.65Z"/><path d="m42.03,68.49c-1.57-.9-3.38-1.43-5.33-1.43-5.89,0-10.67,4.77-10.67,10.67s4.78,10.67,10.67,10.67,10.67-4.77,10.67-10.67v-27.64h-5.34v18.41Z"/><path d="m79.06,50.08v18.41c-1.57-.9-3.38-1.43-5.32-1.43-5.89,0-10.67,4.77-10.67,10.67s4.77,10.67,10.67,10.67,10.67-4.77,10.67-10.67v-27.64h-5.34Z"/><path d="m80.77,33.89h-35.09c-2.01,0-3.64,1.63-3.64,3.65v12.55h42.38v-12.55c0-2.01-1.63-3.65-3.64-3.65Z"/><path d="m41.82,68.28c-1.57-.9-3.38-1.43-5.33-1.43-5.89,0-10.67,4.77-10.67,10.67s4.78,10.67,10.67,10.67,10.67-4.77,10.67-10.67v-27.65h-5.34v18.41Z"/><path d="m78.85,49.87v18.41c-1.57-.9-3.38-1.43-5.32-1.43-5.89,0-10.67,4.77-10.67,10.67s4.77,10.67,10.67,10.67,10.67-4.77,10.67-10.67v-27.65h-5.34Z"/><path d="m80.55,33.68h-35.09c-2.01,0-3.64,1.63-3.64,3.65v12.55h42.38v-12.55c0-2.01-1.63-3.65-3.64-3.65Z"/><path d="m41.6,68.07c-1.57-.9-3.38-1.43-5.33-1.43-5.89,0-10.67,4.77-10.67,10.67s4.78,10.67,10.67,10.67,10.67-4.77,10.67-10.67v-27.65h-5.34v18.41Z"/><path d="m78.64,49.66v18.41c-1.57-.9-3.38-1.43-5.32-1.43-5.89,0-10.67,4.77-10.67,10.67s4.77,10.67,10.67,10.67,10.67-4.77,10.67-10.67v-27.65h-5.34Z"/><path d="m80.34,33.47h-35.09c-2.01,0-3.64,1.63-3.64,3.65v12.55h42.38v-12.55c0-2.01-1.63-3.65-3.64-3.65Z"/><path d="m41.39,67.86c-1.57-.9-3.38-1.43-5.33-1.43-5.89,0-10.67,4.77-10.67,10.67s4.78,10.67,10.67,10.67,10.67-4.77,10.67-10.67v-27.65h-5.34v18.41Z"/><path d="m78.43,49.45v18.41c-1.57-.9-3.38-1.43-5.32-1.43-5.89,0-10.67,4.77-10.67,10.67s4.78,10.67,10.67,10.67,10.67-4.77,10.67-10.67v-27.65h-5.34Z"/><path d="m80.13,33.26h-35.09c-2.01,0-3.64,1.63-3.64,3.65v12.55h42.38v-12.55c0-2.01-1.63-3.65-3.64-3.65Z"/><path d="m41.18,67.64c-1.57-.9-3.38-1.43-5.33-1.43-5.89,0-10.67,4.77-10.67,10.67s4.78,10.67,10.67,10.67,10.67-4.77,10.67-10.67v-27.64h-5.34v18.41Z"/><path d="m78.21,49.24v18.41c-1.57-.9-3.38-1.43-5.32-1.43-5.89,0-10.67,4.77-10.67,10.67s4.77,10.67,10.67,10.67,10.67-4.77,10.67-10.67v-27.64h-5.34Z"/><path d="m79.92,33.04h-35.1c-2.01,0-3.64,1.63-3.64,3.65v12.55h42.38v-12.55c0-2.01-1.63-3.65-3.64-3.65Z"/><path d="m40.97,67.43c-1.57-.9-3.38-1.43-5.33-1.43-5.89,0-10.67,4.78-10.67,10.67s4.78,10.67,10.67,10.67,10.67-4.78,10.67-10.67v-27.64h-5.34v18.41Z"/><path d="m78,49.03v18.41c-1.57-.9-3.38-1.43-5.32-1.43-5.89,0-10.67,4.78-10.67,10.67s4.77,10.67,10.67,10.67,10.67-4.78,10.67-10.67v-27.64h-5.34Z"/><path d="m79.7,32.83h-35.09c-2.01,0-3.64,1.63-3.64,3.65v12.55h42.38v-12.55c0-2.01-1.63-3.65-3.64-3.65Z"/><path d="m40.76,67.22c-1.57-.9-3.38-1.43-5.33-1.43-5.89,0-10.67,4.77-10.67,10.67s4.78,10.67,10.67,10.67,10.67-4.77,10.67-10.67v-27.65h-5.34v18.41Z"/><path d="m77.79,48.81v18.41c-1.57-.9-3.38-1.43-5.32-1.43-5.89,0-10.67,4.77-10.67,10.67s4.77,10.67,10.67,10.67,10.67-4.77,10.67-10.67v-27.65h-5.34Z"/><path d="m79.49,32.62h-35.1c-2.01,0-3.64,1.63-3.64,3.65v12.55h42.38v-12.55c0-2.01-1.63-3.65-3.64-3.65Z"/><path d="m40.55,67.01c-1.57-.9-3.38-1.43-5.33-1.43-5.89,0-10.67,4.78-10.67,10.67s4.78,10.67,10.67,10.67,10.67-4.77,10.67-10.67v-27.65h-5.34v18.41Z"/><path d="m77.58,48.6v18.41c-1.57-.9-3.38-1.43-5.32-1.43-5.89,0-10.67,4.78-10.67,10.67s4.77,10.67,10.67,10.67,10.67-4.77,10.67-10.67v-27.65h-5.34Z"/><path d="m79.28,32.41h-35.1c-2.01,0-3.64,1.63-3.64,3.65v12.55h42.38v-12.55c0-2.01-1.63-3.65-3.64-3.65Z"/><path d="m40.33,66.8c-1.57-.9-3.38-1.43-5.33-1.43-5.89,0-10.67,4.77-10.67,10.67s4.78,10.67,10.67,10.67,10.67-4.77,10.67-10.67v-27.64h-5.34v18.41Z"/><path d="m77.37,48.39v18.41c-1.57-.9-3.38-1.43-5.32-1.43-5.89,0-10.67,4.77-10.67,10.67s4.77,10.67,10.67,10.67,10.67-4.77,10.67-10.67v-27.64h-5.34Z"/><path d="m79.07,32.2h-35.09c-2.01,0-3.64,1.63-3.64,3.65v12.55h42.38v-12.55c0-2.01-1.63-3.65-3.64-3.65Z"/><path d="m40.12,66.58c-1.57-.9-3.38-1.43-5.33-1.43-5.89,0-10.67,4.77-10.67,10.67s4.78,10.67,10.67,10.67,10.67-4.77,10.67-10.67v-27.65h-5.34v18.41Z"/><path d="m77.16,48.18v18.41c-1.57-.9-3.38-1.43-5.32-1.43-5.89,0-10.67,4.77-10.67,10.67s4.77,10.67,10.67,10.67,10.67-4.77,10.67-10.67v-27.65h-5.34Z"/><path d="m78.86,31.98h-35.09c-2.01,0-3.64,1.63-3.64,3.65v12.55h42.38v-12.55c0-2.01-1.63-3.65-3.64-3.65Z"/><path d="m39.91,66.37c-1.57-.9-3.38-1.43-5.33-1.43-5.89,0-10.67,4.77-10.67,10.67s4.78,10.67,10.67,10.67,10.67-4.77,10.67-10.67v-27.65h-5.34v18.41Z"/><path d="m76.94,47.97v18.41c-1.57-.9-3.38-1.43-5.32-1.43-5.89,0-10.67,4.77-10.67,10.67s4.77,10.67,10.67,10.67,10.67-4.77,10.67-10.67v-27.65h-5.34Z"/><path d="m78.65,31.77h-35.09c-2.01,0-3.64,1.63-3.64,3.65v12.55h42.38v-12.55c0-2.01-1.63-3.65-3.64-3.65Z"/><path d="m39.7,66.16c-1.57-.9-3.38-1.43-5.33-1.43-5.89,0-10.67,4.77-10.67,10.67s4.78,10.67,10.67,10.67,10.67-4.78,10.67-10.67v-27.64h-5.34v18.41Z"/><path d="m76.73,47.75v18.41c-1.57-.9-3.38-1.43-5.32-1.43-5.89,0-10.67,4.77-10.67,10.67s4.77,10.67,10.67,10.67,10.67-4.78,10.67-10.67v-27.64h-5.34Z"/><path d="m78.43,31.56h-35.09c-2.01,0-3.64,1.63-3.64,3.65v12.55h42.38v-12.55c0-2.01-1.63-3.65-3.64-3.65Z"/><path d="m39.49,65.95c-1.57-.9-3.38-1.43-5.33-1.43-5.89,0-10.67,4.77-10.67,10.67s4.78,10.67,10.67,10.67,10.67-4.77,10.67-10.67v-27.65h-5.34v18.41Z"/><path d="m76.52,47.54v18.41c-1.57-.9-3.38-1.43-5.32-1.43-5.89,0-10.67,4.77-10.67,10.67s4.78,10.67,10.67,10.67,10.67-4.77,10.67-10.67v-27.65h-5.34Z"/><path d="m78.22,31.35h-35.09c-2.01,0-3.64,1.63-3.64,3.65v12.55h42.38v-12.55c0-2.01-1.63-3.65-3.64-3.65Z"/><path d="m39.27,65.74c-1.57-.9-3.38-1.43-5.33-1.43-5.89,0-10.67,4.77-10.67,10.67s4.78,10.67,10.67,10.67,10.67-4.77,10.67-10.67v-27.64h-5.34v18.41Z"/><path d="m76.31,47.33v18.41c-1.57-.9-3.38-1.43-5.32-1.43-5.89,0-10.67,4.77-10.67,10.67s4.77,10.67,10.67,10.67,10.67-4.77,10.67-10.67v-27.64h-5.34Z"/><path d="m78.01,31.14h-35.09c-2.01,0-3.64,1.63-3.64,3.65v12.55h42.38v-12.55c0-2.01-1.63-3.65-3.64-3.65Z"/><path d="m39.06,65.53c-1.57-.9-3.38-1.43-5.33-1.43-5.89,0-10.67,4.77-10.67,10.67s4.78,10.67,10.67,10.67,10.67-4.77,10.67-10.67v-27.65h-5.34v18.41Z"/><path d="m76.1,47.12v18.41c-1.57-.9-3.38-1.43-5.32-1.43-5.89,0-10.67,4.77-10.67,10.67s4.77,10.67,10.67,10.67,10.67-4.77,10.67-10.67v-27.65h-5.34Z"/><path d="m77.8,30.93h-35.09c-2.01,0-3.64,1.63-3.64,3.65v12.55h42.38v-12.55c0-2.01-1.63-3.65-3.64-3.65Z"/><path d="m38.85,65.31c-1.57-.9-3.38-1.43-5.33-1.43-5.89,0-10.67,4.77-10.67,10.67s4.78,10.67,10.67,10.67,10.67-4.77,10.67-10.67v-27.65h-5.34v18.41Z"/><path d="m75.88,46.91v18.41c-1.57-.9-3.38-1.43-5.32-1.43-5.89,0-10.67,4.77-10.67,10.67s4.77,10.67,10.67,10.67,10.67-4.77,10.67-10.67v-27.65h-5.34Z"/><path d="m77.59,30.71h-35.1c-2.01,0-3.64,1.63-3.64,3.65v12.55h42.38v-12.55c0-2.01-1.63-3.65-3.64-3.65Z"/><path d="m38.64,65.1c-1.57-.9-3.38-1.43-5.33-1.43-5.89,0-10.67,4.78-10.67,10.67s4.78,10.67,10.67,10.67,10.67-4.78,10.67-10.67v-27.65h-5.34v18.41Z"/><path d="m75.67,46.7v18.41c-1.57-.9-3.38-1.43-5.32-1.43-5.89,0-10.67,4.78-10.67,10.67s4.77,10.67,10.67,10.67,10.67-4.78,10.67-10.67v-27.65h-5.34Z"/><path d="m77.37,30.5h-35.1c-2.01,0-3.64,1.63-3.64,3.65v12.55h42.38v-12.55c0-2.01-1.63-3.65-3.64-3.65Z"/><path d="m38.43,64.89c-1.57-.9-3.38-1.43-5.33-1.43-5.89,0-10.67,4.77-10.67,10.67s4.78,10.67,10.67,10.67,10.67-4.77,10.67-10.67v-27.65h-5.34v18.41Z"/><path d="m75.46,46.48v18.41c-1.57-.9-3.38-1.43-5.32-1.43-5.89,0-10.67,4.77-10.67,10.67s4.77,10.67,10.67,10.67,10.67-4.77,10.67-10.67v-27.65h-5.34Z"/><path d="m77.16,30.29h-35.09c-2.01,0-3.64,1.63-3.64,3.65v12.55h42.38v-12.55c0-2.01-1.63-3.65-3.64-3.65Z"/><path d="m38.21,64.68c-1.57-.9-3.38-1.43-5.33-1.43-5.89,0-10.67,4.77-10.67,10.67s4.78,10.67,10.67,10.67,10.67-4.77,10.67-10.67v-27.64h-5.34v18.41Z"/><path d="m75.25,46.27v18.41c-1.57-.9-3.38-1.43-5.32-1.43-5.89,0-10.67,4.77-10.67,10.67s4.77,10.67,10.67,10.67,10.67-4.77,10.67-10.67v-27.64h-5.34Z"/><path d="m76.95,30.08h-35.09c-2.01,0-3.64,1.63-3.64,3.65v12.55h42.38v-12.55c0-2.01-1.63-3.65-3.64-3.65Z"/><path d="m38,64.47c-1.57-.9-3.38-1.43-5.33-1.43-5.89,0-10.67,4.77-10.67,10.67s4.78,10.67,10.67,10.67,10.67-4.77,10.67-10.67v-27.65h-5.34v18.41Z"/><path d="m75.04,46.06v18.41c-1.57-.9-3.38-1.43-5.32-1.43-5.89,0-10.67,4.77-10.67,10.67s4.77,10.67,10.67,10.67,10.67-4.77,10.67-10.67v-27.65h-5.34Z"/><path d="m76.74,29.87h-35.09c-2.01,0-3.64,1.63-3.64,3.65v12.55h42.38v-12.55c0-2.01-1.63-3.65-3.64-3.65Z"/><path d="m37.79,64.25c-1.57-.9-3.38-1.43-5.33-1.43-5.89,0-10.67,4.77-10.67,10.67s4.78,10.67,10.67,10.67,10.67-4.77,10.67-10.67v-27.65h-5.34v18.41Z"/><path d="m74.82,45.85v18.41c-1.57-.9-3.38-1.43-5.32-1.43-5.89,0-10.67,4.77-10.67,10.67s4.77,10.67,10.67,10.67,10.67-4.77,10.67-10.67v-27.65h-5.34Z"/><path d="m76.53,29.65h-35.09c-2.01,0-3.64,1.63-3.64,3.65v12.55h42.38v-12.55c0-2.01-1.63-3.65-3.64-3.65Z"/><path d="m37.58,64.04c-1.57-.9-3.38-1.43-5.33-1.43-5.89,0-10.67,4.77-10.67,10.67s4.78,10.67,10.67,10.67,10.67-4.78,10.67-10.67v-27.64h-5.34v18.41Z"/><path d="m74.61,45.64v18.41c-1.57-.9-3.38-1.43-5.32-1.43-5.89,0-10.67,4.77-10.67,10.67s4.78,10.67,10.67,10.67,10.67-4.78,10.67-10.67v-27.64h-5.34Z"/><path d="m76.32,29.44h-35.09c-2.01,0-3.64,1.63-3.64,3.65v12.55h42.38v-12.55c0-2.01-1.63-3.65-3.64-3.65Z"/><path d="m37.37,63.83c-1.57-.9-3.38-1.43-5.33-1.43-5.89,0-10.67,4.77-10.67,10.67s4.78,10.67,10.67,10.67,10.67-4.77,10.67-10.67v-27.64h-5.34v18.41Z"/><path d="m74.4,45.42v18.41c-1.57-.9-3.38-1.43-5.32-1.43-5.89,0-10.67,4.77-10.67,10.67s4.77,10.67,10.67,10.67,10.67-4.77,10.67-10.67v-27.64h-5.34Z"/><path d="m76.1,29.23h-35.09c-2.01,0-3.64,1.63-3.64,3.65v12.55h42.38v-12.55c0-2.01-1.63-3.65-3.64-3.65Z"/><path d="m37.16,63.62c-1.57-.9-3.38-1.43-5.33-1.43-5.89,0-10.67,4.77-10.67,10.67s4.78,10.67,10.67,10.67,10.67-4.77,10.67-10.67v-27.65h-5.34v18.41Z"/><path d="m74.19,45.21v18.41c-1.57-.9-3.38-1.43-5.32-1.43-5.89,0-10.67,4.77-10.67,10.67s4.77,10.67,10.67,10.67,10.67-4.77,10.67-10.67v-27.65h-5.34Z"/><path d="m75.89,29.02h-35.1c-2.01,0-3.64,1.63-3.64,3.65v12.55h42.38v-12.55c0-2.01-1.63-3.65-3.64-3.65Z"/><path d="m36.94,63.41c-1.57-.9-3.38-1.43-5.33-1.43-5.89,0-10.67,4.77-10.67,10.67s4.78,10.67,10.67,10.67,10.67-4.77,10.67-10.67v-27.65h-5.34v18.41Z"/><path d="m73.98,45v18.41c-1.57-.9-3.38-1.43-5.32-1.43-5.89,0-10.67,4.77-10.67,10.67s4.77,10.67,10.67,10.67,10.67-4.77,10.67-10.67v-27.65h-5.34Z"/><path d="m75.68,28.81h-35.09c-2.01,0-3.64,1.63-3.64,3.65v12.55h42.38v-12.55c0-2.01-1.63-3.65-3.64-3.65Z"/><path d="m36.73,63.2c-1.57-.9-3.38-1.43-5.33-1.43-5.89,0-10.67,4.78-10.67,10.67s4.78,10.67,10.67,10.67,10.67-4.77,10.67-10.67v-27.65h-5.34v18.41Z"/><path d="m73.77,44.79v18.41c-1.57-.9-3.38-1.43-5.32-1.43-5.89,0-10.67,4.78-10.67,10.67s4.77,10.67,10.67,10.67,10.67-4.77,10.67-10.67v-27.65h-5.34Z"/><path d="m75.47,28.59h-35.09c-2.01,0-3.64,1.63-3.64,3.65v12.55h42.38v-12.55c0-2.01-1.63-3.65-3.64-3.65Z"/><path d="m36.52,62.98c-1.57-.9-3.38-1.43-5.33-1.43-5.89,0-10.67,4.77-10.67,10.67s4.78,10.67,10.67,10.67,10.67-4.77,10.67-10.67v-27.64h-5.34v18.41Z"/><path d="m73.55,44.58v18.41c-1.57-.9-3.38-1.43-5.32-1.43-5.89,0-10.67,4.77-10.67,10.67s4.77,10.67,10.67,10.67,10.67-4.77,10.67-10.67v-27.64h-5.34Z"/><path d="m75.26,28.38h-35.09c-2.01,0-3.64,1.63-3.64,3.65v12.55h42.38v-12.55c0-2.01-1.63-3.65-3.64-3.65Z"/><path d="m36.31,62.77c-1.57-.9-3.38-1.43-5.33-1.43-5.89,0-10.67,4.77-10.67,10.67s4.78,10.67,10.67,10.67,10.67-4.77,10.67-10.67v-27.65h-5.34v18.41Z"/><path d="m73.34,44.36v18.41c-1.57-.9-3.38-1.43-5.32-1.43-5.89,0-10.67,4.77-10.67,10.67s4.77,10.67,10.67,10.67,10.67-4.77,10.67-10.67v-27.65h-5.34Z"/><path d="m75.04,28.17h-35.09c-2.01,0-3.64,1.63-3.64,3.65v12.55h42.38v-12.55c0-2.01-1.63-3.65-3.64-3.65Z"/><path d="m36.1,62.56c-1.57-.9-3.38-1.43-5.33-1.43-5.89,0-10.67,4.77-10.67,10.67s4.78,10.67,10.67,10.67,10.67-4.77,10.67-10.67v-27.64h-5.34v18.41Z"/><path d="m73.13,44.15v18.41c-1.57-.9-3.38-1.43-5.32-1.43-5.89,0-10.67,4.77-10.67,10.67s4.77,10.67,10.67,10.67,10.67-4.77,10.67-10.67v-27.64h-5.34Z"/><path d="m74.83,27.96h-35.09c-2.01,0-3.64,1.63-3.64,3.65v12.55h42.38v-12.55c0-2.01-1.63-3.65-3.64-3.65Z"/><path d="m35.88,62.35c-1.57-.9-3.38-1.43-5.33-1.43-5.89,0-10.67,4.77-10.67,10.67s4.78,10.67,10.67,10.67,10.67-4.77,10.67-10.67v-27.64h-5.34v18.41Z"/><path d="m72.92,43.94v18.41c-1.57-.9-3.38-1.43-5.32-1.43-5.89,0-10.67,4.77-10.67,10.67s4.77,10.67,10.67,10.67,10.67-4.77,10.67-10.67v-27.64h-5.34Z"/><path d="m74.62,27.75h-35.09c-2.01,0-3.64,1.63-3.64,3.65v12.55h42.38v-12.55c0-2.01-1.63-3.65-3.64-3.65Z"/></g><path d="m35.88,62.35c-1.57-.9-3.38-1.43-5.33-1.43-5.89,0-10.67,4.77-10.67,10.67s4.78,10.67,10.67,10.67,10.67-4.77,10.67-10.67v-27.64h-5.34v18.41Z" style="fill:#ffa040;"/><path d="m72.92,43.94v18.41c-1.57-.9-3.38-1.43-5.32-1.43-5.89,0-10.67,4.77-10.67,10.67s4.77,10.67,10.67,10.67,10.67-4.77,10.67-10.67v-27.64h-5.34Z" style="fill:#ffa040;"/><path d="m74.62,27.75h-35.09c-2.01,0-3.64,1.63-3.64,3.65v12.55h42.38v-12.55c0-2.01-1.63-3.65-3.64-3.65Z" style="fill:#ffe240;"/></g></g></svg>